<svg width="401" height="73" viewBox="0 0 401 73" fill="none" xmlns="http://www.w3.org/2000/svg">
<g clip-path="url(#clip0_1562_33232)">
<path d="M0 8C0 3.58172 3.58172 0 8 0H393C397.418 0 401 3.58172 401 8V65C401 69.4183 397.418 73 393 73H8.00001C3.58173 73 0 69.4183 0 65V8Z" fill="#168756" fill-opacity="0.8"/>
<path d="M0 8C0 3.58172 3.58172 0 8 0H393C397.418 0 401 3.58172 401 8V65C401 69.4183 397.418 73 393 73H8.00001C3.58173 73 0 69.4183 0 65V8Z" fill="url(#paint0_linear_1562_33232)" fill-opacity="0.89" style="mix-blend-mode:soft-light"/>
<path d="M0 8C0 3.58172 3.58172 0 8 0H393C397.418 0 401 3.58172 401 8V65C401 69.4183 397.418 73 393 73H8.00001C3.58173 73 0 69.4183 0 65V8Z" fill="url(#paint1_radial_1562_33232)" fill-opacity="0.28" style="mix-blend-mode:plus-darker"/>
<path d="M0 8C0 3.58172 3.58172 0 8 0H393C397.418 0 401 3.58172 401 8V65C401 69.4183 397.418 73 393 73H8.00001C3.58173 73 0 69.4183 0 65V8Z" fill="url(#paint2_radial_1562_33232)" fill-opacity="0.2" style="mix-blend-mode:plus-darker"/>
<g filter="url(#filter0_d_1562_33232)">
<rect x="2.83984" y="3" width="395.285" height="68" rx="6" fill="white" fill-opacity="0.01" shape-rendering="crispEdges"/>
<rect x="3.33984" y="3.5" width="394.285" height="67" rx="5.5" stroke="url(#paint3_linear_1562_33232)" style="mix-blend-mode:lighten" shape-rendering="crispEdges"/>
</g>
<g opacity="0.35" style="mix-blend-mode:plus-darker">
<rect x="396.656" y="69.498" width="392.324" height="65" rx="4.5" transform="rotate(-180 396.656 69.498)" fill="url(#paint4_linear_1562_33232)" fill-opacity="0.12"/>
<rect x="396.656" y="69.498" width="392.324" height="65" rx="4.5" transform="rotate(-180 396.656 69.498)" stroke="url(#paint5_linear_1562_33232)" stroke-linecap="square"/>
</g>
<g opacity="0.3" filter="url(#filter1_f_1562_33232)" style="mix-blend-mode:screen">
<path d="M38.716 4.69739C-5.30209 2.96929 4.24033 18.6796 4.24033 28.8905C4.24033 35.4264 19.5706 36.5001 28.1881 36.4996C134.751 34.6349 201.238 26.8435 328.066 4.69744C250.496 3.44065 72.245 6.0137 38.716 4.69739Z" fill="#20935C"/>
</g>
<g opacity="0.34" filter="url(#filter2_f_1562_33232)" style="mix-blend-mode:plus-lighter">
<path d="M392.125 5.04688C394.334 5.04688 396.125 6.83774 396.125 9.04688V12.5469C396.125 16.689 392.767 20.0469 388.625 20.0469H12.3125C8.17037 20.0469 4.8125 16.689 4.8125 12.5469V9.04688C4.8125 6.83774 6.60336 5.04688 8.8125 5.04688H392.125Z" fill="url(#paint6_linear_1562_33232)" fill-opacity="0.5"/>
</g>
<g filter="url(#filter3_f_1562_33232)" style="mix-blend-mode:plus-lighter">
<path d="M396.125 66.3868V54.8613L394.438 66.3868C393.625 68.9607 390.642 69.0071 389.25 69.2297L358.188 69.998H390.25C395.45 69.998 396.333 67.5905 396.125 66.3868Z" fill="#FDFDFD"/>
</g>
<g opacity="0.6" filter="url(#filter4_f_1562_33232)">
<path d="M3.8125 66.3868V54.8613L5.5 66.3868C6.3125 68.9607 9.2952 69.0071 10.6875 69.2297L41.75 69.998H9.6875C4.4875 69.998 3.60417 67.5905 3.8125 66.3868Z" fill="#BCFCD9"/>
</g>
<g filter="url(#filter5_f_1562_33232)" style="mix-blend-mode:plus-lighter">
<path d="M396.125 8.62542V20.0469L394.438 8.62542C393.625 6.07474 390.642 6.02878 389.25 5.80815L358.188 5.04673H390.25C396.125 5.04673 396.125 6.68507 396.125 8.62542Z" fill="#FDFDFD"/>
</g>
<g filter="url(#filter6_f_1562_33232)">
<path d="M4.8125 8.62542V20.0469L6.5 8.62542C7.3125 6.07474 10.2952 6.02878 11.6875 5.80815L42.75 5.04673H10.6875C4.8125 5.04673 4.8125 6.68507 4.8125 8.62542Z" fill="#BCFCD9"/>
</g>
<g opacity="0.42" filter="url(#filter7_f_1562_33232)" style="mix-blend-mode:screen">
<path d="M353.609 50.0727C366.176 44.5426 377.697 58.6611 381.886 66.4116C381.886 72.9475 373.09 74.5805 368.692 74.58H165.719C205.308 73.3232 337.9 56.9853 353.609 50.0727Z" fill="#169F5D"/>
</g>
<g opacity="0.77" filter="url(#filter8_f_1562_33232)" style="mix-blend-mode:plus-lighter">
<path d="M396.153 61.7002L396.153 9.99219C394.242 18.3039 391.973 22.0481 391.973 32.7664C391.973 43.4848 394.759 60.2739 396.153 61.7002Z" fill="#FDFDFD"/>
</g>
<g opacity="0.25" filter="url(#filter9_f_1562_33232)" style="mix-blend-mode:plus-lighter">
<path d="M5.21411 31.7441L5.21411 5.31131C21.3907 4.00148 24.4059 9.17959 16.7657 17.4799C10.8562 23.8999 9.06465 31.041 5.21411 31.7441Z" fill="#FDFDFD"/>
</g>
</g>
<path d="M8 0.5H393C397.142 0.5 400.5 3.85786 400.5 8V65C400.5 69.1421 397.142 72.5 393 72.5H8C3.85787 72.5 0.5 69.1421 0.5 65V8C0.5 3.85786 3.85786 0.5 8 0.5Z" stroke="white" stroke-opacity="0.3"/>
<path d="M8 0.5H393C397.142 0.5 400.5 3.85786 400.5 8V65C400.5 69.1421 397.142 72.5 393 72.5H8C3.85787 72.5 0.5 69.1421 0.5 65V8C0.5 3.85786 3.85786 0.5 8 0.5Z" stroke="url(#paint7_linear_1562_33232)" stroke-opacity="0.2" style="mix-blend-mode:plus-lighter"/>
<defs>
<filter id="filter0_d_1562_33232" x="-1.16016" y="-1" width="403.285" height="76" filterUnits="userSpaceOnUse" color-interpolation-filters="sRGB">
<feFlood flood-opacity="0" result="BackgroundImageFix"/>
<feColorMatrix in="SourceAlpha" type="matrix" values="0 0 0 0 0 0 0 0 0 0 0 0 0 0 0 0 0 0 127 0" result="hardAlpha"/>
<feOffset/>
<feGaussianBlur stdDeviation="2"/>
<feComposite in2="hardAlpha" operator="out"/>
<feColorMatrix type="matrix" values="0 0 0 0 0 0 0 0 0 0 0 0 0 0 0 0 0 0 0.47 0"/>
<feBlend mode="normal" in2="BackgroundImageFix" result="effect1_dropShadow_1562_33232"/>
<feBlend mode="normal" in="SourceGraphic" in2="effect1_dropShadow_1562_33232" result="shape"/>
</filter>
<filter id="filter1_f_1562_33232" x="-8.03281" y="-7.05918" width="347.499" height="54.9592" filterUnits="userSpaceOnUse" color-interpolation-filters="sRGB">
<feFlood flood-opacity="0" result="BackgroundImageFix"/>
<feBlend mode="normal" in="SourceGraphic" in2="BackgroundImageFix" result="shape"/>
<feGaussianBlur stdDeviation="5.7" result="effect1_foregroundBlur_1562_33232"/>
</filter>
<filter id="filter2_f_1562_33232" x="2.9125" y="3.14688" width="395.112" height="18.8" filterUnits="userSpaceOnUse" color-interpolation-filters="sRGB">
<feFlood flood-opacity="0" result="BackgroundImageFix"/>
<feBlend mode="normal" in="SourceGraphic" in2="BackgroundImageFix" result="shape"/>
<feGaussianBlur stdDeviation="0.95" result="effect1_foregroundBlur_1562_33232"/>
</filter>
<filter id="filter3_f_1562_33232" x="353.188" y="49.8613" width="47.9648" height="25.1367" filterUnits="userSpaceOnUse" color-interpolation-filters="sRGB">
<feFlood flood-opacity="0" result="BackgroundImageFix"/>
<feBlend mode="normal" in="SourceGraphic" in2="BackgroundImageFix" result="shape"/>
<feGaussianBlur stdDeviation="2.5" result="effect1_foregroundBlur_1562_33232"/>
</filter>
<filter id="filter4_f_1562_33232" x="2.78516" y="53.8613" width="39.9648" height="17.1367" filterUnits="userSpaceOnUse" color-interpolation-filters="sRGB">
<feFlood flood-opacity="0" result="BackgroundImageFix"/>
<feBlend mode="normal" in="SourceGraphic" in2="BackgroundImageFix" result="shape"/>
<feGaussianBlur stdDeviation="0.5" result="effect1_foregroundBlur_1562_33232"/>
</filter>
<filter id="filter5_f_1562_33232" x="353.188" y="0.046875" width="47.9375" height="25" filterUnits="userSpaceOnUse" color-interpolation-filters="sRGB">
<feFlood flood-opacity="0" result="BackgroundImageFix"/>
<feBlend mode="normal" in="SourceGraphic" in2="BackgroundImageFix" result="shape"/>
<feGaussianBlur stdDeviation="2.5" result="effect1_foregroundBlur_1562_33232"/>
</filter>
<filter id="filter6_f_1562_33232" x="3.8125" y="4.04688" width="39.9375" height="17" filterUnits="userSpaceOnUse" color-interpolation-filters="sRGB">
<feFlood flood-opacity="0" result="BackgroundImageFix"/>
<feBlend mode="normal" in="SourceGraphic" in2="BackgroundImageFix" result="shape"/>
<feGaussianBlur stdDeviation="0.5" result="effect1_foregroundBlur_1562_33232"/>
</filter>
<filter id="filter7_f_1562_33232" x="154.319" y="37.4203" width="238.968" height="48.5598" filterUnits="userSpaceOnUse" color-interpolation-filters="sRGB">
<feFlood flood-opacity="0" result="BackgroundImageFix"/>
<feBlend mode="normal" in="SourceGraphic" in2="BackgroundImageFix" result="shape"/>
<feGaussianBlur stdDeviation="5.7" result="effect1_foregroundBlur_1562_33232"/>
</filter>
<filter id="filter8_f_1562_33232" x="386.973" y="4.99219" width="14.1797" height="61.708" filterUnits="userSpaceOnUse" color-interpolation-filters="sRGB">
<feFlood flood-opacity="0" result="BackgroundImageFix"/>
<feBlend mode="normal" in="SourceGraphic" in2="BackgroundImageFix" result="shape"/>
<feGaussianBlur stdDeviation="2.5" result="effect1_foregroundBlur_1562_33232"/>
</filter>
<filter id="filter9_f_1562_33232" x="0.214844" y="0.109375" width="25.5508" height="36.6348" filterUnits="userSpaceOnUse" color-interpolation-filters="sRGB">
<feFlood flood-opacity="0" result="BackgroundImageFix"/>
<feBlend mode="normal" in="SourceGraphic" in2="BackgroundImageFix" result="shape"/>
<feGaussianBlur stdDeviation="2.5" result="effect1_foregroundBlur_1562_33232"/>
</filter>
<linearGradient id="paint0_linear_1562_33232" x1="86.5624" y1="1.51774e-07" x2="98.4362" y2="73.3855" gradientUnits="userSpaceOnUse">
<stop stop-color="white"/>
<stop offset="1" stop-color="white" stop-opacity="0"/>
</linearGradient>
<radialGradient id="paint1_radial_1562_33232" cx="0" cy="0" r="1" gradientTransform="matrix(396.502 -37.6475 -6.00344 -81.8514 9.3294 65.9693)" gradientUnits="userSpaceOnUse">
<stop/>
<stop offset="1" stop-color="white" stop-opacity="0"/>
</radialGradient>
<radialGradient id="paint2_radial_1562_33232" cx="0" cy="0" r="1" gradientTransform="matrix(-392.231 44.6781 5.79624 65.8735 401 28.3219)" gradientUnits="userSpaceOnUse">
<stop/>
<stop offset="1" stop-color="white" stop-opacity="0"/>
</radialGradient>
<linearGradient id="paint3_linear_1562_33232" x1="42.4613" y1="0.861328" x2="42.172" y2="70.9988" gradientUnits="userSpaceOnUse">
<stop stop-color="white" stop-opacity="0.51"/>
<stop offset="1" stop-color="white" stop-opacity="0"/>
</linearGradient>
<linearGradient id="paint4_linear_1562_33232" x1="397.156" y1="102.998" x2="790.48" y2="102.998" gradientUnits="userSpaceOnUse">
<stop offset="0.302923" stop-color="#105534" stop-opacity="0"/>
<stop offset="1" stop-color="#105534"/>
</linearGradient>
<linearGradient id="paint5_linear_1562_33232" x1="593.818" y1="66.3847" x2="593.819" y2="135.998" gradientUnits="userSpaceOnUse">
<stop offset="0.0287301" stop-color="#B1E0C9"/>
<stop offset="1" stop-color="#67C09C"/>
</linearGradient>
<linearGradient id="paint6_linear_1562_33232" x1="13.3892" y1="5.24025" x2="13.3892" y2="20.2403" gradientUnits="userSpaceOnUse">
<stop stop-color="white"/>
<stop offset="1" stop-color="white" stop-opacity="0.5"/>
</linearGradient>
<linearGradient id="paint7_linear_1562_33232" x1="-1.27578" y1="69.0136" x2="17.4938" y2="62.5176" gradientUnits="userSpaceOnUse">
<stop stop-color="white"/>
<stop offset="1" stop-color="white" stop-opacity="0"/>
</linearGradient>
<clipPath id="clip0_1562_33232">
<path d="M0 8C0 3.58172 3.58172 0 8 0H393C397.418 0 401 3.58172 401 8V65C401 69.4183 397.418 73 393 73H8.00001C3.58173 73 0 69.4183 0 65V8Z" fill="white"/>
</clipPath>
</defs>
</svg>
