<svg width="408" height="80" viewBox="0 0 408 80" fill="none" xmlns="http://www.w3.org/2000/svg">
<g filter="url(#filter0_d_1562_32646)">
<g clip-path="url(#clip0_1562_32646)">
<path d="M3.30078 10.2998C3.30078 5.88153 6.8825 2.2998 11.3008 2.2998H396.301C400.719 2.2998 404.301 5.88153 404.301 10.2998V67.2998C404.301 71.7181 400.719 75.2998 396.301 75.2998H11.3008C6.88251 75.2998 3.30078 71.7181 3.30078 67.2998V10.2998Z" fill="#168756" fill-opacity="0.8" shape-rendering="crispEdges"/>
<path d="M3.30078 10.2998C3.30078 5.88153 6.8825 2.2998 11.3008 2.2998H396.301C400.719 2.2998 404.301 5.88153 404.301 10.2998V67.2998C404.301 71.7181 400.719 75.2998 396.301 75.2998H11.3008C6.88251 75.2998 3.30078 71.7181 3.30078 67.2998V10.2998Z" fill="url(#paint0_linear_1562_32646)" fill-opacity="0.89" style="mix-blend-mode:soft-light" shape-rendering="crispEdges"/>
<path d="M3.30078 10.2998C3.30078 5.88153 6.8825 2.2998 11.3008 2.2998H396.301C400.719 2.2998 404.301 5.88153 404.301 10.2998V67.2998C404.301 71.7181 400.719 75.2998 396.301 75.2998H11.3008C6.88251 75.2998 3.30078 71.7181 3.30078 67.2998V10.2998Z" fill="url(#paint1_radial_1562_32646)" fill-opacity="0.28" style="mix-blend-mode:plus-darker" shape-rendering="crispEdges"/>
<path d="M3.30078 10.2998C3.30078 5.88153 6.8825 2.2998 11.3008 2.2998H396.301C400.719 2.2998 404.301 5.88153 404.301 10.2998V67.2998C404.301 71.7181 400.719 75.2998 396.301 75.2998H11.3008C6.88251 75.2998 3.30078 71.7181 3.30078 67.2998V10.2998Z" fill="url(#paint2_radial_1562_32646)" fill-opacity="0.2" style="mix-blend-mode:plus-darker" shape-rendering="crispEdges"/>
<g filter="url(#filter1_d_1562_32646)">
<rect x="6.14062" y="5.2998" width="395.285" height="68" rx="6" fill="white" fill-opacity="0.01" shape-rendering="crispEdges"/>
<rect x="6.64062" y="5.7998" width="394.285" height="67" rx="5.5" stroke="url(#paint3_linear_1562_32646)" style="mix-blend-mode:lighten" shape-rendering="crispEdges"/>
</g>
<g opacity="0.35" style="mix-blend-mode:plus-darker">
<rect x="399.957" y="71.7979" width="392.324" height="65" rx="4.5" transform="rotate(-180 399.957 71.7979)" fill="url(#paint4_linear_1562_32646)" fill-opacity="0.12"/>
<rect x="399.957" y="71.7979" width="392.324" height="65" rx="4.5" transform="rotate(-180 399.957 71.7979)" stroke="url(#paint5_linear_1562_32646)" stroke-linecap="square"/>
</g>
<g opacity="0.3" filter="url(#filter2_f_1562_32646)" style="mix-blend-mode:screen">
<path d="M42.0168 6.9972C-2.00131 5.26909 7.54111 20.9794 7.54111 31.1903C7.54111 37.7262 22.8714 38.7999 31.4889 38.7994C138.051 36.9347 204.539 29.1433 331.367 6.99725C253.797 5.74045 75.5458 8.31351 42.0168 6.9972Z" fill="#20935C"/>
</g>
<g opacity="0.34" filter="url(#filter3_f_1562_32646)" style="mix-blend-mode:plus-lighter">
<path d="M395.426 7.34668C397.635 7.34668 399.426 9.13754 399.426 11.3467V14.8467C399.426 18.9888 396.068 22.3467 391.926 22.3467H15.6133C11.4711 22.3467 8.11328 18.9888 8.11328 14.8467V11.3467C8.11328 9.13754 9.90414 7.34668 12.1133 7.34668H395.426Z" fill="url(#paint6_linear_1562_32646)" fill-opacity="0.5"/>
</g>
<g filter="url(#filter4_f_1562_32646)" style="mix-blend-mode:plus-lighter">
<path d="M399.426 68.6866V57.1611L397.738 68.6866C396.926 71.2605 393.943 71.3069 392.551 71.5295L361.488 72.2979H393.551C398.751 72.2979 399.634 69.8903 399.426 68.6866Z" fill="#FDFDFD"/>
</g>
<g opacity="0.6" filter="url(#filter5_f_1562_32646)">
<path d="M7.11328 68.6866V57.1611L8.80078 68.6866C9.61328 71.2605 12.596 71.3069 13.9883 71.5295L45.0508 72.2979H12.9883C7.78828 72.2979 6.90495 69.8903 7.11328 68.6866Z" fill="#BCFCD9"/>
</g>
<g filter="url(#filter6_f_1562_32646)" style="mix-blend-mode:plus-lighter">
<path d="M399.426 10.9252V22.3467L397.738 10.9252C396.926 8.37454 393.943 8.32858 392.551 8.10795L361.488 7.34653H393.551C399.426 7.34653 399.426 8.98487 399.426 10.9252Z" fill="#FDFDFD"/>
</g>
<g filter="url(#filter7_f_1562_32646)">
<path d="M8.11328 10.9252V22.3467L9.80078 10.9252C10.6133 8.37454 13.596 8.32858 14.9883 8.10796L46.0508 7.34653H13.9883C8.11328 7.34653 8.11328 8.98487 8.11328 10.9252Z" fill="#BCFCD9"/>
</g>
<g opacity="0.42" filter="url(#filter8_f_1562_32646)" style="mix-blend-mode:screen">
<path d="M356.91 52.3725C369.477 46.8424 380.997 60.9609 385.187 68.7114C385.187 75.2473 376.391 76.8803 371.993 76.8798H169.02C208.609 75.623 341.201 59.2851 356.91 52.3725Z" fill="#169F5D"/>
</g>
<g opacity="0.25" filter="url(#filter9_f_1562_32646)" style="mix-blend-mode:plus-lighter">
<path d="M8.51489 33.9814L8.51489 7.54861C24.6915 6.23879 27.7067 11.4169 20.0665 19.7172C14.157 26.1372 12.3654 33.2783 8.51489 33.9814Z" fill="#FDFDFD"/>
</g>
<g opacity="0.77" filter="url(#filter10_f_1562_32646)" style="mix-blend-mode:plus-lighter">
<path d="M399.454 64L399.454 12.292C397.543 20.6037 395.273 24.3479 395.273 35.0662C395.273 45.7846 398.06 62.5737 399.454 64Z" fill="#FDFDFD"/>
</g>
</g>
<path d="M11.3008 2.7998H396.301C400.443 2.7998 403.801 6.15767 403.801 10.2998V67.2998C403.801 71.4419 400.443 74.7998 396.301 74.7998H11.3008C7.15865 74.7998 3.80078 71.4419 3.80078 67.2998V10.2998C3.80078 6.15767 7.15865 2.7998 11.3008 2.7998Z" stroke="white" stroke-opacity="0.3" shape-rendering="crispEdges"/>
<path d="M11.3008 2.7998H396.301C400.443 2.7998 403.801 6.15767 403.801 10.2998V67.2998C403.801 71.4419 400.443 74.7998 396.301 74.7998H11.3008C7.15865 74.7998 3.80078 71.4419 3.80078 67.2998V10.2998C3.80078 6.15767 7.15865 2.7998 11.3008 2.7998Z" stroke="url(#paint7_linear_1562_32646)" stroke-opacity="0.2" style="mix-blend-mode:plus-lighter" shape-rendering="crispEdges"/>
</g>
<defs>
<filter id="filter0_d_1562_32646" x="0.000781298" y="-0.000195265" width="407.6" height="79.6" filterUnits="userSpaceOnUse" color-interpolation-filters="sRGB">
<feFlood flood-opacity="0" result="BackgroundImageFix"/>
<feColorMatrix in="SourceAlpha" type="matrix" values="0 0 0 0 0 0 0 0 0 0 0 0 0 0 0 0 0 0 127 0" result="hardAlpha"/>
<feOffset dy="1"/>
<feGaussianBlur stdDeviation="1.65"/>
<feComposite in2="hardAlpha" operator="out"/>
<feColorMatrix type="matrix" values="0 0 0 0 0 0 0 0 0 0 0 0 0 0 0 0 0 0 0.2 0"/>
<feBlend mode="plus-darker" in2="BackgroundImageFix" result="effect1_dropShadow_1562_32646"/>
<feBlend mode="normal" in="SourceGraphic" in2="effect1_dropShadow_1562_32646" result="shape"/>
</filter>
<filter id="filter1_d_1562_32646" x="2.14062" y="1.2998" width="403.285" height="76" filterUnits="userSpaceOnUse" color-interpolation-filters="sRGB">
<feFlood flood-opacity="0" result="BackgroundImageFix"/>
<feColorMatrix in="SourceAlpha" type="matrix" values="0 0 0 0 0 0 0 0 0 0 0 0 0 0 0 0 0 0 127 0" result="hardAlpha"/>
<feOffset/>
<feGaussianBlur stdDeviation="2"/>
<feComposite in2="hardAlpha" operator="out"/>
<feColorMatrix type="matrix" values="0 0 0 0 0 0 0 0 0 0 0 0 0 0 0 0 0 0 0.47 0"/>
<feBlend mode="normal" in2="BackgroundImageFix" result="effect1_dropShadow_1562_32646"/>
<feBlend mode="normal" in="SourceGraphic" in2="effect1_dropShadow_1562_32646" result="shape"/>
</filter>
<filter id="filter2_f_1562_32646" x="-4.73203" y="-4.75937" width="347.499" height="54.9592" filterUnits="userSpaceOnUse" color-interpolation-filters="sRGB">
<feFlood flood-opacity="0" result="BackgroundImageFix"/>
<feBlend mode="normal" in="SourceGraphic" in2="BackgroundImageFix" result="shape"/>
<feGaussianBlur stdDeviation="5.7" result="effect1_foregroundBlur_1562_32646"/>
</filter>
<filter id="filter3_f_1562_32646" x="6.21328" y="5.44668" width="395.112" height="18.8" filterUnits="userSpaceOnUse" color-interpolation-filters="sRGB">
<feFlood flood-opacity="0" result="BackgroundImageFix"/>
<feBlend mode="normal" in="SourceGraphic" in2="BackgroundImageFix" result="shape"/>
<feGaussianBlur stdDeviation="0.95" result="effect1_foregroundBlur_1562_32646"/>
</filter>
<filter id="filter4_f_1562_32646" x="356.488" y="52.1611" width="47.9648" height="25.1367" filterUnits="userSpaceOnUse" color-interpolation-filters="sRGB">
<feFlood flood-opacity="0" result="BackgroundImageFix"/>
<feBlend mode="normal" in="SourceGraphic" in2="BackgroundImageFix" result="shape"/>
<feGaussianBlur stdDeviation="2.5" result="effect1_foregroundBlur_1562_32646"/>
</filter>
<filter id="filter5_f_1562_32646" x="6.08594" y="56.1611" width="39.9648" height="17.1367" filterUnits="userSpaceOnUse" color-interpolation-filters="sRGB">
<feFlood flood-opacity="0" result="BackgroundImageFix"/>
<feBlend mode="normal" in="SourceGraphic" in2="BackgroundImageFix" result="shape"/>
<feGaussianBlur stdDeviation="0.5" result="effect1_foregroundBlur_1562_32646"/>
</filter>
<filter id="filter6_f_1562_32646" x="356.488" y="2.34668" width="47.9375" height="25" filterUnits="userSpaceOnUse" color-interpolation-filters="sRGB">
<feFlood flood-opacity="0" result="BackgroundImageFix"/>
<feBlend mode="normal" in="SourceGraphic" in2="BackgroundImageFix" result="shape"/>
<feGaussianBlur stdDeviation="2.5" result="effect1_foregroundBlur_1562_32646"/>
</filter>
<filter id="filter7_f_1562_32646" x="7.11328" y="6.34668" width="39.9375" height="17" filterUnits="userSpaceOnUse" color-interpolation-filters="sRGB">
<feFlood flood-opacity="0" result="BackgroundImageFix"/>
<feBlend mode="normal" in="SourceGraphic" in2="BackgroundImageFix" result="shape"/>
<feGaussianBlur stdDeviation="0.5" result="effect1_foregroundBlur_1562_32646"/>
</filter>
<filter id="filter8_f_1562_32646" x="157.62" y="39.7201" width="238.968" height="48.5598" filterUnits="userSpaceOnUse" color-interpolation-filters="sRGB">
<feFlood flood-opacity="0" result="BackgroundImageFix"/>
<feBlend mode="normal" in="SourceGraphic" in2="BackgroundImageFix" result="shape"/>
<feGaussianBlur stdDeviation="5.7" result="effect1_foregroundBlur_1562_32646"/>
</filter>
<filter id="filter9_f_1562_32646" x="3.51562" y="2.34668" width="25.5508" height="36.6348" filterUnits="userSpaceOnUse" color-interpolation-filters="sRGB">
<feFlood flood-opacity="0" result="BackgroundImageFix"/>
<feBlend mode="normal" in="SourceGraphic" in2="BackgroundImageFix" result="shape"/>
<feGaussianBlur stdDeviation="2.5" result="effect1_foregroundBlur_1562_32646"/>
</filter>
<filter id="filter10_f_1562_32646" x="390.273" y="7.29199" width="14.1797" height="61.708" filterUnits="userSpaceOnUse" color-interpolation-filters="sRGB">
<feFlood flood-opacity="0" result="BackgroundImageFix"/>
<feBlend mode="normal" in="SourceGraphic" in2="BackgroundImageFix" result="shape"/>
<feGaussianBlur stdDeviation="2.5" result="effect1_foregroundBlur_1562_32646"/>
</filter>
<linearGradient id="paint0_linear_1562_32646" x1="89.8632" y1="2.2998" x2="101.737" y2="75.6853" gradientUnits="userSpaceOnUse">
<stop stop-color="white"/>
<stop offset="1" stop-color="white" stop-opacity="0"/>
</linearGradient>
<radialGradient id="paint1_radial_1562_32646" cx="0" cy="0" r="1" gradientTransform="matrix(396.502 -37.6475 -6.00344 -81.8514 12.6302 68.2692)" gradientUnits="userSpaceOnUse">
<stop/>
<stop offset="1" stop-color="white" stop-opacity="0"/>
</radialGradient>
<radialGradient id="paint2_radial_1562_32646" cx="0" cy="0" r="1" gradientTransform="matrix(-392.231 44.6781 5.79624 65.8735 404.301 30.6217)" gradientUnits="userSpaceOnUse">
<stop/>
<stop offset="1" stop-color="white" stop-opacity="0"/>
</radialGradient>
<linearGradient id="paint3_linear_1562_32646" x1="45.7621" y1="3.16113" x2="45.4728" y2="73.2986" gradientUnits="userSpaceOnUse">
<stop stop-color="white" stop-opacity="0.51"/>
<stop offset="1" stop-color="white" stop-opacity="0"/>
</linearGradient>
<linearGradient id="paint4_linear_1562_32646" x1="400.457" y1="105.298" x2="793.781" y2="105.298" gradientUnits="userSpaceOnUse">
<stop offset="0.302923" stop-color="#105534" stop-opacity="0"/>
<stop offset="1" stop-color="#105534"/>
</linearGradient>
<linearGradient id="paint5_linear_1562_32646" x1="597.119" y1="68.6846" x2="597.12" y2="138.298" gradientUnits="userSpaceOnUse">
<stop offset="0.0287301" stop-color="#B1E0C9"/>
<stop offset="1" stop-color="#67C09C"/>
</linearGradient>
<linearGradient id="paint6_linear_1562_32646" x1="16.69" y1="7.54006" x2="16.69" y2="22.5401" gradientUnits="userSpaceOnUse">
<stop stop-color="white"/>
<stop offset="1" stop-color="white" stop-opacity="0.5"/>
</linearGradient>
<linearGradient id="paint7_linear_1562_32646" x1="2.025" y1="71.3134" x2="20.7945" y2="64.8174" gradientUnits="userSpaceOnUse">
<stop stop-color="white"/>
<stop offset="1" stop-color="white" stop-opacity="0"/>
</linearGradient>
<clipPath id="clip0_1562_32646">
<path d="M3.30078 10.2998C3.30078 5.88153 6.8825 2.2998 11.3008 2.2998H396.301C400.719 2.2998 404.301 5.88153 404.301 10.2998V67.2998C404.301 71.7181 400.719 75.2998 396.301 75.2998H11.3008C6.88251 75.2998 3.30078 71.7181 3.30078 67.2998V10.2998Z" fill="white"/>
</clipPath>
</defs>
</svg>
