<svg width="783" height="1080" viewBox="0 0 783 1080" fill="none" xmlns="http://www.w3.org/2000/svg">
<foreignObject x="-32.1875" y="-19.7246" width="815.188" height="1119.45"><div xmlns="http://www.w3.org/1999/xhtml" style="backdrop-filter:blur(4px);clip-path:url(#bgblur_0_1481_32926_clip_path);height:100%;width:100%"></div></foreignObject><g data-figma-bg-blur-radius="8">
<path d="M782.5 -19.2246V1099.22H-31.6875V-19.2246H782.5Z" fill="url(#paint0_linear_1481_32926)" fill-opacity="0.23" style="mix-blend-mode:screen"/>
<path d="M782.5 -19.2246V1099.22H-31.6875V-19.2246H782.5Z" fill="url(#paint1_radial_1481_32926)" fill-opacity="0.5" style="mix-blend-mode:plus-lighter"/>
<path d="M782.5 -19.2246V1099.22H-31.6875V-19.2246H782.5Z" fill="url(#paint2_linear_1481_32926)" fill-opacity="0.15" style="mix-blend-mode:plus-lighter"/>
<path d="M782.5 -19.2246V1099.22H-31.6875V-19.2246H782.5Z" fill="url(#paint3_linear_1481_32926)" fill-opacity="0.7" style="mix-blend-mode:overlay"/>
<path d="M782.5 -19.2246V1099.22H-31.6875V-19.2246H782.5Z" stroke="url(#paint4_linear_1481_32926)"/>
</g>
<defs>
<clipPath id="bgblur_0_1481_32926_clip_path" transform="translate(32.1875 19.7246)"><path d="M782.5 -19.2246V1099.22H-31.6875V-19.2246H782.5Z"/>
</clipPath><linearGradient id="paint0_linear_1481_32926" x1="375.406" y1="-19.7246" x2="375.406" y2="775.802" gradientUnits="userSpaceOnUse">
<stop stop-color="white" stop-opacity="0"/>
<stop offset="1" stop-color="white"/>
</linearGradient>
<radialGradient id="paint1_radial_1481_32926" cx="0" cy="0" r="1" gradientTransform="matrix(722.069 -1044.82 1723 1117.08 -73.3848 1127.2)" gradientUnits="userSpaceOnUse">
<stop stop-color="white"/>
<stop offset="1" stop-color="white" stop-opacity="0"/>
</radialGradient>
<linearGradient id="paint2_linear_1481_32926" x1="375.406" y1="16.2563" x2="375.406" y2="836.96" gradientUnits="userSpaceOnUse">
<stop offset="0.00338114" stop-color="white" stop-opacity="0"/>
<stop offset="1" stop-color="white" stop-opacity="0.73"/>
</linearGradient>
<linearGradient id="paint3_linear_1481_32926" x1="375.406" y1="-19.7246" x2="375.406" y2="1099.72" gradientUnits="userSpaceOnUse">
<stop stop-color="white" stop-opacity="0"/>
<stop offset="1"/>
</linearGradient>
<linearGradient id="paint4_linear_1481_32926" x1="375.406" y1="-19.7246" x2="375.406" y2="1099.72" gradientUnits="userSpaceOnUse">
<stop stop-color="#FEFCFC" stop-opacity="0.16"/>
<stop offset="1" stop-color="#FEFCFC" stop-opacity="0.24"/>
</linearGradient>
</defs>
</svg>
