<svg width="16" height="16" viewBox="0 0 16 16" fill="none" xmlns="http://www.w3.org/2000/svg">
<g opacity="0.6" clip-path="url(#clip0_1745_36192)">
<path d="M15.6667 6.99967V15.333L12.6333 13.333H6.66667C5.74667 13.333 5 12.5863 5 11.6663V10.6663H9.33333C10.8033 10.6663 12 9.46967 12 7.99967V5.33301H14C14.92 5.33301 15.6667 6.07967 15.6667 6.99967Z" fill="white"/>
<path d="M14 4.83301C15.1961 4.83301 16.167 5.80386 16.167 7V16.2617L15.3916 15.75L12.4844 13.833H6.66699C5.47085 13.833 4.5 12.8622 4.5 11.666V10.166H9.33301C10.5268 10.166 11.4998 9.19371 11.5 8V4.83301H14Z" stroke="black" stroke-opacity="0.3"/>
<path d="M11.0026 2V8C11.0026 8.92033 10.2563 9.66667 9.33594 9.66667H3.36927L0.335938 11.6667V3.66667C0.335938 2.74633 1.08227 2 2.0026 2H11.0026ZM9.0026 4H3.66927C3.11694 4 2.66927 4.44767 2.66927 5V5.33333H8.0026C8.55494 5.33333 9.0026 4.88567 9.0026 4.33333V4ZM7.0026 6.66667V6.33333H3.66927C3.11694 6.33333 2.66927 6.781 2.66927 7.33333V7.66667H6.0026C6.55494 7.66667 7.0026 7.219 7.0026 6.66667Z" fill="white"/>
<path d="M11.5029 1.5V8C11.5029 9.19648 10.5324 10.167 9.33594 10.167H3.51855L0.611328 12.084L-0.164062 12.5957V3.66699C-0.164062 2.47052 0.806454 1.5 2.00293 1.5H11.5029ZM3.66895 6.83301C3.45152 6.83315 3.26892 6.97313 3.2002 7.16699H6.00293C6.22035 7.16685 6.40295 7.02687 6.47168 6.83301H3.66895ZM3.66895 4.5C3.45174 4.50014 3.26909 4.63945 3.2002 4.83301H8.00293C8.22024 4.83287 8.40287 4.69371 8.47168 4.5H3.66895Z" stroke="black" stroke-opacity="0.3"/>
</g>
<defs>
<clipPath id="clip0_1745_36192">
<rect width="16" height="16" fill="white"/>
</clipPath>
</defs>
</svg>
