<svg width="15" height="12" viewBox="0 0 15 12" fill="none" xmlns="http://www.w3.org/2000/svg">
<path d="M0.926506 0H3.37058C3.58733 0 3.79721 0.0759885 3.96372 0.214744L4.76629 0.883557C4.79959 0.911308 4.84157 0.926506 4.88492 0.926506H12.4152C12.9269 0.926506 13.3417 1.34132 13.3417 1.85301V3.52072C13.3417 3.62306 13.4246 3.70602 13.527 3.70602H14.2682C14.6724 3.70602 15 4.03367 15 4.43783C15 4.49492 14.9933 4.5518 14.9801 4.60733L13.5112 10.7768C13.4118 11.1941 13.0389 11.4887 12.6099 11.4887H0.926506C0.414811 11.4887 0 11.0739 0 10.5622V0.926506C0 0.414811 0.414811 0 0.926506 0ZM13.9674 4.86075C13.9707 4.84669 13.9724 4.83229 13.9724 4.81783C13.9724 4.71549 13.8894 4.63253 13.7871 4.63253L3.27603 4.63276C3.10859 4.63277 2.96196 4.74504 2.91827 4.90667L1.45291 10.3285C1.44865 10.3443 1.44649 10.3605 1.44649 10.3769C1.44649 10.4792 1.52945 10.5622 1.63179 10.5622H12.4635C12.5493 10.5622 12.6239 10.5033 12.6438 10.4198L13.9674 4.86075ZM1.11181 0.926506C1.00947 0.926506 0.92651 1.00947 0.926506 1.11181L0.926183 8.29099C0.926181 8.32448 0.948636 8.35381 0.980965 8.36255C1.02048 8.37323 1.06118 8.34985 1.07186 8.31033L2.13119 4.3908C2.24041 3.9867 2.60701 3.70602 3.02561 3.70602H12.2299C12.3322 3.70602 12.4152 3.62306 12.4152 3.52072V2.03831C12.4152 1.93597 12.3322 1.85301 12.2299 1.85301H4.81783C4.60109 1.85301 4.3912 1.77702 4.2247 1.63827L3.42212 0.969455C3.38882 0.941704 3.34684 0.926506 3.30349 0.926506H1.11181Z" fill="white"/>
</svg>
