<svg width="16" height="16" viewBox="0 0 16 16" fill="none" xmlns="http://www.w3.org/2000/svg">
<g opacity="0.5" clip-path="url(#clip0_1837_34439)">
<path d="M8.08594 6.10156C6.99218 6.10166 6.10171 6.99219 6.10156 8.08594C6.10156 9.17981 6.99209 10.0702 8.08594 10.0703C9.17987 10.0703 10.0703 9.17987 10.0703 8.08594C10.0702 6.99212 9.17978 6.10156 8.08594 6.10156ZM15.3252 8.75488C15.3252 9.42472 14.8435 9.99217 14.1846 10.1025H14.1836L13.6172 10.1963C13.578 10.2989 13.5359 10.4001 13.4912 10.5L13.8252 10.9668C14.2139 11.511 14.1526 12.2527 13.6787 12.7266L12.7295 13.6768C12.2556 14.1505 11.5139 14.2109 10.9697 13.8223L10.5029 13.4893C10.4028 13.534 10.301 13.5751 10.1982 13.6143L10.1055 14.1807V14.1816C9.99522 14.8407 9.42773 15.3223 8.75781 15.3223H7.41602C6.74608 15.3223 6.17862 14.8407 6.06836 14.1816V14.1807L5.97363 13.6152C5.84462 13.5662 5.71726 13.5124 5.5918 13.4541L5.14941 13.7705C4.60603 14.1585 3.86216 14.1 3.38867 13.624V13.623L2.44141 12.6748C1.97024 12.2031 1.90668 11.4619 2.2959 10.917H2.29688L2.64941 10.4229C2.61756 10.3487 2.58741 10.2738 2.55859 10.1982L1.99121 10.1055C1.33214 9.99522 0.849609 9.42773 0.849609 8.75781V7.41602C0.849609 6.78931 1.27281 6.24829 1.87207 6.0957L1.99414 6.07031L2.55469 5.97656C2.59396 5.87403 2.63564 5.77223 2.68066 5.67188L2.34863 5.20703V5.20605C1.96037 4.66207 2.02075 3.92103 2.49414 3.44727L3.44434 2.49707C3.91819 2.02331 4.65997 1.96291 5.2041 2.35156L5.66895 2.68359C5.76931 2.63856 5.8711 2.5969 5.97363 2.55762L6.06836 1.99121L6.09473 1.86914C6.2504 1.2733 6.78806 0.849609 7.41602 0.849609H8.75684C9.42809 0.849685 9.99112 1.33242 10.1055 1.9873L10.1064 1.99316L10.2002 2.55859C10.2752 2.58714 10.3499 2.61665 10.4238 2.64844L10.917 2.29688L10.918 2.2959C11.4601 1.9095 12.2021 1.96921 12.6748 2.44141L13.625 3.38965V3.39062C14.0987 3.86444 14.159 4.6053 13.7705 5.14941L13.4541 5.5918C13.5121 5.71691 13.5668 5.84414 13.6162 5.97363L14.1807 6.06836H14.1816C14.8413 6.17871 15.3202 6.74555 15.3252 7.41113V8.75488Z" fill="#E9B500" stroke="black" stroke-width="1.3"/>
</g>
<defs>
<clipPath id="clip0_1837_34439">
<rect width="16" height="16" fill="white"/>
</clipPath>
</defs>
</svg>
