<svg width="16" height="16" viewBox="0 0 16 16" fill="none" xmlns="http://www.w3.org/2000/svg">
<path d="M11.002 1.33301C11.2965 1.33301 11.5351 1.57172 11.5352 1.86621V3.33301H13.0029C13.6655 3.33318 14.2021 3.87057 14.2021 4.5332V12.7998C14.2021 13.4624 13.6655 13.9998 13.0029 14H3.40332C2.74058 14 2.20313 13.4625 2.20312 12.7998V4.5332C2.20312 3.87046 2.74057 3.333 3.40332 3.33301H4.86719V1.86621C4.86726 1.57176 5.10594 1.33308 5.40039 1.33301C5.6949 1.33301 5.93352 1.57172 5.93359 1.86621V3.33301H10.4688V1.86621C10.4688 1.57176 10.7075 1.33308 11.002 1.33301ZM3.26953 12.7998C3.26954 12.8734 3.32968 12.9336 3.40332 12.9336H13.0029C13.0764 12.9334 13.1357 12.8733 13.1357 12.7998V7.19922H3.26953V12.7998ZM5.26855 9.33301C5.6366 9.33318 5.93457 9.63192 5.93457 10C5.93439 10.3679 5.63649 10.6658 5.26855 10.666C4.90047 10.666 4.60174 10.368 4.60156 10C4.60156 9.63181 4.90036 9.33301 5.26855 9.33301ZM8.20605 9.33301C8.57409 9.33318 8.87207 9.63192 8.87207 10C8.87189 10.3679 8.57399 10.6658 8.20605 10.666C7.83797 10.666 7.53924 10.368 7.53906 10C7.53906 9.63181 7.83786 9.33301 8.20605 9.33301ZM11.1357 9.33301C11.5038 9.33318 11.8018 9.63192 11.8018 10C11.8016 10.3679 11.5037 10.6658 11.1357 10.666C10.7677 10.666 10.4689 10.368 10.4688 10C10.4688 9.63181 10.7676 9.33301 11.1357 9.33301ZM3.40332 4.39941C3.32968 4.39941 3.26953 4.45956 3.26953 4.5332V6.13281H13.1357V4.5332C13.1357 4.45967 13.0764 4.39959 13.0029 4.39941H3.40332Z" fill="#33363D"/>
</svg>
