<svg width="16" height="17" viewBox="0 0 16 17" fill="none" xmlns="http://www.w3.org/2000/svg">
<g opacity="0.6" clip-path="url(#clip0_1881_34390)">
<mask id="path-1-outside-1_1881_34390" maskUnits="userSpaceOnUse" x="5" y="0" width="10" height="12" fill="black">
<rect fill="white" x="5" width="10" height="12"/>
<path d="M11.9199 1C12.0282 1.0014 12.1352 1.0249 12.2344 1.06934C12.3336 1.11384 12.4236 1.17823 12.498 1.25879L13.5371 2.62305C13.611 2.69879 13.6693 2.7887 13.709 2.8877C13.7487 2.98679 13.7693 3.09312 13.7686 3.2002L13.8135 10C13.8135 10.2205 13.7276 10.4319 13.5752 10.5879C13.4227 10.7439 13.2157 10.832 13 10.832H11.8633C11.8471 10.8322 11.8302 10.8291 11.8154 10.8223C11.8007 10.8155 11.7879 10.8045 11.7773 10.792C11.7668 10.7795 11.7593 10.7649 11.7549 10.749C11.7505 10.7331 11.7494 10.7165 11.752 10.7002V10.3311C11.752 10.1469 11.6516 9.97869 11.4893 9.8916C10.593 9.41072 7.66402 7.83894 6.88574 7.42188C6.81318 7.38301 6.73466 7.36328 6.65234 7.36328H6.11133C6.08186 7.36328 6.05306 7.35139 6.03223 7.33008C6.01157 7.3088 6 7.28 6 7.25V1.90918C6 1.66807 6.09404 1.43709 6.26074 1.2666C6.42739 1.09618 6.65301 1.00006 6.88867 1H11.9199ZM9.32617 4.10059C9.07221 4.10059 8.90152 4.32197 8.90137 4.5498C8.90145 4.77757 9.07206 5 9.32617 5H9.62012V6.2998H9.22461C8.9706 6.29987 8.79981 6.52209 8.7998 6.75C8.79988 6.97773 8.97056 7.20013 9.22461 7.2002H10.7754C11.0294 7.20013 11.2001 6.97773 11.2002 6.75C11.2002 6.52209 11.0294 6.29987 10.7754 6.2998H10.4697V4.5498C10.4696 4.32197 10.2989 4.10059 10.0449 4.10059H9.32617ZM9.88672 2.8125C9.7735 2.83757 9.67288 2.89863 9.59668 2.9834C9.5203 3.0684 9.47029 3.17475 9.4502 3.28711C9.43021 3.39923 9.44061 3.51599 9.48047 3.62305C9.52037 3.7301 9.58889 3.82531 9.68066 3.89355C9.7727 3.96195 9.88402 4 10 4L10.1143 3.9873C10.2253 3.96249 10.3262 3.90213 10.4033 3.81641C10.5053 3.70277 10.5595 3.55279 10.5596 3.40039C10.5596 3.28609 10.5292 3.17278 10.4707 3.0752C10.4119 2.9774 10.3261 2.89682 10.2217 2.84863C10.1174 2.80057 10.0002 2.78742 9.88672 2.8125Z"/>
</mask>
<path d="M11.9199 1C12.0282 1.0014 12.1352 1.0249 12.2344 1.06934C12.3336 1.11384 12.4236 1.17823 12.498 1.25879L13.5371 2.62305C13.611 2.69879 13.6693 2.7887 13.709 2.8877C13.7487 2.98679 13.7693 3.09312 13.7686 3.2002L13.8135 10C13.8135 10.2205 13.7276 10.4319 13.5752 10.5879C13.4227 10.7439 13.2157 10.832 13 10.832H11.8633C11.8471 10.8322 11.8302 10.8291 11.8154 10.8223C11.8007 10.8155 11.7879 10.8045 11.7773 10.792C11.7668 10.7795 11.7593 10.7649 11.7549 10.749C11.7505 10.7331 11.7494 10.7165 11.752 10.7002V10.3311C11.752 10.1469 11.6516 9.97869 11.4893 9.8916C10.593 9.41072 7.66402 7.83894 6.88574 7.42188C6.81318 7.38301 6.73466 7.36328 6.65234 7.36328H6.11133C6.08186 7.36328 6.05306 7.35139 6.03223 7.33008C6.01157 7.3088 6 7.28 6 7.25V1.90918C6 1.66807 6.09404 1.43709 6.26074 1.2666C6.42739 1.09618 6.65301 1.00006 6.88867 1H11.9199ZM9.32617 4.10059C9.07221 4.10059 8.90152 4.32197 8.90137 4.5498C8.90145 4.77757 9.07206 5 9.32617 5H9.62012V6.2998H9.22461C8.9706 6.29987 8.79981 6.52209 8.7998 6.75C8.79988 6.97773 8.97056 7.20013 9.22461 7.2002H10.7754C11.0294 7.20013 11.2001 6.97773 11.2002 6.75C11.2002 6.52209 11.0294 6.29987 10.7754 6.2998H10.4697V4.5498C10.4696 4.32197 10.2989 4.10059 10.0449 4.10059H9.32617ZM9.88672 2.8125C9.7735 2.83757 9.67288 2.89863 9.59668 2.9834C9.5203 3.0684 9.47029 3.17475 9.4502 3.28711C9.43021 3.39923 9.44061 3.51599 9.48047 3.62305C9.52037 3.7301 9.58889 3.82531 9.68066 3.89355C9.7727 3.96195 9.88402 4 10 4L10.1143 3.9873C10.2253 3.96249 10.3262 3.90213 10.4033 3.81641C10.5053 3.70277 10.5595 3.55279 10.5596 3.40039C10.5596 3.28609 10.5292 3.17278 10.4707 3.0752C10.4119 2.9774 10.3261 2.89682 10.2217 2.84863C10.1174 2.80057 10.0002 2.78742 9.88672 2.8125Z" fill="white"/>
<path d="M11.9199 1L11.9328 0H11.9199V1ZM12.2344 1.06934L12.6435 0.156878L12.6432 0.15673L12.2344 1.06934ZM12.498 1.25879L13.2936 0.652883L13.2648 0.615104L13.2326 0.580222L12.498 1.25879ZM13.5371 2.62305L12.7416 3.22895L12.7786 3.27753L12.8212 3.32125L13.5371 2.62305ZM13.709 2.8877L14.6373 2.51603L14.6373 2.51592L13.709 2.8877ZM13.7686 3.2002L12.7685 3.19324L12.7686 3.2068L13.7686 3.2002ZM13.8135 10H14.8135L14.8135 9.99339L13.8135 10ZM13.5752 10.5879L14.2902 11.287L14.2904 11.2868L13.5752 10.5879ZM11.8633 10.832V9.83194L11.8501 9.83212L11.8633 10.832ZM11.8154 10.8223L11.3962 11.7301L11.397 11.7305L11.8154 10.8223ZM11.7773 10.792L11.0114 11.4349L11.0127 11.4365L11.7773 10.792ZM11.7549 10.749L10.791 11.0153L10.7911 11.0157L11.7549 10.749ZM11.752 10.7002L12.7398 10.8555L12.752 10.7783V10.7002H11.752ZM11.4893 9.8916L11.9621 9.01044L11.9621 9.01043L11.4893 9.8916ZM6.88574 7.42188L7.35808 6.54046L7.35791 6.54037L6.88574 7.42188ZM6.65234 7.36328L6.65236 6.36328H6.65234V7.36328ZM6.03223 7.33008L5.31465 8.02657L5.31722 8.0292L6.03223 7.33008ZM6 7.25H5V7.25005L6 7.25ZM6.26074 1.2666L5.54576 0.567456L5.54574 0.567484L6.26074 1.2666ZM6.88867 1V0L6.88842 5.96046e-08L6.88867 1ZM8.90137 4.5498L7.90137 4.54912L7.90137 4.55015L8.90137 4.5498ZM9.62012 5H10.6201V4H9.62012V5ZM9.62012 6.2998V7.2998H10.6201V6.2998H9.62012ZM9.22461 6.2998V5.2998H9.22436L9.22461 6.2998ZM8.7998 6.75L7.7998 6.74997L7.7998 6.75035L8.7998 6.75ZM9.22461 7.2002L9.22436 8.2002H9.22461V7.2002ZM10.7754 7.2002V8.2002H10.7756L10.7754 7.2002ZM11.2002 6.75L12.2002 6.75035V6.74997L11.2002 6.75ZM10.7754 6.2998L10.7756 5.2998H10.7754V6.2998ZM10.4697 6.2998H9.46973V7.2998H10.4697V6.2998ZM10.4697 4.5498H11.4697V4.54912L10.4697 4.5498ZM9.88672 2.8125L9.67088 1.83607L9.67052 1.83615L9.88672 2.8125ZM9.59668 2.9834L8.85299 2.31488L8.85286 2.31502L9.59668 2.9834ZM9.4502 3.28711L8.46581 3.11106L8.46572 3.1116L9.4502 3.28711ZM9.48047 3.62305L8.54332 3.97198L8.54344 3.97231L9.48047 3.62305ZM9.68066 3.89355L9.08396 4.69602L9.08423 4.69622L9.68066 3.89355ZM10 4L10 5H10.0554L10.1104 4.99388L10 4ZM10.1143 3.9873L10.2247 4.98119L10.279 4.97516L10.3322 4.96326L10.1143 3.9873ZM10.4033 3.81641L11.1469 4.48506L11.1475 4.48436L10.4033 3.81641ZM10.5596 3.40039L11.5596 3.40088V3.40039H10.5596ZM10.4707 3.0752L11.3283 2.56093L11.3279 2.56021L10.4707 3.0752ZM10.2217 2.84863L10.6406 1.9406L10.6402 1.94042L10.2217 2.84863ZM11.9199 1L11.907 1.99992C11.879 1.99956 11.8513 1.99347 11.8255 1.98194L12.2344 1.06934L12.6432 0.15673C12.4191 0.0563423 12.1774 0.00324047 11.9328 8.33273e-05L11.9199 1ZM12.2344 1.06934L11.8252 1.98179C11.8022 1.9715 11.7813 1.95666 11.7635 1.93736L12.498 1.25879L13.2326 0.580222C13.0659 0.399803 12.865 0.25618 12.6435 0.156878L12.2344 1.06934ZM12.498 1.25879L11.7025 1.8647L12.7416 3.22895L13.5371 2.62305L14.3326 2.01714L13.2936 0.652883L12.498 1.25879ZM13.5371 2.62305L12.8212 3.32125C12.8026 3.30221 12.7892 3.28091 12.7807 3.25947L13.709 2.8877L14.6373 2.51592C14.5494 2.29648 14.4193 2.09537 14.253 1.92485L13.5371 2.62305ZM13.709 2.8877L12.7806 3.25936C12.7733 3.241 12.7684 3.21893 12.7686 3.19324L13.7686 3.2002L14.7685 3.20715C14.7702 2.96731 14.724 2.73258 14.6373 2.51603L13.709 2.8877ZM13.7686 3.2002L12.7686 3.2068L12.8135 10.0066L13.8135 10L14.8135 9.99339L14.7685 3.19359L13.7686 3.2002ZM13.8135 10H12.8135C12.8135 9.96167 12.8282 9.92154 12.86 9.88901L13.5752 10.5879L14.2904 11.2868C14.627 10.9423 14.8135 10.4794 14.8135 10H13.8135ZM13.5752 10.5879L12.8602 9.88877C12.8923 9.8559 12.9417 9.83203 13 9.83203V10.832V11.832C13.4897 11.832 13.953 11.6319 14.2902 11.287L13.5752 10.5879ZM13 10.832V9.83203H11.8633V10.832V11.832H13V10.832ZM11.8633 10.832L11.8501 9.83212C11.966 9.83059 12.0989 9.85186 12.2338 9.914L11.8154 10.8223L11.397 11.7305C11.5615 11.8063 11.7281 11.8339 11.8765 11.8319L11.8633 10.832ZM11.8154 10.8223L12.2347 9.9144C12.387 9.98472 12.4856 10.0807 12.5419 10.1475L11.7773 10.792L11.0127 11.4365C11.0902 11.5284 11.2144 11.6462 11.3962 11.7301L11.8154 10.8223ZM11.7773 10.792L12.5433 10.1491C12.6278 10.2497 12.686 10.3644 12.7187 10.4823L11.7549 10.749L10.7911 11.0157C10.8325 11.1654 10.9059 11.3092 11.0114 11.4349L11.7773 10.792ZM11.7549 10.749L12.7188 10.4828C12.7506 10.5978 12.7603 10.7249 12.7398 10.8555L11.752 10.7002L10.7641 10.5449C10.7384 10.7081 10.7504 10.8684 10.791 11.0153L11.7549 10.749ZM11.752 10.7002H12.752V10.3311H11.752H10.752V10.7002H11.752ZM11.752 10.3311H12.752C12.752 9.77929 12.4498 9.27211 11.9621 9.01044L11.4893 9.8916L11.0165 10.7728C10.8534 10.6853 10.752 10.5144 10.752 10.3311H11.752ZM11.4893 9.8916L11.9621 9.01043C11.0661 8.52969 8.13667 6.95769 7.35808 6.54046L6.88574 7.42188L6.4134 8.30329C7.19137 8.72019 10.12 10.2917 11.0165 10.7728L11.4893 9.8916ZM6.88574 7.42188L7.35791 6.54037C7.14028 6.4238 6.89959 6.36328 6.65236 6.36328L6.65234 7.36328L6.65233 8.36328C6.56973 8.36328 6.48609 8.34222 6.41357 8.30338L6.88574 7.42188ZM6.65234 7.36328V6.36328H6.11133V7.36328V8.36328H6.65234V7.36328ZM6.11133 7.36328V6.36328C6.34744 6.36328 6.57747 6.45734 6.74723 6.63096L6.03223 7.33008L5.31722 8.0292C5.52865 8.24543 5.81628 8.36328 6.11133 8.36328V7.36328ZM6.03223 7.33008L6.7498 6.63359C6.91308 6.80182 6.99999 7.02399 7 7.24995L6 7.25L5 7.25005C5.00001 7.536 5.11007 7.81578 5.31466 8.02656L6.03223 7.33008ZM6 7.25H7V1.90918H6H5V7.25H6ZM6 1.90918H7C7 1.92753 6.99305 1.94802 6.97575 1.96572L6.26074 1.2666L5.54574 0.567484C5.19504 0.926153 5 1.40862 5 1.90918H6ZM6.26074 1.2666L6.97572 1.96575C6.95775 1.98412 6.92719 1.99999 6.88892 2L6.88867 1L6.88842 5.96046e-08C6.37884 0.000125825 5.89702 0.208243 5.54576 0.567456L6.26074 1.2666ZM6.88867 1V2H11.9199V1V0H6.88867V1ZM9.32617 4.10059V3.10059C8.41126 3.10059 7.90182 3.8849 7.90137 4.54912L8.90137 4.5498L9.90137 4.55049C9.90128 4.67905 9.85559 4.80323 9.76633 4.90375C9.66796 5.01453 9.5096 5.10059 9.32617 5.10059V4.10059ZM8.90137 4.5498L7.90137 4.55015C7.9016 5.21166 8.40851 6 9.32617 6V5V4C9.51099 4 9.6695 4.08703 9.76728 4.19749C9.85585 4.29754 9.90132 4.42109 9.90137 4.54946L8.90137 4.5498ZM9.32617 5V6H9.62012V5V4H9.32617V5ZM9.62012 5H8.62012V6.2998H9.62012H10.6201V5H9.62012ZM9.62012 6.2998V5.2998H9.22461V6.2998V7.2998H9.62012V6.2998ZM9.22461 6.2998L9.22436 5.2998C8.30779 5.30004 7.79982 6.08715 7.7998 6.74997L8.7998 6.75L9.7998 6.75003C9.7998 6.87865 9.7542 7.0024 9.66553 7.10251C9.56773 7.21292 9.40938 7.29976 9.22486 7.2998L9.22461 6.2998ZM8.7998 6.75L7.7998 6.75035C7.80004 7.41214 8.30722 8.19996 9.22436 8.2002L9.22461 7.2002L9.22486 6.2002C9.40962 6.20024 9.568 6.28725 9.66569 6.39759C9.75421 6.49757 9.79976 6.62112 9.7998 6.74965L8.7998 6.75ZM9.22461 7.2002V8.2002H10.7754V7.2002V6.2002H9.22461V7.2002ZM10.7754 7.2002L10.7756 8.2002C11.6928 8.19996 12.2 7.41214 12.2002 6.75035L11.2002 6.75L10.2002 6.74965C10.2002 6.62112 10.2458 6.49757 10.3343 6.39759C10.432 6.28725 10.5904 6.20024 10.7751 6.2002L10.7754 7.2002ZM11.2002 6.75L12.2002 6.74997C12.2002 6.08715 11.6922 5.30003 10.7756 5.2998L10.7754 6.2998L10.7751 7.2998C10.5906 7.29976 10.4323 7.21292 10.3345 7.10251C10.2458 7.0024 10.2002 6.87865 10.2002 6.75003L11.2002 6.75ZM10.7754 6.2998V5.2998H10.4697V6.2998V7.2998H10.7754V6.2998ZM10.4697 6.2998H11.4697V4.5498H10.4697H9.46973V6.2998H10.4697ZM10.4697 4.5498L11.4697 4.54912C11.4693 3.8849 10.9598 3.10059 10.0449 3.10059V4.10059V5.10059C9.8615 5.10059 9.70314 5.01453 9.60476 4.90375C9.5155 4.80323 9.46981 4.67905 9.46973 4.55049L10.4697 4.5498ZM10.0449 4.10059V3.10059H9.32617V4.10059V5.10059H10.0449V4.10059ZM9.88672 2.8125L9.67052 1.83615C9.34344 1.90858 9.06144 2.08298 8.85299 2.31488L9.59668 2.9834L10.3404 3.65192C10.2843 3.71428 10.2036 3.76656 10.1029 3.78885L9.88672 2.8125ZM9.59668 2.9834L8.85286 2.31502C8.64503 2.54631 8.5168 2.82597 8.46581 3.11106L9.4502 3.28711L10.4346 3.46316C10.4238 3.52354 10.3956 3.59049 10.3405 3.65178L9.59668 2.9834ZM9.4502 3.28711L8.46572 3.1116C8.41447 3.39908 8.44093 3.69697 8.54332 3.97198L9.48047 3.62305L10.4176 3.27412C10.4403 3.33502 10.4459 3.39937 10.4347 3.46262L9.4502 3.28711ZM9.48047 3.62305L8.54344 3.97231C8.64555 4.24626 8.82599 4.50419 9.08396 4.69602L9.68066 3.89355L10.2774 3.09109C10.3518 3.14643 10.3952 3.21393 10.4175 3.27379L9.48047 3.62305ZM9.68066 3.89355L9.08423 4.69622C9.34396 4.88921 9.66331 5 10 5L10 4L10 3C10.1047 3 10.2015 3.03468 10.2771 3.09089L9.68066 3.89355ZM10 4L10.1104 4.99388L10.2247 4.98119L10.1143 3.9873L10.0038 2.99342L9.88957 3.00612L10 4ZM10.1143 3.9873L10.3322 4.96326C10.6546 4.89125 10.9367 4.71882 11.1469 4.48506L10.4033 3.81641L9.65974 3.14776C9.71578 3.08544 9.79607 3.03373 9.89627 3.01135L10.1143 3.9873ZM10.4033 3.81641L11.1475 4.48436C11.4235 4.17685 11.5594 3.78519 11.5596 3.40088L10.5596 3.40039L9.55957 3.3999C9.55961 3.32038 9.58709 3.2287 9.65912 3.14845L10.4033 3.81641ZM10.5596 3.40039H11.5596C11.5596 3.11137 11.4833 2.81931 11.3283 2.56093L10.4707 3.0752L9.61307 3.58946C9.57517 3.52625 9.55957 3.46081 9.55957 3.40039H10.5596ZM10.4707 3.0752L11.3279 2.56021C11.174 2.30411 10.9413 2.07932 10.6406 1.9406L10.2217 2.84863L9.80279 3.75667C9.711 3.71433 9.64985 3.65068 9.6135 3.59018L10.4707 3.0752ZM10.2217 2.84863L10.6402 1.94042C10.3394 1.80182 9.99956 1.76342 9.67088 1.83607L9.88672 2.8125L10.1026 3.78893C10.0008 3.81142 9.89534 3.79932 9.80318 3.75685L10.2217 2.84863Z" fill="black" fill-opacity="0.3" mask="url(#path-1-outside-1_1881_34390)"/>
<mask id="path-3-outside-2_1881_34390" maskUnits="userSpaceOnUse" x="-1" y="8.60352" width="13" height="8" fill="black">
<rect fill="white" x="-1" y="8.60352" width="13" height="8"/>
<path d="M10.3714 12.427H5.11657C5.06081 12.435 5.00418 12.4295 4.95046 12.411C4.89673 12.3924 4.84713 12.3612 4.80496 12.3195C4.76279 12.2778 4.72902 12.2264 4.70588 12.1689C4.68274 12.1114 4.67078 12.049 4.67078 11.9859C4.67078 11.9228 4.68274 11.8604 4.70588 11.8028C4.72902 11.7453 4.76279 11.694 4.80496 11.6522C4.84713 11.6105 4.89673 11.5793 4.95046 11.5608C5.00418 11.5422 5.06081 11.5368 5.11657 11.5447H6.22286C6.3266 11.5446 6.42872 11.5157 6.52009 11.4605C6.61146 11.4053 6.68924 11.3256 6.74651 11.2284C6.80377 11.1313 6.83872 11.0197 6.84826 10.9037C6.85779 10.7877 6.8416 10.6708 6.80114 10.5635C6.69346 10.2781 6.51313 10.0348 6.28278 9.86398C6.05243 9.6932 5.78231 9.60259 5.50629 9.60352H3.45714C3.37379 9.60352 3.29385 9.64071 3.23491 9.7069C3.17597 9.77309 3.14286 9.86286 3.14286 9.95646V14.5447C3.14286 14.6383 3.17597 14.7281 3.23491 14.7943C3.29385 14.8604 3.37379 14.8976 3.45714 14.8976H9.592C9.7769 14.8976 9.95999 14.8567 10.1308 14.7773C10.3016 14.6978 10.4569 14.5813 10.5876 14.4345C10.7184 14.2877 10.8221 14.1134 10.8928 13.9215C10.9636 13.7297 11 13.5241 11 13.3165V13.1329C11 12.9457 10.9338 12.7662 10.8159 12.6338C10.698 12.5014 10.5381 12.427 10.3714 12.427ZM1.88571 9.60352H0.314286C0.230932 9.60352 0.150992 9.64071 0.0920522 9.7069C0.0331122 9.77309 0 9.86286 0 9.95646L0 15.2506C0 15.3442 0.0331122 15.434 0.0920522 15.5001C0.150992 15.5663 0.230932 15.6035 0.314286 15.6035H1.88571C1.96907 15.6035 2.04901 15.5663 2.10795 15.5001C2.16689 15.434 2.2 15.3442 2.2 15.2506V9.95646C2.2 9.86286 2.16689 9.77309 2.10795 9.7069C2.04901 9.64071 1.96907 9.60352 1.88571 9.60352ZM0.942857 14.7212C0.849617 14.7212 0.758471 14.6901 0.680945 14.6319C0.603419 14.5738 0.542995 14.4911 0.507314 14.3943C0.471633 14.2976 0.462297 14.1912 0.480487 14.0885C0.498677 13.9858 0.543576 13.8914 0.609507 13.8174C0.675437 13.7434 0.759438 13.6929 0.850886 13.6725C0.942334 13.6521 1.03712 13.6626 1.12327 13.7026C1.20941 13.7427 1.28303 13.8106 1.33484 13.8976C1.38664 13.9847 1.41429 14.087 1.41429 14.1918C1.41266 14.3316 1.36247 14.4652 1.27441 14.5641C1.18635 14.663 1.06738 14.7193 0.942857 14.7212Z"/>
</mask>
<path d="M10.3714 12.427H5.11657C5.06081 12.435 5.00418 12.4295 4.95046 12.411C4.89673 12.3924 4.84713 12.3612 4.80496 12.3195C4.76279 12.2778 4.72902 12.2264 4.70588 12.1689C4.68274 12.1114 4.67078 12.049 4.67078 11.9859C4.67078 11.9228 4.68274 11.8604 4.70588 11.8028C4.72902 11.7453 4.76279 11.694 4.80496 11.6522C4.84713 11.6105 4.89673 11.5793 4.95046 11.5608C5.00418 11.5422 5.06081 11.5368 5.11657 11.5447H6.22286C6.3266 11.5446 6.42872 11.5157 6.52009 11.4605C6.61146 11.4053 6.68924 11.3256 6.74651 11.2284C6.80377 11.1313 6.83872 11.0197 6.84826 10.9037C6.85779 10.7877 6.8416 10.6708 6.80114 10.5635C6.69346 10.2781 6.51313 10.0348 6.28278 9.86398C6.05243 9.6932 5.78231 9.60259 5.50629 9.60352H3.45714C3.37379 9.60352 3.29385 9.64071 3.23491 9.7069C3.17597 9.77309 3.14286 9.86286 3.14286 9.95646V14.5447C3.14286 14.6383 3.17597 14.7281 3.23491 14.7943C3.29385 14.8604 3.37379 14.8976 3.45714 14.8976H9.592C9.7769 14.8976 9.95999 14.8567 10.1308 14.7773C10.3016 14.6978 10.4569 14.5813 10.5876 14.4345C10.7184 14.2877 10.8221 14.1134 10.8928 13.9215C10.9636 13.7297 11 13.5241 11 13.3165V13.1329C11 12.9457 10.9338 12.7662 10.8159 12.6338C10.698 12.5014 10.5381 12.427 10.3714 12.427ZM1.88571 9.60352H0.314286C0.230932 9.60352 0.150992 9.64071 0.0920522 9.7069C0.0331122 9.77309 0 9.86286 0 9.95646L0 15.2506C0 15.3442 0.0331122 15.434 0.0920522 15.5001C0.150992 15.5663 0.230932 15.6035 0.314286 15.6035H1.88571C1.96907 15.6035 2.04901 15.5663 2.10795 15.5001C2.16689 15.434 2.2 15.3442 2.2 15.2506V9.95646C2.2 9.86286 2.16689 9.77309 2.10795 9.7069C2.04901 9.64071 1.96907 9.60352 1.88571 9.60352ZM0.942857 14.7212C0.849617 14.7212 0.758471 14.6901 0.680945 14.6319C0.603419 14.5738 0.542995 14.4911 0.507314 14.3943C0.471633 14.2976 0.462297 14.1912 0.480487 14.0885C0.498677 13.9858 0.543576 13.8914 0.609507 13.8174C0.675437 13.7434 0.759438 13.6929 0.850886 13.6725C0.942334 13.6521 1.03712 13.6626 1.12327 13.7026C1.20941 13.7427 1.28303 13.8106 1.33484 13.8976C1.38664 13.9847 1.41429 14.087 1.41429 14.1918C1.41266 14.3316 1.36247 14.4652 1.27441 14.5641C1.18635 14.663 1.06738 14.7193 0.942857 14.7212Z" fill="white"/>
<path d="M10.3714 12.427H5.11657C5.06081 12.435 5.00418 12.4295 4.95046 12.411C4.89673 12.3924 4.84713 12.3612 4.80496 12.3195C4.76279 12.2778 4.72902 12.2264 4.70588 12.1689C4.68274 12.1114 4.67078 12.049 4.67078 11.9859C4.67078 11.9228 4.68274 11.8604 4.70588 11.8028C4.72902 11.7453 4.76279 11.694 4.80496 11.6522C4.84713 11.6105 4.89673 11.5793 4.95046 11.5608C5.00418 11.5422 5.06081 11.5368 5.11657 11.5447H6.22286C6.3266 11.5446 6.42872 11.5157 6.52009 11.4605C6.61146 11.4053 6.68924 11.3256 6.74651 11.2284C6.80377 11.1313 6.83872 11.0197 6.84826 10.9037C6.85779 10.7877 6.8416 10.6708 6.80114 10.5635C6.69346 10.2781 6.51313 10.0348 6.28278 9.86398C6.05243 9.6932 5.78231 9.60259 5.50629 9.60352H3.45714C3.37379 9.60352 3.29385 9.64071 3.23491 9.7069C3.17597 9.77309 3.14286 9.86286 3.14286 9.95646V14.5447C3.14286 14.6383 3.17597 14.7281 3.23491 14.7943C3.29385 14.8604 3.37379 14.8976 3.45714 14.8976H9.592C9.7769 14.8976 9.95999 14.8567 10.1308 14.7773C10.3016 14.6978 10.4569 14.5813 10.5876 14.4345C10.7184 14.2877 10.8221 14.1134 10.8928 13.9215C10.9636 13.7297 11 13.5241 11 13.3165V13.1329C11 12.9457 10.9338 12.7662 10.8159 12.6338C10.698 12.5014 10.5381 12.427 10.3714 12.427ZM1.88571 9.60352H0.314286C0.230932 9.60352 0.150992 9.64071 0.0920522 9.7069C0.0331122 9.77309 0 9.86286 0 9.95646L0 15.2506C0 15.3442 0.0331122 15.434 0.0920522 15.5001C0.150992 15.5663 0.230932 15.6035 0.314286 15.6035H1.88571C1.96907 15.6035 2.04901 15.5663 2.10795 15.5001C2.16689 15.434 2.2 15.3442 2.2 15.2506V9.95646C2.2 9.86286 2.16689 9.77309 2.10795 9.7069C2.04901 9.64071 1.96907 9.60352 1.88571 9.60352ZM0.942857 14.7212C0.849617 14.7212 0.758471 14.6901 0.680945 14.6319C0.603419 14.5738 0.542995 14.4911 0.507314 14.3943C0.471633 14.2976 0.462297 14.1912 0.480487 14.0885C0.498677 13.9858 0.543576 13.8914 0.609507 13.8174C0.675437 13.7434 0.759438 13.6929 0.850886 13.6725C0.942334 13.6521 1.03712 13.6626 1.12327 13.7026C1.20941 13.7427 1.28303 13.8106 1.33484 13.8976C1.38664 13.9847 1.41429 14.087 1.41429 14.1918C1.41266 14.3316 1.36247 14.4652 1.27441 14.5641C1.18635 14.663 1.06738 14.7193 0.942857 14.7212Z" stroke="black" stroke-opacity="0.3" stroke-width="2" mask="url(#path-3-outside-2_1881_34390)"/>
</g>
<defs>
<clipPath id="clip0_1881_34390">
<rect width="16" height="17" fill="white"/>
</clipPath>
</defs>
</svg>
