<svg width="17" height="18" viewBox="0 0 17 18" fill="none" xmlns="http://www.w3.org/2000/svg">
<g opacity="0.33">
<path d="M3.16536 14.704C2.7987 14.704 2.48492 14.58 2.22403 14.332C1.96314 14.084 1.83248 13.7855 1.83203 13.4365V4.56369C1.83203 4.21511 1.9627 3.91682 2.22403 3.6688C2.48536 3.42078 2.79914 3.29657 3.16536 3.29614H13.832C14.1987 3.29614 14.5127 3.42036 14.774 3.6688C15.0354 3.91724 15.1658 4.21553 15.1654 4.56369V13.4365C15.1654 13.7851 15.0349 14.0836 14.774 14.332C14.5131 14.5805 14.1991 14.7045 13.832 14.704H3.16536ZM3.83203 12.169H7.16537V10.9014H3.83203V12.169ZM10.1987 10.9014L13.4987 7.76424L12.5487 6.86111L10.1987 9.111L9.2487 8.20788L8.31537 9.111L10.1987 10.9014ZM3.83203 9.63386H7.16537V8.36632H3.83203V9.63386ZM3.83203 7.09877H7.16537V5.83123H3.83203V7.09877Z" fill="black"/>
</g>
</svg>
