<svg width="17" height="11" viewBox="0 0 17 11" fill="none" xmlns="http://www.w3.org/2000/svg">
<path d="M0 11.0084V9.73817H8.46797V11.0084H0ZM0 6.56268V5.29248H4.23399V6.56268H0ZM0 2.11699V0.846797H4.23399V2.11699H0ZM16.0468 11.0084L12.6596 7.62118C12.2927 7.90344 11.8975 8.11514 11.4741 8.25627C11.0507 8.39741 10.6132 8.46797 10.1616 8.46797C8.99017 8.46797 7.99165 8.05516 7.16602 7.22953C6.3404 6.40391 5.92758 5.40539 5.92758 4.23399C5.92758 3.06258 6.3404 2.06407 7.16602 1.23844C7.99165 0.412814 8.99017 0 10.1616 0C11.333 0 12.3315 0.412814 13.1571 1.23844C13.9827 2.06407 14.3956 3.06258 14.3956 4.23399C14.3956 4.68561 14.325 5.12312 14.1839 5.54652C14.0427 5.96992 13.831 6.36509 13.5488 6.73204L16.9359 10.1192L16.0468 11.0084ZM10.1565 7.19778C10.9784 7.19778 11.6787 6.91015 12.2574 6.33489C12.836 5.75949 13.1254 5.06088 13.1254 4.23907C13.1254 3.41711 12.8377 2.71681 12.2625 2.13816C11.6871 1.55952 10.9885 1.2702 10.1666 1.2702C9.34469 1.2702 8.64439 1.55783 8.06575 2.13308C7.4871 2.70848 7.19778 3.40709 7.19778 4.22891C7.19778 5.05086 7.48541 5.75117 8.06066 6.32981C8.63606 6.90846 9.33467 7.19778 10.1565 7.19778Z" fill="white"/>
</svg>
