<svg width="16" height="14" viewBox="0 0 16 14" fill="none" xmlns="http://www.w3.org/2000/svg">
<g opacity="0.6" clip-path="url(#clip0_1745_36235)">
<path d="M7.99632 0.933594C6.29069 0.933594 4.90809 2.27039 4.90809 3.91953C4.90809 5.25278 6.92647 7.68276 7.69975 8.5648C7.85637 8.74348 8.13652 8.74348 8.29289 8.5648C9.06618 7.68276 11.0846 5.25278 11.0846 3.91953C11.0846 2.27039 9.70196 0.933594 7.99632 0.933594ZM7.99632 4.91484C7.4277 4.91484 6.96691 4.46932 6.96691 3.91953C6.96691 3.36974 7.4277 2.92422 7.99632 2.92422C8.56495 2.92422 9.02574 3.36974 9.02574 3.91953C9.02574 4.46932 8.56495 4.91484 7.99632 4.91484ZM1.43064 6.05116C1.2851 6.10745 1.16034 6.20461 1.07245 6.3301C0.98455 6.45559 0.937548 6.60366 0.9375 6.75522L0.9375 12.6873C0.9375 12.9555 1.21765 13.139 1.47525 13.0394L4.85907 11.5503V6.02675C4.6424 5.64806 4.4652 5.27932 4.33824 4.92669L1.43064 6.05116ZM7.99632 9.45702C7.65147 9.45702 7.32525 9.31057 7.10147 9.05511C6.61961 8.50531 6.10711 7.87922 5.64338 7.237V11.55L10.3493 13.0667V7.23724C9.88554 7.87922 9.37328 8.50555 8.89118 9.05534C8.6674 9.31057 8.34118 9.45702 7.99632 9.45702ZM14.5174 4.75275L11.1336 6.24193V13.0669L14.562 11.741C14.7076 11.6848 14.8323 11.5876 14.9202 11.4621C15.0081 11.3366 15.0551 11.1885 15.0551 11.037V5.1049C15.0551 4.83664 14.775 4.65322 14.5174 4.75275Z" fill="white"/>
<path d="M7.99609 0.433594C9.96186 0.433594 11.585 1.9789 11.585 3.91992C11.5849 4.36316 11.4216 4.84468 11.21 5.2959C11.1364 5.45261 11.0515 5.61029 10.9629 5.76953L14.3164 4.29492L14.3262 4.29004L14.3369 4.28613C14.8984 4.06917 15.5544 4.46035 15.5547 5.10449V11.0371C15.5546 11.2924 15.4761 11.5405 15.3301 11.749C15.1842 11.9574 14.9784 12.1157 14.7422 12.207L11.3135 13.5332L10.8496 13.7119V13.7529L10.792 13.7344L10.6338 13.7959V13.6826L10.1963 13.543L5.49023 12.0264L5.21875 11.9375L5.06055 12.0078L1.67676 13.4971L1.66602 13.502L1.65527 13.5059C1.09374 13.7227 0.437645 13.3317 0.4375 12.6875V6.75488C0.437619 6.49962 0.517063 6.25145 0.663086 6.04297C0.808919 5.83488 1.01401 5.67631 1.25 5.58496L4.1582 4.45996L4.45312 4.34473C4.42474 4.20074 4.40823 4.05853 4.4082 3.91992C4.4082 1.97897 6.03043 0.433714 7.99609 0.433594ZM7.99609 3.42383C7.68772 3.42395 7.4668 3.66208 7.4668 3.91992C7.46702 4.17761 7.68787 4.41492 7.99609 4.41504C8.30443 4.41504 8.52517 4.17768 8.52539 3.91992C8.52539 3.66202 8.30459 3.42383 7.99609 3.42383Z" stroke="black" stroke-opacity="0.3"/>
</g>
<defs>
<clipPath id="clip0_1745_36235">
<rect width="16" height="14" fill="white"/>
</clipPath>
</defs>
</svg>
