<svg width="16" height="17" viewBox="0 0 16 17" fill="none" xmlns="http://www.w3.org/2000/svg">
<g opacity="0.5">
<mask id="path-1-outside-1_1867_40058" maskUnits="userSpaceOnUse" x="-0.664062" y="-0.0996094" width="17" height="15" fill="black">
<rect fill="white" x="-0.664062" y="-0.0996094" width="17" height="15"/>
<path d="M2.66927 13.3083C2.3026 13.3083 1.98883 13.1843 1.72794 12.9363C1.46705 12.6882 1.33638 12.3897 1.33594 12.0407V3.16793C1.33594 2.81936 1.4666 2.52106 1.72794 2.27305C1.98927 2.02503 2.30305 1.90081 2.66927 1.90039H13.3359C13.7026 1.90039 14.0166 2.02461 14.2779 2.27305C14.5393 2.52149 14.6697 2.81978 14.6693 3.16793V12.0407C14.6693 12.3893 14.5388 12.6878 14.2779 12.9363C14.017 13.1847 13.703 13.3087 13.3359 13.3083H2.66927ZM3.33594 10.7732H6.66927V9.50565H3.33594V10.7732ZM9.70261 9.50565L13.0026 6.36848L12.0526 5.46536L9.70261 7.71525L8.7526 6.81212L7.81927 7.71525L9.70261 9.50565ZM3.33594 8.23811H6.66927V6.97057H3.33594V8.23811ZM3.33594 5.70302H6.66927V4.43548H3.33594V5.70302Z"/>
</mask>
<path d="M2.66927 13.3083C2.3026 13.3083 1.98883 13.1843 1.72794 12.9363C1.46705 12.6882 1.33638 12.3897 1.33594 12.0407V3.16793C1.33594 2.81936 1.4666 2.52106 1.72794 2.27305C1.98927 2.02503 2.30305 1.90081 2.66927 1.90039H13.3359C13.7026 1.90039 14.0166 2.02461 14.2779 2.27305C14.5393 2.52149 14.6697 2.81978 14.6693 3.16793V12.0407C14.6693 12.3893 14.5388 12.6878 14.2779 12.9363C14.017 13.1847 13.703 13.3087 13.3359 13.3083H2.66927ZM3.33594 10.7732H6.66927V9.50565H3.33594V10.7732ZM9.70261 9.50565L13.0026 6.36848L12.0526 5.46536L9.70261 7.71525L8.7526 6.81212L7.81927 7.71525L9.70261 9.50565ZM3.33594 8.23811H6.66927V6.97057H3.33594V8.23811ZM3.33594 5.70302H6.66927V4.43548H3.33594V5.70302Z" fill="#E9B500"/>
<path d="M2.66927 13.3083C2.3026 13.3083 1.98883 13.1843 1.72794 12.9363C1.46705 12.6882 1.33638 12.3897 1.33594 12.0407V3.16793C1.33594 2.81936 1.4666 2.52106 1.72794 2.27305C1.98927 2.02503 2.30305 1.90081 2.66927 1.90039H13.3359C13.7026 1.90039 14.0166 2.02461 14.2779 2.27305C14.5393 2.52149 14.6697 2.81978 14.6693 3.16793V12.0407C14.6693 12.3893 14.5388 12.6878 14.2779 12.9363C14.017 13.1847 13.703 13.3087 13.3359 13.3083H2.66927ZM3.33594 10.7732H6.66927V9.50565H3.33594V10.7732ZM9.70261 9.50565L13.0026 6.36848L12.0526 5.46536L9.70261 7.71525L8.7526 6.81212L7.81927 7.71525L9.70261 9.50565ZM3.33594 8.23811H6.66927V6.97057H3.33594V8.23811ZM3.33594 5.70302H6.66927V4.43548H3.33594V5.70302Z" stroke="black" stroke-width="2.6" mask="url(#path-1-outside-1_1867_40058)"/>
</g>
</svg>
