<svg width="16" height="17" viewBox="0 0 16 17" fill="none" xmlns="http://www.w3.org/2000/svg">
<g opacity="0.6">
<path d="M2.66927 13.3083C2.3026 13.3083 1.98883 13.1843 1.72794 12.9363C1.46705 12.6882 1.33638 12.3897 1.33594 12.0407V3.16793C1.33594 2.81936 1.4666 2.52106 1.72794 2.27305C1.98927 2.02503 2.30305 1.90081 2.66927 1.90039H13.3359C13.7026 1.90039 14.0166 2.02461 14.2779 2.27305C14.5393 2.52149 14.6697 2.81978 14.6693 3.16793V12.0407C14.6693 12.3893 14.5388 12.6878 14.2779 12.9363C14.0171 13.1847 13.7031 13.3087 13.3359 13.3083H2.66927ZM3.33594 10.7732H6.66927V9.50565H3.33594V10.7732ZM9.70261 9.50565L13.0026 6.36848L12.0526 5.46536L9.70261 7.71525L8.75261 6.81212L7.81927 7.71525L9.70261 9.50565ZM3.33594 8.23811H6.66927V6.97057H3.33594V8.23811ZM3.33594 5.70302H6.66927V4.43548H3.33594V5.70302Z" fill="white"/>
<path d="M13.3359 1.40039C13.8284 1.40039 14.2661 1.5727 14.6221 1.91113C14.9787 2.25017 15.1694 2.67745 15.1689 3.16797V12.041C15.1689 12.5314 14.9792 12.9596 14.623 13.2988C14.2672 13.6376 13.8286 13.8081 13.3359 13.8076L2.66895 13.8086C2.17696 13.8085 1.7394 13.6368 1.38379 13.2988C1.02728 12.9599 0.836562 12.5316 0.835938 12.041V3.16797C0.835938 2.67714 1.02675 2.249 1.38379 1.91016C1.73955 1.57259 2.17724 1.40096 2.66895 1.40039H13.3359ZM3.83594 10.2734H6.16895V10.0059H3.83594V10.2734ZM10.0488 8.07617L9.7041 8.40625L9.3584 8.07715L8.75586 7.50488L8.54102 7.71094L9.70215 8.81543L12.2764 6.36816L12.0527 6.15625L10.0488 8.07617ZM3.83594 7.73828H6.16895V7.4707H3.83594V7.73828ZM3.83594 5.20312H6.16895V4.93555H3.83594V5.20312Z" stroke="black" stroke-opacity="0.3"/>
</g>
</svg>
