<svg width="16" height="14" viewBox="0 0 16 14" fill="none" xmlns="http://www.w3.org/2000/svg">
<path d="M14.2755 3.3078C14.104 3.42235 13.8717 3.37691 13.7578 3.20476C13.6426 3.03325 13.6886 2.80096 13.8601 2.68639L15.4127 1.64839C15.5842 1.53384 15.8165 1.57927 15.9311 1.75142C16.0456 1.92293 16.0002 2.15523 15.828 2.26979L14.2755 3.3078ZM14.0675 6.06028C13.8608 6.06028 13.6925 5.89198 13.6925 5.68526C13.6925 5.47856 13.8608 5.31024 14.0675 5.31024H15.62C15.8267 5.31024 15.9951 5.4779 15.9951 5.68526C15.9951 5.89196 15.8274 6.06028 15.62 6.06028H14.0675ZM4.56035 7.48867C4.58019 7.49443 4.60003 7.50275 4.61859 7.51107L10.126 9.63757V1.73283L4.24359 4.00464V7.36641L4.56035 7.48867ZM4.83041 8.3942V11.475C4.83041 11.9012 4.65634 12.2884 4.37605 12.5693C4.09511 12.8496 3.70858 13.0237 3.28236 13.0237H2.10931C1.90261 13.0237 1.73429 12.856 1.73429 12.6487V7.99741H0.37502C0.168318 7.99741 0 7.82975 0 7.62239V3.74866C0 3.54196 0.167662 3.37364 0.37502 3.37364H3.8033L10.3386 0.850348C10.3572 0.840748 10.377 0.833709 10.3968 0.827949L12.476 0.0254501C12.6686 -0.0494246 12.8849 0.0465692 12.9591 0.239197C12.9764 0.283354 12.9847 0.329431 12.9847 0.373588H12.986V10.9982C12.986 11.2049 12.8177 11.3732 12.611 11.3732C12.5528 11.3732 12.4965 11.3592 12.4472 11.3361L10.3973 10.5445C10.3775 10.5387 10.3577 10.5304 10.3385 10.5221L4.83104 8.3956L4.83041 8.3942ZM2.48373 7.99743V12.2737H3.28239C3.50189 12.2737 3.70092 12.1835 3.84555 12.0388C3.99082 11.8935 4.08042 11.6945 4.08042 11.475V8.10506L3.80204 7.99755L2.48373 7.99743ZM3.49422 7.2474V4.12384H0.749435V7.2474H3.49422ZM10.8762 1.4436V9.92748L12.2355 10.4522V0.918877L10.8762 1.4436ZM13.8597 8.68402C13.6882 8.56946 13.6427 8.33716 13.7573 8.16565C13.8718 7.99413 14.1041 7.9487 14.275 8.06325L15.8275 9.10126C15.9991 9.21581 16.0445 9.44811 15.9306 9.61963C15.8154 9.7905 15.5837 9.83657 15.4122 9.72202L13.8597 8.68402Z" fill="#94A3B8"/>
</svg>
