<svg width="18" height="18" viewBox="0 0 18 18" fill="none" xmlns="http://www.w3.org/2000/svg">
<g filter="url(#filter0_d_1745_36250)">
<path d="M12.4705 6.46753C12.7644 6.17358 13.241 6.17358 13.5349 6.46753C13.8289 6.76148 13.8289 7.23804 13.5349 7.53199L9.00269 12.0642L4.47046 7.53199C4.17651 7.23804 4.17651 6.76148 4.47046 6.46753C4.76441 6.17358 5.24097 6.17358 5.53492 6.46753L9.00269 9.93531L12.4705 6.46753Z" fill="white" shape-rendering="crispEdges"/>
<path d="M12.1172 6.11426C12.6064 5.62505 13.3995 5.62504 13.8887 6.11426C14.3776 6.60349 14.3778 7.39661 13.8887 7.88574L9.00293 12.7715L4.11719 7.88574C3.62797 7.39653 3.62797 6.60347 4.11719 6.11426C4.6064 5.62504 5.39946 5.62504 5.88867 6.11426L9.00293 9.22852L12.1172 6.11426Z" stroke="black" stroke-opacity="0.3" shape-rendering="crispEdges"/>
</g>
<defs>
<filter id="filter0_d_1745_36250" x="2.3587" y="4.35577" width="13.2904" height="10.0141" filterUnits="userSpaceOnUse" color-interpolation-filters="sRGB">
<feFlood flood-opacity="0" result="BackgroundImageFix"/>
<feColorMatrix in="SourceAlpha" type="matrix" values="0 0 0 0 0 0 0 0 0 0 0 0 0 0 0 0 0 0 127 0" result="hardAlpha"/>
<feOffset/>
<feGaussianBlur stdDeviation="0.445652"/>
<feComposite in2="hardAlpha" operator="out"/>
<feColorMatrix type="matrix" values="0 0 0 0 0 0 0 0 0 0 0 0 0 0 0 0 0 0 1 0"/>
<feBlend mode="normal" in2="BackgroundImageFix" result="effect1_dropShadow_1745_36250"/>
<feBlend mode="normal" in="SourceGraphic" in2="effect1_dropShadow_1745_36250" result="shape"/>
</filter>
</defs>
</svg>
