<svg width="16" height="16" viewBox="0 0 16 16" fill="none" xmlns="http://www.w3.org/2000/svg">
<path d="M7.88184 5.90161C6.7884 5.90161 5.8976 6.79205 5.89746 7.88599C5.89746 8.98004 6.78832 9.87036 7.88184 9.87036C8.97528 9.87028 9.86523 8.97999 9.86523 7.88599C9.86509 6.7921 8.9752 5.9017 7.88184 5.90161ZM15.1191 8.55493C15.1191 9.22476 14.6376 9.79231 13.9785 9.90259H13.9775L13.4121 9.99634C13.3729 10.0992 13.3309 10.2008 13.2861 10.301L13.6191 10.7668V10.7678C14.0076 11.3119 13.9473 12.0528 13.4736 12.5266L12.5244 13.4768C12.0802 13.921 11.4007 14.0016 10.8691 13.6897L10.7646 13.6223L10.2979 13.2893C10.198 13.3339 10.0966 13.3752 9.99414 13.4143L9.90039 13.9807V13.9817C9.79018 14.6406 9.22352 15.1222 8.55371 15.1223H7.21094C6.54119 15.1221 5.97445 14.6405 5.86426 13.9817V13.9807L5.76953 13.4153C5.64052 13.3662 5.51315 13.3124 5.3877 13.2542L4.94629 13.5706C4.40296 13.9587 3.65904 13.9001 3.18555 13.4241V13.4231L2.23828 12.4749C1.76704 12.0032 1.7036 11.262 2.09277 10.717L2.44531 10.2239C2.41334 10.1495 2.3834 10.0741 2.35449 9.99829L1.78809 9.90552H1.78711C1.12821 9.79511 0.646484 9.22756 0.646484 8.55786V7.21606C0.646484 6.58941 1.06962 6.04832 1.66895 5.89575L1.79102 5.87036L2.35059 5.77661C2.38989 5.67396 2.43247 5.5724 2.47754 5.47192L2.14551 5.0061C1.75715 4.46206 1.81749 3.72112 2.29102 3.24731L3.24023 2.29712C3.71402 1.82326 4.45587 1.76293 5 2.15161L5.46484 2.48364C5.5652 2.4386 5.66701 2.39695 5.76953 2.35767L5.86426 1.79126L5.89062 1.66919C6.04623 1.07358 6.58317 0.649874 7.21094 0.649658H8.55176C9.18132 0.649658 9.71566 1.0744 9.87402 1.66724L9.90137 1.78735L9.90234 1.79321H9.90137L9.99512 2.35864C10.0701 2.38719 10.1448 2.41669 10.2188 2.44849L10.7119 2.09692L10.7129 2.09595C11.2551 1.70952 11.9971 1.76918 12.4697 2.24146L13.4189 3.1897L13.4199 3.19067C13.8639 3.635 13.9448 4.31446 13.6328 4.84595L13.5654 4.94946L13.249 5.39185C13.307 5.51685 13.3608 5.6443 13.4102 5.77368L13.9756 5.86841C14.6353 5.97878 15.1142 6.5457 15.1191 7.21118V8.55493Z" fill="#FFC600" stroke="black" stroke-width="1.3"/>
</svg>
