<svg width="16" height="16" viewBox="0 0 16 16" fill="none" xmlns="http://www.w3.org/2000/svg">
<g opacity="0.6">
<path d="M8.67294 2.05957C8.55598 2.05957 8.46094 2.15461 8.46094 2.27173C8.46094 2.28261 8.46558 2.29205 8.46718 2.30261H8.46094V7.33269C8.46094 7.44981 8.55598 7.54485 8.67294 7.54485H13.7029V7.53861C13.7134 7.54021 13.7229 7.54485 13.7339 7.54485C13.8509 7.54485 13.9459 7.44981 13.9459 7.33269C13.9158 4.43349 11.5721 2.08981 8.67294 2.05957Z" fill="white"/>
<path d="M13.5811 8.02344C13.5818 8.02363 13.5832 8.02397 13.585 8.02441H13.5869C13.5854 8.02401 13.5839 8.02369 13.583 8.02344H13.5811ZM7.98145 2.41895V2.4209C7.98191 2.4227 7.98225 2.42417 7.98242 2.4248V2.42285C7.98218 2.42196 7.98185 2.42044 7.98145 2.41895ZM14.4463 7.33301C14.4462 7.54508 14.3504 7.73282 14.2031 7.86328V8.04492H8.67285C8.27965 8.04488 7.96111 7.72585 7.96094 7.33301V1.80273H8.14062C8.27106 1.65474 8.46005 1.5596 8.67285 1.55957H8.67773L8.97363 1.57031C12.007 1.75376 14.4142 4.25513 14.4463 7.32715V7.33301Z" stroke="black" stroke-opacity="0.3"/>
<path d="M12.7161 9.55354C12.7161 9.43642 12.6212 9.34138 12.5041 9.34138H6.88029C6.82405 9.34133 6.77012 9.31896 6.73037 9.27918C6.69062 9.2394 6.66829 9.18546 6.66829 9.12922V3.52234H6.66205C6.66365 3.51178 6.66829 3.50234 6.66829 3.49146C6.66829 3.37418 6.57325 3.2793 6.45613 3.2793C6.45101 3.2793 6.44685 3.28186 6.44189 3.28218V3.28074C6.42301 3.28058 6.40429 3.2793 6.38541 3.2793C3.44141 3.2793 2.05469 5.66602 2.05469 8.61002C2.05469 11.554 4.44141 13.9407 7.38541 13.9407C10.3294 13.9407 12.7161 12.554 12.7161 9.61002C12.7159 9.59316 12.7155 9.5762 12.715 9.55914C12.715 9.55706 12.7161 9.55354 12.7161 9.55354Z" fill="white"/>
<path d="M6.4668 2.78125L6.94141 2.78516V2.97266C6.95827 2.98843 6.97399 3.00512 6.98926 3.02246H7.16797V8.8418H12.5039C12.8977 8.8418 13.2158 9.16094 13.2158 9.55371V9.63086L13.2148 9.63184C13.2089 11.2468 12.5429 12.4731 11.4521 13.2812C10.3756 14.0787 8.92732 14.4404 7.38574 14.4404C4.16571 14.4404 1.55487 11.8303 1.55469 8.61035C1.55469 7.06863 1.91633 5.61959 2.71387 4.54297C3.52561 3.44727 4.76002 2.7793 6.38574 2.7793C6.40515 2.7793 6.42271 2.77995 6.43164 2.78027H6.44629C6.44951 2.78021 6.45275 2.7793 6.45605 2.7793C6.45963 2.7793 6.46324 2.7812 6.4668 2.78125ZM13.1924 9.7041H13.1934V9.70215L13.1943 9.7002C13.1949 9.69827 13.1956 9.6957 13.1963 9.69336C13.1966 9.69221 13.1969 9.69084 13.1973 9.68945L13.1924 9.7041Z" stroke="black" stroke-opacity="0.3"/>
</g>
</svg>
