<svg width="16" height="16" viewBox="0 0 16 16" fill="none" xmlns="http://www.w3.org/2000/svg">
<g filter="url(#filter0_d_1935_33914)">
<path fill-rule="evenodd" clip-rule="evenodd" d="M12.7803 5.21564C12.921 5.3536 13 5.54069 13 5.73577C13 5.93085 12.921 6.11794 12.7803 6.2559L7.15573 11.7701C7.0814 11.843 6.99315 11.9008 6.89603 11.9402C6.7989 11.9797 6.6948 12 6.58967 12C6.48454 12 6.38044 11.9797 6.28331 11.9402C6.18619 11.9008 6.09794 11.843 6.02361 11.7701L3.22909 9.0309C3.15742 8.96303 3.10025 8.88186 3.06092 8.7921C3.0216 8.70234 3.00089 8.60581 3.00003 8.50812C2.99916 8.41044 3.01815 8.31357 3.05588 8.22315C3.09361 8.13274 3.14933 8.0506 3.21979 7.98152C3.29025 7.91245 3.37403 7.85782 3.46625 7.82083C3.55848 7.78384 3.65729 7.76523 3.75693 7.76607C3.85657 7.76692 3.95504 7.78722 4.04659 7.82577C4.13814 7.86433 4.22095 7.92038 4.29017 7.99064L6.58942 10.2448L11.7187 5.21564C11.7884 5.14728 11.8711 5.09305 11.9622 5.05605C12.0533 5.01904 12.1509 5 12.2495 5C12.3481 5 12.4457 5.01904 12.5368 5.05605C12.6279 5.09305 12.7106 5.14728 12.7803 5.21564Z" fill="white" shape-rendering="crispEdges"/>
<path d="M12.249 4.5C12.4118 4.5 12.5737 4.53151 12.7246 4.59277C12.8757 4.65414 13.0143 4.74406 13.1309 4.8584C13.3662 5.08922 13.4999 5.40467 13.5 5.73535C13.5 6.06622 13.3663 6.38236 13.1309 6.61328H13.1299L7.50586 12.127C7.38466 12.2458 7.24106 12.3395 7.08398 12.4033C6.92701 12.4671 6.75919 12.5 6.58984 12.5C6.4204 12.5 6.25179 12.4671 6.09473 12.4033C5.93786 12.3395 5.7949 12.2457 5.67383 12.127L2.87891 9.3877L2.87988 9.38672C2.76309 9.27453 2.66769 9.14179 2.60254 8.99316C2.5362 8.84175 2.50149 8.67813 2.5 8.5127C2.49853 8.34721 2.53104 8.18288 2.59473 8.03027C2.6584 7.87783 2.75235 7.73948 2.87012 7.62402C2.98787 7.50868 3.12752 7.41771 3.28027 7.35645C3.43297 7.29523 3.59633 7.26428 3.76074 7.26562C3.9253 7.26703 4.08846 7.30136 4.24023 7.36523C4.38935 7.42803 4.52513 7.51921 4.63965 7.63379H4.64062L6.58887 9.54395L11.3682 4.85938V4.8584C11.4847 4.74405 11.6234 4.65414 11.7744 4.59277C11.9252 4.53157 12.0864 4.50006 12.249 4.5Z" stroke="black" stroke-opacity="0.3" shape-rendering="crispEdges"/>
</g>
<defs>
<filter id="filter0_d_1935_33914" x="1.1087" y="3.1087" width="13.7826" height="10.7826" filterUnits="userSpaceOnUse" color-interpolation-filters="sRGB">
<feFlood flood-opacity="0" result="BackgroundImageFix"/>
<feColorMatrix in="SourceAlpha" type="matrix" values="0 0 0 0 0 0 0 0 0 0 0 0 0 0 0 0 0 0 127 0" result="hardAlpha"/>
<feOffset/>
<feGaussianBlur stdDeviation="0.445652"/>
<feComposite in2="hardAlpha" operator="out"/>
<feColorMatrix type="matrix" values="0 0 0 0 0 0 0 0 0 0 0 0 0 0 0 0 0 0 1 0"/>
<feBlend mode="normal" in2="BackgroundImageFix" result="effect1_dropShadow_1935_33914"/>
<feBlend mode="normal" in="SourceGraphic" in2="effect1_dropShadow_1935_33914" result="shape"/>
</filter>
</defs>
</svg>
