<svg width="17" height="15" viewBox="0 0 17 15" fill="none" xmlns="http://www.w3.org/2000/svg">
<g opacity="0.6" clip-path="url(#clip0_1096_31101)">
<path d="M8.5 1C6.68776 1 5.21875 2.43229 5.21875 4.19922C5.21875 5.6277 7.36328 8.23125 8.1849 9.17629C8.3513 9.36773 8.64896 9.36773 8.8151 9.17629C9.63672 8.23125 11.7812 5.6277 11.7812 4.19922C11.7812 2.43229 10.3122 1 8.5 1ZM8.5 5.26562C7.89583 5.26562 7.40625 4.78828 7.40625 4.19922C7.40625 3.61016 7.89583 3.13281 8.5 3.13281C9.10417 3.13281 9.59375 3.61016 9.59375 4.19922C9.59375 4.78828 9.10417 5.26562 8.5 5.26562ZM1.52396 6.48311C1.36933 6.54342 1.23677 6.64752 1.14338 6.78197C1.04999 6.91643 1.00005 7.07508 1 7.23746L1 13.5932C1 13.8807 1.29766 14.0772 1.57135 13.9705L5.16667 12.375V6.45695C4.93646 6.05121 4.74818 5.65613 4.61328 5.27832L1.52396 6.48311ZM8.5 10.1322C8.13359 10.1322 7.78698 9.97533 7.54922 9.70162C7.03724 9.11256 6.49271 8.44174 6 7.75365V12.3747L11 13.9997V7.75391C10.5073 8.44174 9.96302 9.11281 9.45078 9.70187C9.21302 9.97533 8.86641 10.1322 8.5 10.1322ZM15.4286 5.09195L11.8333 6.6875V14L15.476 12.5794C15.6307 12.5191 15.7633 12.415 15.8567 12.2806C15.9501 12.1461 16 11.9874 16 11.825V5.46926C16 5.18184 15.7023 4.98531 15.4286 5.09195Z" fill="white"/>
<path d="M8.5 0.5C10.5764 0.5 12.2812 2.14429 12.2812 4.19922C12.2812 4.66547 12.1109 5.17522 11.8867 5.65723C11.7949 5.85452 11.6878 6.05405 11.5742 6.25488L11.6309 6.23047L15.2256 4.63477L15.2363 4.62988L15.2471 4.62598C15.8308 4.39852 16.5 4.81165 16.5 5.46973V11.8252L16.4961 11.9238C16.4784 12.1538 16.3996 12.3751 16.2676 12.5654C16.1166 12.7827 15.9031 12.9491 15.6572 13.0449L12.0146 14.4658L11.5 14.666V14.6885L11.4688 14.6777L11.333 14.7314V14.6338L10.8457 14.4756L5.8457 12.8506L5.5459 12.7529L5.36914 12.832L1.77441 14.4277L1.76367 14.4326L1.75293 14.4365C1.16916 14.664 0.5 14.2508 0.5 13.5928V7.2373L0.503906 7.13867C0.521577 6.90868 0.600355 6.68735 0.732422 6.49707C0.883224 6.27996 1.09618 6.1135 1.3418 6.01758H1.34277L4.43164 4.8125L4.77246 4.67969C4.73861 4.51638 4.71875 4.35543 4.71875 4.19922C4.71875 2.14429 6.42363 0.5 8.5 0.5ZM8.5 3.63281C8.15997 3.63281 7.90625 3.89816 7.90625 4.19922C7.90625 4.50028 8.15997 4.76562 8.5 4.76562C8.84003 4.76562 9.09375 4.50028 9.09375 4.19922C9.09375 3.89816 8.84003 3.63281 8.5 3.63281Z" stroke="black" stroke-opacity="0.3"/>
</g>
<defs>
<clipPath id="clip0_1096_31101">
<rect width="17" height="15" fill="white"/>
</clipPath>
</defs>
</svg>
