<svg width="22" height="22" viewBox="0 0 22 22" fill="none" xmlns="http://www.w3.org/2000/svg">
<g filter="url(#filter0_d_1745_36242)">
<path fill-rule="evenodd" clip-rule="evenodd" d="M16.2474 13.8333C16.6143 13.4205 16.5771 12.7884 16.1644 12.4215L11 7.83099L5.83565 12.4215C5.42286 12.7884 5.38568 13.4205 5.7526 13.8333C6.11952 14.2461 6.75159 14.2833 7.16437 13.9163L11 10.5069L14.8356 13.9163C15.2484 14.2833 15.8805 14.2461 16.2474 13.8333Z" fill="#E9B500" shape-rendering="crispEdges"/>
<path d="M16.6211 14.165C17.1712 13.5459 17.1152 12.5982 16.4961 12.0479L11.332 7.45703L11 7.16211L10.668 7.45703L5.50391 12.0479C4.88481 12.5982 4.82876 13.5459 5.37891 14.165C5.92921 14.7841 6.87691 14.8402 7.49609 14.29L11 11.1768L14.5039 14.29C15.1231 14.8402 16.0708 14.7841 16.6211 14.165Z" stroke="black" stroke-opacity="0.3" shape-rendering="crispEdges"/>
</g>
<defs>
<filter id="filter0_d_1745_36242" x="3.6087" y="5.60186" width="14.7826" height="10.4584" filterUnits="userSpaceOnUse" color-interpolation-filters="sRGB">
<feFlood flood-opacity="0" result="BackgroundImageFix"/>
<feColorMatrix in="SourceAlpha" type="matrix" values="0 0 0 0 0 0 0 0 0 0 0 0 0 0 0 0 0 0 127 0" result="hardAlpha"/>
<feOffset/>
<feGaussianBlur stdDeviation="0.445652"/>
<feComposite in2="hardAlpha" operator="out"/>
<feColorMatrix type="matrix" values="0 0 0 0 0 0 0 0 0 0 0 0 0 0 0 0 0 0 1 0"/>
<feBlend mode="normal" in2="BackgroundImageFix" result="effect1_dropShadow_1745_36242"/>
<feBlend mode="normal" in="SourceGraphic" in2="effect1_dropShadow_1745_36242" result="shape"/>
</filter>
</defs>
</svg>
