<svg width="16" height="16" viewBox="0 0 16 16" fill="none" xmlns="http://www.w3.org/2000/svg">
<g opacity="0.5" clip-path="url(#clip0_1837_34441)">
<path d="M14.0744 6.70969L13.2406 6.57138C13.1721 6.55953 13.1154 6.51211 13.0943 6.44625C13.0035 6.167 12.8875 5.89433 12.7519 5.63482C12.7189 5.5716 12.7242 5.49783 12.765 5.43988L13.2419 4.77205C13.446 4.48621 13.4144 4.09893 13.1655 3.84997L12.2157 2.90155C11.9681 2.6539 11.5795 2.62231 11.295 2.82515L10.5863 3.33229C10.531 3.37181 10.4586 3.37839 10.398 3.34941C10.1806 3.24272 9.95537 3.15182 9.72748 3.07806C9.66162 3.05698 9.6142 3.00034 9.60366 2.93184L9.46535 2.09935C9.40476 1.7516 9.10838 1.5 8.75668 1.5H7.41573C7.06403 1.5 6.76764 1.7516 6.70969 2.09803L6.57138 2.93184C6.55952 3.00034 6.51342 3.05698 6.44888 3.07806C6.19465 3.16105 5.94437 3.26511 5.70331 3.3876C5.64272 3.4179 5.57027 3.41263 5.51363 3.3718L4.82603 2.88046C4.54019 2.67629 4.15292 2.70791 3.90396 2.95686L2.95423 3.90659C2.70526 4.15555 2.67365 4.54281 2.87783 4.82867L3.36917 5.51626C3.41 5.5729 3.41659 5.64535 3.38497 5.70594C3.26247 5.947 3.1584 6.19728 3.07543 6.45151C3.05435 6.51605 2.99903 6.56216 2.93053 6.57401L2.09672 6.71232C1.7516 6.76765 1.5 7.06402 1.5 7.41573V8.758C1.5 9.10969 1.7516 9.40609 2.09803 9.46404L2.93184 9.60235C3.00034 9.6142 3.05698 9.66162 3.07806 9.72749C3.15182 9.95537 3.24403 10.1819 3.34941 10.398C3.37839 10.4586 3.37181 10.531 3.33229 10.5863L2.82515 11.295C2.62099 11.5808 2.65392 11.9681 2.90155 12.2158L3.84997 13.1655C4.09762 13.4144 4.48619 13.4461 4.77205 13.2419L5.43988 12.765C5.49784 12.7229 5.57292 12.7189 5.63482 12.7519C5.89433 12.8889 6.16698 13.0035 6.44625 13.0943C6.51211 13.1154 6.55953 13.1721 6.57138 13.2406L6.70969 14.0744C6.76765 14.4208 7.06404 14.6724 7.41574 14.6724H8.758C9.1097 14.6724 9.40609 14.4208 9.46404 14.0744L9.60235 13.2406C9.61421 13.1721 9.66031 13.1154 9.72485 13.0943C9.98039 13.0114 10.2307 12.9073 10.4704 12.7861C10.531 12.7558 10.6035 12.7624 10.6601 12.8019L11.3477 13.2933C11.6335 13.4974 12.0208 13.4658 12.2698 13.2169L13.2195 12.2671C13.4685 12.0182 13.5001 11.6309 13.2959 11.3451L12.8046 10.6575C12.7637 10.6008 12.7571 10.5284 12.7888 10.4678C12.9099 10.228 13.014 9.97777 13.097 9.72221C13.1181 9.65767 13.1734 9.61156 13.2432 9.59971L14.077 9.4614C14.4235 9.40344 14.675 9.10705 14.675 8.75536V7.41572C14.6724 7.06403 14.4208 6.76764 14.0744 6.70969ZM8.08612 10.7207C6.6332 10.7207 5.45164 9.53912 5.45164 8.0862C5.45164 6.63328 6.6332 5.45172 8.08612 5.45172C9.53904 5.45172 10.7206 6.63328 10.7206 8.0862C10.7206 9.53912 9.53904 10.7207 8.08612 10.7207Z" fill="white"/>
<path d="M8.08594 5.95215C6.90933 5.95225 5.95131 6.90934 5.95117 8.08594C5.95117 9.26265 6.90925 10.2206 8.08594 10.2207C9.26271 10.2207 10.2207 9.26272 10.2207 8.08594C10.2206 6.90928 9.26263 5.95215 8.08594 5.95215ZM15.1748 8.75488C15.1748 9.35138 14.7461 9.85591 14.1592 9.9541V9.95508L13.5078 10.0625C13.4514 10.2173 13.3885 10.3697 13.3193 10.5186L13.7031 11.0547C14.049 11.5392 13.9951 12.1992 13.5732 12.6211L12.623 13.5703C12.2011 13.9922 11.5412 14.0463 11.0566 13.7002L10.5195 13.3164C10.3709 13.3854 10.219 13.4486 10.0645 13.5049L9.95703 14.1562V14.1572C9.8587 14.744 9.35417 15.1729 8.75781 15.1729H7.41602C6.81965 15.1729 6.31514 14.7439 6.2168 14.1572V14.1562L6.1084 13.5059C5.92758 13.4402 5.74977 13.3652 5.57617 13.2812L5.0625 13.6484C4.57856 13.9941 3.91653 13.9422 3.49512 13.5186V13.5176L2.54785 12.5693C2.12794 12.1494 2.07135 11.4892 2.41797 11.0039H2.41895L2.82129 10.4404C2.76632 10.3175 2.71514 10.1923 2.66895 10.0654L2.0166 9.95703H2.01562C1.4287 9.85885 1 9.3543 1 8.75781V7.41602C1 6.8217 1.42653 6.31445 2.01465 6.21875L2.66406 6.11133C2.72047 5.95702 2.7838 5.80469 2.85352 5.65527L2.4707 5.11914C2.12477 4.6346 2.17869 3.97463 2.60059 3.55273L3.55078 2.60352C3.97266 2.18173 4.63172 2.12777 5.11621 2.47363H5.11719L5.65234 2.85547C5.80164 2.78582 5.95422 2.72337 6.1084 2.66699L6.2168 2.0166V2.01562C6.31497 1.4287 6.81953 1 7.41602 1H8.75684C9.31726 1.00007 9.79354 1.3775 9.93457 1.90625L9.95801 2.01367L9.95898 2.01758L10.0664 2.66992C10.1925 2.71574 10.3173 2.76614 10.4404 2.82129L11.0039 2.41895L11.0049 2.41797C11.4877 2.07381 12.1486 2.12713 12.5693 2.54785L13.5186 3.49609C13.9405 3.91805 13.9945 4.57796 13.6484 5.0625L13.2812 5.57617C13.3646 5.74907 13.4397 5.92697 13.5059 6.1084L14.1562 6.2168H14.1572C14.7444 6.31522 15.1704 6.81909 15.1748 7.41211V8.75488Z" stroke="black" stroke-opacity="0.3"/>
</g>
<defs>
<clipPath id="clip0_1837_34441">
<rect width="16" height="16" fill="white"/>
</clipPath>
</defs>
</svg>
