<svg width="16" height="16" viewBox="0 0 16 16" fill="none" xmlns="http://www.w3.org/2000/svg">
<g opacity="0.6" clip-path="url(#clip0_1745_39816)">
<path d="M15.3307 1.33398H0.664062V12.0007H7.6914C7.58578 11.0781 7.77034 10.1455 8.2194 9.33265H1.9974V2.66598H13.9974V7.38998C14.493 7.61211 14.9446 7.92147 15.3307 8.30332V1.33398ZM1.9974 13.334H8.0534C8.27552 13.8295 8.58488 14.2812 8.96673 14.6673H1.9974V13.334Z" fill="white"/>
<path d="M8.37695 12.834L8.50977 13.1299C8.70735 13.5706 8.9827 13.972 9.32227 14.3154L10.1641 15.167H1.49707V12.834H8.37695ZM15.8311 0.833984V9.50098L14.9795 8.65918C14.636 8.3195 14.2338 8.0443 13.793 7.84668L13.4971 7.71387V3.16602H2.49707V8.83301H9.06641L8.65723 9.57422C8.2585 10.2959 8.09478 11.1242 8.18848 11.9434L8.25195 12.501H0.164062V0.833984H15.8311Z" stroke="black" stroke-opacity="0.3"/>
<path d="M15.3333 11.5003C15.3333 12.1337 15.148 12.7223 14.828 13.217L15.9427 14.335L14.9987 15.2763L13.8853 14.1603C13.2942 14.5424 12.5925 14.7165 11.8913 14.6553C11.1901 14.5941 10.5293 14.3011 10.0132 13.8224C9.49718 13.3437 9.15529 12.7068 9.04159 12.0122C8.92789 11.3175 9.04886 10.6048 9.38539 9.98663C9.72192 9.36842 10.2548 8.87996 10.8999 8.59839C11.545 8.31682 12.2655 8.25821 12.9477 8.43181C13.6298 8.6054 14.2346 9.00132 14.6667 9.557C15.0987 10.1127 15.3333 10.7965 15.3333 11.5003ZM14 11.5003C14 11.0765 13.8531 10.6657 13.5844 10.3379C13.3156 10.0101 12.9416 9.78556 12.5259 9.7025C12.1102 9.61945 11.6786 9.683 11.3045 9.88235C10.9304 10.0817 10.637 10.4045 10.4741 10.7959C10.3112 11.1872 10.289 11.6229 10.4112 12.0288C10.5334 12.4347 10.7924 12.7857 11.1443 13.0221C11.4961 13.2585 11.919 13.3656 12.341 13.3253C12.763 13.285 13.1579 13.0997 13.4587 12.801L13.4647 12.7957C13.6348 12.6256 13.7697 12.4237 13.8615 12.2014C13.9534 11.9791 14.0004 11.7409 14 11.5003Z" fill="white"/>
<path d="M10.7002 8.14062C11.4471 7.81462 12.2815 7.74626 13.0713 7.94727C13.861 8.14831 14.5613 8.60666 15.0615 9.25C15.5617 9.89335 15.8329 10.6851 15.833 11.5C15.833 12.0864 15.6934 12.6399 15.4482 13.1318L16.2969 13.9824L16.6494 14.3359L16.2959 14.6895L15.3516 15.6309L14.998 15.9834L14.6445 15.6299L13.7979 14.7803C13.1961 15.0796 12.5224 15.2122 11.8477 15.1533C11.0358 15.0824 10.2703 14.7436 9.67285 14.1895C9.0753 13.6352 8.6795 12.8971 8.54785 12.0928C8.41628 11.2887 8.5568 10.4637 8.94629 9.74805C9.33595 9.03223 9.95324 8.46665 10.7002 8.14062ZM12.4277 10.1924C12.1257 10.1321 11.8119 10.1785 11.54 10.3232C11.268 10.4682 11.054 10.7037 10.9355 10.9883C10.8172 11.2728 10.8008 11.5897 10.8896 11.8848C10.9785 12.1799 11.167 12.4355 11.4229 12.6074C11.6786 12.7793 11.9862 12.8563 12.293 12.8271C12.5999 12.7978 12.8877 12.6635 13.1064 12.4463L13.1162 12.4365L13.1172 12.4346C13.2375 12.3126 13.3339 12.1691 13.3994 12.0107C13.4661 11.8493 13.5003 11.6757 13.5 11.501V11.5C13.4999 11.1918 13.3927 10.8936 13.1973 10.6553C13.0018 10.4169 12.73 10.2528 12.4277 10.1924Z" stroke="black" stroke-opacity="0.3"/>
</g>
<defs>
<clipPath id="clip0_1745_39816">
<rect width="16" height="16" fill="white"/>
</clipPath>
</defs>
</svg>
