<svg width="16" height="16" viewBox="0 0 16 16" fill="none" xmlns="http://www.w3.org/2000/svg">
<g opacity="0.6" clip-path="url(#clip0_1745_36185)">
<path d="M13 3C12.4552 3.52114 11.8073 3.92241 11.098 4.178C10.35 4.31 8.28 3.35 7.26 4.33C7.09 4.5 6.88 4.67 6.66 4.84C6.18 4.63 5.44 4.31 4.9 4C4.36 3.69 3 3 3 3L0 6.5C0 6.5 0.74 7.5 1.2 8.16C1.5 8.6 1.87 9.27 2.11 9.72L1.77 10.12C1.68916 10.2819 1.66019 10.4648 1.68703 10.6437C1.71387 10.8226 1.79522 10.989 1.92 11.12C2.06442 11.2289 2.24046 11.2876 2.42134 11.2873C2.60221 11.2869 2.77801 11.2275 2.922 11.118C2.86854 11.1806 2.82807 11.2532 2.80297 11.3316C2.77787 11.41 2.76864 11.4926 2.7758 11.5746C2.78297 11.6567 2.8064 11.7364 2.84472 11.8093C2.88304 11.8821 2.93549 11.9466 2.999 11.999C3.15191 12.0876 3.32556 12.1341 3.50227 12.1337C3.67898 12.1334 3.85245 12.0862 4.005 11.997C3.89074 12.1394 3.82823 12.3164 3.82768 12.499C3.82714 12.6816 3.8886 12.8589 4.002 13.002C4.14939 13.0532 4.30663 13.0695 4.46139 13.0498C4.61615 13.03 4.76422 12.9746 4.894 12.888C4.82903 13.041 4.81213 13.2102 4.84553 13.3731C4.87892 13.536 4.96104 13.6849 5.081 13.8C5.25026 13.8745 5.43556 13.9051 5.61979 13.889C5.80401 13.873 5.98121 13.8107 6.135 13.708L6.651 13.241C7.123 13.711 7.774 14.002 8.493 14.002L8.554 14.001C8.79098 13.9809 9.01801 13.8966 9.21074 13.7573C9.40347 13.6179 9.55463 13.4287 9.648 13.21C9.794 13.266 9.96 13.304 10.136 13.304C10.372 13.304 10.591 13.236 10.776 13.119C11.361 12.732 11.221 12.432 11.221 12.432C11.429 12.5215 11.6601 12.5428 11.8809 12.4926C12.1018 12.4425 12.301 12.3236 12.45 12.153C12.6048 11.9946 12.7024 11.7892 12.7274 11.5692C12.7524 11.3491 12.7033 11.127 12.588 10.938C12.5944 10.9416 12.6017 10.9433 12.609 10.943C13.03 10.943 13.396 10.711 13.587 10.369C13.6814 10.126 13.7133 9.86322 13.6799 9.60468C13.6466 9.34614 13.549 9.10009 13.396 8.889L13.399 8.894C14.219 8.734 14.189 8.324 14.589 7.724C14.9673 7.23392 15.4386 6.82339 15.976 6.516L13 3ZM12.95 10.06C12.51 10.5 12.17 10.31 11.42 9.74C10.67 9.17 9.18 8.1 9.18 8.1C9.241 8.405 9.382 8.67 9.581 8.881C9.9 9.24 10.85 10.06 11.3 10.48C11.58 10.74 12.3 11.26 11.88 11.66C11.46 12.06 11.13 11.66 10.44 11.1C9.75 10.54 8.21 9.16 8.21 9.16C8.20171 9.29226 8.22148 9.42479 8.26801 9.54887C8.31454 9.67296 8.38678 9.7858 8.48 9.88C8.65 10.08 9.6 11 10 11.42C10.4 11.84 10.75 12.09 10.41 12.42C10.07 12.75 9.38 12.23 9 11.84C8.41 11.27 7.24 10.21 7.24 10.21L7.239 10.263C7.239 10.547 7.337 10.807 7.502 11.013C7.79 11.391 8.35 11.881 8.69 12.261C9.03 12.641 9.23 12.961 8.69 13.261C8.15 13.561 7.35 12.821 7 12.461V12.459C7.00109 12.3601 6.96546 12.2642 6.9 12.19C6.78015 12.0796 6.63257 12.0038 6.47301 11.9707C6.31345 11.9375 6.14789 11.9484 5.994 12.002C6.05715 11.9453 6.10777 11.8759 6.1426 11.7985C6.17743 11.7211 6.19571 11.6372 6.19628 11.5523C6.19684 11.4674 6.17968 11.3833 6.14588 11.3054C6.11208 11.2276 6.06239 11.1576 6 11.1C5.86873 11.0005 5.70852 10.9468 5.54383 10.947C5.37915 10.9472 5.21905 11.0013 5.088 11.101C5.15426 11.0377 5.20542 10.9603 5.23766 10.8745C5.2699 10.7887 5.2824 10.6968 5.27423 10.6055C5.26607 10.5143 5.23744 10.426 5.19049 10.3473C5.14353 10.2686 5.07945 10.2015 5.003 10.151C4.82398 10.0385 4.61392 9.98567 4.40299 10C4.19205 10.0144 3.9911 10.0953 3.829 10.231C3.93734 10.0997 3.99076 9.9316 3.97808 9.76183C3.96541 9.59207 3.88763 9.43377 3.761 9.32C3.60329 9.17409 3.40279 9.08285 3.18918 9.05979C2.97556 9.03674 2.76021 9.0831 2.575 9.192L1.91 8.069C1.45 7.339 0.91 6.579 0.91 6.579L3.19 3.809C3.19 3.809 4 4.309 4.67 4.689C5 4.879 5.57 5.129 6 5.329C5.32 5.839 4.75 6.329 4.92 6.669C5.22273 6.88701 5.58486 7.00729 5.95786 7.01373C6.33087 7.02016 6.69693 6.91244 7.007 6.705C7.40457 6.43998 7.8722 6.29965 8.35 6.302C8.697 6.302 9.027 6.374 9.326 6.505C9.88 6.879 10.9 7.799 11.83 8.379C13 9.229 13.23 9.779 12.95 10.059V10.06Z" fill="white"/>
<path d="M13.3818 2.67676L16.3574 6.19336L16.7461 6.65137L16.2246 6.9502C15.7504 7.22144 15.3329 7.582 14.9971 8.0127C14.9167 8.13469 14.8565 8.24914 14.792 8.37109C14.7298 8.48868 14.6529 8.63562 14.5547 8.76953C14.4312 8.93772 14.2821 9.07107 14.0938 9.17578C14.1318 9.29435 14.1597 9.41664 14.1758 9.54102C14.2198 9.88231 14.1773 10.229 14.0527 10.5498L14.04 10.582L14.0234 10.6133C13.8467 10.9296 13.5649 11.1793 13.2256 11.3193C13.235 11.4207 13.2362 11.5236 13.2246 11.626C13.187 11.9564 13.0401 12.2652 12.8076 12.5029L12.8066 12.502C12.5902 12.7409 12.3061 12.909 11.9912 12.9805C11.8569 13.0109 11.72 13.0218 11.584 13.0166C11.4725 13.1976 11.2989 13.3727 11.0518 13.5361L11.043 13.542C10.7807 13.7077 10.4693 13.8037 10.1357 13.8037C10.0503 13.8037 9.96764 13.7955 9.8877 13.7842C9.77948 13.9278 9.65092 14.0558 9.50391 14.1621C9.23772 14.3546 8.92396 14.4712 8.59668 14.499L8.5791 14.501H8.5625L8.50098 14.502H8.49316C7.80855 14.502 7.17753 14.2769 6.66406 13.9023L6.4707 14.0791L6.44336 14.1035L6.41309 14.124C6.18939 14.2734 5.93105 14.3633 5.66309 14.3867C5.39529 14.4101 5.12594 14.3661 4.87988 14.2578L4.79883 14.2217L4.73438 14.1611C4.56167 13.9954 4.4387 13.7856 4.37598 13.5557C4.1935 13.5608 4.01112 13.5348 3.83789 13.4746L3.7002 13.4268L3.61035 13.3125C3.45252 13.1134 3.35632 12.8733 3.33301 12.6221C3.1276 12.599 2.92797 12.5359 2.74805 12.4316L2.71289 12.4111L2.68066 12.3848C2.56601 12.2902 2.47154 12.1735 2.40234 12.042C2.35887 11.9593 2.32633 11.8717 2.30469 11.7812C2.05688 11.7597 1.81904 11.6702 1.61914 11.5195L1.58594 11.4941L1.55762 11.4648C1.362 11.2594 1.23447 10.9983 1.19238 10.7178C1.15032 10.4372 1.19553 10.1503 1.32227 9.89648L1.34961 9.84277L1.38867 9.7959L1.50488 9.6582C1.28282 9.25199 1.01434 8.77598 0.790039 8.44629L0.0234375 7.37695C-0.0972681 7.21145 -0.204048 7.06649 -0.280273 6.96289C-0.318339 6.91115 -0.348163 6.86924 -0.369141 6.84082C-0.379601 6.82665 -0.388086 6.81599 -0.393555 6.80859C-0.39629 6.80489 -0.39803 6.80168 -0.399414 6.7998L-0.401367 6.79785L-0.638672 6.47754L-0.379883 6.1748L2.62012 2.6748L2.87598 2.37598L3.22656 2.55371V2.55469H3.22754C3.22821 2.55503 3.22928 2.55604 3.23047 2.55664C3.2331 2.55798 3.23729 2.56001 3.24219 2.5625C3.25237 2.56767 3.26716 2.5753 3.28613 2.58496C3.32459 2.60454 3.38003 2.63308 3.44824 2.66797C3.58469 2.73776 3.77286 2.83334 3.97754 2.93945C4.38357 3.14994 4.86861 3.4052 5.14941 3.56641C5.5706 3.80816 6.1284 4.05799 6.58496 4.25879C6.70597 4.16 6.81512 4.06768 6.90625 3.97656L6.91309 3.96973H6.91406C7.60962 3.30155 8.6076 3.3391 9.34863 3.44043C9.73037 3.49264 10.1222 3.57498 10.4141 3.62695C10.7091 3.67949 10.8846 3.69498 10.9795 3.6875C11.603 3.45492 12.1731 3.0989 12.6543 2.63867L13.0381 2.27148L13.3818 2.67676ZM1.53613 6.60352C1.57092 6.65384 1.60988 6.70839 1.65039 6.76758C1.74755 6.90953 1.85943 7.07531 1.97656 7.25195L2.33301 7.80273L2.34082 7.81445H2.33984L2.79395 8.58203C2.94084 8.5533 3.09245 8.54623 3.24316 8.5625C3.56346 8.59714 3.8641 8.73433 4.10059 8.95312H4.09961C4.26219 9.10089 4.3782 9.29028 4.43652 9.49902C4.72988 9.49228 5.01922 9.57098 5.26855 9.72754L5.27832 9.7334C5.4174 9.82532 5.53468 9.94767 5.62012 10.0908C5.68891 10.2061 5.73428 10.3332 5.75781 10.4648C5.95437 10.4987 6.1411 10.5795 6.30176 10.7012L6.32129 10.7158L6.33887 10.7324C6.4524 10.8372 6.54299 10.9647 6.60449 11.1064C6.66054 11.2356 6.69007 11.3742 6.69434 11.5146C6.83572 11.5574 6.9699 11.6197 7.09082 11.7041L7.23926 11.8223L7.25781 11.8398L7.27539 11.8594C7.36807 11.9645 7.43315 12.0893 7.46875 12.2227C7.62753 12.3772 7.83098 12.5561 8.03711 12.6836C8.332 12.8659 8.43903 12.8287 8.44727 12.8242C8.4615 12.8163 8.47256 12.8066 8.4834 12.7998C8.44613 12.7453 8.39272 12.6789 8.31738 12.5947C8.16017 12.419 7.95131 12.2176 7.72363 11.9912C7.5082 11.777 7.27243 11.5367 7.10449 11.3164V11.3154C6.87563 11.0254 6.73926 10.6598 6.73926 10.2627V10.2539L6.74023 10.2002L6.76074 9.10156L7.57617 9.83984L7.5791 9.84277L7.62793 9.88672C7.66119 9.91692 7.70917 9.96057 7.76855 10.0146C7.88782 10.1233 8.05356 10.2747 8.2373 10.4434C8.42045 10.6115 8.62306 10.7984 8.81738 10.9795L9.34766 11.4805L9.3584 11.4912C9.40426 11.5383 9.45456 11.5858 9.50684 11.6328C9.31247 11.4341 9.05124 11.1713 8.80078 10.9219C8.50344 10.6257 8.20111 10.3247 8.09863 10.2041L8.09961 10.2031C7.96953 10.0646 7.86665 9.9028 7.7998 9.72461C7.72855 9.53458 7.69827 9.33146 7.71094 9.12891L7.77539 8.09961L8.54395 8.78809L8.54492 8.78906C8.54557 8.78964 8.54677 8.79005 8.54785 8.79102C8.55069 8.79355 8.55503 8.7978 8.56055 8.80273C8.57189 8.81288 8.58878 8.82838 8.61035 8.84766C8.6536 8.8863 8.71664 8.94192 8.79395 9.01074C8.94862 9.14844 9.16172 9.33818 9.39648 9.54492C9.86863 9.96071 10.4189 10.4392 10.7549 10.7119C10.8445 10.7846 10.9279 10.8541 11.0039 10.918C11.0812 10.9829 11.1499 11.0404 11.2139 11.0928C11.2563 11.1275 11.295 11.1565 11.3291 11.1826C11.2985 11.1521 11.2661 11.1194 11.2305 11.0869C11.1851 11.0455 11.1397 11.006 11.0938 10.9658C11.0499 10.9276 11.0017 10.8854 10.96 10.8467L10.959 10.8457C10.7371 10.6386 10.3969 10.3376 10.0557 10.0283C9.73203 9.735 9.39662 9.42474 9.21387 9.2207C8.95293 8.94277 8.7687 8.59434 8.68945 8.19824L8.44043 6.95312L9.47168 7.69434H9.47266C9.47336 7.69484 9.47424 7.6963 9.47559 7.69727C9.4784 7.69929 9.48288 7.70217 9.48828 7.70605C9.49939 7.71404 9.51607 7.72607 9.53711 7.74121C9.57939 7.77163 9.6411 7.81551 9.7168 7.87012C9.86852 7.97956 10.0788 8.13199 10.3125 8.30176C10.7787 8.64047 11.3429 9.05318 11.7227 9.3418C11.9091 9.48353 12.0562 9.5913 12.1807 9.66992C12.3066 9.74945 12.3849 9.78284 12.4326 9.7959C12.4528 9.8014 12.4635 9.80271 12.4668 9.80273C12.4687 9.80272 12.47 9.80262 12.4727 9.80176C12.4777 9.80006 12.4974 9.7892 12.5371 9.75684C12.5295 9.74012 12.5215 9.71724 12.5059 9.69141C12.3899 9.50007 12.1074 9.19967 11.5449 8.79004C11.0603 8.48576 10.5611 8.10179 10.126 7.75684C9.69342 7.41388 9.34047 7.12465 9.08691 6.94824C8.86054 6.85484 8.6121 6.80176 8.34961 6.80176H8.34766C7.9694 6.7999 7.59892 6.91128 7.28418 7.12109C6.88957 7.38485 6.42381 7.52186 5.94922 7.51367C5.47443 7.50548 5.01331 7.35263 4.62793 7.0752L4.52832 7.00293L4.47266 6.89258C4.34911 6.64542 4.38017 6.39633 4.45605 6.2041C4.5278 6.02242 4.64884 5.8614 4.76953 5.72754C4.8544 5.63341 4.95366 5.53989 5.05957 5.44531C4.82283 5.33394 4.59393 5.22139 4.42285 5.12305C4.08257 4.93004 3.70837 4.70839 3.4209 4.53516C3.37854 4.50963 3.33814 4.48415 3.2998 4.46094L1.53613 6.60352Z" stroke="black" stroke-opacity="0.3"/>
</g>
<defs>
<clipPath id="clip0_1745_36185">
<rect width="16" height="16" fill="white"/>
</clipPath>
</defs>
</svg>
