<svg width="12" height="12" viewBox="0 0 12 12" fill="none" xmlns="http://www.w3.org/2000/svg">
<g clip-path="url(#clip0_1146_31814)">
<path d="M10.63 6.40877H8.72156V5.45454H10.63V6.40877ZM10.63 6.95402H8.72156V7.90825H10.63V6.95402ZM10.63 2.45557H8.72156V3.40978H10.63V2.45557ZM10.63 3.95505H8.72156V4.90926H10.63V3.95505ZM10.63 8.4535H8.72156V9.40774H10.63V8.4535ZM11.9482 10.3347C11.8937 10.6182 11.5529 10.625 11.3252 10.6346H7.08577V11.8614H6.23923L0 10.7709V1.23009L6.27605 0.138184H7.08577V1.22463H11.1794C11.4097 1.23417 11.6633 1.21781 11.8637 1.35548C12.0041 1.55723 11.9905 1.81352 12 2.04525L11.9945 9.14191C11.9877 9.53859 12.0313 9.94347 11.9482 10.3347ZM4.99873 8.19588C4.62251 7.43252 4.23947 6.67457 3.86459 5.91119C4.23537 5.16827 4.60071 4.42263 4.96467 3.67696C4.65523 3.69196 4.34578 3.71104 4.03772 3.73286C3.80733 4.29311 3.53878 4.83839 3.35885 5.41774C3.19118 4.87111 2.96899 4.34491 2.76588 3.81192C2.46598 3.82828 2.16607 3.846 1.86619 3.86371C2.18243 4.56168 2.51916 5.25004 2.82586 5.95209C2.46462 6.63368 2.12655 7.32482 1.77621 8.01049C2.07473 8.02275 2.37328 8.03503 2.6718 8.03911C2.88448 7.49658 3.14892 6.97448 3.33431 6.42103C3.50063 7.01538 3.78279 7.56473 4.01454 8.13316C4.34306 8.15636 4.6702 8.1768 4.99873 8.19588ZM11.3498 1.87204H7.08577V2.45557H8.17631V3.40978H7.08577V3.95505H8.17631V4.90926H7.08577V5.45454H8.17631V6.40877H7.08577V6.95402H8.17631V7.90825H7.08577V8.4535H8.17631V9.40774H7.08577V10.0381H11.3498V1.87204Z" fill="#007141"/>
</g>
<defs>
<clipPath id="clip0_1146_31814">
<rect width="12" height="12" fill="white"/>
</clipPath>
</defs>
</svg>
