<svg width="16" height="16" viewBox="0 0 16 16" fill="none" xmlns="http://www.w3.org/2000/svg">
<path d="M14.7049 6.09241L13.7298 5.93066C13.6497 5.9168 13.5835 5.86135 13.5589 5.78432C13.4526 5.45776 13.317 5.13889 13.1584 4.83542C13.1198 4.76148 13.126 4.67521 13.1738 4.60744L13.7314 3.82645C13.9701 3.49218 13.9332 3.03929 13.642 2.74814L12.5314 1.63903C12.2418 1.34942 11.7874 1.31247 11.4546 1.54969L10.6259 2.14275C10.5612 2.18896 10.4765 2.19666 10.4056 2.16277C10.1514 2.038 9.88802 1.9317 9.62152 1.84544C9.5445 1.82079 9.48904 1.75455 9.47672 1.67445L9.31498 0.700899C9.24411 0.294225 8.89752 0 8.48623 0H6.91808C6.50679 0 6.16017 0.294225 6.0924 0.699361L5.93066 1.67445C5.91679 1.75455 5.86288 1.82079 5.7874 1.84544C5.4901 1.94249 5.19741 2.06419 4.91551 2.20743C4.84465 2.24286 4.75993 2.2367 4.69369 2.18895L3.88959 1.61436C3.55532 1.3756 3.10242 1.41257 2.81128 1.7037L1.70063 2.81435C1.40948 3.1055 1.37251 3.55837 1.61128 3.89267L2.18587 4.69676C2.23362 4.763 2.24133 4.84773 2.20436 4.91859C2.0611 5.20049 1.93939 5.49318 1.84236 5.79048C1.81771 5.86596 1.75302 5.91987 1.67291 5.93374L0.697823 6.09548C0.294225 6.16018 0 6.50677 0 6.91808V8.48777C0 8.89906 0.294225 9.24567 0.699361 9.31344L1.67445 9.47519C1.75455 9.48905 1.82079 9.5445 1.84544 9.62153C1.9317 9.88803 2.03954 10.153 2.16277 10.4056C2.19666 10.4765 2.18896 10.5612 2.14275 10.6259L1.54969 11.4546C1.31093 11.7889 1.34943 12.2418 1.63903 12.5314L2.74814 13.642C3.03775 13.9332 3.49216 13.9702 3.82645 13.7314L4.60744 13.1738C4.67522 13.1245 4.76303 13.1198 4.83542 13.1584C5.13889 13.3186 5.45774 13.4526 5.78432 13.5589C5.86134 13.5835 5.9168 13.6497 5.93066 13.7298L6.09241 14.7049C6.16019 15.1101 6.50679 15.4043 6.91808 15.4043H8.48777C8.89906 15.4043 9.24568 15.1101 9.31344 14.7049L9.47519 13.7298C9.48905 13.6497 9.54297 13.5835 9.61845 13.5589C9.91729 13.4618 10.21 13.3401 10.4903 13.1984C10.5612 13.163 10.6459 13.1707 10.7122 13.2169L11.5163 13.7915C11.8505 14.0302 12.3034 13.9933 12.5946 13.7021L13.7052 12.5915C13.9964 12.3003 14.0333 11.8475 13.7946 11.5132L13.22 10.7091C13.1722 10.6428 13.1645 10.5581 13.2015 10.4872C13.3432 10.2069 13.4649 9.91422 13.5619 9.61536C13.5866 9.53988 13.6513 9.48596 13.7329 9.4721L14.708 9.31036C15.1132 9.24258 15.4074 8.89597 15.4074 8.48468V6.91807C15.4043 6.50678 15.1101 6.16018 14.7049 6.09241ZM7.70206 10.783C6.00296 10.783 4.62119 9.40125 4.62119 7.70215C4.62119 6.00305 6.00296 4.62128 7.70206 4.62128C9.40116 4.62128 10.7829 6.00305 10.7829 7.70215C10.7829 9.40125 9.40116 10.783 7.70206 10.783Z" fill="black"/>
</svg>
