<svg width="14" height="14" viewBox="0 0 14 14" fill="none" xmlns="http://www.w3.org/2000/svg">
<path d="M10.4974 5.83341C10.4974 3.26091 8.40323 1.16675 5.83073 1.16675C3.25823 1.16675 1.16406 3.26091 1.16406 5.83341C1.16406 8.40591 3.25823 10.5001 5.83073 10.5001C6.9099 10.5001 7.89573 10.1326 8.68906 9.51425L11.6641 12.4892L12.4866 11.6667L9.51156 8.69175C10.1483 7.87478 10.4951 6.86919 10.4974 5.83341ZM2.33073 5.83341C2.33073 3.90258 3.8999 2.33341 5.83073 2.33341C7.76156 2.33341 9.33073 3.90258 9.33073 5.83341C9.33073 7.76425 7.76156 9.33341 5.83073 9.33341C3.8999 9.33341 2.33073 7.76425 2.33073 5.83341Z" fill="#383838"/>
</svg>
