<svg width="86" height="34" viewBox="0 0 86 34" fill="none" xmlns="http://www.w3.org/2000/svg">
<g clip-path="url(#clip0_1955_35877)">
<path d="M1 7C1 3.68629 3.68629 1 7 1H79C82.3137 1 85 3.68629 85 7V27C85 30.3137 82.3137 33 79 33H7C3.68629 33 1 30.3137 1 27V7Z" fill="url(#paint0_linear_1955_35877)"/>
<path d="M1 7C1 3.68629 3.68629 1 7 1H79C82.3137 1 85 3.68629 85 7V27C85 30.3137 82.3137 33 79 33H7C3.68629 33 1 30.3137 1 27V7Z" fill="#161616" fill-opacity="0.2"/>
<rect x="0.5" y="0.5" width="85" height="33" rx="6.5" stroke="url(#paint1_linear_1955_35877)"/>
<rect x="1.5" y="1.5" width="83" height="31" rx="5.5" stroke="url(#paint2_linear_1955_35877)"/>
<g opacity="0.8" filter="url(#filter0_f_1955_35877)">
<path d="M5.15099 22.9231L4.75997 11.0052L3.33594 9.51172V22.9231C3.33594 28.6851 3.638 30.1277 6.14477 30.2932L79.1406 30.6221C76.0122 28.4365 61.3927 28.2213 54.474 28.3869H12.1095C3.44612 28.3869 6.14477 27.0184 5.15099 22.9231Z" fill="url(#paint3_linear_1955_35877)"/>
</g>
<g opacity="0.1" filter="url(#filter1_f_1955_35877)" style="mix-blend-mode:plus-lighter">
<path d="M1.78805 25.8467L1.78805 9.51172C3.98486 12.1375 6.59375 13.3203 6.59375 16.7063C6.59375 20.0923 3.38995 25.3961 1.78805 25.8467Z" fill="#FDFDFD"/>
</g>
<g opacity="0.6" filter="url(#filter2_f_1955_35877)" style="mix-blend-mode:multiply">
<path d="M40.552 30.6216C38.2511 30.6311 36.064 30.6216 34.0938 30.6216H40.552C53.87 30.5666 71.0001 29.8744 71.9688 23.0129C73.4688 12.3881 77.9753 13.1515 81.7188 14.5129C84.2288 15.426 83.8438 19.3877 83.138 26.1702C82.7197 27.654 80.8232 30.6216 76.5839 30.6216H40.552Z" fill="url(#paint4_linear_1955_35877)"/>
</g>
<g opacity="0.8" filter="url(#filter3_f_1955_35877)">
<path d="M3.50679 6.522C3.50723 2.26783 8.28681 3.95669 10.3456 3.81384L80.6641 2.5918L42.5063 5.30685C12.298 6.59288 6.65939 6.50845 6.04171 9.32688C2.3547 16.9097 3.50578 16.3874 3.50679 6.522Z" fill="white"/>
</g>
<mask id="path-8-outside-1_1955_35877" maskUnits="userSpaceOnUse" x="27.3516" y="8.18164" width="30" height="18" fill="black">
<rect fill="white" x="27.3516" y="8.18164" width="30" height="18"/>
<path d="M29.8849 17.3416L29.0369 15.7096C31.2449 15.2936 32.2529 14.1576 32.3169 12.9096H29.4369V11.2776H32.3169V9.83764H34.4289V11.2776H37.3089V12.9096H34.4289C34.4929 14.0776 35.5009 15.1016 37.6449 15.4856L36.8289 17.1176C35.1809 16.7976 34.0769 16.0616 33.4209 15.1016C32.7649 16.1736 31.5969 16.9896 29.8849 17.3416ZM37.9009 17.5336L38.0289 19.0536C36.8449 19.2616 35.6129 19.4056 34.4129 19.5016V24.1096H32.3009V19.6296C31.0529 19.6776 29.8689 19.6776 28.8129 19.6776L28.5569 17.9656C31.2449 17.9656 34.8129 17.9496 37.9009 17.5336ZM38.7329 9.82164H40.8449V24.5416H38.7329V9.82164ZM55.8037 16.5416L54.9397 18.2856C52.3477 17.8216 50.4597 16.4456 49.4997 14.6216C48.5397 16.4296 46.6677 17.8216 44.0917 18.2856L43.2277 16.5416C46.5557 15.9976 48.3797 13.7416 48.3797 11.6936V10.6376H50.6357V11.6936C50.6357 13.7896 52.4437 15.9976 55.8037 16.5416ZM50.5717 21.1176H56.2517V22.8136H42.9077V21.1176H48.4597V17.8216H50.5717V21.1176Z"/>
</mask>
<path d="M29.8849 17.3416L29.0369 15.7096C31.2449 15.2936 32.2529 14.1576 32.3169 12.9096H29.4369V11.2776H32.3169V9.83764H34.4289V11.2776H37.3089V12.9096H34.4289C34.4929 14.0776 35.5009 15.1016 37.6449 15.4856L36.8289 17.1176C35.1809 16.7976 34.0769 16.0616 33.4209 15.1016C32.7649 16.1736 31.5969 16.9896 29.8849 17.3416ZM37.9009 17.5336L38.0289 19.0536C36.8449 19.2616 35.6129 19.4056 34.4129 19.5016V24.1096H32.3009V19.6296C31.0529 19.6776 29.8689 19.6776 28.8129 19.6776L28.5569 17.9656C31.2449 17.9656 34.8129 17.9496 37.9009 17.5336ZM38.7329 9.82164H40.8449V24.5416H38.7329V9.82164ZM55.8037 16.5416L54.9397 18.2856C52.3477 17.8216 50.4597 16.4456 49.4997 14.6216C48.5397 16.4296 46.6677 17.8216 44.0917 18.2856L43.2277 16.5416C46.5557 15.9976 48.3797 13.7416 48.3797 11.6936V10.6376H50.6357V11.6936C50.6357 13.7896 52.4437 15.9976 55.8037 16.5416ZM50.5717 21.1176H56.2517V22.8136H42.9077V21.1176H48.4597V17.8216H50.5717V21.1176Z" fill="black"/>
<path d="M29.8849 17.3416L29.2809 17.6555C29.4213 17.9255 29.7239 18.0696 30.022 18.0083L29.8849 17.3416ZM29.0369 15.7096L28.9109 15.0408C28.6993 15.0806 28.519 15.2183 28.4248 15.4119C28.3306 15.6056 28.3336 15.8324 28.4329 16.0235L29.0369 15.7096ZM32.3169 12.9096L32.9966 12.9445C33.0062 12.7582 32.9389 12.5761 32.8104 12.4408C32.6819 12.3056 32.5035 12.229 32.3169 12.229V12.9096ZM29.4369 12.9096H28.7563C28.7563 13.2855 29.061 13.5903 29.4369 13.5903V12.9096ZM29.4369 11.2776V10.597C29.061 10.597 28.7563 10.9017 28.7563 11.2776H29.4369ZM32.3169 11.2776V11.9583C32.6928 11.9583 32.9975 11.6535 32.9975 11.2776H32.3169ZM32.3169 9.83764V9.157C31.941 9.157 31.6363 9.46173 31.6363 9.83764H32.3169ZM34.4289 9.83764H35.1095C35.1095 9.46173 34.8048 9.157 34.4289 9.157V9.83764ZM34.4289 11.2776H33.7483C33.7483 11.6535 34.053 11.9583 34.4289 11.9583V11.2776ZM37.3089 11.2776H37.9895C37.9895 10.9017 37.6848 10.597 37.3089 10.597V11.2776ZM37.3089 12.9096V13.5903C37.6848 13.5903 37.9895 13.2855 37.9895 12.9096H37.3089ZM34.4289 12.9096V12.229C34.2419 12.229 34.0632 12.3059 33.9346 12.4417C33.8061 12.5775 33.7391 12.7602 33.7493 12.9469L34.4289 12.9096ZM37.6449 15.4856L38.2537 15.79C38.3496 15.5981 38.3495 15.3722 38.2533 15.1804C38.1571 14.9887 37.9761 14.8535 37.7649 14.8157L37.6449 15.4856ZM36.8289 17.1176L36.6992 17.7858C36.9991 17.844 37.3011 17.6953 37.4377 17.422L36.8289 17.1176ZM33.4209 15.1016L33.9829 14.7176C33.8526 14.527 33.6346 14.4154 33.4038 14.4212C33.173 14.427 32.9609 14.5494 32.8403 14.7464L33.4209 15.1016ZM37.9009 17.5336L38.5791 17.4765C38.5635 17.2908 38.4724 17.1196 38.327 17.0029C38.1816 16.8862 37.9948 16.8342 37.81 16.8591L37.9009 17.5336ZM38.0289 19.0536L38.1467 19.724C38.4936 19.6631 38.7367 19.3475 38.7071 18.9965L38.0289 19.0536ZM34.4129 19.5016L34.3586 18.8232C34.0049 18.8515 33.7323 19.1468 33.7323 19.5016H34.4129ZM34.4129 24.1096V24.7903C34.7888 24.7903 35.0935 24.4855 35.0935 24.1096H34.4129ZM32.3009 24.1096H31.6203C31.6203 24.4855 31.925 24.7903 32.3009 24.7903V24.1096ZM32.3009 19.6296H32.9815C32.9815 19.4446 32.9062 19.2675 32.7728 19.1392C32.6395 19.0109 32.4597 18.9424 32.2747 18.9495L32.3009 19.6296ZM28.8129 19.6776L28.1397 19.7783C28.1896 20.1116 28.4759 20.3583 28.8129 20.3583V19.6776ZM28.5569 17.9656V17.285C28.3588 17.285 28.1706 17.3713 28.0413 17.5214C27.912 17.6714 27.8545 17.8704 27.8837 18.0663L28.5569 17.9656ZM38.7329 9.82164V9.141C38.357 9.141 38.0523 9.44573 38.0523 9.82164H38.7329ZM40.8449 9.82164H41.5255C41.5255 9.44573 41.2208 9.141 40.8449 9.141V9.82164ZM40.8449 24.5416V25.2223C41.2208 25.2223 41.5255 24.9175 41.5255 24.5416H40.8449ZM38.7329 24.5416H38.0523C38.0523 24.9175 38.357 25.2223 38.7329 25.2223V24.5416ZM29.8849 17.3416L30.4889 17.0278L29.6409 15.3958L29.0369 15.7096L28.4329 16.0235L29.2809 17.6555L29.8849 17.3416ZM29.0369 15.7096L29.1629 16.3785C31.5461 15.9295 32.9105 14.6243 32.9966 12.9445L32.3169 12.9096L31.6372 12.8748C31.5953 13.691 30.9437 14.6578 28.9109 15.0408L29.0369 15.7096ZM32.3169 12.9096V12.229H29.4369V12.9096V13.5903H32.3169V12.9096ZM29.4369 12.9096H30.1175V11.2776H29.4369H28.7563V12.9096H29.4369ZM29.4369 11.2776V11.9583H32.3169V11.2776V10.597H29.4369V11.2776ZM32.3169 11.2776H32.9975V9.83764H32.3169H31.6363V11.2776H32.3169ZM32.3169 9.83764V10.5183H34.4289V9.83764V9.157H32.3169V9.83764ZM34.4289 9.83764H33.7483V11.2776H34.4289H35.1095V9.83764H34.4289ZM34.4289 11.2776V11.9583H37.3089V11.2776V10.597H34.4289V11.2776ZM37.3089 11.2776H36.6283V12.9096H37.3089H37.9895V11.2776H37.3089ZM37.3089 12.9096V12.229H34.4289V12.9096V13.5903H37.3089V12.9096ZM34.4289 12.9096L33.7493 12.9469C33.8386 14.5778 35.2444 15.7472 37.5249 16.1556L37.6449 15.4856L37.7649 14.8157C35.7574 14.4561 35.1472 13.5775 35.1085 12.8724L34.4289 12.9096ZM37.6449 15.4856L37.0361 15.1812L36.2201 16.8132L36.8289 17.1176L37.4377 17.422L38.2537 15.79L37.6449 15.4856ZM36.8289 17.1176L36.9586 16.4495C35.4525 16.157 34.5198 15.5034 33.9829 14.7176L33.4209 15.1016L32.8589 15.4857C33.634 16.6199 34.9093 17.4382 36.6992 17.7858L36.8289 17.1176ZM33.4209 15.1016L32.8403 14.7464C32.3005 15.6285 31.3117 16.3534 29.7478 16.6749L29.8849 17.3416L30.022 18.0083C31.8821 17.6259 33.2293 16.7188 34.0015 15.4569L33.4209 15.1016ZM37.9009 17.5336L37.2227 17.5908L37.3507 19.1108L38.0289 19.0536L38.7071 18.9965L38.5791 17.4765L37.9009 17.5336ZM38.0289 19.0536L37.9111 18.3833C36.7527 18.5868 35.5425 18.7285 34.3586 18.8232L34.4129 19.5016L34.4672 20.1801C35.6833 20.0828 36.9371 19.9365 38.1467 19.724L38.0289 19.0536ZM34.4129 19.5016H33.7323V24.1096H34.4129H35.0935V19.5016H34.4129ZM34.4129 24.1096V23.429H32.3009V24.1096V24.7903H34.4129V24.1096ZM32.3009 24.1096H32.9815V19.6296H32.3009H31.6203V24.1096H32.3009ZM32.3009 19.6296L32.2747 18.9495C31.0417 18.9969 29.8702 18.997 28.8129 18.997V19.6776V20.3583C29.8676 20.3583 31.0641 20.3584 32.3271 20.3098L32.3009 19.6296ZM28.8129 19.6776L29.4861 19.577L29.2301 17.865L28.5569 17.9656L27.8837 18.0663L28.1397 19.7783L28.8129 19.6776ZM28.5569 17.9656V18.6463C31.2389 18.6463 34.8516 18.6312 37.9918 18.2082L37.9009 17.5336L37.81 16.8591C34.7742 17.2681 31.2509 17.285 28.5569 17.285V17.9656ZM38.7329 9.82164V10.5023H40.8449V9.82164V9.141H38.7329V9.82164ZM40.8449 9.82164H40.1643V24.5416H40.8449H41.5255V9.82164H40.8449ZM40.8449 24.5416V23.861H38.7329V24.5416V25.2223H40.8449V24.5416ZM38.7329 24.5416H39.4135V9.82164H38.7329H38.0523V24.5416H38.7329ZM55.8037 16.5416L56.4136 16.8438C56.5095 16.6501 56.5078 16.4224 56.4089 16.2303C56.31 16.0381 56.1258 15.9043 55.9124 15.8698L55.8037 16.5416ZM54.9397 18.2856L54.8197 18.9556C55.1177 19.009 55.4152 18.8591 55.5496 18.5878L54.9397 18.2856ZM49.4997 14.6216L50.102 14.3046C49.9845 14.0814 49.7532 13.9415 49.5009 13.941C49.2486 13.9405 49.0168 14.0796 48.8985 14.3024L49.4997 14.6216ZM44.0917 18.2856L43.4818 18.5878C43.6163 18.8593 43.9141 19.0092 44.2123 18.9555L44.0917 18.2856ZM43.2277 16.5416L43.1179 15.8699C42.9048 15.9048 42.7208 16.0386 42.6222 16.2307C42.5235 16.4228 42.5219 16.6503 42.6178 16.8438L43.2277 16.5416ZM48.3797 10.6376V9.957C48.0037 9.957 47.699 10.2617 47.699 10.6376H48.3797ZM50.6357 10.6376H51.3163C51.3163 10.2617 51.0116 9.957 50.6357 9.957V10.6376ZM50.5717 21.1176H49.891C49.891 21.4935 50.1957 21.7983 50.5717 21.7983V21.1176ZM56.2517 21.1176H56.9323C56.9323 20.7417 56.6276 20.437 56.2517 20.437V21.1176ZM56.2517 22.8136V23.4943C56.6276 23.4943 56.9323 23.1895 56.9323 22.8136H56.2517ZM42.9077 22.8136H42.227C42.227 23.1895 42.5317 23.4943 42.9077 23.4943V22.8136ZM42.9077 21.1176V20.437C42.5317 20.437 42.227 20.7417 42.227 21.1176H42.9077ZM48.4597 21.1176V21.7983C48.8356 21.7983 49.1403 21.4935 49.1403 21.1176H48.4597ZM48.4597 17.8216V17.141C48.0837 17.141 47.779 17.4457 47.779 17.8216H48.4597ZM50.5717 17.8216H51.2523C51.2523 17.4457 50.9476 17.141 50.5717 17.141V17.8216ZM55.8037 16.5416L55.1938 16.2395L54.3298 17.9835L54.9397 18.2856L55.5496 18.5878L56.4136 16.8438L55.8037 16.5416ZM54.9397 18.2856L55.0596 17.6157C52.6443 17.1833 50.9509 15.9175 50.102 14.3046L49.4997 14.6216L48.8973 14.9386C49.9685 16.9738 52.0511 18.46 54.8197 18.9556L54.9397 18.2856ZM49.4997 14.6216L48.8985 14.3024C48.0472 15.9057 46.3653 17.1845 43.971 17.6158L44.0917 18.2856L44.2123 18.9555C46.97 18.4588 49.0321 16.9536 50.1008 14.9408L49.4997 14.6216ZM44.0917 18.2856L44.7016 17.9835L43.8376 16.2395L43.2277 16.5416L42.6178 16.8438L43.4818 18.5878L44.0917 18.2856ZM43.2277 16.5416L43.3375 17.2134C46.9066 16.63 49.0603 14.1571 49.0603 11.6936H48.3797H47.699C47.699 13.3262 46.2047 15.3653 43.1179 15.8699L43.2277 16.5416ZM48.3797 11.6936H49.0603V10.6376H48.3797H47.699V11.6936H48.3797ZM48.3797 10.6376V11.3183H50.6357V10.6376V9.957H48.3797V10.6376ZM50.6357 10.6376H49.955V11.6936H50.6357H51.3163V10.6376H50.6357ZM50.6357 11.6936H49.955C49.955 14.2084 52.0967 16.631 55.6949 17.2135L55.8037 16.5416L55.9124 15.8698C52.7906 15.3643 51.3163 13.3708 51.3163 11.6936H50.6357ZM50.5717 21.1176V21.7983H56.2517V21.1176V20.437H50.5717V21.1176ZM56.2517 21.1176H55.571V22.8136H56.2517H56.9323V21.1176H56.2517ZM56.2517 22.8136V22.133H42.9077V22.8136V23.4943H56.2517V22.8136ZM42.9077 22.8136H43.5883V21.1176H42.9077H42.227V22.8136H42.9077ZM42.9077 21.1176V21.7983H48.4597V21.1176V20.437H42.9077V21.1176ZM48.4597 21.1176H49.1403V17.8216H48.4597H47.779V21.1176H48.4597ZM48.4597 17.8216V18.5023H50.5717V17.8216V17.141H48.4597V17.8216ZM50.5717 17.8216H49.891V21.1176H50.5717H51.2523V17.8216H50.5717Z" fill="white" fill-opacity="0.7" mask="url(#path-8-outside-1_1955_35877)"/>
<g filter="url(#filter4_f_1955_35877)">
<path d="M81.8956 26.6928C81.8953 30.947 78.5673 29.2582 77.1337 29.401L28.1708 30.623L63.4453 28.0508C84.4794 26.7648 79.9453 22.0508 79.9453 11.3008C82.5126 3.71795 81.8963 16.8274 81.8956 26.6928Z" fill="#8B8B8B"/>
</g>
</g>
<defs>
<filter id="filter0_f_1955_35877" x="0.335938" y="6.51172" width="81.8047" height="27.1113" filterUnits="userSpaceOnUse" color-interpolation-filters="sRGB">
<feFlood flood-opacity="0" result="BackgroundImageFix"/>
<feBlend mode="normal" in="SourceGraphic" in2="BackgroundImageFix" result="shape"/>
<feGaussianBlur stdDeviation="1.5" result="effect1_foregroundBlur_1955_35877"/>
</filter>
<filter id="filter1_f_1955_35877" x="-1.21289" y="6.51172" width="10.8066" height="22.334" filterUnits="userSpaceOnUse" color-interpolation-filters="sRGB">
<feFlood flood-opacity="0" result="BackgroundImageFix"/>
<feBlend mode="normal" in="SourceGraphic" in2="BackgroundImageFix" result="shape"/>
<feGaussianBlur stdDeviation="1.5" result="effect1_foregroundBlur_1955_35877"/>
</filter>
<filter id="filter2_f_1955_35877" x="25.0938" y="4.74023" width="67.5723" height="34.8848" filterUnits="userSpaceOnUse" color-interpolation-filters="sRGB">
<feFlood flood-opacity="0" result="BackgroundImageFix"/>
<feBlend mode="normal" in="SourceGraphic" in2="BackgroundImageFix" result="shape"/>
<feGaussianBlur stdDeviation="4.5" result="effect1_foregroundBlur_1955_35877"/>
</filter>
<filter id="filter3_f_1955_35877" x="-0.664062" y="-1.4082" width="85.3281" height="19.9355" filterUnits="userSpaceOnUse" color-interpolation-filters="sRGB">
<feFlood flood-opacity="0" result="BackgroundImageFix"/>
<feBlend mode="normal" in="SourceGraphic" in2="BackgroundImageFix" result="shape"/>
<feGaussianBlur stdDeviation="2" result="effect1_foregroundBlur_1955_35877"/>
</filter>
<filter id="filter4_f_1955_35877" x="24.1699" y="5.03906" width="61.791" height="29.584" filterUnits="userSpaceOnUse" color-interpolation-filters="sRGB">
<feFlood flood-opacity="0" result="BackgroundImageFix"/>
<feBlend mode="normal" in="SourceGraphic" in2="BackgroundImageFix" result="shape"/>
<feGaussianBlur stdDeviation="2" result="effect1_foregroundBlur_1955_35877"/>
</filter>
<linearGradient id="paint0_linear_1955_35877" x1="43" y1="1" x2="43" y2="33" gradientUnits="userSpaceOnUse">
<stop stop-color="#DADADA"/>
<stop offset="0.177885" stop-color="#E8E8E8"/>
<stop offset="0.663462" stop-color="#E5E5E5"/>
<stop offset="1" stop-color="#D7D7D7"/>
</linearGradient>
<linearGradient id="paint1_linear_1955_35877" x1="43" y1="0" x2="43" y2="34" gradientUnits="userSpaceOnUse">
<stop stop-color="#A4A4A4"/>
<stop offset="1" stop-color="#5A5A5A"/>
</linearGradient>
<linearGradient id="paint2_linear_1955_35877" x1="43" y1="1" x2="43" y2="33" gradientUnits="userSpaceOnUse">
<stop stop-color="white"/>
<stop offset="1" stop-color="white"/>
</linearGradient>
<linearGradient id="paint3_linear_1955_35877" x1="47.4176" y1="20.0669" x2="73.7223" y2="20.0669" gradientUnits="userSpaceOnUse">
<stop stop-color="#A8A8A8"/>
<stop offset="1" stop-color="#C5C5C5" stop-opacity="0"/>
</linearGradient>
<linearGradient id="paint4_linear_1955_35877" x1="83.138" y1="22.5743" x2="58.7993" y2="22.5743" gradientUnits="userSpaceOnUse">
<stop stop-color="#808080" stop-opacity="0"/>
<stop offset="1" stop-color="#808080"/>
</linearGradient>
<clipPath id="clip0_1955_35877">
<rect width="86" height="34" fill="white"/>
</clipPath>
</defs>
</svg>
