<svg width="86" height="34" viewBox="0 0 86 34" fill="none" xmlns="http://www.w3.org/2000/svg">
<g clip-path="url(#clip0_1955_35863)">
<path d="M1 7C1 3.68629 3.68629 1 7 1H79C82.3137 1 85 3.68629 85 7V27C85 30.3137 82.3137 33 79 33H7C3.68629 33 1 30.3137 1 27V7Z" fill="url(#paint0_linear_1955_35863)"/>
<rect x="0.5" y="0.5" width="85" height="33" rx="6.5" stroke="url(#paint1_linear_1955_35863)"/>
<rect x="1.5" y="1.5" width="83" height="31" rx="5.5" stroke="url(#paint2_linear_1955_35863)" stroke-opacity="0.57"/>
<g opacity="0.8" filter="url(#filter0_f_1955_35863)">
<path d="M5.15099 22.9231L4.75997 11.0052L3.33594 9.51172V22.9231C3.33594 28.6851 3.638 30.1277 6.14477 30.2932L79.1406 30.6221C76.0122 28.4365 61.3927 28.2213 54.474 28.3869H12.1095C3.44612 28.3869 6.14477 27.0184 5.15099 22.9231Z" fill="url(#paint3_linear_1955_35863)"/>
</g>
<g opacity="0.3" filter="url(#filter1_f_1955_35863)">
<path d="M1.78805 25.8467L1.78805 9.51172C3.98486 12.1375 6.59375 13.3203 6.59375 16.7063C6.59375 20.0923 3.38995 25.3961 1.78805 25.8467Z" fill="#FDFDFD"/>
</g>
<g opacity="0.6" filter="url(#filter2_f_1955_35863)" style="mix-blend-mode:multiply">
<path d="M40.552 30.6216C38.2511 30.6311 36.064 30.6216 34.0938 30.6216H40.552C53.87 30.5666 71.0001 29.8744 71.9688 23.0129C73.4688 12.3881 77.9753 13.1515 81.7188 14.5129C84.2288 15.426 83.8438 19.3877 83.138 26.1702C82.7197 27.654 80.8232 30.6216 76.5839 30.6216H40.552Z" fill="url(#paint4_linear_1955_35863)"/>
</g>
<g opacity="0.8" filter="url(#filter3_f_1955_35863)">
<path d="M3.50679 6.522C3.50723 2.26783 8.28681 3.95669 10.3456 3.81384L80.6641 2.5918L42.5063 5.30685C12.298 6.59288 6.65939 6.50845 6.04171 9.32688C2.3547 16.9097 3.50578 16.3874 3.50679 6.522Z" fill="white"/>
</g>
<g opacity="0.56" filter="url(#filter4_f_1955_35863)">
<path d="M81.796 26.6928C81.7957 30.947 78.4677 29.2582 77.0341 29.401L28.0712 30.623L63.3457 28.0508C84.3798 26.7648 79.8457 22.0508 79.8457 11.3008C82.413 3.71795 81.7967 16.8274 81.796 26.6928Z" fill="#0A4A3B"/>
</g>
<mask id="path-9-outside-1_1955_35863" maskUnits="userSpaceOnUse" x="27.3516" y="8.18164" width="30" height="18" fill="black">
<rect fill="white" x="27.3516" y="8.18164" width="30" height="18"/>
<path d="M38.7809 9.75764H40.9089V24.6216H38.7809V9.75764ZM36.1889 14.9416H39.2769V16.6536H36.1889V14.9416ZM31.8849 12.1096H33.5809V13.4376C33.5809 14.3336 33.4956 15.2136 33.3249 16.0776C33.1542 16.9416 32.8982 17.747 32.5569 18.4936C32.2262 19.2403 31.8049 19.9016 31.2929 20.4776C30.7809 21.0536 30.1836 21.5176 29.5009 21.8696L28.2529 20.1896C28.8716 19.9016 29.4102 19.5176 29.8689 19.0376C30.3276 18.547 30.7062 18.003 31.0049 17.4056C31.3036 16.7976 31.5222 16.1576 31.6609 15.4856C31.8102 14.803 31.8849 14.1203 31.8849 13.4376V12.1096ZM32.3809 12.1096H34.0449V13.4376C34.0449 14.0883 34.1142 14.739 34.2529 15.3896C34.4022 16.0296 34.6262 16.643 34.9249 17.2296C35.2342 17.8056 35.6182 18.323 36.0769 18.7816C36.5356 19.2403 37.0742 19.6136 37.6929 19.9016L36.4609 21.5656C35.7569 21.235 35.1489 20.7923 34.6369 20.2376C34.1249 19.683 33.7036 19.0483 33.3729 18.3336C33.0422 17.6083 32.7916 16.8296 32.6209 15.9976C32.4609 15.1656 32.3809 14.3123 32.3809 13.4376V12.1096ZM28.8449 11.1976H37.0849V12.9096H28.8449V11.1976ZM46.1717 11.4376H47.9157V12.3656C47.9157 13.3043 47.761 14.195 47.4517 15.0376C47.153 15.8803 46.6943 16.6216 46.0757 17.2616C45.457 17.891 44.673 18.3603 43.7237 18.6696L42.6677 16.9896C43.4783 16.723 44.1397 16.3496 44.6517 15.8696C45.1743 15.379 45.5583 14.8296 45.8037 14.2216C46.049 13.603 46.1717 12.9843 46.1717 12.3656V11.4376ZM46.6037 11.4376H48.3157V12.3656C48.3157 12.9416 48.433 13.5016 48.6677 14.0456C48.9023 14.579 49.265 15.059 49.7557 15.4856C50.257 15.9123 50.9077 16.2483 51.7077 16.4936L50.6837 18.1576C49.745 17.8803 48.9717 17.4536 48.3637 16.8776C47.7663 16.291 47.3237 15.6136 47.0357 14.8456C46.7477 14.067 46.6037 13.2403 46.6037 12.3656V11.4376ZM43.2117 10.7656H51.2277V12.4616H43.2117V10.7656ZM52.3957 9.78964H54.5237V18.5736H52.3957V9.78964ZM53.9477 13.1816H56.4917V14.9256H53.9477V13.1816ZM49.6917 18.8296C50.7263 18.8296 51.617 18.947 52.3637 19.1816C53.1103 19.4056 53.6863 19.731 54.0917 20.1576C54.497 20.5843 54.6997 21.1016 54.6997 21.7096C54.6997 22.3176 54.497 22.835 54.0917 23.2616C53.6863 23.699 53.1103 24.0296 52.3637 24.2536C51.617 24.4883 50.7263 24.6056 49.6917 24.6056C48.6677 24.6056 47.777 24.4883 47.0197 24.2536C46.273 24.0296 45.6917 23.699 45.2757 23.2616C44.8703 22.835 44.6677 22.3176 44.6677 21.7096C44.6677 21.1016 44.8703 20.5843 45.2757 20.1576C45.6917 19.731 46.273 19.4056 47.0197 19.1816C47.777 18.947 48.6677 18.8296 49.6917 18.8296ZM49.6917 20.4936C49.0623 20.4936 48.5343 20.5363 48.1077 20.6216C47.681 20.707 47.3557 20.8403 47.1317 21.0216C46.9077 21.203 46.7957 21.4323 46.7957 21.7096C46.7957 21.9976 46.9077 22.2323 47.1317 22.4136C47.3557 22.595 47.681 22.7336 48.1077 22.8296C48.5343 22.915 49.0623 22.9576 49.6917 22.9576C50.321 22.9576 50.849 22.915 51.2757 22.8296C51.713 22.7336 52.0383 22.595 52.2517 22.4136C52.4757 22.2323 52.5877 21.9976 52.5877 21.7096C52.5877 21.4323 52.4757 21.203 52.2517 21.0216C52.0383 20.8403 51.713 20.707 51.2757 20.6216C50.849 20.5363 50.321 20.4936 49.6917 20.4936Z"/>
</mask>
<path d="M38.7809 9.75764H40.9089V24.6216H38.7809V9.75764ZM36.1889 14.9416H39.2769V16.6536H36.1889V14.9416ZM31.8849 12.1096H33.5809V13.4376C33.5809 14.3336 33.4956 15.2136 33.3249 16.0776C33.1542 16.9416 32.8982 17.747 32.5569 18.4936C32.2262 19.2403 31.8049 19.9016 31.2929 20.4776C30.7809 21.0536 30.1836 21.5176 29.5009 21.8696L28.2529 20.1896C28.8716 19.9016 29.4102 19.5176 29.8689 19.0376C30.3276 18.547 30.7062 18.003 31.0049 17.4056C31.3036 16.7976 31.5222 16.1576 31.6609 15.4856C31.8102 14.803 31.8849 14.1203 31.8849 13.4376V12.1096ZM32.3809 12.1096H34.0449V13.4376C34.0449 14.0883 34.1142 14.739 34.2529 15.3896C34.4022 16.0296 34.6262 16.643 34.9249 17.2296C35.2342 17.8056 35.6182 18.323 36.0769 18.7816C36.5356 19.2403 37.0742 19.6136 37.6929 19.9016L36.4609 21.5656C35.7569 21.235 35.1489 20.7923 34.6369 20.2376C34.1249 19.683 33.7036 19.0483 33.3729 18.3336C33.0422 17.6083 32.7916 16.8296 32.6209 15.9976C32.4609 15.1656 32.3809 14.3123 32.3809 13.4376V12.1096ZM28.8449 11.1976H37.0849V12.9096H28.8449V11.1976ZM46.1717 11.4376H47.9157V12.3656C47.9157 13.3043 47.761 14.195 47.4517 15.0376C47.153 15.8803 46.6943 16.6216 46.0757 17.2616C45.457 17.891 44.673 18.3603 43.7237 18.6696L42.6677 16.9896C43.4783 16.723 44.1397 16.3496 44.6517 15.8696C45.1743 15.379 45.5583 14.8296 45.8037 14.2216C46.049 13.603 46.1717 12.9843 46.1717 12.3656V11.4376ZM46.6037 11.4376H48.3157V12.3656C48.3157 12.9416 48.433 13.5016 48.6677 14.0456C48.9023 14.579 49.265 15.059 49.7557 15.4856C50.257 15.9123 50.9077 16.2483 51.7077 16.4936L50.6837 18.1576C49.745 17.8803 48.9717 17.4536 48.3637 16.8776C47.7663 16.291 47.3237 15.6136 47.0357 14.8456C46.7477 14.067 46.6037 13.2403 46.6037 12.3656V11.4376ZM43.2117 10.7656H51.2277V12.4616H43.2117V10.7656ZM52.3957 9.78964H54.5237V18.5736H52.3957V9.78964ZM53.9477 13.1816H56.4917V14.9256H53.9477V13.1816ZM49.6917 18.8296C50.7263 18.8296 51.617 18.947 52.3637 19.1816C53.1103 19.4056 53.6863 19.731 54.0917 20.1576C54.497 20.5843 54.6997 21.1016 54.6997 21.7096C54.6997 22.3176 54.497 22.835 54.0917 23.2616C53.6863 23.699 53.1103 24.0296 52.3637 24.2536C51.617 24.4883 50.7263 24.6056 49.6917 24.6056C48.6677 24.6056 47.777 24.4883 47.0197 24.2536C46.273 24.0296 45.6917 23.699 45.2757 23.2616C44.8703 22.835 44.6677 22.3176 44.6677 21.7096C44.6677 21.1016 44.8703 20.5843 45.2757 20.1576C45.6917 19.731 46.273 19.4056 47.0197 19.1816C47.777 18.947 48.6677 18.8296 49.6917 18.8296ZM49.6917 20.4936C49.0623 20.4936 48.5343 20.5363 48.1077 20.6216C47.681 20.707 47.3557 20.8403 47.1317 21.0216C46.9077 21.203 46.7957 21.4323 46.7957 21.7096C46.7957 21.9976 46.9077 22.2323 47.1317 22.4136C47.3557 22.595 47.681 22.7336 48.1077 22.8296C48.5343 22.915 49.0623 22.9576 49.6917 22.9576C50.321 22.9576 50.849 22.915 51.2757 22.8296C51.713 22.7336 52.0383 22.595 52.2517 22.4136C52.4757 22.2323 52.5877 21.9976 52.5877 21.7096C52.5877 21.4323 52.4757 21.203 52.2517 21.0216C52.0383 20.8403 51.713 20.707 51.2757 20.6216C50.849 20.5363 50.321 20.4936 49.6917 20.4936Z" fill="white"/>
<path d="M38.7809 9.75764V9.077C38.405 9.077 38.1003 9.38173 38.1003 9.75764H38.7809ZM40.9089 9.75764H41.5895C41.5895 9.38173 41.2848 9.077 40.9089 9.077V9.75764ZM40.9089 24.6216V25.3023C41.2848 25.3023 41.5895 24.9975 41.5895 24.6216H40.9089ZM38.7809 24.6216H38.1003C38.1003 24.9975 38.405 25.3023 38.7809 25.3023V24.6216ZM36.1889 14.9416V14.261C35.813 14.261 35.5083 14.5657 35.5083 14.9416H36.1889ZM39.2769 14.9416H39.9575C39.9575 14.5657 39.6528 14.261 39.2769 14.261V14.9416ZM39.2769 16.6536V17.3343C39.6528 17.3343 39.9575 17.0295 39.9575 16.6536H39.2769ZM36.1889 16.6536H35.5083C35.5083 17.0295 35.813 17.3343 36.1889 17.3343V16.6536ZM31.8849 12.1096V11.429C31.509 11.429 31.2043 11.7337 31.2043 12.1096H31.8849ZM33.5809 12.1096H34.2615C34.2615 11.7337 33.9568 11.429 33.5809 11.429V12.1096ZM33.3249 16.0776L32.6572 15.9457V15.9457L33.3249 16.0776ZM32.5569 18.4936L31.9378 18.2106L31.9346 18.218L32.5569 18.4936ZM31.2929 20.4776L30.7842 20.0254V20.0254L31.2929 20.4776ZM29.5009 21.8696L28.9545 22.2755C29.1533 22.5431 29.5166 22.6273 29.8128 22.4746L29.5009 21.8696ZM28.2529 20.1896L27.9657 19.5726C27.7802 19.6589 27.6433 19.8242 27.5931 20.0225C27.5429 20.2208 27.5845 20.4313 27.7065 20.5955L28.2529 20.1896ZM29.8689 19.0376L30.361 19.5079L30.3661 19.5024L29.8689 19.0376ZM31.0049 17.4056L31.6137 17.71L31.6158 17.7057L31.0049 17.4056ZM31.6609 15.4856L30.9959 15.3402L30.9943 15.3481L31.6609 15.4856ZM32.3809 12.1096V11.429C32.005 11.429 31.7003 11.7337 31.7003 12.1096H32.3809ZM34.0449 12.1096H34.7255C34.7255 11.7337 34.4208 11.429 34.0449 11.429V12.1096ZM34.2529 15.3896L33.5871 15.5315L33.5901 15.5443L34.2529 15.3896ZM34.9249 17.2296L34.3183 17.5384C34.3206 17.5429 34.3229 17.5473 34.3253 17.5517L34.9249 17.2296ZM36.0769 18.7816L36.5582 18.3004V18.3004L36.0769 18.7816ZM37.6929 19.9016L38.2399 20.3067C38.3616 20.1424 38.4029 19.9321 38.3526 19.734C38.3022 19.5359 38.1655 19.3709 37.9802 19.2846L37.6929 19.9016ZM36.4609 21.5656L36.1715 22.1817C36.465 22.3196 36.815 22.2312 37.0079 21.9706L36.4609 21.5656ZM34.6369 20.2376L35.137 19.776V19.776L34.6369 20.2376ZM33.3729 18.3336L32.7536 18.616L32.7552 18.6195L33.3729 18.3336ZM32.6209 15.9976L31.9525 16.1262L31.9541 16.1344L32.6209 15.9976ZM28.8449 11.1976V10.517C28.469 10.517 28.1643 10.8217 28.1643 11.1976H28.8449ZM37.0849 11.1976H37.7655C37.7655 10.8217 37.4608 10.517 37.0849 10.517V11.1976ZM37.0849 12.9096V13.5903C37.4608 13.5903 37.7655 13.2855 37.7655 12.9096H37.0849ZM28.8449 12.9096H28.1643C28.1643 13.2855 28.469 13.5903 28.8449 13.5903V12.9096ZM38.7809 9.75764V10.4383H40.9089V9.75764V9.077H38.7809V9.75764ZM40.9089 9.75764H40.2283V24.6216H40.9089H41.5895V9.75764H40.9089ZM40.9089 24.6216V23.941H38.7809V24.6216V25.3023H40.9089V24.6216ZM38.7809 24.6216H39.4615V9.75764H38.7809H38.1003V24.6216H38.7809ZM36.1889 14.9416V15.6223H39.2769V14.9416V14.261H36.1889V14.9416ZM39.2769 14.9416H38.5963V16.6536H39.2769H39.9575V14.9416H39.2769ZM39.2769 16.6536V15.973H36.1889V16.6536V17.3343H39.2769V16.6536ZM36.1889 16.6536H36.8695V14.9416H36.1889H35.5083V16.6536H36.1889ZM31.8849 12.1096V12.7903H33.5809V12.1096V11.429H31.8849V12.1096ZM33.5809 12.1096H32.9003V13.4376H33.5809H34.2615V12.1096H33.5809ZM33.5809 13.4376H32.9003C32.9003 14.2901 32.8191 15.1259 32.6572 15.9457L33.3249 16.0776L33.9926 16.2095C34.172 15.3013 34.2615 14.3771 34.2615 13.4376H33.5809ZM33.3249 16.0776L32.6572 15.9457C32.496 16.7614 32.2556 17.5156 31.9379 18.2107L32.5569 18.4936L33.1759 18.7766C33.5409 17.9783 33.8124 17.1219 33.9926 16.2095L33.3249 16.0776ZM32.5569 18.4936L31.9346 18.218C31.6307 18.9042 31.2467 19.5051 30.7842 20.0254L31.2929 20.4776L31.8016 20.9298C32.3631 20.2981 32.8218 19.5764 33.1792 18.7692L32.5569 18.4936ZM31.2929 20.4776L30.7842 20.0254C30.3276 20.5391 29.7969 20.9512 29.189 21.2647L29.5009 21.8696L29.8128 22.4746C30.5702 22.0841 31.2342 21.5682 31.8016 20.9298L31.2929 20.4776ZM29.5009 21.8696L30.0473 21.4638L28.7993 19.7838L28.2529 20.1896L27.7065 20.5955L28.9545 22.2755L29.5009 21.8696ZM28.2529 20.1896L28.5402 20.8067C29.2335 20.4839 29.8421 20.0509 30.361 19.5079L29.8689 19.0376L29.3768 18.5674C28.9783 18.9844 28.5097 19.3193 27.9657 19.5726L28.2529 20.1896ZM29.8689 19.0376L30.3661 19.5024C30.8692 18.9642 31.2856 18.3663 31.6137 17.71L31.0049 17.4056L30.3961 17.1012C30.1269 17.6397 29.7859 18.1297 29.3717 18.5728L29.8689 19.0376ZM31.0049 17.4056L31.6158 17.7057C31.9402 17.0455 32.1774 16.3508 32.3275 15.6232L31.6609 15.4856L30.9943 15.3481C30.8671 15.9645 30.667 16.5498 30.394 17.1055L31.0049 17.4056ZM31.6609 15.4856L32.3258 15.6311C32.4854 14.9018 32.5655 14.1704 32.5655 13.4376H31.8849H31.2043C31.2043 14.0703 31.1351 14.7042 30.996 15.3402L31.6609 15.4856ZM31.8849 13.4376H32.5655V12.1096H31.8849H31.2043V13.4376H31.8849ZM32.3809 12.1096V12.7903H34.0449V12.1096V11.429H32.3809V12.1096ZM34.0449 12.1096H33.3643V13.4376H34.0449H34.7255V12.1096H34.0449ZM34.0449 13.4376H33.3643C33.3643 14.1371 33.4388 14.8353 33.5872 15.5315L34.2529 15.3896L34.9186 15.2478C34.7896 14.6427 34.7255 14.0396 34.7255 13.4376H34.0449ZM34.2529 15.3896L33.5901 15.5443C33.7519 16.2379 33.9948 16.9029 34.3183 17.5384L34.9249 17.2296L35.5315 16.9208C35.2577 16.383 35.0526 15.8214 34.9157 15.235L34.2529 15.3896ZM34.9249 17.2296L34.3253 17.5517C34.6658 18.1858 35.0896 18.7569 35.5956 19.2629L36.0769 18.7816L36.5582 18.3004C36.1469 17.8891 35.8027 17.4255 35.5245 16.9076L34.9249 17.2296ZM36.0769 18.7816L35.5956 19.2629C36.1134 19.7807 36.7187 20.1989 37.4057 20.5187L37.6929 19.9016L37.9802 19.2846C37.4298 19.0284 36.9577 18.6999 36.5582 18.3004L36.0769 18.7816ZM37.6929 19.9016L37.1459 19.4966L35.9139 21.1606L36.4609 21.5656L37.0079 21.9706L38.2399 20.3067L37.6929 19.9016ZM36.4609 21.5656L36.7503 20.9496C36.1234 20.6551 35.5876 20.2641 35.137 19.776L34.6369 20.2376L34.1368 20.6993C34.7102 21.3205 35.3904 21.8148 36.1715 22.1817L36.4609 21.5656ZM34.6369 20.2376L35.137 19.776C34.6752 19.2757 34.2928 18.7009 33.9906 18.0478L33.3729 18.3336L32.7552 18.6195C33.1143 19.3957 33.5746 20.0903 34.1368 20.6993L34.6369 20.2376ZM33.3729 18.3336L33.9922 18.0513C33.6841 17.3755 33.4487 16.646 33.2877 15.8609L32.6209 15.9976L31.9541 16.1344C32.1344 17.0133 32.4003 17.8411 32.7536 18.616L33.3729 18.3336ZM32.6209 15.9976L33.2893 15.8691C33.1377 15.0808 33.0615 14.2706 33.0615 13.4376H32.3809H31.7003C31.7003 14.354 31.7841 15.2505 31.9525 16.1262L32.6209 15.9976ZM32.3809 13.4376H33.0615V12.1096H32.3809H31.7003V13.4376H32.3809ZM28.8449 11.1976V11.8783H37.0849V11.1976V10.517H28.8449V11.1976ZM37.0849 11.1976H36.4043V12.9096H37.0849H37.7655V11.1976H37.0849ZM37.0849 12.9096V12.229H28.8449V12.9096V13.5903H37.0849V12.9096ZM28.8449 12.9096H29.5255V11.1976H28.8449H28.1643V12.9096H28.8449ZM46.1717 11.4376V10.757C45.7957 10.757 45.491 11.0617 45.491 11.4376H46.1717ZM47.9157 11.4376H48.5963C48.5963 11.0617 48.2916 10.757 47.9157 10.757V11.4376ZM47.4517 15.0376L46.8127 14.8031L46.8101 14.8103L47.4517 15.0376ZM46.0757 17.2616L46.5611 17.7388L46.565 17.7347L46.0757 17.2616ZM43.7237 18.6696L43.1474 19.0319C43.3134 19.296 43.6379 19.4135 43.9345 19.3168L43.7237 18.6696ZM42.6677 16.9896L42.455 16.3431C42.2561 16.4085 42.0983 16.5619 42.0273 16.7589C41.9563 16.9559 41.98 17.1746 42.0914 17.3519L42.6677 16.9896ZM44.6517 15.8696L45.1172 16.3662L45.1175 16.3659L44.6517 15.8696ZM45.8037 14.2216L46.4349 14.4763L46.4364 14.4725L45.8037 14.2216ZM46.6037 11.4376V10.757C46.2277 10.757 45.923 11.0617 45.923 11.4376H46.6037ZM48.3157 11.4376H48.9963C48.9963 11.0617 48.6916 10.757 48.3157 10.757V11.4376ZM48.6677 14.0456L48.0427 14.3152L48.0447 14.3198L48.6677 14.0456ZM49.7557 15.4856L49.309 15.9993L49.3145 16.004L49.7557 15.4856ZM51.7077 16.4936L52.2873 16.8504C52.3977 16.6709 52.4188 16.4505 52.3445 16.2534C52.2701 16.0562 52.1086 15.9047 51.9072 15.8429L51.7077 16.4936ZM50.6837 18.1576L50.4908 18.8104C50.7856 18.8975 51.1022 18.7762 51.2633 18.5144L50.6837 18.1576ZM48.3637 16.8776L47.8866 17.3633L47.8955 17.3718L48.3637 16.8776ZM47.0357 14.8456L46.3973 15.0818L46.3984 15.0846L47.0357 14.8456ZM43.2117 10.7656V10.085C42.8357 10.085 42.531 10.3897 42.531 10.7656H43.2117ZM51.2277 10.7656H51.9083C51.9083 10.3897 51.6036 10.085 51.2277 10.085V10.7656ZM51.2277 12.4616V13.1423C51.6036 13.1423 51.9083 12.8375 51.9083 12.4616H51.2277ZM43.2117 12.4616H42.531C42.531 12.8375 42.8357 13.1423 43.2117 13.1423V12.4616ZM52.3957 9.78964V9.109C52.0197 9.109 51.715 9.41373 51.715 9.78964H52.3957ZM54.5237 9.78964H55.2043C55.2043 9.41373 54.8996 9.109 54.5237 9.109V9.78964ZM54.5237 18.5736V19.2543C54.8996 19.2543 55.2043 18.9495 55.2043 18.5736H54.5237ZM52.3957 18.5736H51.715C51.715 18.9495 52.0197 19.2543 52.3957 19.2543V18.5736ZM53.9477 13.1816V12.501C53.5717 12.501 53.267 12.8057 53.267 13.1816H53.9477ZM56.4917 13.1816H57.1723C57.1723 12.8057 56.8676 12.501 56.4917 12.501V13.1816ZM56.4917 14.9256V15.6063C56.8676 15.6063 57.1723 15.3015 57.1723 14.9256H56.4917ZM53.9477 14.9256H53.267C53.267 15.3015 53.5717 15.6063 53.9477 15.6063V14.9256ZM52.3637 19.1816L52.1596 19.831L52.1681 19.8336L52.3637 19.1816ZM54.0917 23.2616L53.5982 22.7928L53.5925 22.799L54.0917 23.2616ZM52.3637 24.2536L52.1681 23.6017L52.1596 23.6043L52.3637 24.2536ZM47.0197 24.2536L47.2211 23.6035L47.2152 23.6017L47.0197 24.2536ZM45.2757 23.2616L44.7822 23.7304L44.7825 23.7307L45.2757 23.2616ZM45.2757 20.1576L44.7883 19.6824L44.7822 19.6889L45.2757 20.1576ZM47.0197 19.1816L47.2152 19.8336L47.2211 19.8318L47.0197 19.1816ZM48.1077 20.6216L48.2411 21.2891V21.2891L48.1077 20.6216ZM47.1317 21.0216L47.5599 21.5507V21.5507L47.1317 21.0216ZM47.1317 22.4136L46.7034 22.9427V22.9427L47.1317 22.4136ZM48.1077 22.8296L47.9582 23.4937C47.9635 23.4949 47.9688 23.496 47.9742 23.4971L48.1077 22.8296ZM51.2757 22.8296L51.4092 23.4972L51.4216 23.4945L51.2757 22.8296ZM52.2517 22.4136L51.8234 21.8846C51.8192 21.888 51.815 21.8915 51.8108 21.895L52.2517 22.4136ZM52.2517 21.0216L51.8108 21.5402C51.815 21.5438 51.8192 21.5472 51.8234 21.5507L52.2517 21.0216ZM51.2757 20.6216L51.1422 21.2891L51.1453 21.2897L51.2757 20.6216ZM46.1717 11.4376V12.1183H47.9157V11.4376V10.757H46.1717V11.4376ZM47.9157 11.4376H47.235V12.3656H47.9157H48.5963V11.4376H47.9157ZM47.9157 12.3656H47.235C47.235 13.228 47.0932 14.0389 46.8127 14.8031L47.4517 15.0376L48.0906 15.2722C48.4288 14.351 48.5963 13.3806 48.5963 12.3656H47.9157ZM47.4517 15.0376L46.8101 14.8103C46.5439 15.5615 46.1369 16.219 45.5863 16.7886L46.0757 17.2616L46.565 17.7347C47.2517 17.0243 47.7621 16.1991 48.0932 15.265L47.4517 15.0376ZM46.0757 17.2616L45.5903 16.7845C45.0577 17.3262 44.3721 17.7425 43.5128 18.0225L43.7237 18.6696L43.9345 19.3168C44.9739 18.9781 45.8563 18.4557 46.561 17.7388L46.0757 17.2616ZM43.7237 18.6696L44.2999 18.3074L43.2439 16.6274L42.6677 16.9896L42.0914 17.3519L43.1474 19.0319L43.7237 18.6696ZM42.6677 16.9896L42.8803 17.6362C43.7652 17.3451 44.5189 16.927 45.1172 16.3662L44.6517 15.8696L44.1861 15.3731C43.7604 15.7722 43.1914 16.1008 42.455 16.3431L42.6677 16.9896ZM44.6517 15.8696L45.1175 16.3659C45.7053 15.814 46.1492 15.1842 46.4348 14.4763L45.8037 14.2216L45.1725 13.9669C44.9674 14.4751 44.6433 14.9439 44.1858 15.3734L44.6517 15.8696ZM45.8037 14.2216L46.4364 14.4725C46.7109 13.7801 46.8523 13.0765 46.8523 12.3656H46.1717H45.491C45.491 12.8921 45.387 13.4258 45.1709 13.9707L45.8037 14.2216ZM46.1717 12.3656H46.8523V11.4376H46.1717H45.491V12.3656H46.1717ZM46.6037 11.4376V12.1183H48.3157V11.4376V10.757H46.6037V11.4376ZM48.3157 11.4376H47.635V12.3656H48.3157H48.9963V11.4376H48.3157ZM48.3157 12.3656H47.635C47.635 13.037 47.7724 13.6886 48.0427 14.3152L48.6677 14.0456L49.2926 13.776C49.0936 13.3147 48.9963 12.8462 48.9963 12.3656H48.3157ZM48.6677 14.0456L48.0447 14.3198C48.3242 14.9551 48.7515 15.5144 49.309 15.9993L49.7557 15.4856L50.2023 14.972C49.7785 14.6035 49.4804 14.2028 49.2907 13.7715L48.6677 14.0456ZM49.7557 15.4856L49.3145 16.004C49.9029 16.5047 50.6425 16.8789 51.5081 17.1444L51.7077 16.4936L51.9072 15.8429C51.1728 15.6177 50.6111 15.3199 50.1968 14.9673L49.7557 15.4856ZM51.7077 16.4936L51.128 16.1369L50.104 17.8009L50.6837 18.1576L51.2633 18.5144L52.2873 16.8504L51.7077 16.4936ZM50.6837 18.1576L50.8765 17.5049C50.0235 17.2529 49.3497 16.8742 48.8318 16.3835L48.3637 16.8776L47.8955 17.3718C48.5937 18.0331 49.4665 18.5078 50.4908 18.8104L50.6837 18.1576ZM48.3637 16.8776L48.8406 16.392C48.3125 15.8734 47.9254 15.2798 47.673 14.6067L47.0357 14.8456L46.3984 15.0846C46.7219 15.9475 47.2201 16.7085 47.8867 17.3632L48.3637 16.8776ZM47.0357 14.8456L47.674 14.6095C47.4155 13.9104 47.2843 13.1641 47.2843 12.3656H46.6037H45.923C45.923 13.3165 46.0799 14.2235 46.3973 15.0818L47.0357 14.8456ZM46.6037 12.3656H47.2843V11.4376H46.6037H45.923V12.3656H46.6037ZM43.2117 10.7656V11.4463H51.2277V10.7656V10.085H43.2117V10.7656ZM51.2277 10.7656H50.547V12.4616H51.2277H51.9083V10.7656H51.2277ZM51.2277 12.4616V11.781H43.2117V12.4616V13.1423H51.2277V12.4616ZM43.2117 12.4616H43.8923V10.7656H43.2117H42.531V12.4616H43.2117ZM52.3957 9.78964V10.4703H54.5237V9.78964V9.109H52.3957V9.78964ZM54.5237 9.78964H53.843V18.5736H54.5237H55.2043V9.78964H54.5237ZM54.5237 18.5736V17.893H52.3957V18.5736V19.2543H54.5237V18.5736ZM52.3957 18.5736H53.0763V9.78964H52.3957H51.715V18.5736H52.3957ZM53.9477 13.1816V13.8623H56.4917V13.1816V12.501H53.9477V13.1816ZM56.4917 13.1816H55.811V14.9256H56.4917H57.1723V13.1816H56.4917ZM56.4917 14.9256V14.245H53.9477V14.9256V15.6063H56.4917V14.9256ZM53.9477 14.9256H54.6283V13.1816H53.9477H53.267V14.9256H53.9477ZM49.6917 18.8296V19.5103C50.678 19.5103 51.4963 19.6225 52.1596 19.831L52.3637 19.1816L52.5677 18.5323C51.7377 18.2714 50.7747 18.149 49.6917 18.149V18.8296ZM52.3637 19.1816L52.1681 19.8336C52.8369 20.0342 53.2968 20.3092 53.5982 20.6264L54.0917 20.1576L54.5851 19.6889C54.0758 19.1527 53.3838 18.7771 52.5592 18.5297L52.3637 19.1816ZM54.0917 20.1576L53.5982 20.6264C53.879 20.922 54.019 21.2697 54.019 21.7096H54.6997H55.3803C55.3803 20.9336 55.115 20.2466 54.5851 19.6889L54.0917 20.1576ZM54.6997 21.7096H54.019C54.019 22.1496 53.879 22.4973 53.5982 22.7929L54.0917 23.2616L54.5851 23.7304C55.115 23.1727 55.3803 22.4857 55.3803 21.7096H54.6997ZM54.0917 23.2616L53.5925 22.799C53.2913 23.1239 52.8333 23.4021 52.1681 23.6017L52.3637 24.2536L52.5592 24.9056C53.3873 24.6571 54.0814 24.274 54.5909 23.7243L54.0917 23.2616ZM52.3637 24.2536L52.1596 23.6043C51.4963 23.8128 50.678 23.925 49.6917 23.925V24.6056V25.2863C50.7747 25.2863 51.7377 25.1638 52.5677 24.903L52.3637 24.2536ZM49.6917 24.6056V23.925C48.7172 23.925 47.8974 23.8131 47.2211 23.6035L47.0197 24.2536L46.8182 24.9038C47.6566 25.1636 48.6182 25.2863 49.6917 25.2863V24.6056ZM47.0197 24.2536L47.2152 23.6017C46.5497 23.402 46.0828 23.1226 45.7688 22.7925L45.2757 23.2616L44.7825 23.7307C45.3005 24.2754 45.9963 24.6572 46.8241 24.9056L47.0197 24.2536ZM45.2757 23.2616L45.7691 22.7929C45.4883 22.4973 45.3483 22.1496 45.3483 21.7096H44.6677H43.987C43.987 22.4857 44.2523 23.1727 44.7822 23.7304L45.2757 23.2616ZM44.6677 21.7096H45.3483C45.3483 21.2697 45.4883 20.922 45.7691 20.6264L45.2757 20.1576L44.7822 19.6889C44.2523 20.2466 43.987 20.9336 43.987 21.7096H44.6677ZM45.2757 20.1576L45.763 20.6328C46.0772 20.3105 46.5462 20.0343 47.2152 19.8336L47.0197 19.1816L46.8241 18.5297C45.9998 18.777 45.3061 19.1514 44.7883 19.6825L45.2757 20.1576ZM47.0197 19.1816L47.2211 19.8318C47.8974 19.6222 48.7172 19.5103 49.6917 19.5103V18.8296V18.149C48.6182 18.149 47.6566 18.2717 46.8182 18.5315L47.0197 19.1816ZM49.6917 20.4936V19.813C49.0355 19.813 48.4595 19.8572 47.9742 19.9542L48.1077 20.6216L48.2411 21.2891C48.6092 21.2155 49.0892 21.1743 49.6917 21.1743V20.4936ZM48.1077 20.6216L47.9742 19.9542C47.49 20.0511 47.0456 20.2156 46.7034 20.4926L47.1317 21.0216L47.5599 21.5507C47.6657 21.465 47.872 21.3629 48.2411 21.2891L48.1077 20.6216ZM47.1317 21.0216L46.7034 20.4926C46.327 20.7973 46.115 21.2178 46.115 21.7096H46.7957H47.4763C47.4763 21.6468 47.4883 21.6086 47.5599 21.5507L47.1317 21.0216ZM46.7957 21.7096H46.115C46.115 22.2032 46.3199 22.6322 46.7034 22.9427L47.1317 22.4136L47.5599 21.8846C47.4954 21.8324 47.4763 21.7921 47.4763 21.7096H46.7957ZM47.1317 22.4136L46.7034 22.9427C47.0399 23.2151 47.4776 23.3855 47.9582 23.4937L48.1077 22.8296L48.2571 22.1656C47.8844 22.0817 47.6714 21.9749 47.5599 21.8846L47.1317 22.4136ZM48.1077 22.8296L47.9742 23.4971C48.4595 23.5941 49.0355 23.6383 49.6917 23.6383V22.9576V22.277C49.0892 22.277 48.6092 22.2358 48.2411 22.1622L48.1077 22.8296ZM49.6917 22.9576V23.6383C50.3478 23.6383 50.9238 23.5941 51.4091 23.4971L51.2757 22.8296L51.1422 22.1622C50.7741 22.2358 50.2941 22.277 49.6917 22.277V22.9576ZM51.2757 22.8296L51.4216 23.4945C51.9093 23.3874 52.3581 23.2164 52.6925 22.9322L52.2517 22.4136L51.8108 21.895C51.7185 21.9735 51.5167 22.0799 51.1297 22.1648L51.2757 22.8296ZM52.2517 22.4136L52.6799 22.9427C53.0634 22.6322 53.2683 22.2032 53.2683 21.7096H52.5877H51.907C51.907 21.7921 51.8879 21.8324 51.8234 21.8846L52.2517 22.4136ZM52.5877 21.7096H53.2683C53.2683 21.2178 53.0563 20.7973 52.6799 20.4926L52.2517 21.0216L51.8234 21.5507C51.895 21.6086 51.907 21.6468 51.907 21.7096H52.5877ZM52.2517 21.0216L52.6925 20.503C52.3524 20.214 51.8968 20.0494 51.406 19.9536L51.2757 20.6216L51.1453 21.2897C51.5292 21.3646 51.7242 21.4666 51.8108 21.5402L52.2517 21.0216ZM51.2757 20.6216L51.4091 19.9542C50.9238 19.8572 50.3478 19.813 49.6917 19.813V20.4936V21.1743C50.2941 21.1743 50.7741 21.2155 51.1422 21.2891L51.2757 20.6216Z" fill="black" fill-opacity="0.3" mask="url(#path-9-outside-1_1955_35863)"/>
</g>
<defs>
<filter id="filter0_f_1955_35863" x="0.335938" y="6.51172" width="81.8047" height="27.1113" filterUnits="userSpaceOnUse" color-interpolation-filters="sRGB">
<feFlood flood-opacity="0" result="BackgroundImageFix"/>
<feBlend mode="normal" in="SourceGraphic" in2="BackgroundImageFix" result="shape"/>
<feGaussianBlur stdDeviation="1.5" result="effect1_foregroundBlur_1955_35863"/>
</filter>
<filter id="filter1_f_1955_35863" x="-1.21289" y="6.51172" width="10.8066" height="22.334" filterUnits="userSpaceOnUse" color-interpolation-filters="sRGB">
<feFlood flood-opacity="0" result="BackgroundImageFix"/>
<feBlend mode="normal" in="SourceGraphic" in2="BackgroundImageFix" result="shape"/>
<feGaussianBlur stdDeviation="1.5" result="effect1_foregroundBlur_1955_35863"/>
</filter>
<filter id="filter2_f_1955_35863" x="25.0938" y="4.74023" width="67.5723" height="34.8848" filterUnits="userSpaceOnUse" color-interpolation-filters="sRGB">
<feFlood flood-opacity="0" result="BackgroundImageFix"/>
<feBlend mode="normal" in="SourceGraphic" in2="BackgroundImageFix" result="shape"/>
<feGaussianBlur stdDeviation="4.5" result="effect1_foregroundBlur_1955_35863"/>
</filter>
<filter id="filter3_f_1955_35863" x="-0.664062" y="-1.4082" width="85.3281" height="19.9355" filterUnits="userSpaceOnUse" color-interpolation-filters="sRGB">
<feFlood flood-opacity="0" result="BackgroundImageFix"/>
<feBlend mode="normal" in="SourceGraphic" in2="BackgroundImageFix" result="shape"/>
<feGaussianBlur stdDeviation="2" result="effect1_foregroundBlur_1955_35863"/>
</filter>
<filter id="filter4_f_1955_35863" x="24.0703" y="5.03906" width="61.791" height="29.584" filterUnits="userSpaceOnUse" color-interpolation-filters="sRGB">
<feFlood flood-opacity="0" result="BackgroundImageFix"/>
<feBlend mode="normal" in="SourceGraphic" in2="BackgroundImageFix" result="shape"/>
<feGaussianBlur stdDeviation="2" result="effect1_foregroundBlur_1955_35863"/>
</filter>
<linearGradient id="paint0_linear_1955_35863" x1="43" y1="1" x2="43" y2="33" gradientUnits="userSpaceOnUse">
<stop stop-color="#138066"/>
<stop offset="0.0384615" stop-color="#17B58D"/>
<stop offset="0.586538" stop-color="#23A788"/>
<stop offset="0.971154" stop-color="#037157"/>
</linearGradient>
<linearGradient id="paint1_linear_1955_35863" x1="43" y1="0" x2="43" y2="34" gradientUnits="userSpaceOnUse">
<stop stop-color="#184834"/>
<stop offset="1" stop-color="#213A2F"/>
</linearGradient>
<linearGradient id="paint2_linear_1955_35863" x1="43" y1="1" x2="43" y2="33" gradientUnits="userSpaceOnUse">
<stop stop-color="#C6E7D9"/>
<stop offset="1" stop-color="#4FB086"/>
</linearGradient>
<linearGradient id="paint3_linear_1955_35863" x1="47.4176" y1="20.0669" x2="73.7223" y2="20.0669" gradientUnits="userSpaceOnUse">
<stop stop-color="#1F7365"/>
<stop offset="1" stop-color="#1F7365" stop-opacity="0"/>
</linearGradient>
<linearGradient id="paint4_linear_1955_35863" x1="83.138" y1="22.5743" x2="58.7993" y2="22.5743" gradientUnits="userSpaceOnUse">
<stop stop-color="#D8EBE6"/>
<stop offset="1" stop-color="#5EAC99"/>
</linearGradient>
<clipPath id="clip0_1955_35863">
<rect width="86" height="34" fill="white"/>
</clipPath>
</defs>
</svg>
