<svg width="86" height="34" viewBox="0 0 86 34" fill="none" xmlns="http://www.w3.org/2000/svg">
<g clip-path="url(#clip0_1955_35865)">
<path d="M1 7C1 3.68629 3.68629 1 7 1H79C82.3137 1 85 3.68629 85 7V27C85 30.3137 82.3137 33 79 33H7C3.68629 33 1 30.3137 1 27V7Z" fill="url(#paint0_linear_1955_35865)"/>
<path d="M1 7C1 3.68629 3.68629 1 7 1H79C82.3137 1 85 3.68629 85 7V27C85 30.3137 82.3137 33 79 33H7C3.68629 33 1 30.3137 1 27V7Z" fill="black" fill-opacity="0.4"/>
<rect x="0.5" y="0.5" width="85" height="33" rx="6.5" stroke="url(#paint1_linear_1955_35865)"/>
<rect x="1.5" y="1.5" width="83" height="31" rx="5.5" stroke="url(#paint2_linear_1955_35865)" stroke-opacity="0.57"/>
<g opacity="0.8" filter="url(#filter0_f_1955_35865)">
<path d="M5.15099 22.9231L4.75997 11.0052L3.33594 9.51172V22.9231C3.33594 28.6851 3.638 30.1277 6.14477 30.2932L79.1406 30.6221C76.0122 28.4365 61.3927 28.2213 54.474 28.3869H12.1095C3.44612 28.3869 6.14477 27.0184 5.15099 22.9231Z" fill="url(#paint3_linear_1955_35865)"/>
</g>
<g opacity="0.3" filter="url(#filter1_f_1955_35865)">
<path d="M1.78805 25.8467L1.78805 9.51172C3.98486 12.1375 6.59375 13.3203 6.59375 16.7063C6.59375 20.0923 3.38995 25.3961 1.78805 25.8467Z" fill="#FDFDFD"/>
</g>
<g opacity="0.6" filter="url(#filter2_f_1955_35865)" style="mix-blend-mode:multiply">
<path d="M40.552 30.6216C38.2511 30.6311 36.064 30.6216 34.0938 30.6216H40.552C53.87 30.5666 71.0001 29.8744 71.9688 23.0129C73.4688 12.3881 77.9753 13.1515 81.7188 14.5129C84.2288 15.426 83.8438 19.3877 83.138 26.1702C82.7197 27.654 80.8232 30.6216 76.5839 30.6216H40.552Z" fill="url(#paint4_linear_1955_35865)"/>
</g>
<g opacity="0.8" filter="url(#filter3_f_1955_35865)">
<path d="M3.50679 6.522C3.50723 2.26783 8.28681 3.95669 10.3456 3.81384L80.6641 2.5918L42.5063 5.30685C12.298 6.59288 6.65939 6.50845 6.04171 9.32688C2.3547 16.9097 3.50578 16.3874 3.50679 6.522Z" fill="white"/>
</g>
<g filter="url(#filter4_f_1955_35865)">
<path d="M81.796 26.6928C81.7957 30.947 78.4677 29.2582 77.0341 29.401L28.0712 30.623L63.3457 28.0508C84.3798 26.7648 79.8457 22.0508 79.8457 11.3008C82.413 3.71795 81.7967 16.8274 81.796 26.6928Z" fill="#02251C"/>
</g>
<mask id="path-9-outside-1_1955_35865" maskUnits="userSpaceOnUse" x="27.3516" y="8.18164" width="30" height="18" fill="black">
<rect fill="white" x="27.3516" y="8.18164" width="30" height="18"/>
<path d="M34.0449 12.9416V13.4536C34.0449 16.0456 35.2129 18.7656 37.6609 19.8856L36.4449 21.5496C34.7809 20.7336 33.6449 19.2136 33.0049 17.3736C32.3809 19.3576 31.2289 20.9896 29.5329 21.8376L28.2849 20.1736C30.7489 19.0216 31.9169 16.1896 31.9169 13.4536V12.9416H28.8929V11.2296H37.0689V12.9416H34.0449ZM38.7649 9.80564H40.8769V24.5896H38.7649V16.6696H36.1729V14.9576H38.7649V9.80564ZM51.6917 16.5096L50.6837 18.1416C49.0677 17.6616 47.9477 16.6856 47.3077 15.4696C46.6517 16.9256 45.4837 18.0936 43.7557 18.6536L42.6997 17.0056C45.0837 16.2056 46.1397 14.3336 46.1717 12.4936H43.2437V10.7976H51.2117V12.4936H48.3317C48.3637 14.1736 49.3717 15.8216 51.6917 16.5096ZM49.6917 22.9416C51.5637 22.9416 52.5717 22.5416 52.5717 21.7096C52.5717 20.8616 51.5637 20.4616 49.6917 20.4616C47.8037 20.4616 46.7957 20.8616 46.7957 21.7096C46.7957 22.5416 47.8037 22.9416 49.6917 22.9416ZM49.6917 18.8296C52.7477 18.8296 54.6677 19.9016 54.6677 21.7096C54.6677 23.5016 52.7477 24.5576 49.6917 24.5576C46.6197 24.5576 44.6997 23.5016 44.6997 21.7096C44.6997 19.9016 46.6197 18.8296 49.6917 18.8296ZM54.5077 13.2136H56.4597V14.9416H54.5077V18.5736H52.3957V9.82164H54.5077V13.2136Z"/>
</mask>
<path d="M34.0449 12.9416V13.4536C34.0449 16.0456 35.2129 18.7656 37.6609 19.8856L36.4449 21.5496C34.7809 20.7336 33.6449 19.2136 33.0049 17.3736C32.3809 19.3576 31.2289 20.9896 29.5329 21.8376L28.2849 20.1736C30.7489 19.0216 31.9169 16.1896 31.9169 13.4536V12.9416H28.8929V11.2296H37.0689V12.9416H34.0449ZM38.7649 9.80564H40.8769V24.5896H38.7649V16.6696H36.1729V14.9576H38.7649V9.80564ZM51.6917 16.5096L50.6837 18.1416C49.0677 17.6616 47.9477 16.6856 47.3077 15.4696C46.6517 16.9256 45.4837 18.0936 43.7557 18.6536L42.6997 17.0056C45.0837 16.2056 46.1397 14.3336 46.1717 12.4936H43.2437V10.7976H51.2117V12.4936H48.3317C48.3637 14.1736 49.3717 15.8216 51.6917 16.5096ZM49.6917 22.9416C51.5637 22.9416 52.5717 22.5416 52.5717 21.7096C52.5717 20.8616 51.5637 20.4616 49.6917 20.4616C47.8037 20.4616 46.7957 20.8616 46.7957 21.7096C46.7957 22.5416 47.8037 22.9416 49.6917 22.9416ZM49.6917 18.8296C52.7477 18.8296 54.6677 19.9016 54.6677 21.7096C54.6677 23.5016 52.7477 24.5576 49.6917 24.5576C46.6197 24.5576 44.6997 23.5016 44.6997 21.7096C44.6997 19.9016 46.6197 18.8296 49.6917 18.8296ZM54.5077 13.2136H56.4597V14.9416H54.5077V18.5736H52.3957V9.82164H54.5077V13.2136Z" fill="#FFED2D"/>
<path d="M34.0449 12.9416V12.261C33.669 12.261 33.3643 12.5657 33.3643 12.9416H34.0449ZM37.6609 19.8856L38.2104 20.2872C38.3311 20.1221 38.3711 19.9116 38.3195 19.7137C38.2678 19.5159 38.13 19.3518 37.9441 19.2667L37.6609 19.8856ZM36.4449 21.5496L36.1452 22.1608C36.4417 22.3061 36.7997 22.2178 36.9944 21.9512L36.4449 21.5496ZM33.0049 17.3736L33.6478 17.15C33.5514 16.8729 33.2881 16.6887 32.9947 16.6931C32.7012 16.6975 32.4437 16.8895 32.3556 17.1694L33.0049 17.3736ZM29.5329 21.8376L28.9884 22.246C29.1858 22.5092 29.5431 22.5935 29.8373 22.4464L29.5329 21.8376ZM28.2849 20.1736L27.9966 19.5571C27.811 19.6439 27.6743 19.8097 27.6246 20.0086C27.5749 20.2074 27.6174 20.4181 27.7404 20.582L28.2849 20.1736ZM31.9169 12.9416H32.5975C32.5975 12.5657 32.2928 12.261 31.9169 12.261V12.9416ZM28.8929 12.9416H28.2123C28.2123 13.3175 28.517 13.6223 28.8929 13.6223V12.9416ZM28.8929 11.2296V10.549C28.517 10.549 28.2123 10.8537 28.2123 11.2296H28.8929ZM37.0689 11.2296H37.7495C37.7495 10.8537 37.4448 10.549 37.0689 10.549V11.2296ZM37.0689 12.9416V13.6223C37.4448 13.6223 37.7495 13.3175 37.7495 12.9416H37.0689ZM38.7649 9.80564V9.125C38.389 9.125 38.0843 9.42973 38.0843 9.80564H38.7649ZM40.8769 9.80564H41.5575C41.5575 9.42973 41.2528 9.125 40.8769 9.125V9.80564ZM40.8769 24.5896V25.2703C41.2528 25.2703 41.5575 24.9655 41.5575 24.5896H40.8769ZM38.7649 24.5896H38.0843C38.0843 24.9655 38.389 25.2703 38.7649 25.2703V24.5896ZM38.7649 16.6696H39.4455C39.4455 16.2937 39.1408 15.989 38.7649 15.989V16.6696ZM36.1729 16.6696H35.4923C35.4923 17.0455 35.797 17.3503 36.1729 17.3503V16.6696ZM36.1729 14.9576V14.277C35.797 14.277 35.4923 14.5817 35.4923 14.9576H36.1729ZM38.7649 14.9576V15.6383C39.1408 15.6383 39.4455 15.3335 39.4455 14.9576H38.7649ZM34.0449 12.9416H33.3643V13.4536H34.0449H34.7255V12.9416H34.0449ZM34.0449 13.4536H33.3643C33.3643 16.2092 34.6063 19.2366 37.3777 20.5046L37.6609 19.8856L37.9441 19.2667C35.8195 18.2947 34.7255 15.8821 34.7255 13.4536H34.0449ZM37.6609 19.8856L37.1114 19.4841L35.8954 21.1481L36.4449 21.5496L36.9944 21.9512L38.2104 20.2872L37.6609 19.8856ZM36.4449 21.5496L36.7446 20.9385C35.2814 20.221 34.2452 18.8678 33.6478 17.15L33.0049 17.3736L32.362 17.5972C33.0446 19.5595 34.2804 21.2463 36.1452 22.1608L36.4449 21.5496ZM33.0049 17.3736L32.3556 17.1694C31.769 19.0346 30.7126 20.4868 29.2285 21.2289L29.5329 21.8376L29.8373 22.4464C31.7452 21.4925 32.9928 19.6807 33.6542 17.5779L33.0049 17.3736ZM29.5329 21.8376L30.0774 21.4293L28.8294 19.7653L28.2849 20.1736L27.7404 20.582L28.9884 22.246L29.5329 21.8376ZM28.2849 20.1736L28.5732 20.7902C31.3671 19.484 32.5975 16.3367 32.5975 13.4536H31.9169H31.2363C31.2363 16.0425 30.1307 18.5593 27.9966 19.5571L28.2849 20.1736ZM31.9169 13.4536H32.5975V12.9416H31.9169H31.2363V13.4536H31.9169ZM31.9169 12.9416V12.261H28.8929V12.9416V13.6223H31.9169V12.9416ZM28.8929 12.9416H29.5735V11.2296H28.8929H28.2123V12.9416H28.8929ZM28.8929 11.2296V11.9103H37.0689V11.2296V10.549H28.8929V11.2296ZM37.0689 11.2296H36.3883V12.9416H37.0689H37.7495V11.2296H37.0689ZM37.0689 12.9416V12.261H34.0449V12.9416V13.6223H37.0689V12.9416ZM38.7649 9.80564V10.4863H40.8769V9.80564V9.125H38.7649V9.80564ZM40.8769 9.80564H40.1963V24.5896H40.8769H41.5575V9.80564H40.8769ZM40.8769 24.5896V23.909H38.7649V24.5896V25.2703H40.8769V24.5896ZM38.7649 24.5896H39.4455V16.6696H38.7649H38.0843V24.5896H38.7649ZM38.7649 16.6696V15.989H36.1729V16.6696V17.3503H38.7649V16.6696ZM36.1729 16.6696H36.8535V14.9576H36.1729H35.4923V16.6696H36.1729ZM36.1729 14.9576V15.6383H38.7649V14.9576V14.277H36.1729V14.9576ZM38.7649 14.9576H39.4455V9.80564H38.7649H38.0843V14.9576H38.7649ZM51.6917 16.5096L52.2707 16.8673C52.3821 16.687 52.4031 16.465 52.3276 16.2669C52.252 16.0689 52.0884 15.9174 51.8852 15.8571L51.6917 16.5096ZM50.6837 18.1416L50.4899 18.7941C50.7845 18.8816 51.1012 18.7608 51.2627 18.4993L50.6837 18.1416ZM47.3077 15.4696L47.91 15.1526C47.7888 14.9224 47.5469 14.7814 47.2868 14.7893C47.0268 14.7973 46.794 14.9528 46.6871 15.19L47.3077 15.4696ZM43.7557 18.6536L43.1826 19.0209C43.3495 19.2814 43.6711 19.3965 43.9655 19.3011L43.7557 18.6536ZM42.6997 17.0056L42.4831 16.3604C42.2843 16.4271 42.1273 16.5817 42.0577 16.7796C41.988 16.9774 42.0134 17.1963 42.1266 17.3729L42.6997 17.0056ZM46.1717 12.4936L46.8522 12.5055C46.8554 12.3229 46.7851 12.1468 46.6571 12.0166C46.5291 11.8863 46.3542 11.813 46.1717 11.813V12.4936ZM43.2437 12.4936H42.563C42.563 12.8695 42.8677 13.1743 43.2437 13.1743V12.4936ZM43.2437 10.7976V10.117C42.8677 10.117 42.563 10.4217 42.563 10.7976H43.2437ZM51.2117 10.7976H51.8923C51.8923 10.4217 51.5876 10.117 51.2117 10.117V10.7976ZM51.2117 12.4936V13.1743C51.5876 13.1743 51.8923 12.8695 51.8923 12.4936H51.2117ZM48.3317 12.4936V11.813C48.1489 11.813 47.9738 11.8865 47.8458 12.017C47.7178 12.1474 47.6477 12.3239 47.6511 12.5066L48.3317 12.4936ZM54.5077 13.2136H53.827C53.827 13.5895 54.1317 13.8943 54.5077 13.8943V13.2136ZM56.4597 13.2136H57.1403C57.1403 12.8377 56.8356 12.533 56.4597 12.533V13.2136ZM56.4597 14.9416V15.6223C56.8356 15.6223 57.1403 15.3175 57.1403 14.9416H56.4597ZM54.5077 14.9416V14.261C54.1317 14.261 53.827 14.5657 53.827 14.9416H54.5077ZM54.5077 18.5736V19.2543C54.8836 19.2543 55.1883 18.9495 55.1883 18.5736H54.5077ZM52.3957 18.5736H51.715C51.715 18.9495 52.0197 19.2543 52.3957 19.2543V18.5736ZM52.3957 9.82164V9.141C52.0197 9.141 51.715 9.44573 51.715 9.82164H52.3957ZM54.5077 9.82164H55.1883C55.1883 9.44573 54.8836 9.141 54.5077 9.141V9.82164ZM51.6917 16.5096L51.1126 16.152L50.1046 17.784L50.6837 18.1416L51.2627 18.4993L52.2707 16.8673L51.6917 16.5096ZM50.6837 18.1416L50.8775 17.4892C49.4317 17.0597 48.4619 16.2013 47.91 15.1526L47.3077 15.4696L46.7053 15.7866C47.4334 17.17 48.7036 18.2635 50.4899 18.7941L50.6837 18.1416ZM47.3077 15.4696L46.6871 15.19C46.104 16.4842 45.0778 17.5097 43.5458 18.0062L43.7557 18.6536L43.9655 19.3011C45.8896 18.6776 47.1993 17.3671 47.9282 15.7492L47.3077 15.4696ZM43.7557 18.6536L44.3287 18.2864L43.2727 16.6384L42.6997 17.0056L42.1266 17.3729L43.1826 19.0209L43.7557 18.6536ZM42.6997 17.0056L42.9162 17.6509C45.5893 16.7539 46.8155 14.6164 46.8522 12.5055L46.1717 12.4936L45.4911 12.4818C45.4638 14.0509 44.578 15.6574 42.4831 16.3604L42.6997 17.0056ZM46.1717 12.4936V11.813H43.2437V12.4936V13.1743H46.1717V12.4936ZM43.2437 12.4936H43.9243V10.7976H43.2437H42.563V12.4936H43.2437ZM43.2437 10.7976V11.4783H51.2117V10.7976V10.117H43.2437V10.7976ZM51.2117 10.7976H50.531V12.4936H51.2117H51.8923V10.7976H51.2117ZM51.2117 12.4936V11.813H48.3317V12.4936V13.1743H51.2117V12.4936ZM48.3317 12.4936L47.6511 12.5066C47.6889 14.49 48.9005 16.3918 51.4981 17.1622L51.6917 16.5096L51.8852 15.8571C49.8429 15.2514 49.0384 13.8573 49.0122 12.4807L48.3317 12.4936ZM49.6917 22.9416V23.6223C50.6562 23.6223 51.485 23.5221 52.0971 23.2652C52.4095 23.1341 52.7008 22.9475 52.9161 22.6786C53.14 22.3992 53.2523 22.0668 53.2523 21.7096H52.5717H51.891C51.891 21.7685 51.8773 21.7981 51.8537 21.8276C51.8215 21.8678 51.7438 21.9372 51.5702 22.01C51.2103 22.1611 50.5992 22.261 49.6917 22.261V22.9416ZM52.5717 21.7096H53.2523C53.2523 21.3517 53.142 21.0175 52.9191 20.7351C52.7043 20.463 52.4128 20.2739 52.0993 20.141C51.486 19.881 50.6557 19.781 49.6917 19.781V20.4616V21.1423C50.5996 21.1423 51.2094 21.2423 51.568 21.3943C51.7405 21.4674 51.818 21.5373 51.8507 21.5786C51.8753 21.6098 51.891 21.6436 51.891 21.7096H52.5717ZM49.6917 20.4616V19.781C48.7201 19.781 47.8861 19.8809 47.271 20.1406C46.9565 20.2733 46.6642 20.4623 46.4488 20.7346C46.2253 21.0172 46.115 21.3516 46.115 21.7096H46.7957H47.4763C47.4763 21.6436 47.492 21.6101 47.5165 21.5792C47.5491 21.538 47.6268 21.4679 47.8004 21.3947C48.1612 21.2424 48.7752 21.1423 49.6917 21.1423V20.4616ZM46.7957 21.7096H46.115C46.115 22.0669 46.2274 22.3995 46.4518 22.6792C46.6677 22.9482 46.9597 23.1346 47.2731 23.2656C47.887 23.5222 48.7197 23.6223 49.6917 23.6223V22.9416V22.261C48.7756 22.261 48.1603 22.161 47.7982 22.0097C47.6236 21.9367 47.5456 21.8671 47.5135 21.8271C47.49 21.7978 47.4763 21.7684 47.4763 21.7096H46.7957ZM49.6917 18.8296V19.5103C51.1546 19.5103 52.2665 19.7692 52.9872 20.1822C53.6806 20.5796 53.987 21.0955 53.987 21.7096H54.6677H55.3483C55.3483 20.5158 54.6947 19.5917 53.6641 19.0011C52.6608 18.4261 51.2847 18.149 49.6917 18.149V18.8296ZM54.6677 21.7096H53.987C53.987 22.3123 53.6843 22.8204 52.9903 23.2133C52.269 23.6217 51.156 23.877 49.6917 23.877V24.5576V25.2383C51.2833 25.2383 52.6583 24.9656 53.661 24.3979C54.691 23.8148 55.3483 22.899 55.3483 21.7096H54.6677ZM49.6917 24.5576V23.877C48.2188 23.877 47.1017 23.6215 46.3784 23.213C45.6827 22.82 45.3803 22.3121 45.3803 21.7096H44.6997H44.019C44.019 22.8992 44.6766 23.8152 45.7089 24.3983C46.7136 24.9657 48.0925 25.2383 49.6917 25.2383V24.5576ZM44.6997 21.7096H45.3803C45.3803 21.0957 45.6864 20.5799 46.3815 20.1825C47.1042 19.7693 48.2202 19.5103 49.6917 19.5103V18.8296V18.149C48.0911 18.149 46.7111 18.426 45.7058 19.0008C44.6729 19.5913 44.019 20.5156 44.019 21.7096H44.6997ZM54.5077 13.2136V13.8943H56.4597V13.2136V12.533H54.5077V13.2136ZM56.4597 13.2136H55.779V14.9416H56.4597H57.1403V13.2136H56.4597ZM56.4597 14.9416V14.261H54.5077V14.9416V15.6223H56.4597V14.9416ZM54.5077 14.9416H53.827V18.5736H54.5077H55.1883V14.9416H54.5077ZM54.5077 18.5736V17.893H52.3957V18.5736V19.2543H54.5077V18.5736ZM52.3957 18.5736H53.0763V9.82164H52.3957H51.715V18.5736H52.3957ZM52.3957 9.82164V10.5023H54.5077V9.82164V9.141H52.3957V9.82164ZM54.5077 9.82164H53.827V13.2136H54.5077H55.1883V9.82164H54.5077Z" fill="black" fill-opacity="0.3" mask="url(#path-9-outside-1_1955_35865)"/>
</g>
<defs>
<filter id="filter0_f_1955_35865" x="0.335938" y="6.51172" width="81.8047" height="27.1113" filterUnits="userSpaceOnUse" color-interpolation-filters="sRGB">
<feFlood flood-opacity="0" result="BackgroundImageFix"/>
<feBlend mode="normal" in="SourceGraphic" in2="BackgroundImageFix" result="shape"/>
<feGaussianBlur stdDeviation="1.5" result="effect1_foregroundBlur_1955_35865"/>
</filter>
<filter id="filter1_f_1955_35865" x="-1.21289" y="6.51172" width="10.8066" height="22.334" filterUnits="userSpaceOnUse" color-interpolation-filters="sRGB">
<feFlood flood-opacity="0" result="BackgroundImageFix"/>
<feBlend mode="normal" in="SourceGraphic" in2="BackgroundImageFix" result="shape"/>
<feGaussianBlur stdDeviation="1.5" result="effect1_foregroundBlur_1955_35865"/>
</filter>
<filter id="filter2_f_1955_35865" x="25.0938" y="4.74023" width="67.5723" height="34.8848" filterUnits="userSpaceOnUse" color-interpolation-filters="sRGB">
<feFlood flood-opacity="0" result="BackgroundImageFix"/>
<feBlend mode="normal" in="SourceGraphic" in2="BackgroundImageFix" result="shape"/>
<feGaussianBlur stdDeviation="4.5" result="effect1_foregroundBlur_1955_35865"/>
</filter>
<filter id="filter3_f_1955_35865" x="-0.664062" y="-1.4082" width="85.3281" height="19.9355" filterUnits="userSpaceOnUse" color-interpolation-filters="sRGB">
<feFlood flood-opacity="0" result="BackgroundImageFix"/>
<feBlend mode="normal" in="SourceGraphic" in2="BackgroundImageFix" result="shape"/>
<feGaussianBlur stdDeviation="2" result="effect1_foregroundBlur_1955_35865"/>
</filter>
<filter id="filter4_f_1955_35865" x="24.0703" y="5.03906" width="61.791" height="29.584" filterUnits="userSpaceOnUse" color-interpolation-filters="sRGB">
<feFlood flood-opacity="0" result="BackgroundImageFix"/>
<feBlend mode="normal" in="SourceGraphic" in2="BackgroundImageFix" result="shape"/>
<feGaussianBlur stdDeviation="2" result="effect1_foregroundBlur_1955_35865"/>
</filter>
<linearGradient id="paint0_linear_1955_35865" x1="43" y1="1" x2="43" y2="33" gradientUnits="userSpaceOnUse">
<stop stop-color="#138066"/>
<stop offset="0.0384615" stop-color="#17B58D"/>
<stop offset="0.586538" stop-color="#23A788"/>
<stop offset="0.971154" stop-color="#037157"/>
</linearGradient>
<linearGradient id="paint1_linear_1955_35865" x1="43" y1="0" x2="43" y2="34" gradientUnits="userSpaceOnUse">
<stop stop-color="#184834"/>
<stop offset="1" stop-color="#213A2F"/>
</linearGradient>
<linearGradient id="paint2_linear_1955_35865" x1="43" y1="1" x2="43" y2="33" gradientUnits="userSpaceOnUse">
<stop stop-color="white"/>
<stop offset="1" stop-color="#84FFCA"/>
</linearGradient>
<linearGradient id="paint3_linear_1955_35865" x1="47.4176" y1="20.0669" x2="73.7223" y2="20.0669" gradientUnits="userSpaceOnUse">
<stop stop-color="#042F28"/>
<stop offset="1" stop-color="#1F7365" stop-opacity="0"/>
</linearGradient>
<linearGradient id="paint4_linear_1955_35865" x1="83.138" y1="22.5743" x2="58.7993" y2="22.5743" gradientUnits="userSpaceOnUse">
<stop stop-color="#D8EBE6"/>
<stop offset="1" stop-color="#5EAC99"/>
</linearGradient>
<clipPath id="clip0_1955_35865">
<rect width="86" height="34" fill="white"/>
</clipPath>
</defs>
</svg>
