<svg width="86" height="34" viewBox="0 0 86 34" fill="none" xmlns="http://www.w3.org/2000/svg">
<g clip-path="url(#clip0_2086_93432)">
<path d="M1 7C1 3.68629 3.68629 1 7 1H79C82.3137 1 85 3.68629 85 7V27C85 30.3137 82.3137 33 79 33H7C3.68629 33 1 30.3137 1 27V7Z" fill="url(#paint0_linear_2086_93432)"/>
<rect x="0.5" y="0.5" width="85" height="33" rx="6.5" stroke="url(#paint1_linear_2086_93432)"/>
<rect x="1.5" y="1.5" width="83" height="31" rx="5.5" stroke="url(#paint2_linear_2086_93432)" stroke-opacity="0.57"/>
<g opacity="0.8" filter="url(#filter0_f_2086_93432)">
<path d="M5.15099 22.9231L4.75997 11.0052L3.33594 9.51172V22.9231C3.33594 28.6851 3.638 30.1277 6.14477 30.2932L79.1406 30.6221C76.0122 28.4365 61.3927 28.2213 54.474 28.3869H12.1095C3.44612 28.3869 6.14477 27.0184 5.15099 22.9231Z" fill="url(#paint3_linear_2086_93432)"/>
</g>
<g opacity="0.3" filter="url(#filter1_f_2086_93432)">
<path d="M1.78805 25.8467L1.78805 9.51172C3.98486 12.1375 6.59375 13.3203 6.59375 16.7063C6.59375 20.0923 3.38995 25.3961 1.78805 25.8467Z" fill="#FDFDFD"/>
</g>
<g opacity="0.6" filter="url(#filter2_f_2086_93432)" style="mix-blend-mode:multiply">
<path d="M40.552 30.6226C38.2511 30.6321 36.064 30.6226 34.0938 30.6226H40.552C53.87 30.5675 71.0001 29.8753 71.9688 23.0139C73.4688 12.389 77.9753 13.1525 81.7188 14.5139C84.2288 15.427 83.8438 19.3887 83.138 26.1711C82.7197 27.655 80.8232 30.6226 76.5839 30.6226H40.552Z" fill="url(#paint4_linear_2086_93432)"/>
</g>
<g opacity="0.8" filter="url(#filter3_f_2086_93432)">
<path d="M3.50679 6.52297C3.50723 2.2688 8.28681 3.95767 10.3456 3.81481L80.6641 2.59277L42.5063 5.30783C12.298 6.59385 6.65939 6.50942 6.04171 9.32786C2.3547 16.9107 3.50578 16.3884 3.50679 6.52297Z" fill="white"/>
</g>
<g opacity="0.56" filter="url(#filter4_f_2086_93432)">
<path d="M81.7941 26.6919C81.7937 30.946 78.4657 29.2572 77.0322 29.4L28.0693 30.6221L63.3438 28.0498C84.3778 26.7638 79.8437 22.0498 79.8437 11.2998C82.411 3.71697 81.7948 16.8264 81.7941 26.6919Z" fill="#0A4A3B"/>
</g>
<mask id="path-9-outside-1_2086_93432" maskUnits="userSpaceOnUse" x="27.3516" y="8.18066" width="30" height="18" fill="black">
<rect fill="white" x="27.3516" y="8.18066" width="30" height="18"/>
<path d="M38.7809 9.75666H40.9089V24.6207H38.7809V9.75666ZM36.1889 14.9407H39.2769V16.6527H36.1889V14.9407ZM31.8849 12.1087H33.5809V13.4367C33.5809 14.3327 33.4956 15.2127 33.3249 16.0767C33.1542 16.9407 32.8982 17.746 32.5569 18.4927C32.2262 19.2393 31.8049 19.9007 31.2929 20.4767C30.7809 21.0527 30.1836 21.5167 29.5009 21.8687L28.2529 20.1887C28.8716 19.9007 29.4102 19.5167 29.8689 19.0367C30.3276 18.546 30.7062 18.002 31.0049 17.4047C31.3036 16.7967 31.5222 16.1567 31.6609 15.4847C31.8102 14.802 31.8849 14.1193 31.8849 13.4367V12.1087ZM32.3809 12.1087H34.0449V13.4367C34.0449 14.0873 34.1142 14.738 34.2529 15.3887C34.4022 16.0287 34.6262 16.642 34.9249 17.2287C35.2342 17.8047 35.6182 18.322 36.0769 18.7807C36.5356 19.2393 37.0742 19.6127 37.6929 19.9007L36.4609 21.5647C35.7569 21.234 35.1489 20.7913 34.6369 20.2367C34.1249 19.682 33.7036 19.0473 33.3729 18.3327C33.0422 17.6073 32.7916 16.8287 32.6209 15.9967C32.4609 15.1647 32.3809 14.3113 32.3809 13.4367V12.1087ZM28.8449 11.1967H37.0849V12.9087H28.8449V11.1967ZM46.1717 11.4367H47.9157V12.3647C47.9157 13.3033 47.761 14.194 47.4517 15.0367C47.153 15.8793 46.6943 16.6207 46.0757 17.2607C45.457 17.89 44.673 18.3593 43.7237 18.6687L42.6677 16.9887C43.4783 16.722 44.1397 16.3487 44.6517 15.8687C45.1743 15.378 45.5583 14.8287 45.8037 14.2207C46.049 13.602 46.1717 12.9833 46.1717 12.3647V11.4367ZM46.6037 11.4367H48.3157V12.3647C48.3157 12.9407 48.433 13.5007 48.6677 14.0447C48.9023 14.578 49.265 15.058 49.7557 15.4847C50.257 15.9113 50.9077 16.2473 51.7077 16.4927L50.6837 18.1567C49.745 17.8793 48.9717 17.4527 48.3637 16.8767C47.7663 16.29 47.3237 15.6127 47.0357 14.8447C46.7477 14.066 46.6037 13.2393 46.6037 12.3647V11.4367ZM43.2117 10.7647H51.2277V12.4607H43.2117V10.7647ZM52.3957 9.78866H54.5237V18.5727H52.3957V9.78866ZM53.9477 13.1807H56.4917V14.9247H53.9477V13.1807ZM49.6917 18.8287C50.7263 18.8287 51.617 18.946 52.3637 19.1807C53.1103 19.4047 53.6863 19.73 54.0917 20.1567C54.497 20.5833 54.6997 21.1007 54.6997 21.7087C54.6997 22.3167 54.497 22.834 54.0917 23.2607C53.6863 23.698 53.1103 24.0287 52.3637 24.2527C51.617 24.4873 50.7263 24.6047 49.6917 24.6047C48.6677 24.6047 47.777 24.4873 47.0197 24.2527C46.273 24.0287 45.6917 23.698 45.2757 23.2607C44.8703 22.834 44.6677 22.3167 44.6677 21.7087C44.6677 21.1007 44.8703 20.5833 45.2757 20.1567C45.6917 19.73 46.273 19.4047 47.0197 19.1807C47.777 18.946 48.6677 18.8287 49.6917 18.8287ZM49.6917 20.4927C49.0623 20.4927 48.5343 20.5353 48.1077 20.6207C47.681 20.706 47.3557 20.8393 47.1317 21.0207C46.9077 21.202 46.7957 21.4313 46.7957 21.7087C46.7957 21.9967 46.9077 22.2313 47.1317 22.4127C47.3557 22.594 47.681 22.7327 48.1077 22.8287C48.5343 22.914 49.0623 22.9567 49.6917 22.9567C50.321 22.9567 50.849 22.914 51.2757 22.8287C51.713 22.7327 52.0383 22.594 52.2517 22.4127C52.4757 22.2313 52.5877 21.9967 52.5877 21.7087C52.5877 21.4313 52.4757 21.202 52.2517 21.0207C52.0383 20.8393 51.713 20.706 51.2757 20.6207C50.849 20.5353 50.321 20.4927 49.6917 20.4927Z"/>
</mask>
<path d="M38.7809 9.75666H40.9089V24.6207H38.7809V9.75666ZM36.1889 14.9407H39.2769V16.6527H36.1889V14.9407ZM31.8849 12.1087H33.5809V13.4367C33.5809 14.3327 33.4956 15.2127 33.3249 16.0767C33.1542 16.9407 32.8982 17.746 32.5569 18.4927C32.2262 19.2393 31.8049 19.9007 31.2929 20.4767C30.7809 21.0527 30.1836 21.5167 29.5009 21.8687L28.2529 20.1887C28.8716 19.9007 29.4102 19.5167 29.8689 19.0367C30.3276 18.546 30.7062 18.002 31.0049 17.4047C31.3036 16.7967 31.5222 16.1567 31.6609 15.4847C31.8102 14.802 31.8849 14.1193 31.8849 13.4367V12.1087ZM32.3809 12.1087H34.0449V13.4367C34.0449 14.0873 34.1142 14.738 34.2529 15.3887C34.4022 16.0287 34.6262 16.642 34.9249 17.2287C35.2342 17.8047 35.6182 18.322 36.0769 18.7807C36.5356 19.2393 37.0742 19.6127 37.6929 19.9007L36.4609 21.5647C35.7569 21.234 35.1489 20.7913 34.6369 20.2367C34.1249 19.682 33.7036 19.0473 33.3729 18.3327C33.0422 17.6073 32.7916 16.8287 32.6209 15.9967C32.4609 15.1647 32.3809 14.3113 32.3809 13.4367V12.1087ZM28.8449 11.1967H37.0849V12.9087H28.8449V11.1967ZM46.1717 11.4367H47.9157V12.3647C47.9157 13.3033 47.761 14.194 47.4517 15.0367C47.153 15.8793 46.6943 16.6207 46.0757 17.2607C45.457 17.89 44.673 18.3593 43.7237 18.6687L42.6677 16.9887C43.4783 16.722 44.1397 16.3487 44.6517 15.8687C45.1743 15.378 45.5583 14.8287 45.8037 14.2207C46.049 13.602 46.1717 12.9833 46.1717 12.3647V11.4367ZM46.6037 11.4367H48.3157V12.3647C48.3157 12.9407 48.433 13.5007 48.6677 14.0447C48.9023 14.578 49.265 15.058 49.7557 15.4847C50.257 15.9113 50.9077 16.2473 51.7077 16.4927L50.6837 18.1567C49.745 17.8793 48.9717 17.4527 48.3637 16.8767C47.7663 16.29 47.3237 15.6127 47.0357 14.8447C46.7477 14.066 46.6037 13.2393 46.6037 12.3647V11.4367ZM43.2117 10.7647H51.2277V12.4607H43.2117V10.7647ZM52.3957 9.78866H54.5237V18.5727H52.3957V9.78866ZM53.9477 13.1807H56.4917V14.9247H53.9477V13.1807ZM49.6917 18.8287C50.7263 18.8287 51.617 18.946 52.3637 19.1807C53.1103 19.4047 53.6863 19.73 54.0917 20.1567C54.497 20.5833 54.6997 21.1007 54.6997 21.7087C54.6997 22.3167 54.497 22.834 54.0917 23.2607C53.6863 23.698 53.1103 24.0287 52.3637 24.2527C51.617 24.4873 50.7263 24.6047 49.6917 24.6047C48.6677 24.6047 47.777 24.4873 47.0197 24.2527C46.273 24.0287 45.6917 23.698 45.2757 23.2607C44.8703 22.834 44.6677 22.3167 44.6677 21.7087C44.6677 21.1007 44.8703 20.5833 45.2757 20.1567C45.6917 19.73 46.273 19.4047 47.0197 19.1807C47.777 18.946 48.6677 18.8287 49.6917 18.8287ZM49.6917 20.4927C49.0623 20.4927 48.5343 20.5353 48.1077 20.6207C47.681 20.706 47.3557 20.8393 47.1317 21.0207C46.9077 21.202 46.7957 21.4313 46.7957 21.7087C46.7957 21.9967 46.9077 22.2313 47.1317 22.4127C47.3557 22.594 47.681 22.7327 48.1077 22.8287C48.5343 22.914 49.0623 22.9567 49.6917 22.9567C50.321 22.9567 50.849 22.914 51.2757 22.8287C51.713 22.7327 52.0383 22.594 52.2517 22.4127C52.4757 22.2313 52.5877 21.9967 52.5877 21.7087C52.5877 21.4313 52.4757 21.202 52.2517 21.0207C52.0383 20.8393 51.713 20.706 51.2757 20.6207C50.849 20.5353 50.321 20.4927 49.6917 20.4927Z" fill="white"/>
<path d="M38.7809 9.75666V9.07602C38.405 9.07602 38.1003 9.38076 38.1003 9.75666H38.7809ZM40.9089 9.75666H41.5895C41.5895 9.38076 41.2848 9.07602 40.9089 9.07602V9.75666ZM40.9089 24.6207V25.3013C41.2848 25.3013 41.5895 24.9966 41.5895 24.6207H40.9089ZM38.7809 24.6207H38.1003C38.1003 24.9966 38.405 25.3013 38.7809 25.3013V24.6207ZM36.1889 14.9407V14.26C35.813 14.26 35.5083 14.5648 35.5083 14.9407H36.1889ZM39.2769 14.9407H39.9575C39.9575 14.5648 39.6528 14.26 39.2769 14.26V14.9407ZM39.2769 16.6527V17.3333C39.6528 17.3333 39.9575 17.0286 39.9575 16.6527H39.2769ZM36.1889 16.6527H35.5083C35.5083 17.0286 35.813 17.3333 36.1889 17.3333V16.6527ZM31.8849 12.1087V11.428C31.509 11.428 31.2043 11.7328 31.2043 12.1087H31.8849ZM33.5809 12.1087H34.2615C34.2615 11.7328 33.9568 11.428 33.5809 11.428V12.1087ZM33.3249 16.0767L32.6572 15.9448V15.9448L33.3249 16.0767ZM32.5569 18.4927L31.9378 18.2097L31.9346 18.2171L32.5569 18.4927ZM31.2929 20.4767L30.7842 20.0245V20.0245L31.2929 20.4767ZM29.5009 21.8687L28.9545 22.2745C29.1533 22.5421 29.5166 22.6264 29.8128 22.4736L29.5009 21.8687ZM28.2529 20.1887L27.9657 19.5716C27.7802 19.658 27.6433 19.8232 27.5931 20.0215C27.5429 20.2199 27.5845 20.4303 27.7065 20.5945L28.2529 20.1887ZM29.8689 19.0367L30.361 19.5069L30.3661 19.5015L29.8689 19.0367ZM31.0049 17.4047L31.6137 17.7091L31.6158 17.7048L31.0049 17.4047ZM31.6609 15.4847L30.9959 15.3392L30.9943 15.3471L31.6609 15.4847ZM32.3809 12.1087V11.428C32.005 11.428 31.7003 11.7328 31.7003 12.1087H32.3809ZM34.0449 12.1087H34.7255C34.7255 11.7328 34.4208 11.428 34.0449 11.428V12.1087ZM34.2529 15.3887L33.5871 15.5306L33.5901 15.5433L34.2529 15.3887ZM34.9249 17.2287L34.3183 17.5375C34.3206 17.5419 34.3229 17.5463 34.3253 17.5507L34.9249 17.2287ZM36.0769 18.7807L36.5582 18.2994V18.2994L36.0769 18.7807ZM37.6929 19.9007L38.2399 20.3057C38.3616 20.1414 38.4029 19.9311 38.3526 19.733C38.3022 19.5349 38.1655 19.3699 37.9802 19.2836L37.6929 19.9007ZM36.4609 21.5647L36.1715 22.1807C36.465 22.3186 36.815 22.2303 37.0079 21.9697L36.4609 21.5647ZM34.6369 20.2367L35.137 19.775V19.775L34.6369 20.2367ZM33.3729 18.3327L32.7536 18.615L32.7552 18.6185L33.3729 18.3327ZM32.6209 15.9967L31.9525 16.1252L31.9541 16.1334L32.6209 15.9967ZM28.8449 11.1967V10.516C28.469 10.516 28.1643 10.8208 28.1643 11.1967H28.8449ZM37.0849 11.1967H37.7655C37.7655 10.8208 37.4608 10.516 37.0849 10.516V11.1967ZM37.0849 12.9087V13.5893C37.4608 13.5893 37.7655 13.2846 37.7655 12.9087H37.0849ZM28.8449 12.9087H28.1643C28.1643 13.2846 28.469 13.5893 28.8449 13.5893V12.9087ZM38.7809 9.75666V10.4373H40.9089V9.75666V9.07602H38.7809V9.75666ZM40.9089 9.75666H40.2283V24.6207H40.9089H41.5895V9.75666H40.9089ZM40.9089 24.6207V23.94H38.7809V24.6207V25.3013H40.9089V24.6207ZM38.7809 24.6207H39.4615V9.75666H38.7809H38.1003V24.6207H38.7809ZM36.1889 14.9407V15.6213H39.2769V14.9407V14.26H36.1889V14.9407ZM39.2769 14.9407H38.5963V16.6527H39.2769H39.9575V14.9407H39.2769ZM39.2769 16.6527V15.972H36.1889V16.6527V17.3333H39.2769V16.6527ZM36.1889 16.6527H36.8695V14.9407H36.1889H35.5083V16.6527H36.1889ZM31.8849 12.1087V12.7893H33.5809V12.1087V11.428H31.8849V12.1087ZM33.5809 12.1087H32.9003V13.4367H33.5809H34.2615V12.1087H33.5809ZM33.5809 13.4367H32.9003C32.9003 14.2892 32.8191 15.125 32.6572 15.9448L33.3249 16.0767L33.9926 16.2086C34.172 15.3004 34.2615 14.3762 34.2615 13.4367H33.5809ZM33.3249 16.0767L32.6572 15.9448C32.496 16.7604 32.2556 17.5147 31.9379 18.2097L32.5569 18.4927L33.1759 18.7756C33.5409 17.9773 33.8124 17.1209 33.9926 16.2086L33.3249 16.0767ZM32.5569 18.4927L31.9346 18.2171C31.6307 18.9032 31.2467 19.5042 30.7842 20.0245L31.2929 20.4767L31.8016 20.9289C32.3631 20.2972 32.8218 19.5755 33.1792 18.7683L32.5569 18.4927ZM31.2929 20.4767L30.7842 20.0245C30.3276 20.5381 29.7969 20.9502 29.189 21.2637L29.5009 21.8687L29.8128 22.4736C30.5702 22.0831 31.2342 21.5672 31.8016 20.9289L31.2929 20.4767ZM29.5009 21.8687L30.0473 21.4628L28.7993 19.7828L28.2529 20.1887L27.7065 20.5945L28.9545 22.2745L29.5009 21.8687ZM28.2529 20.1887L28.5402 20.8057C29.2335 20.483 29.8421 20.0499 30.361 19.5069L29.8689 19.0367L29.3768 18.5664C28.9783 18.9835 28.5097 19.3184 27.9657 19.5716L28.2529 20.1887ZM29.8689 19.0367L30.3661 19.5015C30.8692 18.9632 31.2856 18.3653 31.6137 17.7091L31.0049 17.4047L30.3961 17.1003C30.1269 17.6387 29.7859 18.1287 29.3717 18.5719L29.8689 19.0367ZM31.0049 17.4047L31.6158 17.7048C31.9402 17.0445 32.1774 16.3498 32.3275 15.6222L31.6609 15.4847L30.9943 15.3471C30.8671 15.9635 30.667 16.5488 30.394 17.1046L31.0049 17.4047ZM31.6609 15.4847L32.3258 15.6301C32.4854 14.9008 32.5655 14.1694 32.5655 13.4367H31.8849H31.2043C31.2043 14.0693 31.1351 14.7032 30.996 15.3392L31.6609 15.4847ZM31.8849 13.4367H32.5655V12.1087H31.8849H31.2043V13.4367H31.8849ZM32.3809 12.1087V12.7893H34.0449V12.1087V11.428H32.3809V12.1087ZM34.0449 12.1087H33.3643V13.4367H34.0449H34.7255V12.1087H34.0449ZM34.0449 13.4367H33.3643C33.3643 14.1361 33.4388 14.8343 33.5872 15.5305L34.2529 15.3887L34.9186 15.2468C34.7896 14.6417 34.7255 14.0386 34.7255 13.4367H34.0449ZM34.2529 15.3887L33.5901 15.5433C33.7519 16.2369 33.9948 16.902 34.3183 17.5375L34.9249 17.2287L35.5315 16.9199C35.2577 16.382 35.0526 15.8205 34.9157 15.234L34.2529 15.3887ZM34.9249 17.2287L34.3253 17.5507C34.6658 18.1848 35.0896 18.7559 35.5956 19.2619L36.0769 18.7807L36.5582 18.2994C36.1469 17.8881 35.8027 17.4245 35.5245 16.9066L34.9249 17.2287ZM36.0769 18.7807L35.5956 19.2619C36.1134 19.7797 36.7187 20.1979 37.4057 20.5177L37.6929 19.9007L37.9802 19.2836C37.4298 19.0274 36.9577 18.6989 36.5582 18.2994L36.0769 18.7807ZM37.6929 19.9007L37.1459 19.4957L35.9139 21.1597L36.4609 21.5647L37.0079 21.9697L38.2399 20.3057L37.6929 19.9007ZM36.4609 21.5647L36.7503 20.9486C36.1234 20.6541 35.5876 20.2631 35.137 19.775L34.6369 20.2367L34.1368 20.6983C34.7102 21.3196 35.3904 21.8138 36.1715 22.1807L36.4609 21.5647ZM34.6369 20.2367L35.137 19.775C34.6752 19.2747 34.2928 18.6999 33.9906 18.0469L33.3729 18.3327L32.7552 18.6185C33.1143 19.3947 33.5746 20.0893 34.1368 20.6983L34.6369 20.2367ZM33.3729 18.3327L33.9922 18.0503C33.6841 17.3745 33.4487 16.645 33.2877 15.8599L32.6209 15.9967L31.9541 16.1334C32.1344 17.0123 32.4003 17.8401 32.7536 18.615L33.3729 18.3327ZM32.6209 15.9967L33.2893 15.8681C33.1377 15.0798 33.0615 14.2696 33.0615 13.4367H32.3809H31.7003C31.7003 14.3531 31.7841 15.2495 31.9525 16.1252L32.6209 15.9967ZM32.3809 13.4367H33.0615V12.1087H32.3809H31.7003V13.4367H32.3809ZM28.8449 11.1967V11.8773H37.0849V11.1967V10.516H28.8449V11.1967ZM37.0849 11.1967H36.4043V12.9087H37.0849H37.7655V11.1967H37.0849ZM37.0849 12.9087V12.228H28.8449V12.9087V13.5893H37.0849V12.9087ZM28.8449 12.9087H29.5255V11.1967H28.8449H28.1643V12.9087H28.8449ZM46.1717 11.4367V10.756C45.7957 10.756 45.491 11.0608 45.491 11.4367H46.1717ZM47.9157 11.4367H48.5963C48.5963 11.0608 48.2916 10.756 47.9157 10.756V11.4367ZM47.4517 15.0367L46.8127 14.8021L46.8101 14.8093L47.4517 15.0367ZM46.0757 17.2607L46.5611 17.7378L46.565 17.7337L46.0757 17.2607ZM43.7237 18.6687L43.1474 19.0309C43.3134 19.295 43.6379 19.4125 43.9345 19.3158L43.7237 18.6687ZM42.6677 16.9887L42.455 16.3421C42.2561 16.4075 42.0983 16.5609 42.0273 16.7579C41.9563 16.9549 41.98 17.1736 42.0914 17.3509L42.6677 16.9887ZM44.6517 15.8687L45.1172 16.3652L45.1175 16.3649L44.6517 15.8687ZM45.8037 14.2207L46.4349 14.4754L46.4364 14.4716L45.8037 14.2207ZM46.6037 11.4367V10.756C46.2277 10.756 45.923 11.0608 45.923 11.4367H46.6037ZM48.3157 11.4367H48.9963C48.9963 11.0608 48.6916 10.756 48.3157 10.756V11.4367ZM48.6677 14.0447L48.0427 14.3143L48.0447 14.3188L48.6677 14.0447ZM49.7557 15.4847L49.309 15.9983L49.3145 16.003L49.7557 15.4847ZM51.7077 16.4927L52.2873 16.8494C52.3977 16.67 52.4188 16.4495 52.3445 16.2524C52.2701 16.0553 52.1086 15.9037 51.9072 15.8419L51.7077 16.4927ZM50.6837 18.1567L50.4908 18.8094C50.7856 18.8965 51.1022 18.7752 51.2633 18.5134L50.6837 18.1567ZM48.3637 16.8767L47.8866 17.3623L47.8955 17.3708L48.3637 16.8767ZM47.0357 14.8447L46.3973 15.0808L46.3984 15.0837L47.0357 14.8447ZM43.2117 10.7647V10.084C42.8357 10.084 42.531 10.3888 42.531 10.7647H43.2117ZM51.2277 10.7647H51.9083C51.9083 10.3888 51.6036 10.084 51.2277 10.084V10.7647ZM51.2277 12.4607V13.1413C51.6036 13.1413 51.9083 12.8366 51.9083 12.4607H51.2277ZM43.2117 12.4607H42.531C42.531 12.8366 42.8357 13.1413 43.2117 13.1413V12.4607ZM52.3957 9.78866V9.10802C52.0197 9.10802 51.715 9.41276 51.715 9.78866H52.3957ZM54.5237 9.78866H55.2043C55.2043 9.41276 54.8996 9.10802 54.5237 9.10802V9.78866ZM54.5237 18.5727V19.2533C54.8996 19.2533 55.2043 18.9486 55.2043 18.5727H54.5237ZM52.3957 18.5727H51.715C51.715 18.9486 52.0197 19.2533 52.3957 19.2533V18.5727ZM53.9477 13.1807V12.5C53.5717 12.5 53.267 12.8048 53.267 13.1807H53.9477ZM56.4917 13.1807H57.1723C57.1723 12.8048 56.8676 12.5 56.4917 12.5V13.1807ZM56.4917 14.9247V15.6053C56.8676 15.6053 57.1723 15.3006 57.1723 14.9247H56.4917ZM53.9477 14.9247H53.267C53.267 15.3006 53.5717 15.6053 53.9477 15.6053V14.9247ZM52.3637 19.1807L52.1596 19.83L52.1681 19.8326L52.3637 19.1807ZM54.0917 23.2607L53.5982 22.7918L53.5925 22.798L54.0917 23.2607ZM52.3637 24.2527L52.1681 23.6007L52.1596 23.6033L52.3637 24.2527ZM47.0197 24.2527L47.2211 23.6025L47.2152 23.6007L47.0197 24.2527ZM45.2757 23.2607L44.7822 23.7295L44.7825 23.7298L45.2757 23.2607ZM45.2757 20.1567L44.7883 19.6815L44.7822 19.6879L45.2757 20.1567ZM47.0197 19.1807L47.2152 19.8326L47.2211 19.8308L47.0197 19.1807ZM48.1077 20.6207L48.2411 21.2881V21.2881L48.1077 20.6207ZM47.1317 21.0207L47.5599 21.5497V21.5497L47.1317 21.0207ZM47.1317 22.4127L46.7034 22.9417V22.9417L47.1317 22.4127ZM48.1077 22.8287L47.9582 23.4927C47.9635 23.4939 47.9688 23.495 47.9742 23.4961L48.1077 22.8287ZM51.2757 22.8287L51.4092 23.4962L51.4216 23.4935L51.2757 22.8287ZM52.2517 22.4127L51.8234 21.8836C51.8192 21.8871 51.815 21.8905 51.8108 21.8941L52.2517 22.4127ZM52.2517 21.0207L51.8108 21.5393C51.815 21.5428 51.8192 21.5463 51.8234 21.5497L52.2517 21.0207ZM51.2757 20.6207L51.1422 21.2881L51.1453 21.2887L51.2757 20.6207ZM46.1717 11.4367V12.1173H47.9157V11.4367V10.756H46.1717V11.4367ZM47.9157 11.4367H47.235V12.3647H47.9157H48.5963V11.4367H47.9157ZM47.9157 12.3647H47.235C47.235 13.227 47.0932 14.038 46.8127 14.8021L47.4517 15.0367L48.0906 15.2712C48.4288 14.35 48.5963 13.3797 48.5963 12.3647H47.9157ZM47.4517 15.0367L46.8101 14.8093C46.5439 15.5605 46.1369 16.218 45.5863 16.7876L46.0757 17.2607L46.565 17.7337C47.2517 17.0233 47.7621 16.1981 48.0932 15.264L47.4517 15.0367ZM46.0757 17.2607L45.5903 16.7835C45.0577 17.3253 44.3721 17.7415 43.5128 18.0215L43.7237 18.6687L43.9345 19.3158C44.9739 18.9771 45.8563 18.4547 46.561 17.7378L46.0757 17.2607ZM43.7237 18.6687L44.2999 18.3064L43.2439 16.6264L42.6677 16.9887L42.0914 17.3509L43.1474 19.0309L43.7237 18.6687ZM42.6677 16.9887L42.8803 17.6352C43.7652 17.3441 44.5189 16.9261 45.1172 16.3652L44.6517 15.8687L44.1861 15.3721C43.7604 15.7713 43.1914 16.0999 42.455 16.3421L42.6677 16.9887ZM44.6517 15.8687L45.1175 16.3649C45.7053 15.8131 46.1492 15.1832 46.4348 14.4754L45.8037 14.2207L45.1725 13.966C44.9674 14.4741 44.6433 14.9429 44.1858 15.3724L44.6517 15.8687ZM45.8037 14.2207L46.4364 14.4716C46.7109 13.7791 46.8523 13.0756 46.8523 12.3647H46.1717H45.491C45.491 12.8911 45.387 13.4249 45.1709 13.9698L45.8037 14.2207ZM46.1717 12.3647H46.8523V11.4367H46.1717H45.491V12.3647H46.1717ZM46.6037 11.4367V12.1173H48.3157V11.4367V10.756H46.6037V11.4367ZM48.3157 11.4367H47.635V12.3647H48.3157H48.9963V11.4367H48.3157ZM48.3157 12.3647H47.635C47.635 13.0361 47.7724 13.6876 48.0427 14.3143L48.6677 14.0447L49.2926 13.7751C49.0936 13.3137 48.9963 12.8453 48.9963 12.3647H48.3157ZM48.6677 14.0447L48.0447 14.3188C48.3242 14.9541 48.7515 15.5134 49.309 15.9983L49.7557 15.4847L50.2023 14.971C49.7785 14.6025 49.4804 14.2019 49.2907 13.7705L48.6677 14.0447ZM49.7557 15.4847L49.3145 16.003C49.9029 16.5037 50.6425 16.878 51.5081 17.1434L51.7077 16.4927L51.9072 15.8419C51.1728 15.6167 50.6111 15.3189 50.1968 14.9663L49.7557 15.4847ZM51.7077 16.4927L51.128 16.1359L50.104 17.7999L50.6837 18.1567L51.2633 18.5134L52.2873 16.8494L51.7077 16.4927ZM50.6837 18.1567L50.8765 17.5039C50.0235 17.2519 49.3497 16.8732 48.8318 16.3826L48.3637 16.8767L47.8955 17.3708C48.5937 18.0321 49.4665 18.5068 50.4908 18.8094L50.6837 18.1567ZM48.3637 16.8767L48.8406 16.3911C48.3125 15.8724 47.9254 15.2788 47.673 14.6057L47.0357 14.8447L46.3984 15.0837C46.7219 15.9465 47.2201 16.7076 47.8867 17.3623L48.3637 16.8767ZM47.0357 14.8447L47.674 14.6086C47.4155 13.9094 47.2843 13.1631 47.2843 12.3647H46.6037H45.923C45.923 13.3156 46.0799 14.2225 46.3973 15.0808L47.0357 14.8447ZM46.6037 12.3647H47.2843V11.4367H46.6037H45.923V12.3647H46.6037ZM43.2117 10.7647V11.4453H51.2277V10.7647V10.084H43.2117V10.7647ZM51.2277 10.7647H50.547V12.4607H51.2277H51.9083V10.7647H51.2277ZM51.2277 12.4607V11.78H43.2117V12.4607V13.1413H51.2277V12.4607ZM43.2117 12.4607H43.8923V10.7647H43.2117H42.531V12.4607H43.2117ZM52.3957 9.78866V10.4693H54.5237V9.78866V9.10802H52.3957V9.78866ZM54.5237 9.78866H53.843V18.5727H54.5237H55.2043V9.78866H54.5237ZM54.5237 18.5727V17.892H52.3957V18.5727V19.2533H54.5237V18.5727ZM52.3957 18.5727H53.0763V9.78866H52.3957H51.715V18.5727H52.3957ZM53.9477 13.1807V13.8613H56.4917V13.1807V12.5H53.9477V13.1807ZM56.4917 13.1807H55.811V14.9247H56.4917H57.1723V13.1807H56.4917ZM56.4917 14.9247V14.244H53.9477V14.9247V15.6053H56.4917V14.9247ZM53.9477 14.9247H54.6283V13.1807H53.9477H53.267V14.9247H53.9477ZM49.6917 18.8287V19.5093C50.678 19.5093 51.4963 19.6215 52.1596 19.83L52.3637 19.1807L52.5677 18.5313C51.7377 18.2705 50.7747 18.148 49.6917 18.148V18.8287ZM52.3637 19.1807L52.1681 19.8326C52.8369 20.0332 53.2968 20.3082 53.5982 20.6255L54.0917 20.1567L54.5851 19.6879C54.0758 19.1518 53.3838 18.7761 52.5592 18.5287L52.3637 19.1807ZM54.0917 20.1567L53.5982 20.6255C53.879 20.9211 54.019 21.2687 54.019 21.7087H54.6997H55.3803C55.3803 20.9326 55.115 20.2456 54.5851 19.6879L54.0917 20.1567ZM54.6997 21.7087H54.019C54.019 22.1486 53.879 22.4963 53.5982 22.7919L54.0917 23.2607L54.5851 23.7295C55.115 23.1717 55.3803 22.4847 55.3803 21.7087H54.6997ZM54.0917 23.2607L53.5925 22.798C53.2913 23.1229 52.8333 23.4012 52.1681 23.6007L52.3637 24.2527L52.5592 24.9046C53.3873 24.6562 54.0814 24.2731 54.5909 23.7233L54.0917 23.2607ZM52.3637 24.2527L52.1596 23.6033C51.4963 23.8118 50.678 23.924 49.6917 23.924V24.6047V25.2853C50.7747 25.2853 51.7377 25.1629 52.5677 24.902L52.3637 24.2527ZM49.6917 24.6047V23.924C48.7172 23.924 47.8974 23.8121 47.2211 23.6025L47.0197 24.2527L46.8182 24.9028C47.6566 25.1626 48.6182 25.2853 49.6917 25.2853V24.6047ZM47.0197 24.2527L47.2152 23.6007C46.5497 23.4011 46.0828 23.1216 45.7688 22.7916L45.2757 23.2607L44.7825 23.7298C45.3005 24.2744 45.9963 24.6563 46.8241 24.9046L47.0197 24.2527ZM45.2757 23.2607L45.7691 22.7919C45.4883 22.4963 45.3483 22.1486 45.3483 21.7087H44.6677H43.987C43.987 22.4847 44.2523 23.1717 44.7822 23.7295L45.2757 23.2607ZM44.6677 21.7087H45.3483C45.3483 21.2687 45.4883 20.9211 45.7691 20.6255L45.2757 20.1567L44.7822 19.6879C44.2523 20.2456 43.987 20.9326 43.987 21.7087H44.6677ZM45.2757 20.1567L45.763 20.6318C46.0772 20.3095 46.5462 20.0333 47.2152 19.8326L47.0197 19.1807L46.8241 18.5287C45.9998 18.776 45.3061 19.1505 44.7883 19.6815L45.2757 20.1567ZM47.0197 19.1807L47.2211 19.8308C47.8974 19.6213 48.7172 19.5093 49.6917 19.5093V18.8287V18.148C48.6182 18.148 47.6566 18.2707 46.8182 18.5305L47.0197 19.1807ZM49.6917 20.4927V19.812C49.0355 19.812 48.4595 19.8562 47.9742 19.9532L48.1077 20.6207L48.2411 21.2881C48.6092 21.2145 49.0892 21.1733 49.6917 21.1733V20.4927ZM48.1077 20.6207L47.9742 19.9532C47.49 20.0501 47.0456 20.2146 46.7034 20.4916L47.1317 21.0207L47.5599 21.5497C47.6657 21.4641 47.872 21.3619 48.2411 21.2881L48.1077 20.6207ZM47.1317 21.0207L46.7034 20.4916C46.327 20.7964 46.115 21.2168 46.115 21.7087H46.7957H47.4763C47.4763 21.6458 47.4883 21.6076 47.5599 21.5497L47.1317 21.0207ZM46.7957 21.7087H46.115C46.115 22.2022 46.3199 22.6312 46.7034 22.9417L47.1317 22.4127L47.5599 21.8836C47.4954 21.8314 47.4763 21.7911 47.4763 21.7087H46.7957ZM47.1317 22.4127L46.7034 22.9417C47.0399 23.2141 47.4776 23.3846 47.9582 23.4927L48.1077 22.8287L48.2571 22.1646C47.8844 22.0808 47.6714 21.9739 47.5599 21.8836L47.1317 22.4127ZM48.1077 22.8287L47.9742 23.4961C48.4595 23.5931 49.0355 23.6373 49.6917 23.6373V22.9567V22.276C49.0892 22.276 48.6092 22.2348 48.2411 22.1612L48.1077 22.8287ZM49.6917 22.9567V23.6373C50.3478 23.6373 50.9238 23.5931 51.4091 23.4961L51.2757 22.8287L51.1422 22.1612C50.7741 22.2348 50.2941 22.276 49.6917 22.276V22.9567ZM51.2757 22.8287L51.4216 23.4935C51.9093 23.3864 52.3581 23.2155 52.6925 22.9313L52.2517 22.4127L51.8108 21.8941C51.7185 21.9725 51.5167 22.0789 51.1297 22.1639L51.2757 22.8287ZM52.2517 22.4127L52.6799 22.9417C53.0634 22.6312 53.2683 22.2022 53.2683 21.7087H52.5877H51.907C51.907 21.7911 51.8879 21.8314 51.8234 21.8836L52.2517 22.4127ZM52.5877 21.7087H53.2683C53.2683 21.2168 53.0563 20.7964 52.6799 20.4916L52.2517 21.0207L51.8234 21.5497C51.895 21.6076 51.907 21.6458 51.907 21.7087H52.5877ZM52.2517 21.0207L52.6925 20.5021C52.3524 20.213 51.8968 20.0484 51.406 19.9526L51.2757 20.6207L51.1453 21.2887C51.5292 21.3636 51.7242 21.4656 51.8108 21.5393L52.2517 21.0207ZM51.2757 20.6207L51.4091 19.9532C50.9238 19.8562 50.3478 19.812 49.6917 19.812V20.4927V21.1733C50.2941 21.1733 50.7741 21.2145 51.1422 21.2881L51.2757 20.6207Z" fill="black" fill-opacity="0.3" mask="url(#path-9-outside-1_2086_93432)"/>
</g>
<defs>
<filter id="filter0_f_2086_93432" x="0.335938" y="6.51172" width="81.8047" height="27.1104" filterUnits="userSpaceOnUse" color-interpolation-filters="sRGB">
<feFlood flood-opacity="0" result="BackgroundImageFix"/>
<feBlend mode="normal" in="SourceGraphic" in2="BackgroundImageFix" result="shape"/>
<feGaussianBlur stdDeviation="1.5" result="effect1_foregroundBlur_2086_93432"/>
</filter>
<filter id="filter1_f_2086_93432" x="-1.21094" y="6.51172" width="10.8047" height="22.335" filterUnits="userSpaceOnUse" color-interpolation-filters="sRGB">
<feFlood flood-opacity="0" result="BackgroundImageFix"/>
<feBlend mode="normal" in="SourceGraphic" in2="BackgroundImageFix" result="shape"/>
<feGaussianBlur stdDeviation="1.5" result="effect1_foregroundBlur_2086_93432"/>
</filter>
<filter id="filter2_f_2086_93432" x="25.0938" y="4.74121" width="67.5742" height="34.8857" filterUnits="userSpaceOnUse" color-interpolation-filters="sRGB">
<feFlood flood-opacity="0" result="BackgroundImageFix"/>
<feBlend mode="normal" in="SourceGraphic" in2="BackgroundImageFix" result="shape"/>
<feGaussianBlur stdDeviation="4.5" result="effect1_foregroundBlur_2086_93432"/>
</filter>
<filter id="filter3_f_2086_93432" x="-0.664062" y="-1.40723" width="85.3281" height="19.9355" filterUnits="userSpaceOnUse" color-interpolation-filters="sRGB">
<feFlood flood-opacity="0" result="BackgroundImageFix"/>
<feBlend mode="normal" in="SourceGraphic" in2="BackgroundImageFix" result="shape"/>
<feGaussianBlur stdDeviation="2" result="effect1_foregroundBlur_2086_93432"/>
</filter>
<filter id="filter4_f_2086_93432" x="24.0703" y="5.03809" width="61.7891" height="29.584" filterUnits="userSpaceOnUse" color-interpolation-filters="sRGB">
<feFlood flood-opacity="0" result="BackgroundImageFix"/>
<feBlend mode="normal" in="SourceGraphic" in2="BackgroundImageFix" result="shape"/>
<feGaussianBlur stdDeviation="2" result="effect1_foregroundBlur_2086_93432"/>
</filter>
<linearGradient id="paint0_linear_2086_93432" x1="43" y1="1" x2="43" y2="33" gradientUnits="userSpaceOnUse">
<stop stop-color="#138066"/>
<stop offset="0.0384615" stop-color="#17B58D"/>
<stop offset="0.586538" stop-color="#23A788"/>
<stop offset="0.971154" stop-color="#037157"/>
</linearGradient>
<linearGradient id="paint1_linear_2086_93432" x1="43" y1="0" x2="43" y2="34" gradientUnits="userSpaceOnUse">
<stop stop-color="#184834"/>
<stop offset="1" stop-color="#213A2F"/>
</linearGradient>
<linearGradient id="paint2_linear_2086_93432" x1="43" y1="1" x2="43" y2="33" gradientUnits="userSpaceOnUse">
<stop stop-color="#C6E7D9"/>
<stop offset="1" stop-color="#4FB086"/>
</linearGradient>
<linearGradient id="paint3_linear_2086_93432" x1="47.4176" y1="20.0669" x2="73.7223" y2="20.0669" gradientUnits="userSpaceOnUse">
<stop stop-color="#1F7365"/>
<stop offset="1" stop-color="#1F7365" stop-opacity="0"/>
</linearGradient>
<linearGradient id="paint4_linear_2086_93432" x1="83.138" y1="22.5753" x2="58.7993" y2="22.5753" gradientUnits="userSpaceOnUse">
<stop stop-color="#D8EBE6"/>
<stop offset="1" stop-color="#5EAC99"/>
</linearGradient>
<clipPath id="clip0_2086_93432">
<rect width="86" height="34" fill="white"/>
</clipPath>
</defs>
</svg>
