<svg width="86" height="34" viewBox="0 0 86 34" fill="none" xmlns="http://www.w3.org/2000/svg">
<g clip-path="url(#clip0_1955_35851)">
<path d="M1 7C1 3.68629 3.68629 1 7 1H79C82.3137 1 85 3.68629 85 7V27C85 30.3137 82.3137 33 79 33H7C3.68629 33 1 30.3137 1 27V7Z" fill="url(#paint0_linear_1955_35851)"/>
<rect x="0.5" y="0.5" width="85" height="33" rx="6.5" stroke="url(#paint1_linear_1955_35851)"/>
<rect x="1.5" y="1.5" width="83" height="31" rx="5.5" stroke="url(#paint2_linear_1955_35851)" stroke-opacity="0.57"/>
<g opacity="0.8" filter="url(#filter0_f_1955_35851)">
<path d="M5.15099 22.9231L4.75997 11.0052L3.33594 9.51172V22.9231C3.33594 28.6851 3.638 30.1277 6.14477 30.2932L79.1406 30.6221C76.0122 28.4365 61.3927 28.2213 54.474 28.3869H12.1095C3.44612 28.3869 6.14477 27.0184 5.15099 22.9231Z" fill="url(#paint3_linear_1955_35851)"/>
</g>
<g opacity="0.5" filter="url(#filter1_f_1955_35851)">
<path d="M1.78805 25.8467L1.78805 9.51172C3.98486 12.1375 6.59375 13.3203 6.59375 16.7063C6.59375 20.0923 3.38995 25.3961 1.78805 25.8467Z" fill="#FFECBC"/>
</g>
<g filter="url(#filter2_f_1955_35851)" style="mix-blend-mode:multiply">
<path d="M40.552 30.6216C38.2511 30.6311 36.064 30.6216 34.0938 30.6216H40.552C53.87 30.5666 71.0001 29.8744 71.9688 23.0129C73.4688 12.3881 77.9753 13.1515 81.7188 14.5129C84.2288 15.426 83.8438 19.3877 83.138 26.1702C82.7197 27.654 80.8232 30.6216 76.5839 30.6216H40.552Z" fill="url(#paint4_linear_1955_35851)"/>
</g>
<g opacity="0.8" filter="url(#filter3_f_1955_35851)">
<path d="M3.50679 6.52395C3.50723 2.26978 8.28681 3.95865 10.3456 3.81579L80.6641 2.59375L42.5063 5.30881C12.298 6.59483 6.65939 6.5104 6.04171 9.32883C2.3547 16.9117 3.50578 16.3894 3.50679 6.52395Z" fill="#FFFEE2"/>
</g>
<g opacity="0.56" filter="url(#filter4_f_1955_35851)">
<path d="M81.796 26.6909C81.7957 30.9451 78.4677 29.2562 77.0341 29.3991L28.0712 30.6211L63.3457 28.0488C84.3798 26.7628 79.8457 22.0488 79.8457 11.2988C82.413 3.716 81.7967 16.8254 81.796 26.6909Z" fill="#8C380D"/>
</g>
<mask id="path-9-outside-1_1955_35851" maskUnits="userSpaceOnUse" x="27.3516" y="8.17969" width="29" height="18" fill="black">
<rect fill="white" x="27.3516" y="8.17969" width="29" height="18"/>
<path d="M34.0609 10.2037H35.9169V10.9077C35.9169 11.473 35.8262 12.0224 35.6449 12.5557C35.4742 13.0784 35.2182 13.569 34.8769 14.0277C34.5356 14.4864 34.1196 14.897 33.6289 15.2597C33.1382 15.6224 32.5676 15.9317 31.9169 16.1877C31.2769 16.433 30.5729 16.6197 29.8049 16.7477L28.9729 15.0357C29.6556 14.9504 30.2636 14.8064 30.7969 14.6037C31.3409 14.401 31.8156 14.161 32.2209 13.8837C32.6369 13.6064 32.9782 13.3024 33.2449 12.9717C33.5116 12.641 33.7142 12.2997 33.8529 11.9477C33.9916 11.5957 34.0609 11.249 34.0609 10.9077V10.2037ZM34.4609 10.2037H36.3169V10.9077C36.3169 11.249 36.3862 11.5957 36.5249 11.9477C36.6636 12.2997 36.8662 12.641 37.1329 12.9717C37.3996 13.3024 37.7356 13.6064 38.1409 13.8837C38.5569 14.161 39.0316 14.401 39.5649 14.6037C40.1089 14.8064 40.7222 14.9504 41.4049 15.0357L40.5729 16.7477C39.7942 16.6197 39.0849 16.433 38.4449 16.1877C37.8049 15.9317 37.2396 15.6224 36.7489 15.2597C36.2582 14.8864 35.8422 14.4704 35.5009 14.0117C35.1596 13.553 34.8982 13.0624 34.7169 12.5397C34.5462 12.017 34.4609 11.473 34.4609 10.9077V10.2037ZM34.0609 19.1637H36.1889V24.6037H34.0609V19.1637ZM28.4769 17.8197H41.8849V19.5477H28.4769V17.8197ZM50.9077 13.3557H53.7237V15.0837H50.9077V13.3557ZM53.1317 9.78769H55.2757V18.5877H53.1317V9.78769ZM50.2517 18.9077C51.297 18.9077 52.1983 19.0197 52.9557 19.2437C53.713 19.4677 54.2943 19.793 54.6997 20.2197C55.1157 20.6464 55.3237 21.1584 55.3237 21.7557C55.3237 22.673 54.8703 23.377 53.9637 23.8677C53.057 24.369 51.8197 24.6197 50.2517 24.6197C48.6837 24.6197 47.4463 24.369 46.5397 23.8677C45.633 23.377 45.1797 22.673 45.1797 21.7557C45.1797 21.1584 45.3823 20.6464 45.7877 20.2197C46.2037 19.793 46.7903 19.4677 47.5477 19.2437C48.305 19.0197 49.2063 18.9077 50.2517 18.9077ZM50.2517 20.5237C49.6117 20.5237 49.073 20.5717 48.6357 20.6677C48.1983 20.753 47.8623 20.8864 47.6277 21.0677C47.4037 21.249 47.2917 21.4784 47.2917 21.7557C47.2917 22.033 47.4037 22.2677 47.6277 22.4597C47.8623 22.641 48.1983 22.7797 48.6357 22.8757C49.073 22.961 49.6117 23.0037 50.2517 23.0037C50.8917 23.0037 51.4303 22.961 51.8677 22.8757C52.305 22.7797 52.6357 22.641 52.8597 22.4597C53.0837 22.2677 53.1957 22.033 53.1957 21.7557C53.1957 21.4784 53.0837 21.249 52.8597 21.0677C52.6357 20.8864 52.305 20.753 51.8677 20.6677C51.4303 20.5717 50.8917 20.5237 50.2517 20.5237ZM46.2997 11.2597H48.0277V12.2037C48.0277 13.1424 47.8783 14.0384 47.5797 14.8917C47.281 15.745 46.8223 16.497 46.2037 17.1477C45.5957 17.7877 44.817 18.2677 43.8677 18.5877L42.7957 16.9077C43.4037 16.705 43.9263 16.433 44.3637 16.0917C44.8117 15.7504 45.1743 15.3717 45.4517 14.9557C45.7397 14.529 45.953 14.081 46.0917 13.6117C46.2303 13.1424 46.2997 12.673 46.2997 12.2037V11.2597ZM46.7477 11.2597H48.4437V12.1877C48.4437 12.7744 48.561 13.3504 48.7957 13.9157C49.0303 14.481 49.393 14.993 49.8837 15.4517C50.385 15.9104 51.025 16.273 51.8037 16.5397L50.7637 18.2037C49.8463 17.8944 49.089 17.441 48.4917 16.8437C47.905 16.2357 47.4677 15.5317 47.1797 14.7317C46.8917 13.921 46.7477 13.073 46.7477 12.1877V11.2597ZM43.3717 10.6837H51.3397V12.3637H43.3717V10.6837Z"/>
</mask>
<path d="M34.0609 10.2037H35.9169V10.9077C35.9169 11.473 35.8262 12.0224 35.6449 12.5557C35.4742 13.0784 35.2182 13.569 34.8769 14.0277C34.5356 14.4864 34.1196 14.897 33.6289 15.2597C33.1382 15.6224 32.5676 15.9317 31.9169 16.1877C31.2769 16.433 30.5729 16.6197 29.8049 16.7477L28.9729 15.0357C29.6556 14.9504 30.2636 14.8064 30.7969 14.6037C31.3409 14.401 31.8156 14.161 32.2209 13.8837C32.6369 13.6064 32.9782 13.3024 33.2449 12.9717C33.5116 12.641 33.7142 12.2997 33.8529 11.9477C33.9916 11.5957 34.0609 11.249 34.0609 10.9077V10.2037ZM34.4609 10.2037H36.3169V10.9077C36.3169 11.249 36.3862 11.5957 36.5249 11.9477C36.6636 12.2997 36.8662 12.641 37.1329 12.9717C37.3996 13.3024 37.7356 13.6064 38.1409 13.8837C38.5569 14.161 39.0316 14.401 39.5649 14.6037C40.1089 14.8064 40.7222 14.9504 41.4049 15.0357L40.5729 16.7477C39.7942 16.6197 39.0849 16.433 38.4449 16.1877C37.8049 15.9317 37.2396 15.6224 36.7489 15.2597C36.2582 14.8864 35.8422 14.4704 35.5009 14.0117C35.1596 13.553 34.8982 13.0624 34.7169 12.5397C34.5462 12.017 34.4609 11.473 34.4609 10.9077V10.2037ZM34.0609 19.1637H36.1889V24.6037H34.0609V19.1637ZM28.4769 17.8197H41.8849V19.5477H28.4769V17.8197ZM50.9077 13.3557H53.7237V15.0837H50.9077V13.3557ZM53.1317 9.78769H55.2757V18.5877H53.1317V9.78769ZM50.2517 18.9077C51.297 18.9077 52.1983 19.0197 52.9557 19.2437C53.713 19.4677 54.2943 19.793 54.6997 20.2197C55.1157 20.6464 55.3237 21.1584 55.3237 21.7557C55.3237 22.673 54.8703 23.377 53.9637 23.8677C53.057 24.369 51.8197 24.6197 50.2517 24.6197C48.6837 24.6197 47.4463 24.369 46.5397 23.8677C45.633 23.377 45.1797 22.673 45.1797 21.7557C45.1797 21.1584 45.3823 20.6464 45.7877 20.2197C46.2037 19.793 46.7903 19.4677 47.5477 19.2437C48.305 19.0197 49.2063 18.9077 50.2517 18.9077ZM50.2517 20.5237C49.6117 20.5237 49.073 20.5717 48.6357 20.6677C48.1983 20.753 47.8623 20.8864 47.6277 21.0677C47.4037 21.249 47.2917 21.4784 47.2917 21.7557C47.2917 22.033 47.4037 22.2677 47.6277 22.4597C47.8623 22.641 48.1983 22.7797 48.6357 22.8757C49.073 22.961 49.6117 23.0037 50.2517 23.0037C50.8917 23.0037 51.4303 22.961 51.8677 22.8757C52.305 22.7797 52.6357 22.641 52.8597 22.4597C53.0837 22.2677 53.1957 22.033 53.1957 21.7557C53.1957 21.4784 53.0837 21.249 52.8597 21.0677C52.6357 20.8864 52.305 20.753 51.8677 20.6677C51.4303 20.5717 50.8917 20.5237 50.2517 20.5237ZM46.2997 11.2597H48.0277V12.2037C48.0277 13.1424 47.8783 14.0384 47.5797 14.8917C47.281 15.745 46.8223 16.497 46.2037 17.1477C45.5957 17.7877 44.817 18.2677 43.8677 18.5877L42.7957 16.9077C43.4037 16.705 43.9263 16.433 44.3637 16.0917C44.8117 15.7504 45.1743 15.3717 45.4517 14.9557C45.7397 14.529 45.953 14.081 46.0917 13.6117C46.2303 13.1424 46.2997 12.673 46.2997 12.2037V11.2597ZM46.7477 11.2597H48.4437V12.1877C48.4437 12.7744 48.561 13.3504 48.7957 13.9157C49.0303 14.481 49.393 14.993 49.8837 15.4517C50.385 15.9104 51.025 16.273 51.8037 16.5397L50.7637 18.2037C49.8463 17.8944 49.089 17.441 48.4917 16.8437C47.905 16.2357 47.4677 15.5317 47.1797 14.7317C46.8917 13.921 46.7477 13.073 46.7477 12.1877V11.2597ZM43.3717 10.6837H51.3397V12.3637H43.3717V10.6837Z" fill="white"/>
<path d="M34.0609 10.2037V9.52305C33.685 9.52305 33.3803 9.82778 33.3803 10.2037H34.0609ZM35.9169 10.2037H36.5975C36.5975 9.82778 36.2928 9.52305 35.9169 9.52305V10.2037ZM35.6449 12.5557L35.0004 12.3366L34.9979 12.3444L35.6449 12.5557ZM33.6289 15.2597L33.2243 14.7123V14.7123L33.6289 15.2597ZM31.9169 16.1877L32.1605 16.8233L32.1661 16.8211L31.9169 16.1877ZM29.8049 16.7477L29.1927 17.0452C29.3246 17.3165 29.6193 17.4687 29.9168 17.4191L29.8049 16.7477ZM28.9729 15.0357L28.8885 14.3603C28.6706 14.3875 28.4793 14.5182 28.3746 14.7111C28.2699 14.9041 28.2648 15.1357 28.3607 15.3332L28.9729 15.0357ZM30.7969 14.6037L30.5593 13.9659L30.5551 13.9674L30.7969 14.6037ZM32.2209 13.8837L31.8433 13.3173L31.8366 13.322L32.2209 13.8837ZM33.2449 12.9717L33.7747 13.399V13.399L33.2449 12.9717ZM33.8529 11.9477L33.2196 11.6982V11.6982L33.8529 11.9477ZM34.4609 10.2037V9.52305C34.085 9.52305 33.7803 9.82778 33.7803 10.2037H34.4609ZM36.3169 10.2037H36.9975C36.9975 9.82778 36.6928 9.52305 36.3169 9.52305V10.2037ZM37.1329 12.9717L36.6031 13.399L36.6031 13.399L37.1329 12.9717ZM38.1409 13.8837L37.7565 14.4455L37.7634 14.45L38.1409 13.8837ZM39.5649 14.6037L39.3231 15.24L39.3273 15.2415L39.5649 14.6037ZM41.4049 15.0357L42.0171 15.3332C42.113 15.1357 42.1079 14.9041 42.0032 14.7111C41.8985 14.5182 41.7072 14.3875 41.4893 14.3603L41.4049 15.0357ZM40.5729 16.7477L40.4625 17.4193C40.7596 17.4682 41.0535 17.316 41.1851 17.0452L40.5729 16.7477ZM38.4449 16.1877L38.1921 16.8197L38.2013 16.8232L38.4449 16.1877ZM36.7489 15.2597L36.3367 15.8014L36.3443 15.807L36.7489 15.2597ZM35.5009 14.0117L34.9549 14.418V14.418L35.5009 14.0117ZM34.7169 12.5397L34.0698 12.751L34.0739 12.7628L34.7169 12.5397ZM34.0609 19.1637V18.483C33.685 18.483 33.3803 18.7878 33.3803 19.1637H34.0609ZM36.1889 19.1637H36.8695C36.8695 18.7878 36.5648 18.483 36.1889 18.483V19.1637ZM36.1889 24.6037V25.2843C36.5648 25.2843 36.8695 24.9796 36.8695 24.6037H36.1889ZM34.0609 24.6037H33.3803C33.3803 24.9796 33.685 25.2843 34.0609 25.2843V24.6037ZM28.4769 17.8197V17.139C28.101 17.139 27.7963 17.4438 27.7963 17.8197H28.4769ZM41.8849 17.8197H42.5655C42.5655 17.4438 42.2608 17.139 41.8849 17.139V17.8197ZM41.8849 19.5477V20.2283C42.2608 20.2283 42.5655 19.9236 42.5655 19.5477H41.8849ZM28.4769 19.5477H27.7963C27.7963 19.9236 28.101 20.2283 28.4769 20.2283V19.5477ZM34.0609 10.2037V10.8843H35.9169V10.2037V9.52305H34.0609V10.2037ZM35.9169 10.2037H35.2363V10.9077H35.9169H36.5975V10.2037H35.9169ZM35.9169 10.9077H35.2363C35.2363 11.3988 35.1578 11.8741 35.0005 12.3366L35.6449 12.5557L36.2893 12.7748C36.4947 12.1706 36.5975 11.5473 36.5975 10.9077H35.9169ZM35.6449 12.5557L34.9979 12.3444C34.851 12.7943 34.63 13.2194 34.3309 13.6213L34.8769 14.0277L35.4229 14.434C35.8065 13.9186 36.0975 13.3625 36.2919 12.767L35.6449 12.5557ZM34.8769 14.0277L34.3309 13.6213C34.0321 14.0228 33.6648 14.3868 33.2243 14.7123L33.6289 15.2597L34.0335 15.807C34.5744 15.4073 35.039 14.9499 35.4229 14.434L34.8769 14.0277ZM33.6289 15.2597L33.2243 14.7123C32.7878 15.035 32.2709 15.317 31.6677 15.5543L31.9169 16.1877L32.1661 16.8211C32.8642 16.5464 33.4886 16.2097 34.0335 15.807L33.6289 15.2597ZM31.9169 16.1877L31.6733 15.5521C31.0812 15.7791 30.422 15.9548 29.693 16.0763L29.8049 16.7477L29.9168 17.4191C30.7238 17.2846 31.4726 17.0869 32.1605 16.8232L31.9169 16.1877ZM29.8049 16.7477L30.4171 16.4502L29.5851 14.7382L28.9729 15.0357L28.3607 15.3332L29.1927 17.0452L29.8049 16.7477ZM28.9729 15.0357L29.0573 15.7111C29.7832 15.6203 30.4455 15.4653 31.0387 15.2399L30.7969 14.6037L30.5551 13.9674C30.0816 14.1474 29.528 14.2804 28.8885 14.3603L28.9729 15.0357ZM30.7969 14.6037L31.0345 15.2415C31.6212 15.0229 32.1469 14.759 32.6052 14.4454L32.2209 13.8837L31.8366 13.322C31.4842 13.563 31.0606 13.7791 30.5593 13.9659L30.7969 14.6037ZM32.2209 13.8837L32.5985 14.45C33.0621 14.1409 33.4578 13.792 33.7747 13.399L33.2449 12.9717L32.7151 12.5444C32.4987 12.8127 32.2117 13.0718 31.8434 13.3174L32.2209 13.8837ZM33.2449 12.9717L33.7747 13.399C34.0794 13.0211 34.3193 12.6207 34.4862 12.1972L33.8529 11.9477L33.2196 11.6982C33.1091 11.9787 32.9437 12.2609 32.7151 12.5444L33.2449 12.9717ZM33.8529 11.9477L34.4862 12.1972C34.6528 11.7743 34.7415 11.3432 34.7415 10.9077H34.0609H33.3803C33.3803 11.1548 33.3304 11.4171 33.2196 11.6982L33.8529 11.9477ZM34.0609 10.9077H34.7415V10.2037H34.0609H33.3803V10.9077H34.0609ZM34.4609 10.2037V10.8843H36.3169V10.2037V9.52305H34.4609V10.2037ZM36.3169 10.2037H35.6363V10.9077H36.3169H36.9975V10.2037H36.3169ZM36.3169 10.9077H35.6363C35.6363 11.3432 35.7251 11.7743 35.8916 12.1972L36.5249 11.9477L37.1582 11.6982C37.0474 11.4171 36.9975 11.1548 36.9975 10.9077H36.3169ZM36.5249 11.9477L35.8916 12.1972C36.0585 12.6207 36.2984 13.0211 36.6031 13.399L37.1329 12.9717L37.6627 12.5444C37.4341 12.2609 37.2687 11.9787 37.1582 11.6982L36.5249 11.9477ZM37.1329 12.9717L36.6031 13.399C36.9173 13.7886 37.3048 14.1363 37.7566 14.4454L38.1409 13.8837L38.5252 13.322C38.1663 13.0764 37.8818 12.8161 37.6627 12.5444L37.1329 12.9717ZM38.1409 13.8837L37.7634 14.45C38.2273 14.7593 38.7486 15.0216 39.3231 15.2399L39.5649 14.6037L39.8067 13.9674C39.3145 13.7804 38.8865 13.5627 38.5185 13.3174L38.1409 13.8837ZM39.5649 14.6037L39.3273 15.2415C39.9288 15.4656 40.5948 15.6204 41.3205 15.7111L41.4049 15.0357L41.4893 14.3603C40.8497 14.2803 40.289 14.1471 39.8025 13.9659L39.5649 14.6037ZM41.4049 15.0357L40.7927 14.7382L39.9607 16.4502L40.5729 16.7477L41.1851 17.0452L42.0171 15.3332L41.4049 15.0357ZM40.5729 16.7477L40.6833 16.0761C39.9435 15.9544 39.2796 15.7787 38.6885 15.5521L38.4449 16.1877L38.2013 16.8232C38.8902 17.0873 39.645 17.2849 40.4625 17.4193L40.5729 16.7477ZM38.4449 16.1877L38.6977 15.5557C38.1048 15.3186 37.5918 15.0363 37.1535 14.7123L36.7489 15.2597L36.3443 15.807C36.8874 16.2084 37.505 16.5448 38.1921 16.8196L38.4449 16.1877ZM36.7489 15.2597L37.161 14.718C36.7172 14.3803 36.3473 14.009 36.0469 13.6053L35.5009 14.0117L34.9549 14.418C35.3371 14.9317 35.7993 15.3924 36.3368 15.8014L36.7489 15.2597ZM35.5009 14.0117L36.0469 13.6053C35.7457 13.2006 35.5177 12.7714 35.3599 12.3166L34.7169 12.5397L34.0739 12.7628C34.2787 13.3533 34.5734 13.9055 34.9549 14.418L35.5009 14.0117ZM34.7169 12.5397L35.3639 12.3284C35.2162 11.8759 35.1415 11.4033 35.1415 10.9077H34.4609H33.7803C33.7803 11.5427 33.8763 12.1582 34.0699 12.751L34.7169 12.5397ZM34.4609 10.9077H35.1415V10.2037H34.4609H33.7803V10.9077H34.4609ZM34.0609 19.1637V19.8443H36.1889V19.1637V18.483H34.0609V19.1637ZM36.1889 19.1637H35.5083V24.6037H36.1889H36.8695V19.1637H36.1889ZM36.1889 24.6037V23.923H34.0609V24.6037V25.2843H36.1889V24.6037ZM34.0609 24.6037H34.7415V19.1637H34.0609H33.3803V24.6037H34.0609ZM28.4769 17.8197V18.5003H41.8849V17.8197V17.139H28.4769V17.8197ZM41.8849 17.8197H41.2043V19.5477H41.8849H42.5655V17.8197H41.8849ZM41.8849 19.5477V18.867H28.4769V19.5477V20.2283H41.8849V19.5477ZM28.4769 19.5477H29.1575V17.8197H28.4769H27.7963V19.5477H28.4769ZM50.9077 13.3557V12.675C50.5317 12.675 50.227 12.9798 50.227 13.3557H50.9077ZM53.7237 13.3557H54.4043C54.4043 12.9798 54.0996 12.675 53.7237 12.675V13.3557ZM53.7237 15.0837V15.7643C54.0996 15.7643 54.4043 15.4596 54.4043 15.0837H53.7237ZM50.9077 15.0837H50.227C50.227 15.4596 50.5317 15.7643 50.9077 15.7643V15.0837ZM53.1317 9.78769V9.10705C52.7557 9.10705 52.451 9.41178 52.451 9.78769H53.1317ZM55.2757 9.78769H55.9563C55.9563 9.41178 55.6516 9.10705 55.2757 9.10705V9.78769ZM55.2757 18.5877V19.2683C55.6516 19.2683 55.9563 18.9636 55.9563 18.5877H55.2757ZM53.1317 18.5877H52.451C52.451 18.9636 52.7557 19.2683 53.1317 19.2683V18.5877ZM52.9557 19.2437L52.7626 19.8964V19.8964L52.9557 19.2437ZM54.6997 20.2197L54.2062 20.6885L54.2123 20.6948L54.6997 20.2197ZM53.9637 23.8677L53.6397 23.2691L53.6343 23.272L53.9637 23.8677ZM46.5397 23.8677L46.869 23.272L46.8636 23.2691L46.5397 23.8677ZM45.7877 20.2197L45.3003 19.7445L45.2942 19.7509L45.7877 20.2197ZM47.5477 19.2437L47.7407 19.8964V19.8964L47.5477 19.2437ZM48.6357 20.6677L48.766 21.3357C48.7712 21.3347 48.7764 21.3336 48.7816 21.3325L48.6357 20.6677ZM47.6277 21.0677L47.2115 20.5291C47.2074 20.5322 47.2034 20.5354 47.1994 20.5387L47.6277 21.0677ZM47.6277 22.4597L47.1847 22.9765C47.1934 22.984 47.2024 22.9912 47.2115 22.9983L47.6277 22.4597ZM48.6357 22.8757L48.4897 23.5405C48.4949 23.5416 48.5001 23.5427 48.5053 23.5437L48.6357 22.8757ZM51.8677 22.8757L51.998 23.5437C52.0032 23.5427 52.0084 23.5416 52.0136 23.5405L51.8677 22.8757ZM52.8597 22.4597L53.2879 22.9887C53.2929 22.9847 53.2978 22.9806 53.3026 22.9765L52.8597 22.4597ZM52.8597 21.0677L52.4314 21.5967V21.5967L52.8597 21.0677ZM51.8677 20.6677L51.7217 21.3325C51.7269 21.3336 51.7321 21.3347 51.7373 21.3357L51.8677 20.6677ZM46.2997 11.2597V10.579C45.9237 10.579 45.619 10.8838 45.619 11.2597H46.2997ZM48.0277 11.2597H48.7083C48.7083 10.8838 48.4036 10.579 48.0277 10.579V11.2597ZM47.5797 14.8917L48.2221 15.1165V15.1165L47.5797 14.8917ZM46.2037 17.1477L45.7104 16.6787L45.7102 16.6789L46.2037 17.1477ZM43.8677 18.5877L43.2939 18.9538C43.4622 19.2176 43.7886 19.3326 44.0851 19.2327L43.8677 18.5877ZM42.7957 16.9077L42.5804 16.262C42.3814 16.3283 42.2242 16.4827 42.1541 16.6804C42.084 16.878 42.1091 17.097 42.2219 17.2738L42.7957 16.9077ZM44.3637 16.0917L43.9511 15.5502L43.9449 15.5551L44.3637 16.0917ZM45.4517 14.9557L44.8875 14.5749L44.8853 14.5781L45.4517 14.9557ZM46.0917 13.6117L45.4389 13.4188V13.4188L46.0917 13.6117ZM46.7477 11.2597V10.579C46.3717 10.579 46.067 10.8838 46.067 11.2597H46.7477ZM48.4437 11.2597H49.1243C49.1243 10.8838 48.8196 10.579 48.4437 10.579V11.2597ZM48.7957 13.9157L48.167 14.1766V14.1766L48.7957 13.9157ZM49.8837 15.4517L49.4188 15.9489L49.4242 15.9539L49.8837 15.4517ZM51.8037 16.5397L52.3808 16.9004C52.4909 16.7243 52.5145 16.5077 52.4451 16.312C52.3756 16.1163 52.2206 15.963 52.0242 15.8958L51.8037 16.5397ZM50.7637 18.2037L50.5462 18.8486C50.8449 18.9494 51.1737 18.8318 51.3408 18.5644L50.7637 18.2037ZM48.4917 16.8437L48.0018 17.3164L48.0104 17.325L48.4917 16.8437ZM47.1797 14.7317L46.5383 14.9595L46.5392 14.9622L47.1797 14.7317ZM43.3717 10.6837V10.003C42.9957 10.003 42.691 10.3078 42.691 10.6837H43.3717ZM51.3397 10.6837H52.0203C52.0203 10.3078 51.7156 10.003 51.3397 10.003V10.6837ZM51.3397 12.3637V13.0443C51.7156 13.0443 52.0203 12.7396 52.0203 12.3637H51.3397ZM43.3717 12.3637H42.691C42.691 12.7396 42.9957 13.0443 43.3717 13.0443V12.3637ZM50.9077 13.3557V14.0363H53.7237V13.3557V12.675H50.9077V13.3557ZM53.7237 13.3557H53.043V15.0837H53.7237H54.4043V13.3557H53.7237ZM53.7237 15.0837V14.403H50.9077V15.0837V15.7643H53.7237V15.0837ZM50.9077 15.0837H51.5883V13.3557H50.9077H50.227V15.0837H50.9077ZM53.1317 9.78769V10.4683H55.2757V9.78769V9.10705H53.1317V9.78769ZM55.2757 9.78769H54.595V18.5877H55.2757H55.9563V9.78769H55.2757ZM55.2757 18.5877V17.907H53.1317V18.5877V19.2683H55.2757V18.5877ZM53.1317 18.5877H53.8123V9.78769H53.1317H52.451V18.5877H53.1317ZM50.2517 18.9077V19.5883C51.2514 19.5883 52.0844 19.6958 52.7626 19.8964L52.9557 19.2437L53.1487 18.591C52.3122 18.3436 51.3426 18.227 50.2517 18.227V18.9077ZM52.9557 19.2437L52.7626 19.8964C53.4432 20.0977 53.9066 20.3731 54.2062 20.6885L54.6997 20.2197L55.1931 19.7509C54.6821 19.213 53.9828 18.8377 53.1487 18.591L52.9557 19.2437ZM54.6997 20.2197L54.2123 20.6948C54.504 20.9941 54.643 21.3354 54.643 21.7557H55.3237H56.0043C56.0043 20.9813 55.7273 20.2987 55.187 19.7445L54.6997 20.2197ZM55.3237 21.7557H54.643C54.643 22.3875 54.3598 22.8794 53.6397 23.2691L53.9637 23.8677L54.2876 24.4663C55.3808 23.8747 56.0043 22.9585 56.0043 21.7557H55.3237ZM53.9637 23.8677L53.6343 23.272C52.8672 23.6962 51.7588 23.939 50.2517 23.939V24.6197V25.3003C51.8805 25.3003 53.2467 25.0419 54.293 24.4633L53.9637 23.8677ZM50.2517 24.6197V23.939C48.7445 23.939 47.6361 23.6962 46.869 23.272L46.5397 23.8677L46.2103 24.4633C47.2566 25.0419 48.6228 25.3003 50.2517 25.3003V24.6197ZM46.5397 23.8677L46.8636 23.2691C46.1435 22.8794 45.8603 22.3875 45.8603 21.7557H45.1797H44.499C44.499 22.9585 45.1225 23.8747 46.2157 24.4663L46.5397 23.8677ZM45.1797 21.7557H45.8603C45.8603 21.3299 45.9979 20.9865 46.2811 20.6885L45.7877 20.2197L45.2942 19.7509C44.7667 20.3062 44.499 20.9868 44.499 21.7557H45.1797ZM45.7877 20.2197L46.275 20.6948C46.5875 20.3743 47.0599 20.0977 47.7407 19.8964L47.5477 19.2437L47.3546 18.591C46.5207 18.8376 45.8198 19.2117 45.3003 19.7445L45.7877 20.2197ZM47.5477 19.2437L47.7407 19.8964C48.4189 19.6958 49.2519 19.5883 50.2517 19.5883V18.9077V18.227C49.1607 18.227 48.1911 18.3436 47.3546 18.591L47.5477 19.2437ZM50.2517 20.5237V19.843C49.5816 19.843 48.9906 19.8929 48.4897 20.0029L48.6357 20.6677L48.7816 21.3325C49.1554 21.2504 49.6417 21.2043 50.2517 21.2043V20.5237ZM48.6357 20.6677L48.5053 19.9996C48.0118 20.0959 47.5616 20.2586 47.2115 20.5291L47.6277 21.0677L48.0438 21.6063C48.1631 21.5141 48.3849 21.4101 48.766 21.3357L48.6357 20.6677ZM47.6277 21.0677L47.1994 20.5387C46.823 20.8434 46.611 21.2638 46.611 21.7557H47.2917H47.9723C47.9723 21.6929 47.9843 21.6547 48.0559 21.5967L47.6277 21.0677ZM47.2917 21.7557H46.611C46.611 22.2457 46.8208 22.6645 47.1847 22.9765L47.6277 22.4597L48.0706 21.9429C47.9865 21.8708 47.9723 21.8203 47.9723 21.7557H47.2917ZM47.6277 22.4597L47.2115 22.9983C47.5559 23.2644 47.9997 23.4329 48.4897 23.5405L48.6357 22.8757L48.7816 22.2109C48.397 22.1264 48.1687 22.0176 48.0438 21.9211L47.6277 22.4597ZM48.6357 22.8757L48.5053 23.5437C48.9997 23.6402 49.5851 23.6843 50.2517 23.6843V23.0037V22.323C49.6382 22.323 49.1463 22.2818 48.766 22.2076L48.6357 22.8757ZM50.2517 23.0037V23.6843C50.9182 23.6843 51.5036 23.6402 51.998 23.5437L51.8677 22.8757L51.7373 22.2076C51.357 22.2818 50.8651 22.323 50.2517 22.323V23.0037ZM51.8677 22.8757L52.0136 23.5405C52.5026 23.4331 52.9486 23.2634 53.2879 22.9887L52.8597 22.4597L52.4314 21.9307C52.3228 22.0186 52.1074 22.1262 51.7217 22.2109L51.8677 22.8757ZM52.8597 22.4597L53.3026 22.9765C53.6665 22.6645 53.8763 22.2457 53.8763 21.7557H53.1957H52.515C52.515 21.8203 52.5008 21.8708 52.4167 21.9429L52.8597 22.4597ZM53.1957 21.7557H53.8763C53.8763 21.2638 53.6643 20.8434 53.2879 20.5387L52.8597 21.0677L52.4314 21.5967C52.503 21.6547 52.515 21.6929 52.515 21.7557H53.1957ZM52.8597 21.0677L53.2879 20.5387C52.9429 20.2593 52.4903 20.0957 51.998 19.9996L51.8677 20.6677L51.7373 21.3357C52.1196 21.4103 52.3284 21.5134 52.4314 21.5967L52.8597 21.0677ZM51.8677 20.6677L52.0136 20.0029C51.5127 19.8929 50.9217 19.843 50.2517 19.843V20.5237V21.2043C50.8616 21.2043 51.3479 21.2504 51.7217 21.3325L51.8677 20.6677ZM46.2997 11.2597V11.9403H48.0277V11.2597V10.579H46.2997V11.2597ZM48.0277 11.2597H47.347V12.2037H48.0277H48.7083V11.2597H48.0277ZM48.0277 12.2037H47.347C47.347 13.0688 47.2096 13.8885 46.9372 14.6668L47.5797 14.8917L48.2221 15.1165C48.547 14.1882 48.7083 13.216 48.7083 12.2037H48.0277ZM47.5797 14.8917L46.9372 14.6668C46.6702 15.4298 46.2621 16.0984 45.7104 16.6787L46.2037 17.1477L46.6969 17.6167C47.3825 16.8956 47.8918 16.0602 48.2221 15.1165L47.5797 14.8917ZM46.2037 17.1477L45.7102 16.6789C45.1883 17.2283 44.5089 17.6533 43.6502 17.9427L43.8677 18.5877L44.0851 19.2327C45.1251 18.8821 46.003 18.3471 46.6971 17.6165L46.2037 17.1477ZM43.8677 18.5877L44.4414 18.2216L43.3694 16.5416L42.7957 16.9077L42.2219 17.2738L43.2939 18.9538L43.8677 18.5877ZM42.7957 16.9077L43.0109 17.5534C43.6812 17.3299 44.2753 17.0241 44.7824 16.6282L44.3637 16.0917L43.9449 15.5551C43.5774 15.842 43.1261 16.0801 42.5804 16.262L42.7957 16.9077ZM44.3637 16.0917L44.7761 16.6331C45.2766 16.2518 45.6939 15.8194 46.018 15.3332L45.4517 14.9557L44.8853 14.5781C44.6548 14.924 44.3467 15.2489 43.9512 15.5503L44.3637 16.0917ZM45.4517 14.9557L46.0158 15.3365C46.3407 14.8551 46.585 14.3441 46.7444 13.8045L46.0917 13.6117L45.4389 13.4188C45.321 13.818 45.1386 14.203 44.8875 14.5749L45.4517 14.9557ZM46.0917 13.6117L46.7444 13.8045C46.9008 13.2753 46.9803 12.7411 46.9803 12.2037H46.2997H45.619C45.619 12.605 45.5599 13.0094 45.4389 13.4188L46.0917 13.6117ZM46.2997 12.2037H46.9803V11.2597H46.2997H45.619V12.2037H46.2997ZM46.7477 11.2597V11.9403H48.4437V11.2597V10.579H46.7477V11.2597ZM48.4437 11.2597H47.763V12.1877H48.4437H49.1243V11.2597H48.4437ZM48.4437 12.1877H47.763C47.763 12.8678 47.8995 13.5322 48.167 14.1766L48.7957 13.9157L49.4243 13.6547C49.2224 13.1685 49.1243 12.6809 49.1243 12.1877H48.4437ZM48.7957 13.9157L48.167 14.1766C48.4423 14.8399 48.8643 15.4306 49.4189 15.9489L49.8837 15.4517L50.3484 14.9545C49.9216 14.5555 49.6183 14.1222 49.4243 13.6547L48.7957 13.9157ZM49.8837 15.4517L49.4242 15.9539C50.0076 16.4876 50.7342 16.8929 51.5831 17.1836L51.8037 16.5397L52.0242 15.8958C51.3157 15.6531 50.7624 15.3331 50.3431 14.9495L49.8837 15.4517ZM51.8037 16.5397L51.2265 16.1789L50.1865 17.8429L50.7637 18.2037L51.3408 18.5644L52.3808 16.9004L51.8037 16.5397ZM50.7637 18.2037L50.9811 17.5587C50.1486 17.278 49.486 16.8754 48.9729 16.3624L48.4917 16.8437L48.0104 17.325C48.692 18.0066 49.544 18.5107 50.5462 18.8486L50.7637 18.2037ZM48.4917 16.8437L48.9815 16.3711C48.462 15.8327 48.0757 15.2113 47.8201 14.5011L47.1797 14.7317L46.5392 14.9622C46.8596 15.8521 47.348 16.6387 48.0019 17.3163L48.4917 16.8437ZM47.1797 14.7317L47.821 14.5038C47.5598 13.7685 47.4283 12.9977 47.4283 12.1877H46.7477H46.067C46.067 13.1484 46.2235 14.0736 46.5383 14.9595L47.1797 14.7317ZM46.7477 12.1877H47.4283V11.2597H46.7477H46.067V12.1877H46.7477ZM43.3717 10.6837V11.3643H51.3397V10.6837V10.003H43.3717V10.6837ZM51.3397 10.6837H50.659V12.3637H51.3397H52.0203V10.6837H51.3397ZM51.3397 12.3637V11.683H43.3717V12.3637V13.0443H51.3397V12.3637ZM43.3717 12.3637H44.0523V10.6837H43.3717H42.691V12.3637H43.3717Z" fill="black" fill-opacity="0.3" mask="url(#path-9-outside-1_1955_35851)"/>
</g>
<defs>
<filter id="filter0_f_1955_35851" x="0.335938" y="6.51172" width="81.8047" height="27.1094" filterUnits="userSpaceOnUse" color-interpolation-filters="sRGB">
<feFlood flood-opacity="0" result="BackgroundImageFix"/>
<feBlend mode="normal" in="SourceGraphic" in2="BackgroundImageFix" result="shape"/>
<feGaussianBlur stdDeviation="1.5" result="effect1_foregroundBlur_1955_35851"/>
</filter>
<filter id="filter1_f_1955_35851" x="-1.21289" y="6.51172" width="10.8066" height="22.334" filterUnits="userSpaceOnUse" color-interpolation-filters="sRGB">
<feFlood flood-opacity="0" result="BackgroundImageFix"/>
<feBlend mode="normal" in="SourceGraphic" in2="BackgroundImageFix" result="shape"/>
<feGaussianBlur stdDeviation="1.5" result="effect1_foregroundBlur_1955_35851"/>
</filter>
<filter id="filter2_f_1955_35851" x="25.0938" y="4.74023" width="67.5723" height="34.8848" filterUnits="userSpaceOnUse" color-interpolation-filters="sRGB">
<feFlood flood-opacity="0" result="BackgroundImageFix"/>
<feBlend mode="normal" in="SourceGraphic" in2="BackgroundImageFix" result="shape"/>
<feGaussianBlur stdDeviation="4.5" result="effect1_foregroundBlur_1955_35851"/>
</filter>
<filter id="filter3_f_1955_35851" x="-0.664062" y="-1.40625" width="85.3281" height="19.9355" filterUnits="userSpaceOnUse" color-interpolation-filters="sRGB">
<feFlood flood-opacity="0" result="BackgroundImageFix"/>
<feBlend mode="normal" in="SourceGraphic" in2="BackgroundImageFix" result="shape"/>
<feGaussianBlur stdDeviation="2" result="effect1_foregroundBlur_1955_35851"/>
</filter>
<filter id="filter4_f_1955_35851" x="24.0703" y="5.03711" width="61.791" height="29.584" filterUnits="userSpaceOnUse" color-interpolation-filters="sRGB">
<feFlood flood-opacity="0" result="BackgroundImageFix"/>
<feBlend mode="normal" in="SourceGraphic" in2="BackgroundImageFix" result="shape"/>
<feGaussianBlur stdDeviation="2" result="effect1_foregroundBlur_1955_35851"/>
</filter>
<linearGradient id="paint0_linear_1955_35851" x1="43" y1="1" x2="43" y2="33" gradientUnits="userSpaceOnUse">
<stop stop-color="#CC4400"/>
<stop offset="0.0384615" stop-color="#E7611F"/>
<stop offset="0.586538" stop-color="#E7611F"/>
<stop offset="0.971154" stop-color="#E7611F"/>
</linearGradient>
<linearGradient id="paint1_linear_1955_35851" x1="43" y1="0" x2="43" y2="34" gradientUnits="userSpaceOnUse">
<stop stop-color="#9A5E40"/>
<stop offset="1" stop-color="#582B15"/>
</linearGradient>
<linearGradient id="paint2_linear_1955_35851" x1="43" y1="1" x2="43" y2="33" gradientUnits="userSpaceOnUse">
<stop stop-color="white"/>
<stop offset="1" stop-color="#E7C3B3"/>
</linearGradient>
<linearGradient id="paint3_linear_1955_35851" x1="47.4176" y1="20.0669" x2="73.7223" y2="20.0669" gradientUnits="userSpaceOnUse">
<stop stop-color="#8C380D"/>
<stop offset="1" stop-color="#8C380D" stop-opacity="0"/>
</linearGradient>
<linearGradient id="paint4_linear_1955_35851" x1="83.138" y1="22.5743" x2="58.7993" y2="22.5743" gradientUnits="userSpaceOnUse">
<stop stop-color="#8C380D" stop-opacity="0"/>
<stop offset="1" stop-color="#8C380D"/>
</linearGradient>
<clipPath id="clip0_1955_35851">
<rect width="86" height="34" fill="white"/>
</clipPath>
</defs>
</svg>
