<svg width="86" height="34" viewBox="0 0 86 34" fill="none" xmlns="http://www.w3.org/2000/svg">
<g clip-path="url(#clip0_1955_35875)">
<path d="M1 7C1 3.68629 3.68629 1 7 1H79C82.3137 1 85 3.68629 85 7V27C85 30.3137 82.3137 33 79 33H7C3.68629 33 1 30.3137 1 27V7Z" fill="url(#paint0_linear_1955_35875)"/>
<rect x="0.5" y="0.5" width="85" height="33" rx="6.5" stroke="url(#paint1_linear_1955_35875)"/>
<rect x="1.5" y="1.5" width="83" height="31" rx="5.5" stroke="url(#paint2_linear_1955_35875)"/>
<g opacity="0.8" filter="url(#filter0_f_1955_35875)">
<path d="M5.15099 22.9231L4.75997 11.0052L3.33594 9.51172V22.9231C3.33594 28.6851 3.638 30.1277 6.14477 30.2932L79.1406 30.6221C76.0122 28.4365 61.3927 28.2213 54.474 28.3869H12.1095C3.44612 28.3869 6.14477 27.0184 5.15099 22.9231Z" fill="url(#paint3_linear_1955_35875)"/>
</g>
<g opacity="0.1" filter="url(#filter1_f_1955_35875)" style="mix-blend-mode:plus-lighter">
<path d="M1.78805 25.8467L1.78805 9.51172C3.98486 12.1375 6.59375 13.3203 6.59375 16.7063C6.59375 20.0923 3.38995 25.3961 1.78805 25.8467Z" fill="#FDFDFD"/>
</g>
<g opacity="0.6" filter="url(#filter2_f_1955_35875)" style="mix-blend-mode:multiply">
<path d="M40.552 30.6216C38.2511 30.6311 36.064 30.6216 34.0938 30.6216H40.552C53.87 30.5666 71.0001 29.8744 71.9688 23.0129C73.4688 12.3881 77.9753 13.1515 81.7188 14.5129C84.2288 15.426 83.8438 19.3877 83.138 26.1702C82.7197 27.654 80.8232 30.6216 76.5839 30.6216H40.552Z" fill="url(#paint4_linear_1955_35875)"/>
</g>
<g opacity="0.8" filter="url(#filter3_f_1955_35875)">
<path d="M3.50679 6.522C3.50723 2.26783 8.28681 3.95669 10.3456 3.81384L80.6641 2.5918L42.5063 5.30685C12.298 6.59288 6.65939 6.50845 6.04171 9.32688C2.3547 16.9097 3.50578 16.3874 3.50679 6.522Z" fill="white"/>
</g>
<mask id="path-8-outside-1_1955_35875" maskUnits="userSpaceOnUse" x="27.3516" y="8.18164" width="30" height="18" fill="black">
<rect fill="white" x="27.3516" y="8.18164" width="30" height="18"/>
<path d="M32.3009 12.5896H34.0129V12.7816C34.0129 13.507 33.8582 14.179 33.5489 14.7976C33.2502 15.4163 32.7969 15.9443 32.1889 16.3816C31.5809 16.819 30.8022 17.139 29.8529 17.3416L28.9889 15.6936C29.7569 15.5443 30.3809 15.3256 30.8609 15.0376C31.3516 14.739 31.7142 14.3923 31.9489 13.9976C32.1836 13.603 32.3009 13.1976 32.3009 12.7816V12.5896ZM32.7169 12.5896H34.4289V12.7816C34.4289 13.1763 34.5409 13.555 34.7649 13.9176C34.9996 14.2696 35.3569 14.5843 35.8369 14.8616C36.3169 15.1283 36.9249 15.3363 37.6609 15.4856L36.8289 17.1176C35.9009 16.9363 35.1329 16.6376 34.5249 16.2216C33.9169 15.8056 33.4636 15.3043 33.1649 14.7176C32.8662 14.1203 32.7169 13.475 32.7169 12.7816V12.5896ZM29.3889 11.2456H37.3249V12.8776H29.3889V11.2456ZM32.2849 9.80564H34.4289V12.4296H32.2849V9.80564ZM32.2689 18.1896H34.4129V24.1576H32.2689V18.1896ZM38.7489 9.77364H40.8769V24.5896H38.7489V9.77364ZM28.7649 19.6936L28.5249 17.9496C29.4209 17.9496 30.3969 17.9443 31.4529 17.9336C32.5089 17.9123 33.5916 17.875 34.7009 17.8216C35.8102 17.7576 36.8822 17.6616 37.9169 17.5336L38.0449 19.0696C36.9782 19.251 35.9009 19.3896 34.8129 19.4856C33.7249 19.571 32.6636 19.6296 31.6289 19.6616C30.6049 19.683 29.6502 19.6936 28.7649 19.6936ZM42.8757 21.1336H56.2997V22.8616H42.8757V21.1336ZM48.4437 17.8376H50.5717V21.5976H48.4437V17.8376ZM48.3797 10.6056H50.2357V11.6776C50.2357 12.307 50.145 12.915 49.9637 13.5016C49.793 14.0883 49.5317 14.643 49.1797 15.1656C48.8383 15.6883 48.417 16.163 47.9157 16.5896C47.4143 17.0056 46.8383 17.363 46.1877 17.6616C45.5477 17.9603 44.8383 18.179 44.0597 18.3176L43.1797 16.5416C43.8623 16.435 44.4757 16.2643 45.0197 16.0296C45.5637 15.795 46.0437 15.5176 46.4597 15.1976C46.8863 14.867 47.2383 14.5096 47.5157 14.1256C47.8037 13.731 48.017 13.3256 48.1557 12.9096C48.305 12.4936 48.3797 12.083 48.3797 11.6776V10.6056ZM48.7797 10.6056H50.6517V11.6776C50.6517 12.0936 50.721 12.5096 50.8597 12.9256C51.009 13.3416 51.2223 13.7416 51.4997 14.1256C51.7877 14.5096 52.1397 14.867 52.5557 15.1976C52.9717 15.5176 53.4517 15.795 53.9957 16.0296C54.5503 16.2643 55.1637 16.435 55.8357 16.5416L54.9557 18.3176C54.177 18.1683 53.4677 17.9496 52.8277 17.6616C52.1877 17.363 51.617 17.0056 51.1157 16.5896C50.6143 16.1736 50.1877 15.7096 49.8357 15.1976C49.4943 14.675 49.233 14.1203 49.0517 13.5336C48.8703 12.9363 48.7797 12.3176 48.7797 11.6776V10.6056Z"/>
</mask>
<path d="M32.3009 12.5896H34.0129V12.7816C34.0129 13.507 33.8582 14.179 33.5489 14.7976C33.2502 15.4163 32.7969 15.9443 32.1889 16.3816C31.5809 16.819 30.8022 17.139 29.8529 17.3416L28.9889 15.6936C29.7569 15.5443 30.3809 15.3256 30.8609 15.0376C31.3516 14.739 31.7142 14.3923 31.9489 13.9976C32.1836 13.603 32.3009 13.1976 32.3009 12.7816V12.5896ZM32.7169 12.5896H34.4289V12.7816C34.4289 13.1763 34.5409 13.555 34.7649 13.9176C34.9996 14.2696 35.3569 14.5843 35.8369 14.8616C36.3169 15.1283 36.9249 15.3363 37.6609 15.4856L36.8289 17.1176C35.9009 16.9363 35.1329 16.6376 34.5249 16.2216C33.9169 15.8056 33.4636 15.3043 33.1649 14.7176C32.8662 14.1203 32.7169 13.475 32.7169 12.7816V12.5896ZM29.3889 11.2456H37.3249V12.8776H29.3889V11.2456ZM32.2849 9.80564H34.4289V12.4296H32.2849V9.80564ZM32.2689 18.1896H34.4129V24.1576H32.2689V18.1896ZM38.7489 9.77364H40.8769V24.5896H38.7489V9.77364ZM28.7649 19.6936L28.5249 17.9496C29.4209 17.9496 30.3969 17.9443 31.4529 17.9336C32.5089 17.9123 33.5916 17.875 34.7009 17.8216C35.8102 17.7576 36.8822 17.6616 37.9169 17.5336L38.0449 19.0696C36.9782 19.251 35.9009 19.3896 34.8129 19.4856C33.7249 19.571 32.6636 19.6296 31.6289 19.6616C30.6049 19.683 29.6502 19.6936 28.7649 19.6936ZM42.8757 21.1336H56.2997V22.8616H42.8757V21.1336ZM48.4437 17.8376H50.5717V21.5976H48.4437V17.8376ZM48.3797 10.6056H50.2357V11.6776C50.2357 12.307 50.145 12.915 49.9637 13.5016C49.793 14.0883 49.5317 14.643 49.1797 15.1656C48.8383 15.6883 48.417 16.163 47.9157 16.5896C47.4143 17.0056 46.8383 17.363 46.1877 17.6616C45.5477 17.9603 44.8383 18.179 44.0597 18.3176L43.1797 16.5416C43.8623 16.435 44.4757 16.2643 45.0197 16.0296C45.5637 15.795 46.0437 15.5176 46.4597 15.1976C46.8863 14.867 47.2383 14.5096 47.5157 14.1256C47.8037 13.731 48.017 13.3256 48.1557 12.9096C48.305 12.4936 48.3797 12.083 48.3797 11.6776V10.6056ZM48.7797 10.6056H50.6517V11.6776C50.6517 12.0936 50.721 12.5096 50.8597 12.9256C51.009 13.3416 51.2223 13.7416 51.4997 14.1256C51.7877 14.5096 52.1397 14.867 52.5557 15.1976C52.9717 15.5176 53.4517 15.795 53.9957 16.0296C54.5503 16.2643 55.1637 16.435 55.8357 16.5416L54.9557 18.3176C54.177 18.1683 53.4677 17.9496 52.8277 17.6616C52.1877 17.363 51.617 17.0056 51.1157 16.5896C50.6143 16.1736 50.1877 15.7096 49.8357 15.1976C49.4943 14.675 49.233 14.1203 49.0517 13.5336C48.8703 12.9363 48.7797 12.3176 48.7797 11.6776V10.6056Z" fill="black"/>
<path d="M32.3009 12.5896V11.909C31.925 11.909 31.6203 12.2137 31.6203 12.5896H32.3009ZM34.0129 12.5896H34.6935C34.6935 12.2137 34.3888 11.909 34.0129 11.909V12.5896ZM33.5489 14.7976L32.9401 14.4932L32.936 14.5017L33.5489 14.7976ZM32.1889 16.3816L31.7915 15.8291V15.8291L32.1889 16.3816ZM29.8529 17.3416L29.2501 17.6577C29.3919 17.9281 29.6964 18.071 29.995 18.0073L29.8529 17.3416ZM28.9889 15.6936L28.859 15.0255C28.6479 15.0666 28.4686 15.205 28.3754 15.3989C28.2823 15.5927 28.2862 15.8192 28.3861 16.0097L28.9889 15.6936ZM30.8609 15.0376L31.2111 15.6213L31.2148 15.619L30.8609 15.0376ZM31.9489 13.9976L32.5339 14.3455V14.3455L31.9489 13.9976ZM32.7169 12.5896V11.909C32.341 11.909 32.0363 12.2137 32.0363 12.5896H32.7169ZM34.4289 12.5896H35.1095C35.1095 12.2137 34.8048 11.909 34.4289 11.909V12.5896ZM34.7649 13.9176L34.1858 14.2753C34.19 14.282 34.1942 14.2886 34.1986 14.2952L34.7649 13.9176ZM35.8369 14.8616L35.4963 15.4511L35.5064 15.4566L35.8369 14.8616ZM37.6609 15.4856L38.2673 15.7948C38.3639 15.6052 38.3664 15.3814 38.2739 15.1898C38.1815 14.9982 38.0047 14.8609 37.7962 14.8186L37.6609 15.4856ZM36.8289 17.1176L36.6984 17.7856C36.9966 17.8439 37.2973 17.6975 37.4353 17.4268L36.8289 17.1176ZM34.5249 16.2216L34.9093 15.6599V15.6599L34.5249 16.2216ZM33.1649 14.7176L32.5561 15.022L32.5583 15.0264L33.1649 14.7176ZM29.3889 11.2456V10.565C29.013 10.565 28.7083 10.8697 28.7083 11.2456H29.3889ZM37.3249 11.2456H38.0055C38.0055 10.8697 37.7008 10.565 37.3249 10.565V11.2456ZM37.3249 12.8776V13.5583C37.7008 13.5583 38.0055 13.2535 38.0055 12.8776H37.3249ZM29.3889 12.8776H28.7083C28.7083 13.2535 29.013 13.5583 29.3889 13.5583V12.8776ZM32.2849 9.80564V9.125C31.909 9.125 31.6043 9.42973 31.6043 9.80564H32.2849ZM34.4289 9.80564H35.1095C35.1095 9.42973 34.8048 9.125 34.4289 9.125V9.80564ZM34.4289 12.4296V13.1103C34.8048 13.1103 35.1095 12.8055 35.1095 12.4296H34.4289ZM32.2849 12.4296H31.6043C31.6043 12.8055 31.909 13.1103 32.2849 13.1103V12.4296ZM32.2689 18.1896V17.509C31.893 17.509 31.5883 17.8137 31.5883 18.1896H32.2689ZM34.4129 18.1896H35.0935C35.0935 17.8137 34.7888 17.509 34.4129 17.509V18.1896ZM34.4129 24.1576V24.8383C34.7888 24.8383 35.0935 24.5335 35.0935 24.1576H34.4129ZM32.2689 24.1576H31.5883C31.5883 24.5335 31.893 24.8383 32.2689 24.8383V24.1576ZM38.7489 9.77364V9.093C38.373 9.093 38.0683 9.39773 38.0683 9.77364H38.7489ZM40.8769 9.77364H41.5575C41.5575 9.39773 41.2528 9.093 40.8769 9.093V9.77364ZM40.8769 24.5896V25.2703C41.2528 25.2703 41.5575 24.9655 41.5575 24.5896H40.8769ZM38.7489 24.5896H38.0683C38.0683 24.9655 38.373 25.2703 38.7489 25.2703V24.5896ZM28.7649 19.6936L28.0906 19.7864C28.137 20.1233 28.4249 20.3743 28.7649 20.3743V19.6936ZM28.5249 17.9496V17.269C28.3282 17.269 28.1411 17.3541 28.0119 17.5024C27.8826 17.6506 27.8238 17.8476 27.8506 18.0424L28.5249 17.9496ZM31.4529 17.9336L31.4598 18.6143L31.4667 18.6141L31.4529 17.9336ZM34.7009 17.8216L34.7336 18.5015L34.7401 18.5012L34.7009 17.8216ZM37.9169 17.5336L38.5952 17.4771C38.5798 17.2925 38.4899 17.1222 38.3461 17.0054C38.2023 16.8886 38.0172 16.8354 37.8333 16.8582L37.9169 17.5336ZM38.0449 19.0696L38.159 19.7407C38.5074 19.6814 38.7525 19.3653 38.7232 19.0131L38.0449 19.0696ZM34.8129 19.4856L34.8661 20.1642L34.8727 20.1636L34.8129 19.4856ZM31.6289 19.6616L31.6431 20.3422L31.6499 20.342L31.6289 19.6616ZM32.3009 12.5896V13.2703H34.0129V12.5896V11.909H32.3009V12.5896ZM34.0129 12.5896H33.3323V12.7816H34.0129H34.6935V12.5896H34.0129ZM34.0129 12.7816H33.3323C33.3323 13.4066 33.1999 13.9737 32.9401 14.4932L33.5489 14.7976L34.1577 15.102C34.5166 14.3842 34.6935 13.6074 34.6935 12.7816H34.0129ZM33.5489 14.7976L32.936 14.5017C32.691 15.0092 32.3159 15.4519 31.7915 15.8291L32.1889 16.3816L32.5863 16.9342C33.2779 16.4367 33.8095 15.8234 34.1619 15.0935L33.5489 14.7976ZM32.1889 16.3816L31.7915 15.8291C31.2789 16.1978 30.5942 16.4874 29.7108 16.676L29.8529 17.3416L29.995 18.0073C31.0103 17.7905 31.8829 17.4401 32.5863 16.9342L32.1889 16.3816ZM29.8529 17.3416L30.4557 17.0256L29.5917 15.3776L28.9889 15.6936L28.3861 16.0097L29.2501 17.6577L29.8529 17.3416ZM28.9889 15.6936L29.1188 16.3618C29.936 16.2029 30.642 15.9627 31.2111 15.6213L30.8609 15.0376L30.5107 14.454C30.1198 14.6885 29.5778 14.8857 28.859 15.0255L28.9889 15.6936ZM30.8609 15.0376L31.2148 15.619C31.777 15.2768 32.2299 14.8568 32.5339 14.3455L31.9489 13.9976L31.3639 13.6498C31.1985 13.9278 30.9261 14.2011 30.507 14.4562L30.8609 15.0376ZM31.9489 13.9976L32.5339 14.3455C32.8245 13.8568 32.9815 13.3325 32.9815 12.7816H32.3009H31.6203C31.6203 13.0628 31.5426 13.3491 31.3639 13.6498L31.9489 13.9976ZM32.3009 12.7816H32.9815V12.5896H32.3009H31.6203V12.7816H32.3009ZM32.7169 12.5896V13.2703H34.4289V12.5896V11.909H32.7169V12.5896ZM34.4289 12.5896H33.7483V12.7816H34.4289H35.1095V12.5896H34.4289ZM34.4289 12.7816H33.7483C33.7483 13.3128 33.9009 13.8141 34.1858 14.2753L34.7649 13.9176L35.344 13.56C35.1809 13.2958 35.1095 13.0399 35.1095 12.7816H34.4289ZM34.7649 13.9176L34.1986 14.2952C34.5064 14.7569 34.9529 15.1369 35.4964 15.451L35.8369 14.8616L36.1774 14.2723C35.761 14.0317 35.4928 13.7824 35.3312 13.5401L34.7649 13.9176ZM35.8369 14.8616L35.5064 15.4566C36.0651 15.7671 36.7445 15.9942 37.5256 16.1527L37.6609 15.4856L37.7962 14.8186C37.1053 14.6784 36.5687 14.4896 36.1675 14.2667L35.8369 14.8616ZM37.6609 15.4856L37.0545 15.1765L36.2225 16.8085L36.8289 17.1176L37.4353 17.4268L38.2673 15.7948L37.6609 15.4856ZM36.8289 17.1176L36.9594 16.4496C36.0976 16.2812 35.4224 16.011 34.9093 15.6599L34.5249 16.2216L34.1406 16.7834C34.8434 17.2643 35.7042 17.5914 36.6984 17.7856L36.8289 17.1176ZM34.5249 16.2216L34.9093 15.6599C34.3839 15.3005 34.0125 14.8823 33.7715 14.4088L33.1649 14.7176L32.5583 15.0264C32.9147 15.7263 33.4499 16.3108 34.1406 16.7834L34.5249 16.2216ZM33.1649 14.7176L33.7737 14.4132C33.5241 13.9141 33.3975 13.3735 33.3975 12.7816H32.7169H32.0363C32.0363 13.5765 32.2084 14.3265 32.5561 15.022L33.1649 14.7176ZM32.7169 12.7816H33.3975V12.5896H32.7169H32.0363V12.7816H32.7169ZM29.3889 11.2456V11.9263H37.3249V11.2456V10.565H29.3889V11.2456ZM37.3249 11.2456H36.6443V12.8776H37.3249H38.0055V11.2456H37.3249ZM37.3249 12.8776V12.197H29.3889V12.8776V13.5583H37.3249V12.8776ZM29.3889 12.8776H30.0695V11.2456H29.3889H28.7083V12.8776H29.3889ZM32.2849 9.80564V10.4863H34.4289V9.80564V9.125H32.2849V9.80564ZM34.4289 9.80564H33.7483V12.4296H34.4289H35.1095V9.80564H34.4289ZM34.4289 12.4296V11.749H32.2849V12.4296V13.1103H34.4289V12.4296ZM32.2849 12.4296H32.9655V9.80564H32.2849H31.6043V12.4296H32.2849ZM32.2689 18.1896V18.8703H34.4129V18.1896V17.509H32.2689V18.1896ZM34.4129 18.1896H33.7323V24.1576H34.4129H35.0935V18.1896H34.4129ZM34.4129 24.1576V23.477H32.2689V24.1576V24.8383H34.4129V24.1576ZM32.2689 24.1576H32.9495V18.1896H32.2689H31.5883V24.1576H32.2689ZM38.7489 9.77364V10.4543H40.8769V9.77364V9.093H38.7489V9.77364ZM40.8769 9.77364H40.1963V24.5896H40.8769H41.5575V9.77364H40.8769ZM40.8769 24.5896V23.909H38.7489V24.5896V25.2703H40.8769V24.5896ZM38.7489 24.5896H39.4295V9.77364H38.7489H38.0683V24.5896H38.7489ZM28.7649 19.6936L29.4392 19.6008L29.1992 17.8568L28.5249 17.9496L27.8506 18.0424L28.0906 19.7864L28.7649 19.6936ZM28.5249 17.9496V18.6303C29.4236 18.6303 30.4019 18.6249 31.4598 18.6142L31.4529 17.9336L31.446 17.253C30.3919 17.2637 29.4183 17.269 28.5249 17.269V17.9496ZM31.4529 17.9336L31.4667 18.6141C32.5293 18.5927 33.6183 18.5551 34.7336 18.5015L34.7009 17.8216L34.6682 17.1418C33.5649 17.1948 32.4885 17.2319 31.4392 17.2531L31.4529 17.9336ZM34.7009 17.8216L34.7401 18.5012C35.8633 18.4363 36.9501 18.3391 38.0005 18.2091L37.9169 17.5336L37.8333 16.8582C36.8143 16.9842 35.7572 17.0789 34.6617 17.1421L34.7009 17.8216ZM37.9169 17.5336L37.2386 17.5902L37.3666 19.1262L38.0449 19.0696L38.7232 19.0131L38.5952 17.4771L37.9169 17.5336ZM38.0449 19.0696L37.9308 18.3986C36.8823 18.5769 35.8231 18.7132 34.7531 18.8076L34.8129 19.4856L34.8727 20.1636C35.9787 20.0661 37.0742 19.9251 38.159 19.7407L38.0449 19.0696ZM34.8129 19.4856L34.7597 18.8071C33.6818 18.8916 32.6312 18.9497 31.6079 18.9813L31.6289 19.6616L31.6499 20.342C32.6959 20.3096 33.768 20.2503 34.8661 20.1642L34.8129 19.4856ZM31.6289 19.6616L31.6147 18.9811C30.5947 19.0024 29.6448 19.013 28.7649 19.013V19.6936V20.3743C29.6556 20.3743 30.6151 20.3635 31.6431 20.3421L31.6289 19.6616ZM42.8757 21.1336V20.453C42.4997 20.453 42.195 20.7577 42.195 21.1336H42.8757ZM56.2997 21.1336H56.9803C56.9803 20.7577 56.6756 20.453 56.2997 20.453V21.1336ZM56.2997 22.8616V23.5423C56.6756 23.5423 56.9803 23.2375 56.9803 22.8616H56.2997ZM42.8757 22.8616H42.195C42.195 23.2375 42.4997 23.5423 42.8757 23.5423V22.8616ZM48.4437 17.8376V17.157C48.0677 17.157 47.763 17.4617 47.763 17.8376H48.4437ZM50.5717 17.8376H51.2523C51.2523 17.4617 50.9476 17.157 50.5717 17.157V17.8376ZM50.5717 21.5976V22.2783C50.9476 22.2783 51.2523 21.9735 51.2523 21.5976H50.5717ZM48.4437 21.5976H47.763C47.763 21.9735 48.0677 22.2783 48.4437 22.2783V21.5976ZM48.3797 10.6056V9.925C48.0037 9.925 47.699 10.2297 47.699 10.6056H48.3797ZM50.2357 10.6056H50.9163C50.9163 10.2297 50.6116 9.925 50.2357 9.925V10.6056ZM49.9637 13.5016L49.3133 13.3006L49.3101 13.3115L49.9637 13.5016ZM49.1797 15.1656L48.6151 14.7854L48.6098 14.7935L49.1797 15.1656ZM47.9157 16.5896L48.3503 17.1135L48.3568 17.108L47.9157 16.5896ZM46.1877 17.6616L45.9037 17.043L45.8998 17.0449L46.1877 17.6616ZM44.0597 18.3176L43.4498 18.6198C43.5841 18.8909 43.8812 19.0408 44.179 18.9877L44.0597 18.3176ZM43.1797 16.5416L43.0746 15.8692C42.8604 15.9026 42.675 16.0361 42.5753 16.2286C42.4756 16.4211 42.4735 16.6496 42.5698 16.8438L43.1797 16.5416ZM45.0197 16.0296L44.7501 15.4047V15.4047L45.0197 16.0296ZM46.4597 15.1976L46.8746 15.7371L46.8766 15.7356L46.4597 15.1976ZM47.5157 14.1256L46.9658 13.7244L46.9639 13.7271L47.5157 14.1256ZM48.1557 12.9096L47.515 12.6797C47.5133 12.6846 47.5116 12.6895 47.5099 12.6944L48.1557 12.9096ZM48.7797 10.6056V9.925C48.4037 9.925 48.099 10.2297 48.099 10.6056H48.7797ZM50.6517 10.6056H51.3323C51.3323 10.2297 51.0276 9.925 50.6517 9.925V10.6056ZM50.8597 12.9256L50.2139 13.1409C50.2156 13.1458 50.2173 13.1507 50.219 13.1556L50.8597 12.9256ZM51.4997 14.1256L50.9478 14.5242L50.9551 14.534L51.4997 14.1256ZM52.5557 15.1976L52.1321 15.7305L52.1407 15.7371L52.5557 15.1976ZM53.9957 16.0296L53.7261 16.6546L53.7304 16.6565L53.9957 16.0296ZM55.8357 16.5416L56.4455 16.8438C56.5416 16.6498 56.5398 16.4217 56.4404 16.2293C56.3411 16.037 56.1562 15.9034 55.9424 15.8694L55.8357 16.5416ZM54.9557 18.3176L54.8275 18.9861C55.1278 19.0437 55.4297 18.8939 55.5655 18.6198L54.9557 18.3176ZM52.8277 17.6616L52.5398 18.2785L52.5483 18.2823L52.8277 17.6616ZM51.1157 16.5896L51.5503 16.0658V16.0658L51.1157 16.5896ZM49.8357 15.1976L49.2658 15.5698C49.2687 15.5743 49.2717 15.5788 49.2748 15.5832L49.8357 15.1976ZM49.0517 13.5336L48.4004 13.7314L48.4014 13.7346L49.0517 13.5336ZM42.8757 21.1336V21.8143H56.2997V21.1336V20.453H42.8757V21.1336ZM56.2997 21.1336H55.619V22.8616H56.2997H56.9803V21.1336H56.2997ZM56.2997 22.8616V22.181H42.8757V22.8616V23.5423H56.2997V22.8616ZM42.8757 22.8616H43.5563V21.1336H42.8757H42.195V22.8616H42.8757ZM48.4437 17.8376V18.5183H50.5717V17.8376V17.157H48.4437V17.8376ZM50.5717 17.8376H49.891V21.5976H50.5717H51.2523V17.8376H50.5717ZM50.5717 21.5976V20.917H48.4437V21.5976V22.2783H50.5717V21.5976ZM48.4437 21.5976H49.1243V17.8376H48.4437H47.763V21.5976H48.4437ZM48.3797 10.6056V11.2863H50.2357V10.6056V9.925H48.3797V10.6056ZM50.2357 10.6056H49.555V11.6776H50.2357H50.9163V10.6056H50.2357ZM50.2357 11.6776H49.555C49.555 12.2405 49.4741 12.7807 49.3134 13.3006L49.9637 13.5016L50.6139 13.7026C50.8159 13.0493 50.9163 12.3734 50.9163 11.6776H50.2357ZM49.9637 13.5016L49.3101 13.3115C49.1597 13.8285 48.929 14.3193 48.6151 14.7854L49.1797 15.1656L49.7442 15.5458C50.1343 14.9667 50.4263 14.3481 50.6172 13.6918L49.9637 13.5016ZM49.1797 15.1656L48.6098 14.7935C48.306 15.2586 47.9289 15.6846 47.4745 16.0713L47.9157 16.5896L48.3568 17.108C48.9051 16.6413 49.3706 16.118 49.7495 15.5378L49.1797 15.1656ZM47.9157 16.5896L47.481 16.0658C47.0298 16.4402 46.5055 16.7668 45.9037 17.0431L46.1877 17.6616L46.4716 18.2802C47.1711 17.9591 47.7988 17.571 48.3503 17.1134L47.9157 16.5896ZM46.1877 17.6616L45.8998 17.0449C45.3194 17.3157 44.6676 17.518 43.9403 17.6475L44.0597 18.3176L44.179 18.9877C45.009 18.8399 45.7759 18.6049 46.4755 18.2784L46.1877 17.6616ZM44.0597 18.3176L44.6695 18.0154L43.7895 16.2394L43.1797 16.5416L42.5698 16.8438L43.4498 18.6198L44.0597 18.3176ZM43.1797 16.5416L43.2847 17.2141C44.0149 17.1 44.6848 16.9154 45.2892 16.6546L45.0197 16.0296L44.7501 15.4047C44.2665 15.6132 43.7098 15.7699 43.0746 15.8692L43.1797 16.5416ZM45.0197 16.0296L45.2892 16.6546C45.8785 16.4004 46.4086 16.0956 46.8746 15.7371L46.4597 15.1976L46.0447 14.6581C45.6787 14.9397 45.2488 15.1895 44.7501 15.4047L45.0197 16.0296ZM46.4597 15.1976L46.8766 15.7356C47.3476 15.3706 47.7472 14.9676 48.0674 14.5241L47.5157 14.1256L46.9639 13.7271C46.7295 14.0517 46.425 14.3634 46.0427 14.6597L46.4597 15.1976ZM47.5157 14.1256L48.0655 14.5269C48.3902 14.0819 48.6381 13.6146 48.8014 13.1249L48.1557 12.9096L47.5099 12.6944C47.3958 13.0367 47.2172 13.38 46.9658 13.7244L47.5157 14.1256ZM48.1557 12.9096L48.7963 13.1396C48.9697 12.6565 49.0603 12.1681 49.0603 11.6776H48.3797H47.699C47.699 11.9978 47.6403 12.3308 47.515 12.6797L48.1557 12.9096ZM48.3797 11.6776H49.0603V10.6056H48.3797H47.699V11.6776H48.3797ZM48.7797 10.6056V11.2863H50.6517V10.6056V9.925H48.7797V10.6056ZM50.6517 10.6056H49.971V11.6776H50.6517H51.3323V10.6056H50.6517ZM50.6517 11.6776H49.971C49.971 12.1707 50.0534 12.6593 50.2139 13.1409L50.8597 12.9256L51.5054 12.7104C51.3886 12.36 51.3323 12.0166 51.3323 11.6776H50.6517ZM50.8597 12.9256L50.219 13.1556C50.3914 13.6358 50.6358 14.0921 50.9479 14.5241L51.4997 14.1256L52.0514 13.7271C51.8088 13.3912 51.6265 13.0475 51.5003 12.6957L50.8597 12.9256ZM51.4997 14.1256L50.9551 14.534C51.2815 14.9692 51.6755 15.3675 52.1321 15.7305L52.5557 15.1976L52.9792 14.6648C52.6039 14.3665 52.2938 14.0501 52.0442 13.7173L51.4997 14.1256ZM52.5557 15.1976L52.1407 15.7371C52.6067 16.0956 53.1368 16.4004 53.7261 16.6546L53.9957 16.0296L54.2653 15.4047C53.7665 15.1895 53.3366 14.9397 52.9706 14.6581L52.5557 15.1976ZM53.9957 16.0296L53.7304 16.6565C54.342 16.9152 55.0094 17.0996 55.729 17.2139L55.8357 16.5416L55.9424 15.8694C55.3179 15.7703 54.7587 15.6134 54.2609 15.4028L53.9957 16.0296ZM55.8357 16.5416L55.2258 16.2394L54.3458 18.0154L54.9557 18.3176L55.5655 18.6198L56.4455 16.8438L55.8357 16.5416ZM54.9557 18.3176L55.0839 17.6492C54.3506 17.5086 53.6929 17.3046 53.107 17.041L52.8277 17.6616L52.5483 18.2823C53.2425 18.5947 54.0033 18.828 54.8275 18.9861L54.9557 18.3176ZM52.8277 17.6616L53.1155 17.0449C52.5238 16.7687 52.0033 16.4417 51.5503 16.0658L51.1157 16.5896L50.681 17.1134C51.2307 17.5695 51.8515 17.9572 52.5398 18.2784L52.8277 17.6616ZM51.1157 16.5896L51.5503 16.0658C51.0949 15.6879 50.7113 15.2699 50.3965 14.812L49.8357 15.1976L49.2748 15.5832C49.664 16.1494 50.1338 16.6593 50.681 17.1134L51.1157 16.5896ZM49.8357 15.1976L50.4055 14.8255C50.0983 14.355 49.8643 13.8578 49.7019 13.3326L49.0517 13.5336L48.4014 13.7346C48.6017 14.3828 48.8904 14.995 49.2658 15.5698L49.8357 15.1976ZM49.0517 13.5336L49.7029 13.3359C49.5416 12.8043 49.4603 12.2524 49.4603 11.6776H48.7797H48.099C48.099 12.3829 48.1991 13.0683 48.4004 13.7314L49.0517 13.5336ZM48.7797 11.6776H49.4603V10.6056H48.7797H48.099V11.6776H48.7797Z" fill="white" fill-opacity="0.7" mask="url(#path-8-outside-1_1955_35875)"/>
<g opacity="0.56" filter="url(#filter4_f_1955_35875)">
<path d="M81.8956 26.6928C81.8953 30.947 78.5673 29.2582 77.1337 29.401L28.1708 30.623L63.4453 28.0508C84.4794 26.7648 79.9453 22.0508 79.9453 11.3008C82.5126 3.71795 81.8963 16.8274 81.8956 26.6928Z" fill="#9F9F9F"/>
</g>
</g>
<defs>
<filter id="filter0_f_1955_35875" x="0.335938" y="6.51172" width="81.8047" height="27.1113" filterUnits="userSpaceOnUse" color-interpolation-filters="sRGB">
<feFlood flood-opacity="0" result="BackgroundImageFix"/>
<feBlend mode="normal" in="SourceGraphic" in2="BackgroundImageFix" result="shape"/>
<feGaussianBlur stdDeviation="1.5" result="effect1_foregroundBlur_1955_35875"/>
</filter>
<filter id="filter1_f_1955_35875" x="-1.21289" y="6.51172" width="10.8066" height="22.334" filterUnits="userSpaceOnUse" color-interpolation-filters="sRGB">
<feFlood flood-opacity="0" result="BackgroundImageFix"/>
<feBlend mode="normal" in="SourceGraphic" in2="BackgroundImageFix" result="shape"/>
<feGaussianBlur stdDeviation="1.5" result="effect1_foregroundBlur_1955_35875"/>
</filter>
<filter id="filter2_f_1955_35875" x="25.0938" y="4.74023" width="67.5723" height="34.8848" filterUnits="userSpaceOnUse" color-interpolation-filters="sRGB">
<feFlood flood-opacity="0" result="BackgroundImageFix"/>
<feBlend mode="normal" in="SourceGraphic" in2="BackgroundImageFix" result="shape"/>
<feGaussianBlur stdDeviation="4.5" result="effect1_foregroundBlur_1955_35875"/>
</filter>
<filter id="filter3_f_1955_35875" x="-0.664062" y="-1.4082" width="85.3281" height="19.9355" filterUnits="userSpaceOnUse" color-interpolation-filters="sRGB">
<feFlood flood-opacity="0" result="BackgroundImageFix"/>
<feBlend mode="normal" in="SourceGraphic" in2="BackgroundImageFix" result="shape"/>
<feGaussianBlur stdDeviation="2" result="effect1_foregroundBlur_1955_35875"/>
</filter>
<filter id="filter4_f_1955_35875" x="24.1699" y="5.03906" width="61.791" height="29.584" filterUnits="userSpaceOnUse" color-interpolation-filters="sRGB">
<feFlood flood-opacity="0" result="BackgroundImageFix"/>
<feBlend mode="normal" in="SourceGraphic" in2="BackgroundImageFix" result="shape"/>
<feGaussianBlur stdDeviation="2" result="effect1_foregroundBlur_1955_35875"/>
</filter>
<linearGradient id="paint0_linear_1955_35875" x1="43" y1="1" x2="43" y2="33" gradientUnits="userSpaceOnUse">
<stop stop-color="#DADADA"/>
<stop offset="0.177885" stop-color="#E8E8E8"/>
<stop offset="0.663462" stop-color="#E5E5E5"/>
<stop offset="1" stop-color="#D7D7D7"/>
</linearGradient>
<linearGradient id="paint1_linear_1955_35875" x1="43" y1="0" x2="43" y2="34" gradientUnits="userSpaceOnUse">
<stop stop-color="#AAAAAA"/>
<stop offset="1" stop-color="#777777"/>
</linearGradient>
<linearGradient id="paint2_linear_1955_35875" x1="43" y1="1" x2="43" y2="33" gradientUnits="userSpaceOnUse">
<stop stop-color="white"/>
<stop offset="1" stop-color="white"/>
</linearGradient>
<linearGradient id="paint3_linear_1955_35875" x1="47.4176" y1="20.0669" x2="73.7223" y2="20.0669" gradientUnits="userSpaceOnUse">
<stop stop-color="#C5C5C5"/>
<stop offset="1" stop-color="#C5C5C5" stop-opacity="0"/>
</linearGradient>
<linearGradient id="paint4_linear_1955_35875" x1="83.138" y1="22.5743" x2="58.7993" y2="22.5743" gradientUnits="userSpaceOnUse">
<stop stop-color="#808080" stop-opacity="0"/>
<stop offset="1" stop-color="#808080"/>
</linearGradient>
<clipPath id="clip0_1955_35875">
<rect width="86" height="34" fill="white"/>
</clipPath>
</defs>
</svg>
