<svg width="86" height="34" viewBox="0 0 86 34" fill="none" xmlns="http://www.w3.org/2000/svg">
<g clip-path="url(#clip0_1955_35853)">
<path d="M1 7C1 3.68629 3.68629 1 7 1H79C82.3137 1 85 3.68629 85 7V27C85 30.3137 82.3137 33 79 33H7C3.68629 33 1 30.3137 1 27V7Z" fill="url(#paint0_linear_1955_35853)"/>
<path d="M1 7C1 3.68629 3.68629 1 7 1H79C82.3137 1 85 3.68629 85 7V27C85 30.3137 82.3137 33 79 33H7C3.68629 33 1 30.3137 1 27V7Z" fill="black" fill-opacity="0.15"/>
<rect x="0.5" y="0.5" width="85" height="33" rx="6.5" stroke="url(#paint1_linear_1955_35853)"/>
<rect x="1.5" y="1.5" width="83" height="31" rx="5.5" stroke="url(#paint2_linear_1955_35853)" stroke-opacity="0.82"/>
<g opacity="0.8" filter="url(#filter0_f_1955_35853)">
<path d="M5.15099 22.9231L4.75997 11.0052L3.33594 9.51172V22.9231C3.33594 28.6851 3.638 30.1277 6.14477 30.2932L79.1406 30.6221C76.0122 28.4365 61.3927 28.2213 54.474 28.3869H12.1095C3.44612 28.3869 6.14477 27.0184 5.15099 22.9231Z" fill="url(#paint3_linear_1955_35853)"/>
</g>
<g opacity="0.5" filter="url(#filter1_f_1955_35853)">
<path d="M1.78805 25.8467L1.78805 9.51172C3.98486 12.1375 6.59375 13.3203 6.59375 16.7063C6.59375 20.0923 3.38995 25.3961 1.78805 25.8467Z" fill="#FFECBC"/>
</g>
<g filter="url(#filter2_f_1955_35853)" style="mix-blend-mode:multiply">
<path d="M40.552 30.6216C38.2511 30.6311 36.064 30.6216 34.0938 30.6216H40.552C53.87 30.5666 71.0001 29.8744 71.9688 23.0129C73.4688 12.3881 77.9753 13.1515 81.7188 14.5129C84.2288 15.426 83.8438 19.3877 83.138 26.1702C82.7197 27.654 80.8232 30.6216 76.5839 30.6216H40.552Z" fill="url(#paint4_linear_1955_35853)"/>
</g>
<g opacity="0.74" filter="url(#filter3_f_1955_35853)">
<path d="M3.50679 6.52395C3.50723 2.26978 8.28681 3.95865 10.3456 3.81579L80.6641 2.59375L42.5063 5.30881C12.298 6.59483 6.65939 6.5104 6.04171 9.32883C2.3547 16.9117 3.50578 16.3894 3.50679 6.52395Z" fill="#FFFDB9"/>
</g>
<g opacity="0.4" filter="url(#filter4_f_1955_35853)">
<path d="M81.796 26.6909C81.7957 30.9451 78.4677 29.2562 77.0341 29.3991L28.0712 30.6211L63.3457 28.0488C84.3798 26.7628 79.8457 22.0488 79.8457 11.2988C82.413 3.716 81.7967 16.8254 81.796 26.6909Z" fill="#511C02"/>
</g>
<mask id="path-9-outside-1_1955_35853" maskUnits="userSpaceOnUse" x="27.3516" y="8.17969" width="29" height="18" fill="black">
<rect fill="white" x="27.3516" y="8.17969" width="29" height="18"/>
<path d="M41.3569 15.0517L40.5569 16.7477C37.9809 16.3637 36.1409 15.1637 35.1969 13.5797C34.2529 15.1637 32.3969 16.3637 29.8209 16.7477L29.0209 15.0517C32.3809 14.5877 34.0609 12.6837 34.0609 10.9557V10.2517H36.3169V10.9557C36.3169 12.6677 38.0129 14.5877 41.3569 15.0517ZM41.8369 17.8357V19.5477H36.1889V24.5717H34.0769V19.5477H28.5249V17.8357H41.8369ZM50.9077 13.3717H53.1157V9.81969H55.2277V18.5877H53.1157V15.0837H50.9077V13.3717ZM51.7877 16.5397L50.7637 18.1877C49.1637 17.6597 48.0597 16.6197 47.4197 15.3237C46.7797 16.8117 45.6117 18.0117 43.8997 18.5877L42.8277 16.9237C45.1637 16.1077 46.2357 14.2357 46.2997 12.3957H43.4037V10.6997H51.3237V12.3957H48.4597C48.5237 14.0757 49.5477 15.8037 51.7877 16.5397ZM50.2517 22.9717C52.1717 22.9717 53.1797 22.5717 53.1797 21.7397C53.1797 20.9077 52.1717 20.5077 50.2517 20.5077C48.3157 20.5077 47.3077 20.9077 47.3077 21.7397C47.3077 22.5717 48.3157 22.9717 50.2517 22.9717ZM50.2517 18.9077C53.3717 18.9077 55.2917 19.9477 55.2917 21.7397C55.2917 23.5317 53.3717 24.5717 50.2517 24.5717C47.1157 24.5717 45.1957 23.5317 45.1957 21.7397C45.1957 19.9477 47.1157 18.9077 50.2517 18.9077Z"/>
</mask>
<path d="M41.3569 15.0517L40.5569 16.7477C37.9809 16.3637 36.1409 15.1637 35.1969 13.5797C34.2529 15.1637 32.3969 16.3637 29.8209 16.7477L29.0209 15.0517C32.3809 14.5877 34.0609 12.6837 34.0609 10.9557V10.2517H36.3169V10.9557C36.3169 12.6677 38.0129 14.5877 41.3569 15.0517ZM41.8369 17.8357V19.5477H36.1889V24.5717H34.0769V19.5477H28.5249V17.8357H41.8369ZM50.9077 13.3717H53.1157V9.81969H55.2277V18.5877H53.1157V15.0837H50.9077V13.3717ZM51.7877 16.5397L50.7637 18.1877C49.1637 17.6597 48.0597 16.6197 47.4197 15.3237C46.7797 16.8117 45.6117 18.0117 43.8997 18.5877L42.8277 16.9237C45.1637 16.1077 46.2357 14.2357 46.2997 12.3957H43.4037V10.6997H51.3237V12.3957H48.4597C48.5237 14.0757 49.5477 15.8037 51.7877 16.5397ZM50.2517 22.9717C52.1717 22.9717 53.1797 22.5717 53.1797 21.7397C53.1797 20.9077 52.1717 20.5077 50.2517 20.5077C48.3157 20.5077 47.3077 20.9077 47.3077 21.7397C47.3077 22.5717 48.3157 22.9717 50.2517 22.9717ZM50.2517 18.9077C53.3717 18.9077 55.2917 19.9477 55.2917 21.7397C55.2917 23.5317 53.3717 24.5717 50.2517 24.5717C47.1157 24.5717 45.1957 23.5317 45.1957 21.7397C45.1957 19.9477 47.1157 18.9077 50.2517 18.9077Z" fill="#FFED2D"/>
<path d="M41.3569 15.0517L41.9725 15.3421C42.0649 15.1462 42.0586 14.9181 41.9555 14.7277C41.8524 14.5373 41.6649 14.4073 41.4505 14.3775L41.3569 15.0517ZM40.5569 16.7477L40.4566 17.4209C40.7535 17.4652 41.0444 17.3096 41.1725 17.0381L40.5569 16.7477ZM35.1969 13.5797L35.7816 13.2312C35.6588 13.0252 35.4367 12.899 35.1969 12.899C34.9571 12.899 34.735 13.0252 34.6122 13.2312L35.1969 13.5797ZM29.8209 16.7477L29.2053 17.0381C29.3334 17.3096 29.6243 17.4652 29.9213 17.4209L29.8209 16.7477ZM29.0209 15.0517L28.9278 14.3774C28.7132 14.4071 28.5256 14.5371 28.4224 14.7275C28.3193 14.918 28.3129 15.1462 28.4053 15.3421L29.0209 15.0517ZM34.0609 10.2517V9.57105C33.685 9.57105 33.3803 9.87578 33.3803 10.2517H34.0609ZM36.3169 10.2517H36.9975C36.9975 9.87578 36.6928 9.57105 36.3169 9.57105V10.2517ZM41.8369 17.8357H42.5175C42.5175 17.4598 42.2128 17.155 41.8369 17.155V17.8357ZM41.8369 19.5477V20.2283C42.2128 20.2283 42.5175 19.9236 42.5175 19.5477H41.8369ZM36.1889 19.5477V18.867C35.813 18.867 35.5083 19.1718 35.5083 19.5477H36.1889ZM36.1889 24.5717V25.2523C36.5648 25.2523 36.8695 24.9476 36.8695 24.5717H36.1889ZM34.0769 24.5717H33.3963C33.3963 24.9476 33.701 25.2523 34.0769 25.2523V24.5717ZM34.0769 19.5477H34.7575C34.7575 19.1718 34.4528 18.867 34.0769 18.867V19.5477ZM28.5249 19.5477H27.8443C27.8443 19.9236 28.149 20.2283 28.5249 20.2283V19.5477ZM28.5249 17.8357V17.155C28.149 17.155 27.8443 17.4598 27.8443 17.8357H28.5249ZM41.3569 15.0517L40.7413 14.7613L39.9413 16.4573L40.5569 16.7477L41.1725 17.0381L41.9725 15.3421L41.3569 15.0517ZM40.5569 16.7477L40.6573 16.0745C38.236 15.7136 36.5988 14.6026 35.7816 13.2312L35.1969 13.5797L34.6122 13.9281C35.683 15.7248 37.7258 17.0138 40.4566 17.4209L40.5569 16.7477ZM35.1969 13.5797L34.6122 13.2312C33.7959 14.601 32.1439 15.7132 29.7206 16.0745L29.8209 16.7477L29.9213 17.4209C32.6499 17.0141 34.7099 15.7263 35.7816 13.9281L35.1969 13.5797ZM29.8209 16.7477L30.4365 16.4573L29.6365 14.7613L29.0209 15.0517L28.4053 15.3421L29.2053 17.0381L29.8209 16.7477ZM29.0209 15.0517L29.114 15.7259C32.6512 15.2375 34.7415 13.1631 34.7415 10.9557H34.0609H33.3803C33.3803 12.2043 32.1106 13.9379 28.9278 14.3774L29.0209 15.0517ZM34.0609 10.9557H34.7415V10.2517H34.0609H33.3803V10.9557H34.0609ZM34.0609 10.2517V10.9323H36.3169V10.2517V9.57105H34.0609V10.2517ZM36.3169 10.2517H35.6363V10.9557H36.3169H36.9975V10.2517H36.3169ZM36.3169 10.9557H35.6363C35.6363 13.147 37.7426 15.2373 41.2634 15.7259L41.3569 15.0517L41.4505 14.3775C38.2832 13.938 36.9975 12.1883 36.9975 10.9557H36.3169ZM41.8369 17.8357H41.1563V19.5477H41.8369H42.5175V17.8357H41.8369ZM41.8369 19.5477V18.867H36.1889V19.5477V20.2283H41.8369V19.5477ZM36.1889 19.5477H35.5083V24.5717H36.1889H36.8695V19.5477H36.1889ZM36.1889 24.5717V23.891H34.0769V24.5717V25.2523H36.1889V24.5717ZM34.0769 24.5717H34.7575V19.5477H34.0769H33.3963V24.5717H34.0769ZM34.0769 19.5477V18.867H28.5249V19.5477V20.2283H34.0769V19.5477ZM28.5249 19.5477H29.2055V17.8357H28.5249H27.8443V19.5477H28.5249ZM28.5249 17.8357V18.5163H41.8369V17.8357V17.155H28.5249V17.8357ZM50.9077 13.3717V12.691C50.5317 12.691 50.227 12.9958 50.227 13.3717H50.9077ZM53.1157 13.3717V14.0523C53.4916 14.0523 53.7963 13.7476 53.7963 13.3717H53.1157ZM53.1157 9.81969V9.13905C52.7397 9.13905 52.435 9.44378 52.435 9.81969H53.1157ZM55.2277 9.81969H55.9083C55.9083 9.44378 55.6036 9.13905 55.2277 9.13905V9.81969ZM55.2277 18.5877V19.2683C55.6036 19.2683 55.9083 18.9636 55.9083 18.5877H55.2277ZM53.1157 18.5877H52.435C52.435 18.9636 52.7397 19.2683 53.1157 19.2683V18.5877ZM53.1157 15.0837H53.7963C53.7963 14.7078 53.4916 14.403 53.1157 14.403V15.0837ZM50.9077 15.0837H50.227C50.227 15.4596 50.5317 15.7643 50.9077 15.7643V15.0837ZM51.7877 16.5397L52.3658 16.8989C52.476 16.7215 52.4987 16.5034 52.4273 16.3071C52.356 16.1109 52.1985 15.9582 52.0001 15.8931L51.7877 16.5397ZM50.7637 18.1877L50.5504 18.834C50.8488 18.9325 51.1759 18.8139 51.3418 18.5469L50.7637 18.1877ZM47.4197 15.3237L48.0299 15.0223C47.9124 14.7843 47.6672 14.6363 47.4018 14.6433C47.1364 14.6503 46.8993 14.8109 46.7944 15.0548L47.4197 15.3237ZM43.8997 18.5877L43.3275 18.9563C43.4962 19.2183 43.8213 19.3322 44.1167 19.2328L43.8997 18.5877ZM42.8277 16.9237L42.6032 16.2811C42.4063 16.3499 42.2518 16.5051 42.184 16.7024C42.1162 16.8996 42.1425 17.117 42.2555 17.2923L42.8277 16.9237ZM46.2997 12.3957L46.9799 12.4193C46.9863 12.2348 46.9175 12.0556 46.7892 11.9228C46.661 11.79 46.4843 11.715 46.2997 11.715V12.3957ZM43.4037 12.3957H42.723C42.723 12.7716 43.0277 13.0763 43.4037 13.0763V12.3957ZM43.4037 10.6997V10.019C43.0277 10.019 42.723 10.3238 42.723 10.6997H43.4037ZM51.3237 10.6997H52.0043C52.0043 10.3238 51.6996 10.019 51.3237 10.019V10.6997ZM51.3237 12.3957V13.0763C51.6996 13.0763 52.0043 12.7716 52.0043 12.3957H51.3237ZM48.4597 12.3957V11.715C48.2746 11.715 48.0976 11.7904 47.9693 11.9237C47.841 12.0569 47.7725 12.2367 47.7795 12.4216L48.4597 12.3957ZM50.9077 13.3717V14.0523H53.1157V13.3717V12.691H50.9077V13.3717ZM53.1157 13.3717H53.7963V9.81969H53.1157H52.435V13.3717H53.1157ZM53.1157 9.81969V10.5003H55.2277V9.81969V9.13905H53.1157V9.81969ZM55.2277 9.81969H54.547V18.5877H55.2277H55.9083V9.81969H55.2277ZM55.2277 18.5877V17.907H53.1157V18.5877V19.2683H55.2277V18.5877ZM53.1157 18.5877H53.7963V15.0837H53.1157H52.435V18.5877H53.1157ZM53.1157 15.0837V14.403H50.9077V15.0837V15.7643H53.1157V15.0837ZM50.9077 15.0837H51.5883V13.3717H50.9077H50.227V15.0837H50.9077ZM51.7877 16.5397L51.2095 16.1805L50.1855 17.8285L50.7637 18.1877L51.3418 18.5469L52.3658 16.8989L51.7877 16.5397ZM50.7637 18.1877L50.977 17.5413C49.5547 17.072 48.5913 16.1592 48.0299 15.0223L47.4197 15.3237L46.8094 15.6251C47.528 17.0802 48.7726 18.2474 50.5504 18.834L50.7637 18.1877ZM47.4197 15.3237L46.7944 15.0548C46.2243 16.3803 45.1961 17.4334 43.6826 17.9426L43.8997 18.5877L44.1167 19.2328C46.0272 18.59 47.335 17.2431 48.0449 15.5926L47.4197 15.3237ZM43.8997 18.5877L44.4718 18.2191L43.3998 16.5551L42.8277 16.9237L42.2555 17.2923L43.3275 18.9563L43.8997 18.5877ZM42.8277 16.9237L43.0521 17.5663C45.6709 16.6515 46.9068 14.5206 46.9799 12.4193L46.2997 12.3957L45.6194 12.372C45.5645 13.9508 44.6564 15.5639 42.6032 16.2811L42.8277 16.9237ZM46.2997 12.3957V11.715H43.4037V12.3957V13.0763H46.2997V12.3957ZM43.4037 12.3957H44.0843V10.6997H43.4037H42.723V12.3957H43.4037ZM43.4037 10.6997V11.3803H51.3237V10.6997V10.019H43.4037V10.6997ZM51.3237 10.6997H50.643V12.3957H51.3237H52.0043V10.6997H51.3237ZM51.3237 12.3957V11.715H48.4597V12.3957V13.0763H51.3237V12.3957ZM48.4597 12.3957L47.7795 12.4216C47.854 14.3771 49.0566 16.3588 51.5752 17.1863L51.7877 16.5397L52.0001 15.8931C50.0387 15.2486 49.1933 13.7742 49.1398 12.3698L48.4597 12.3957ZM50.2517 22.9717V23.6523C51.2386 23.6523 52.0789 23.5525 52.6964 23.2964C53.0116 23.1657 53.3052 22.9795 53.5221 22.7103C53.7479 22.4301 53.8603 22.097 53.8603 21.7397H53.1797H52.499C52.499 21.7984 52.4854 21.8272 52.4622 21.8561C52.4301 21.8959 52.3517 21.9657 52.175 22.039C51.8084 22.1909 51.1847 22.291 50.2517 22.291V22.9717ZM53.1797 21.7397H53.8603C53.8603 21.3824 53.7479 21.0492 53.5221 20.7691C53.3052 20.4999 53.0116 20.3137 52.6964 20.183C52.0789 19.9269 51.2386 19.827 50.2517 19.827V20.5077V21.1883C51.1847 21.1883 51.8084 21.2885 52.175 21.4404C52.3517 21.5137 52.4301 21.5835 52.4622 21.6233C52.4854 21.6521 52.499 21.681 52.499 21.7397H53.1797ZM50.2517 20.5077V19.827C49.2572 19.827 48.4132 19.9268 47.7939 20.1826C47.4777 20.3132 47.1833 20.4992 46.9658 20.7686C46.7395 21.0489 46.627 21.3823 46.627 21.7397H47.3077H47.9883C47.9883 21.681 48.0018 21.6524 48.025 21.6238C48.057 21.5841 48.1356 21.5142 48.3134 21.4408C48.6821 21.2885 49.3101 21.1883 50.2517 21.1883V20.5077ZM47.3077 21.7397H46.627C46.627 22.097 46.7395 22.4304 46.9658 22.7108C47.1833 22.9801 47.4777 23.1662 47.7939 23.2968C48.4132 23.5525 49.2572 23.6523 50.2517 23.6523V22.9717V22.291C49.3101 22.291 48.6821 22.1908 48.3134 22.0386C48.1356 21.9652 48.057 21.8952 48.025 21.8556C48.0018 21.8269 47.9883 21.7983 47.9883 21.7397H47.3077ZM50.2517 18.9077V19.5883C51.7514 19.5883 52.8814 19.8407 53.6108 20.2465C54.3108 20.6359 54.611 21.1392 54.611 21.7397H55.2917H55.9723C55.9723 20.5482 55.3125 19.6354 54.2726 19.0569C53.2619 18.4947 51.8719 18.227 50.2517 18.227V18.9077ZM55.2917 21.7397H54.611C54.611 22.3402 54.3108 22.8434 53.6108 23.2329C52.8814 23.6387 51.7514 23.891 50.2517 23.891V24.5717V25.2523C51.8719 25.2523 53.2619 24.9847 54.2726 24.4225C55.3125 23.8439 55.9723 22.9312 55.9723 21.7397H55.2917ZM50.2517 24.5717V23.891C48.7434 23.891 47.6093 23.6385 46.878 23.2326C46.1762 22.8431 45.8763 22.3399 45.8763 21.7397H45.1957H44.515C44.515 22.9314 45.1751 23.8443 46.2173 24.4228C47.23 24.9849 48.6239 25.2523 50.2517 25.2523V24.5717ZM45.1957 21.7397H45.8763C45.8763 21.1394 46.1762 20.6363 46.878 20.2468C47.6093 19.8409 48.7434 19.5883 50.2517 19.5883V18.9077V18.227C48.6239 18.227 47.23 18.4945 46.2173 19.0566C45.1751 19.6351 44.515 20.5479 44.515 21.7397H45.1957Z" fill="black" fill-opacity="0.3" mask="url(#path-9-outside-1_1955_35853)"/>
</g>
<defs>
<filter id="filter0_f_1955_35853" x="0.335938" y="6.51172" width="81.8047" height="27.1094" filterUnits="userSpaceOnUse" color-interpolation-filters="sRGB">
<feFlood flood-opacity="0" result="BackgroundImageFix"/>
<feBlend mode="normal" in="SourceGraphic" in2="BackgroundImageFix" result="shape"/>
<feGaussianBlur stdDeviation="1.5" result="effect1_foregroundBlur_1955_35853"/>
</filter>
<filter id="filter1_f_1955_35853" x="-1.21289" y="6.51172" width="10.8066" height="22.334" filterUnits="userSpaceOnUse" color-interpolation-filters="sRGB">
<feFlood flood-opacity="0" result="BackgroundImageFix"/>
<feBlend mode="normal" in="SourceGraphic" in2="BackgroundImageFix" result="shape"/>
<feGaussianBlur stdDeviation="1.5" result="effect1_foregroundBlur_1955_35853"/>
</filter>
<filter id="filter2_f_1955_35853" x="25.0938" y="4.74023" width="67.5723" height="34.8848" filterUnits="userSpaceOnUse" color-interpolation-filters="sRGB">
<feFlood flood-opacity="0" result="BackgroundImageFix"/>
<feBlend mode="normal" in="SourceGraphic" in2="BackgroundImageFix" result="shape"/>
<feGaussianBlur stdDeviation="4.5" result="effect1_foregroundBlur_1955_35853"/>
</filter>
<filter id="filter3_f_1955_35853" x="-0.664062" y="-1.40625" width="85.3281" height="19.9355" filterUnits="userSpaceOnUse" color-interpolation-filters="sRGB">
<feFlood flood-opacity="0" result="BackgroundImageFix"/>
<feBlend mode="normal" in="SourceGraphic" in2="BackgroundImageFix" result="shape"/>
<feGaussianBlur stdDeviation="2" result="effect1_foregroundBlur_1955_35853"/>
</filter>
<filter id="filter4_f_1955_35853" x="24.0703" y="5.03711" width="61.791" height="29.584" filterUnits="userSpaceOnUse" color-interpolation-filters="sRGB">
<feFlood flood-opacity="0" result="BackgroundImageFix"/>
<feBlend mode="normal" in="SourceGraphic" in2="BackgroundImageFix" result="shape"/>
<feGaussianBlur stdDeviation="2" result="effect1_foregroundBlur_1955_35853"/>
</filter>
<linearGradient id="paint0_linear_1955_35853" x1="43" y1="1" x2="43" y2="33" gradientUnits="userSpaceOnUse">
<stop stop-color="#CC4400"/>
<stop offset="0.0384615" stop-color="#E2520B"/>
<stop offset="0.586538" stop-color="#D54C09"/>
<stop offset="0.971154" stop-color="#E7611F"/>
</linearGradient>
<linearGradient id="paint1_linear_1955_35853" x1="43" y1="0" x2="43" y2="34" gradientUnits="userSpaceOnUse">
<stop stop-color="#9A5E40"/>
<stop offset="1" stop-color="#582B15"/>
</linearGradient>
<linearGradient id="paint2_linear_1955_35853" x1="43" y1="1" x2="43" y2="33" gradientUnits="userSpaceOnUse">
<stop stop-color="white"/>
<stop offset="1" stop-color="#FFD3C0"/>
</linearGradient>
<linearGradient id="paint3_linear_1955_35853" x1="47.4176" y1="20.0669" x2="73.7223" y2="20.0669" gradientUnits="userSpaceOnUse">
<stop stop-color="#8C380D"/>
<stop offset="1" stop-color="#8C380D" stop-opacity="0"/>
</linearGradient>
<linearGradient id="paint4_linear_1955_35853" x1="83.138" y1="22.5743" x2="58.7993" y2="22.5743" gradientUnits="userSpaceOnUse">
<stop stop-color="#8C380D" stop-opacity="0"/>
<stop offset="1" stop-color="#8C380D"/>
</linearGradient>
<clipPath id="clip0_1955_35853">
<rect width="86" height="34" fill="white"/>
</clipPath>
</defs>
</svg>
