<svg width="142" height="30" viewBox="0 0 142 30" fill="none" xmlns="http://www.w3.org/2000/svg">
<path d="M42.6001 23.0118H32.9062V12.4443H42.6001C45.396 12.4443 46.2164 13.2891 46.2164 15.8696V19.5866C46.2164 22.1824 45.396 23.0118 42.6001 23.0118ZM43.9562 19.602V15.8849C43.9562 14.8405 43.5879 14.5333 42.6001 14.5333H35.1832V20.9383H42.6001C43.6214 20.9383 43.9562 20.6464 43.9562 19.602Z" fill="white"/>
<path d="M57.8378 23.0118H51.7604C48.9644 23.0118 48.1607 22.1824 48.1607 19.5866V15.8696C48.1607 13.2738 48.9644 12.4443 51.7604 12.4443H57.8378C60.5836 12.4443 61.4374 13.2738 61.4374 15.8696V19.5866C61.4374 22.1824 60.5836 23.0118 57.8378 23.0118ZM59.1772 19.602V15.8849C59.1772 14.8405 58.8256 14.5333 57.8211 14.5333H51.7604C50.7558 14.5333 50.4042 14.8405 50.4042 15.8849V19.602C50.4042 20.6464 50.7223 20.9383 51.7604 20.9383H57.8211C58.8591 20.9383 59.1772 20.6464 59.1772 19.602Z" fill="white"/>
<path d="M76.9431 23.0118H74.867V16.0999L71.2172 23.0118H69.1244L65.4913 16.0999V23.0118H63.4152V12.4443H65.8931L70.1959 20.8922L74.5154 12.4443H76.9431V23.0118Z" fill="white"/>
<path d="M93.0794 23.0118H90.5011L89.0613 20.5543H82.1132L80.6733 23.0118H78.095L84.4069 12.4443H86.7675L93.0794 23.0118ZM88.2074 18.8954L85.5956 14.5179L82.9838 18.8954H88.2074Z" fill="white"/>
<path d="M96.5952 23.0118H94.335V12.4443H96.5952V23.0118Z" fill="white"/>
<path d="M111.14 23.0118H108.913L100.793 15.2244V23.0118H98.633V12.4443H101.061L108.963 20.0935V12.4443H111.14V23.0118Z" fill="white"/>
<path d="M124.17 23.0118H113.103V12.4443H124.17V14.5333H115.363V16.8679H118.854V18.5729H115.363V20.9383H124.17V23.0118Z" fill="white"/>
<path d="M138.997 23.0118H135.816L131.831 19.5559H128.198V23.0118H125.921V12.4443H135.33C137.775 12.4443 138.629 13.3198 138.629 15.716V16.3611C138.629 18.9415 137.574 19.5252 134.728 19.5252L138.997 23.0118ZM136.385 16.5761V16.0692C136.385 15.0401 136.251 14.5486 135.263 14.5486H128.198V17.8202H135.263C136.067 17.8202 136.385 17.4977 136.385 16.5761Z" fill="white"/>
<path d="M42.5996 11.9443C44.0147 11.9443 45.0982 12.1501 45.8037 12.8291C46.5155 13.5142 46.7168 14.5572 46.7168 15.8691V19.5869C46.7168 20.9057 46.5156 21.9501 45.8027 22.6338C45.0968 23.3107 44.0129 23.5117 42.5996 23.5117H32.4062V11.9443H42.5996ZM57.8379 11.9443C59.2286 11.9443 60.3057 12.1468 61.0127 12.8223C61.7267 13.5045 61.9375 14.5463 61.9375 15.8691V19.5869C61.9375 20.9097 61.7267 21.9515 61.0127 22.6338C60.3057 23.3093 59.2286 23.5117 57.8379 23.5117H51.7607C50.3478 23.5117 49.2666 23.3103 48.5645 22.6318C47.8566 21.9477 47.6612 20.9036 47.6611 19.5869V15.8691C47.6612 14.5525 47.8566 13.5084 48.5645 12.8242C49.2666 12.1457 50.3478 11.9443 51.7607 11.9443H57.8379ZM66.1992 11.9443L66.3389 12.2178L70.1963 19.791L74.0703 12.2168L74.21 11.9443H77.4434V23.1279L77.666 22.7559L83.9775 12.1875L84.123 11.9443H87.0518L87.1973 12.1875L93.5088 22.7559L93.835 23.3008V11.9443H97.0947V23.5117H90.2148L90.0693 23.2646L88.7754 21.0547H82.3994L81.1045 23.2646L80.96 23.5117H74.3672V18.1172L71.6592 23.2451L71.5186 23.5117H68.8223L68.6816 23.2441L65.9912 18.125V23.5117H62.915V11.9443H66.1992ZM101.263 11.9443L101.408 12.085L108.463 18.9131V11.9443H111.64V23.5117H108.712L108.566 23.373L101.293 16.3965V23.5117H98.1328V11.9443H101.263ZM124.67 11.9443V15.0332H115.863V16.3682H119.354V19.0732H115.863V20.4385H124.67V23.5117H112.604V11.9443H124.67ZM135.33 11.9443C136.588 11.9443 137.585 12.1648 138.249 12.8281C138.913 13.4918 139.129 14.4822 139.129 15.7158V16.3613C139.129 17.698 138.859 18.6957 138.047 19.3096C137.537 19.6948 136.865 19.8803 136.056 19.9639L139.313 22.625L140.399 23.5117H135.629L135.488 23.3896L131.645 20.0557H128.698V23.5117H125.421V11.9443H135.33ZM35.6836 20.4385H42.5996C43.0973 20.4385 43.2555 20.3585 43.3145 20.3018C43.3682 20.25 43.4561 20.1026 43.4561 19.6016V15.8848C43.456 15.3947 43.3637 15.2373 43.3018 15.1777C43.2351 15.1137 43.0708 15.0332 42.5996 15.0332H35.6836V20.4385ZM51.7607 15.0332C51.2784 15.0332 51.117 15.1143 51.0537 15.1758C50.994 15.2338 50.9043 15.3897 50.9043 15.8848V19.6016C50.9043 20.1078 50.9904 20.2535 51.042 20.3037C51.098 20.3578 51.2533 20.4385 51.7607 20.4385H57.8213C58.3295 20.4385 58.4843 20.3578 58.54 20.3037C58.5917 20.2535 58.6768 20.1078 58.6768 19.6016V15.8848C58.6767 15.3897 58.587 15.2338 58.5273 15.1758C58.4639 15.1143 58.3029 15.0332 57.8213 15.0332H51.7607ZM83.8643 18.3955H87.3271L85.5957 15.4941L83.8643 18.3955ZM128.698 17.3203H135.264C135.616 17.3203 135.72 17.2461 135.758 17.2051C135.807 17.1517 135.885 17.0024 135.885 16.5762V16.0693C135.885 15.8186 135.876 15.6237 135.854 15.4697C135.831 15.3154 135.799 15.2324 135.771 15.1875C135.747 15.1498 135.683 15.0489 135.264 15.0488H128.698V17.3203Z" stroke="black" stroke-opacity="0.3"/>
<path opacity="0.5" fill-rule="evenodd" clip-rule="evenodd" d="M15.0977 27.6636C19.3531 25.9944 24.366 24.7319 26.5947 25.4868C27.4693 25.8395 28.2526 26.2057 28.9404 26.561C27.3059 26.6044 26.0054 26.8714 24.8965 27.272C23.2159 27.8791 21.7965 28.6991 20.5898 29.4751C20.4897 29.5395 20.3809 29.6042 20.2666 29.6714C18.4593 29.3176 16.4241 28.8002 14.0684 28.0776C14.4103 27.9375 14.7533 27.7986 15.0977 27.6636ZM31.4922 28.1089C31.5474 28.1395 31.6025 28.1718 31.6582 28.2046C31.7815 28.3093 31.8438 28.3765 31.8438 28.3765C31.7408 28.2936 31.6226 28.2046 31.4922 28.1089ZM5.8252 24.4077C6.96747 24.1253 7.93913 23.9941 9.3584 24.1499C10.9647 24.3262 13.1503 24.8721 16.7705 26.0142C16.0981 26.2885 15.4272 26.5728 14.7451 26.8403C14.0734 27.1038 13.4053 27.3814 12.7422 27.6616C12.2348 27.4978 11.7132 27.3253 11.1768 27.1431C7.96633 26.0524 5.07035 25.4163 2.89062 25.5796C3.79119 25.1626 4.75624 24.7595 5.8252 24.4077ZM8.01953 23.8022C8.0731 23.806 8.17172 23.809 8.30176 23.811C8.09971 23.841 7.93556 23.8696 7.80664 23.8892C7.77095 23.8852 7.73613 23.8795 7.70215 23.8755C7.80695 23.8504 7.9128 23.8263 8.01953 23.8022Z" fill="#0A5F3F"/>
<path opacity="0.9" d="M8.17188 23.2008L8.95867 23.1103L9.42487 23.0203L10.5687 22.8901L18.0556 24.4106V25.5545C13.1422 23.6868 10.77 23.2008 8.17188 23.2008Z" fill="#0C774F"/>
<path opacity="0.8" d="M25.1172 24.0538L25.1171 24.0195C24.1361 23.887 23.5822 23.8633 22.5872 23.9127L18.0576 24.5366V25.5541C22.6512 24.0781 22.5872 24.0195 25.1172 24.0538Z" fill="#0A4C33"/>
<path d="M8.10938 23.2193C11.239 22.6406 14.5188 22.349 17.634 22.6099C20.4825 22.8484 23.0425 23.3763 25.2745 24.0372C22.5403 23.7171 20.2806 24.3658 18.0631 25.2339C13.0943 23.2369 9.90903 23.0756 8.10938 23.2193Z" fill="url(#paint0_linear_1061_32395)"/>
<g opacity="0.2" style="mix-blend-mode:screen">
<path d="M18.1073 25.0737C18.1267 25.0257 18.146 24.9777 18.1654 24.9297C18.0136 24.8698 17.8522 24.8097 17.6962 24.7539C14.8528 23.8003 11.8746 23.0447 8.86338 23.2058C8.69757 23.2196 8.52967 23.2386 8.36719 23.2631C8.36719 23.2631 8.36719 23.2631 8.36719 23.2631C8.53004 23.2412 8.69811 23.2248 8.86396 23.2136C11.8721 23.0991 14.8331 23.9005 17.6454 24.8924C17.7993 24.9502 17.9584 25.0122 18.1073 25.0737Z" fill="url(#paint1_linear_1061_32395)"/>
</g>
<g opacity="0.2" style="mix-blend-mode:screen">
<path d="M18.029 24.9222C18.0461 24.971 18.0632 25.0199 18.0803 25.0687C18.1953 25.0272 18.3078 24.9875 18.4233 24.948C20.483 24.2475 22.675 23.8518 24.8598 24.0088C24.9813 24.0181 25.1027 24.0294 25.2225 24.0427C25.2225 24.0427 25.2225 24.0427 25.2225 24.0427C25.103 24.0269 24.9818 24.013 24.8605 24.0011C22.6777 23.7972 20.4663 24.1465 18.3771 24.8079C18.2599 24.8452 18.1457 24.8827 18.029 24.9222Z" fill="url(#paint2_linear_1061_32395)"/>
</g>
<path d="M25.5869 2.39771C27.054 0.930036 29.4323 0.930094 30.8994 2.39771C32.3666 3.8659 32.3666 6.24689 30.8994 7.71509L20.6094 18.011L20.6113 18.0129L20.4814 18.1428L19.4414 19.1838C17.8715 20.7545 15.3268 20.7545 13.7568 19.1838H13.7559L7.25684 12.679C6.14904 11.5703 6.14897 9.77296 7.25684 8.66431C8.36473 7.55584 10.1606 7.5559 11.2686 8.66431L15.2959 12.6946L25.5869 2.39771Z" stroke="black" stroke-opacity="0.8" stroke-width="0.367399"/>
<g filter="url(#filter0_ii_1061_32395)">
<path d="M25.7165 2.52803C27.112 1.1316 29.3745 1.13161 30.7699 2.52803C32.1654 3.9245 32.1654 6.18864 30.7699 7.58512L20.3504 18.0121L20.3516 18.0133L19.3119 19.0538C17.8137 20.5531 15.3845 20.5531 13.8863 19.0538L7.38654 12.5495C6.35032 11.5126 6.35032 9.83127 7.38654 8.79431C8.42275 7.75736 10.1027 7.75738 11.139 8.79431L15.2968 12.955L25.7165 2.52803Z" fill="url(#paint3_linear_1061_32395)"/>
</g>
<g filter="url(#filter1_dii_1061_32395)">
<path d="M21.9728 16.3908L19.7975 18.5658C20.4068 17.8629 20.3758 16.7965 19.7043 16.125C19.0019 15.423 17.8663 15.4203 17.1677 16.1188C17.1512 16.1354 17.1366 16.1542 17.1208 16.1712L17.1173 16.1678L17.1166 16.1685C16.4181 16.8666 15.2866 16.8683 14.5898 16.1719C13.8931 15.4752 13.8942 14.3433 14.5925 13.6448C14.601 13.6363 14.6109 13.6288 14.6195 13.6206L17.1318 11.1086L17.138 11.1149L25.7151 2.52803C27.1106 1.13103 29.3734 1.13111 30.7689 2.52803C32.1643 3.92507 32.1643 6.19083 30.7689 7.58787L21.9742 16.3922L21.9728 16.3908Z" fill="#008250"/>
<path d="M21.9728 16.3908L19.7975 18.5658C20.4068 17.8629 20.3758 16.7965 19.7043 16.125C19.0019 15.423 17.8663 15.4203 17.1677 16.1188C17.1512 16.1354 17.1366 16.1542 17.1208 16.1712L17.1173 16.1678L17.1166 16.1685C16.4181 16.8666 15.2866 16.8683 14.5898 16.1719C13.8931 15.4752 13.8942 14.3433 14.5925 13.6448C14.601 13.6363 14.6109 13.6288 14.6195 13.6206L17.1318 11.1086L17.138 11.1149L25.7151 2.52803C27.1106 1.13103 29.3734 1.13111 30.7689 2.52803C32.1643 3.92507 32.1643 6.19083 30.7689 7.58787L21.9742 16.3922L21.9728 16.3908Z" fill="url(#paint4_linear_1061_32395)" fill-opacity="0.4"/>
</g>
<defs>
<filter id="filter0_ii_1061_32395" x="6.60938" y="1.48071" width="25.2109" height="18.6975" filterUnits="userSpaceOnUse" color-interpolation-filters="sRGB">
<feFlood flood-opacity="0" result="BackgroundImageFix"/>
<feBlend mode="normal" in="SourceGraphic" in2="BackgroundImageFix" result="shape"/>
<feColorMatrix in="SourceAlpha" type="matrix" values="0 0 0 0 0 0 0 0 0 0 0 0 0 0 0 0 0 0 127 0" result="hardAlpha"/>
<feOffset dy="-0.122466"/>
<feComposite in2="hardAlpha" operator="arithmetic" k2="-1" k3="1"/>
<feColorMatrix type="matrix" values="0 0 0 0 0 0 0 0 0 0 0 0 0 0 0 0 0 0 0.45 0"/>
<feBlend mode="normal" in2="shape" result="effect1_innerShadow_1061_32395"/>
<feColorMatrix in="SourceAlpha" type="matrix" values="0 0 0 0 0 0 0 0 0 0 0 0 0 0 0 0 0 0 127 0" result="hardAlpha"/>
<feOffset dy="0.122466"/>
<feComposite in2="hardAlpha" operator="arithmetic" k2="-1" k3="1"/>
<feColorMatrix type="matrix" values="0 0 0 0 1 0 0 0 0 1 0 0 0 0 1 0 0 0 0.1 0"/>
<feBlend mode="normal" in2="effect1_innerShadow_1061_32395" result="effect2_innerShadow_1061_32395"/>
</filter>
<filter id="filter1_dii_1061_32395" x="14.0703" y="1.48022" width="17.7422" height="17.2082" filterUnits="userSpaceOnUse" color-interpolation-filters="sRGB">
<feFlood flood-opacity="0" result="BackgroundImageFix"/>
<feColorMatrix in="SourceAlpha" type="matrix" values="0 0 0 0 0 0 0 0 0 0 0 0 0 0 0 0 0 0 127 0" result="hardAlpha"/>
<feOffset dy="0.122466"/>
<feComposite in2="hardAlpha" operator="out"/>
<feColorMatrix type="matrix" values="0 0 0 0 0 0 0 0 0 0 0 0 0 0 0 0 0 0 0.35 0"/>
<feBlend mode="normal" in2="BackgroundImageFix" result="effect1_dropShadow_1061_32395"/>
<feBlend mode="normal" in="SourceGraphic" in2="effect1_dropShadow_1061_32395" result="shape"/>
<feColorMatrix in="SourceAlpha" type="matrix" values="0 0 0 0 0 0 0 0 0 0 0 0 0 0 0 0 0 0 127 0" result="hardAlpha"/>
<feOffset dy="-0.122466"/>
<feComposite in2="hardAlpha" operator="arithmetic" k2="-1" k3="1"/>
<feColorMatrix type="matrix" values="0 0 0 0 0 0 0 0 0 0 0 0 0 0 0 0 0 0 0.25 0"/>
<feBlend mode="normal" in2="shape" result="effect2_innerShadow_1061_32395"/>
<feColorMatrix in="SourceAlpha" type="matrix" values="0 0 0 0 0 0 0 0 0 0 0 0 0 0 0 0 0 0 127 0" result="hardAlpha"/>
<feOffset dy="0.122466"/>
<feComposite in2="hardAlpha" operator="arithmetic" k2="-1" k3="1"/>
<feColorMatrix type="matrix" values="0 0 0 0 1 0 0 0 0 1 0 0 0 0 1 0 0 0 0.25 0"/>
<feBlend mode="normal" in2="effect2_innerShadow_1061_32395" result="effect3_innerShadow_1061_32395"/>
</filter>
<linearGradient id="paint0_linear_1061_32395" x1="8.10938" y1="23.8738" x2="25.2745" y2="23.8738" gradientUnits="userSpaceOnUse">
<stop stop-color="#14B879"/>
<stop offset="1" stop-color="#095236"/>
</linearGradient>
<linearGradient id="paint1_linear_1061_32395" x1="8.57219" y1="24.0052" x2="18.0904" y2="24.0052" gradientUnits="userSpaceOnUse">
<stop stop-color="white" stop-opacity="0"/>
<stop offset="0.5" stop-color="white"/>
<stop offset="1" stop-color="white" stop-opacity="0"/>
</linearGradient>
<linearGradient id="paint2_linear_1061_32395" x1="18.0547" y1="24.4079" x2="25.1152" y2="24.4079" gradientUnits="userSpaceOnUse">
<stop stop-color="white" stop-opacity="0"/>
<stop offset="0.5" stop-color="white"/>
<stop offset="1" stop-color="white" stop-opacity="0"/>
</linearGradient>
<linearGradient id="paint3_linear_1061_32395" x1="19.213" y1="1.48071" x2="19.213" y2="20.1783" gradientUnits="userSpaceOnUse">
<stop stop-color="#FB9300"/>
<stop offset="1" stop-color="#653B00"/>
</linearGradient>
<linearGradient id="paint4_linear_1061_32395" x1="20.4058" y1="18.2499" x2="19.2872" y2="8.5708" gradientUnits="userSpaceOnUse">
<stop stop-color="#0C7344"/>
<stop offset="1" stop-color="#2BCD8F"/>
</linearGradient>
</defs>
</svg>
