<svg width="150" height="33" viewBox="0 0 150 33" fill="none" xmlns="http://www.w3.org/2000/svg">
<path d="M46.0048 27.316H35.5469V14.7715H46.0048C49.0212 14.7715 49.9063 15.7743 49.9063 18.8375V23.25C49.9063 26.3314 49.0212 27.316 46.0048 27.316ZM47.4679 23.2682V18.8557C47.4679 17.6159 47.0705 17.2512 46.0048 17.2512H38.0033V24.8545H46.0048C47.1066 24.8545 47.4679 24.5081 47.4679 23.2682Z" fill="#27241D"/>
<path d="M62.4438 27.316H55.8872C52.8708 27.316 52.0039 26.3314 52.0039 23.25V18.8375C52.0039 15.7561 52.8708 14.7715 55.8872 14.7715H62.4438C65.4059 14.7715 66.3271 15.7561 66.3271 18.8375V23.25C66.3271 26.3314 65.4059 27.316 62.4438 27.316ZM63.8887 23.2682V18.8557C63.8887 17.6159 63.5094 17.2512 62.4257 17.2512H55.8872C54.8035 17.2512 54.4242 17.6159 54.4242 18.8557V23.2682C54.4242 24.5081 54.7674 24.8545 55.8872 24.8545H62.4257C63.5455 24.8545 63.8887 24.5081 63.8887 23.2682Z" fill="#27241D"/>
<path d="M83.055 27.316H80.8153V19.111L76.8778 27.316H74.62L70.7005 19.111V27.316H68.4608V14.7715H71.134L75.776 24.7998L80.436 14.7715H83.055V27.316Z" fill="#27241D"/>
<path d="M100.463 27.316H97.6818L96.1285 24.3987H88.6327L87.0793 27.316H84.2978L91.1072 14.7715H93.6539L100.463 27.316ZM95.2073 22.4295L92.3896 17.233L89.5719 22.4295H95.2073Z" fill="#27241D"/>
<path d="M104.256 27.316H101.818V14.7715H104.256V27.316Z" fill="#27241D"/>
<path d="M119.947 27.316H117.545L108.785 18.0717V27.316H106.455V14.7715H109.074L117.599 23.8517V14.7715H119.947V27.316Z" fill="#27241D"/>
<path d="M134.005 27.316H122.065V14.7715H134.005V17.2512H124.504V20.0227H128.27V22.0466H124.504V24.8545H134.005V27.316Z" fill="#27241D"/>
<path d="M150 27.316H146.569L142.27 23.2135H138.35V27.316H135.894V14.7715H146.045C148.682 14.7715 149.603 15.8108 149.603 18.6552V19.421C149.603 22.4842 148.465 23.177 145.395 23.177L150 27.316ZM147.183 19.6762V19.0745C147.183 17.8529 147.038 17.2694 145.973 17.2694H138.35V21.1531H145.973C146.84 21.1531 147.183 20.7702 147.183 19.6762Z" fill="#27241D"/>
<path opacity="0.5" d="M16.2881 29.8535C20.8777 28.0529 26.2838 26.6899 28.6895 27.5029C29.6341 27.8839 30.4799 28.2802 31.2227 28.6641C29.4583 28.7107 28.0552 28.9992 26.8584 29.4316C25.0449 30.087 23.513 30.972 22.2109 31.8096C22.1029 31.8791 21.9856 31.948 21.8623 32.0205C19.9124 31.6388 17.7165 31.0805 15.1748 30.3008C15.5445 30.1492 15.9158 29.9996 16.2881 29.8535ZM33.9795 30.3379C34.0386 30.3708 34.0977 30.4053 34.1572 30.4404C34.288 30.5519 34.3535 30.623 34.3535 30.623C34.2437 30.5346 34.1183 30.4399 33.9795 30.3379ZM6.2793 26.3418C7.51375 26.0363 8.5625 25.8942 10.0957 26.0625C11.8286 26.2528 14.1865 26.8409 18.0918 28.0732C17.3667 28.3692 16.6438 28.6762 15.9082 28.9648C15.1821 29.2497 14.4589 29.5486 13.7422 29.8516C13.1947 29.6747 12.6316 29.4887 12.0527 29.292C8.59105 28.1157 5.46837 27.4294 3.11719 27.6045C4.08761 27.155 5.12769 26.7211 6.2793 26.3418ZM8.65332 25.6855C8.71438 25.6894 8.82075 25.6932 8.95898 25.6953C8.73965 25.7278 8.56161 25.7591 8.42188 25.7803C8.38322 25.776 8.34539 25.77 8.30859 25.7656C8.42245 25.7384 8.53734 25.7116 8.65332 25.6855Z" fill="#0A5F3F"/>
<path opacity="0.9" d="M8.82031 25.0364L9.66916 24.9388L10.1721 24.8416L11.4061 24.7012L19.4836 26.342V27.5765C14.1826 25.5609 11.6234 25.0364 8.82031 25.0364Z" fill="#0C774F"/>
<path opacity="0.8" d="M27.0977 25.9572L27.0976 25.9202C26.0392 25.7772 25.4415 25.7517 24.3682 25.805L19.4813 26.4782V27.5764C24.4372 25.9835 24.3682 25.9202 27.0977 25.9572Z" fill="#0A4C33"/>
<path d="M8.73828 25.0573C12.1148 24.4328 15.6532 24.1182 19.0142 24.3997C22.0873 24.6571 24.8492 25.2268 27.2573 25.94C24.3075 25.5946 21.8695 26.2946 19.4771 27.2315C14.1164 25.0764 10.6799 24.9023 8.73828 25.0573Z" fill="url(#paint0_linear_1474_32438)"/>
<g opacity="0.2" style="mix-blend-mode:screen">
<path d="M19.5236 27.0781C19.5499 27.0128 19.5763 26.9475 19.6027 26.8821C19.4385 26.8178 19.264 26.7531 19.0955 26.6932C16.0235 25.6695 12.8079 24.8605 9.55869 25.041C9.3798 25.0563 9.19869 25.0771 9.02344 25.1039C9.19919 25.0806 9.38054 25.0633 9.55948 25.0515C12.8045 24.9346 15.9966 25.8059 19.0263 26.8817C19.192 26.9443 19.3633 27.0116 19.5236 27.0781Z" fill="url(#paint1_linear_1474_32438)"/>
</g>
<g opacity="0.2" style="mix-blend-mode:screen">
<path d="M19.4456 26.8745C19.4688 26.941 19.4921 27.0075 19.5154 27.074C19.6391 27.0288 19.7604 26.9857 19.8847 26.9428C22.1027 26.1813 24.4648 25.7478 26.8222 25.9106C26.9533 25.9203 27.0843 25.9321 27.2136 25.9461C27.0847 25.9286 26.954 25.9133 26.8231 25.9001C24.4685 25.6735 22.0799 26.0439 19.8218 26.7521C19.6951 26.7921 19.5716 26.8322 19.4456 26.8745Z" fill="url(#paint2_linear_1474_32438)"/>
</g>
<path d="M27.5664 2.54883C29.1696 0.944438 31.769 0.944384 33.3721 2.54883C34.9751 4.15346 34.9751 6.75572 33.3721 8.36035L22.3066 19.4355L22.3086 19.4375L21.0098 20.7363C19.2957 22.4521 16.5168 22.452 14.8027 20.7363L7.79004 13.7178C6.57475 12.5012 6.5748 10.5282 7.79004 9.31152C9.00557 8.09479 10.9768 8.09494 12.1924 9.31152L16.501 13.624L27.5664 2.54883Z" stroke="black" stroke-opacity="0.8" stroke-width="0.499974"/>
<g filter="url(#filter0_ii_1474_32438)">
<path d="M27.7431 2.72593C29.2487 1.21895 31.6896 1.21897 33.1951 2.72593C34.7007 4.23296 34.7007 6.67635 33.1951 8.18338L21.9537 19.4359L21.955 19.4372L20.8333 20.5601C19.2169 22.178 16.5962 22.178 14.9798 20.5601L7.96737 13.5408C6.84942 12.4218 6.84942 10.6074 7.96737 9.48831C9.08531 8.36926 10.8978 8.36929 12.0158 9.48831L16.5016 13.9784L27.7431 2.72593Z" fill="#D0963C"/>
<path d="M27.7431 2.72593C29.2487 1.21895 31.6896 1.21897 33.1951 2.72593C34.7007 4.23296 34.7007 6.67635 33.1951 8.18338L21.9537 19.4359L21.955 19.4372L20.8333 20.5601C19.2169 22.178 16.5962 22.178 14.9798 20.5601L7.96737 13.5408C6.84942 12.4218 6.84942 10.6074 7.96737 9.48831C9.08531 8.36926 10.8978 8.36929 12.0158 9.48831L16.5016 13.9784L27.7431 2.72593Z" fill="url(#paint3_linear_1474_32438)" style="mix-blend-mode:multiply"/>
</g>
<g filter="url(#filter1_dii_1474_32438)">
<path d="M23.7075 17.6843L21.3577 20.0343C22.0157 19.2757 21.9831 18.1239 21.2583 17.3991C20.5006 16.6415 19.2749 16.6386 18.5212 17.3922C18.5032 17.4102 18.4872 17.4303 18.4701 17.4488L18.468 17.4467C17.7142 18.1992 16.4941 18.2003 15.7427 17.4488C14.9916 16.6973 14.9938 15.4782 15.7461 14.7245L15.7454 14.7238L18.4825 11.9863L18.4936 11.9974L27.7496 2.72781C29.2552 1.22029 31.6963 1.22021 33.2018 2.72781C34.7071 4.23541 34.7071 6.67988 33.2018 8.18749L23.713 17.6898L23.7075 17.6843Z" fill="#008250"/>
<path d="M23.7075 17.6843L21.3577 20.0343C22.0157 19.2757 21.9831 18.1239 21.2583 17.3991C20.5006 16.6415 19.2749 16.6386 18.5212 17.3922C18.5032 17.4102 18.4872 17.4303 18.4701 17.4488L18.468 17.4467C17.7142 18.1992 16.4941 18.2003 15.7427 17.4488C14.9916 16.6973 14.9938 15.4782 15.7461 14.7245L15.7454 14.7238L18.4825 11.9863L18.4936 11.9974L27.7496 2.72781C29.2552 1.22029 31.6963 1.22021 33.2018 2.72781C34.7071 4.23541 34.7071 6.67988 33.2018 8.18749L23.713 17.6898L23.7075 17.6843Z" fill="url(#paint4_linear_1474_32438)" fill-opacity="0.4"/>
</g>
<defs>
<filter id="filter0_ii_1474_32438" x="7.12891" y="1.5957" width="27.1953" height="20.1777" filterUnits="userSpaceOnUse" color-interpolation-filters="sRGB">
<feFlood flood-opacity="0" result="BackgroundImageFix"/>
<feBlend mode="normal" in="SourceGraphic" in2="BackgroundImageFix" result="shape"/>
<feColorMatrix in="SourceAlpha" type="matrix" values="0 0 0 0 0 0 0 0 0 0 0 0 0 0 0 0 0 0 127 0" result="hardAlpha"/>
<feOffset dy="-0.166658"/>
<feComposite in2="hardAlpha" operator="arithmetic" k2="-1" k3="1"/>
<feColorMatrix type="matrix" values="0 0 0 0 0 0 0 0 0 0 0 0 0 0 0 0 0 0 0.45 0"/>
<feBlend mode="normal" in2="shape" result="effect1_innerShadow_1474_32438"/>
<feColorMatrix in="SourceAlpha" type="matrix" values="0 0 0 0 0 0 0 0 0 0 0 0 0 0 0 0 0 0 127 0" result="hardAlpha"/>
<feOffset dy="0.166658"/>
<feComposite in2="hardAlpha" operator="arithmetic" k2="-1" k3="1"/>
<feColorMatrix type="matrix" values="0 0 0 0 1 0 0 0 0 1 0 0 0 0 1 0 0 0 0.1 0"/>
<feBlend mode="normal" in2="effect1_innerShadow_1474_32438" result="effect2_innerShadow_1474_32438"/>
</filter>
<filter id="filter1_dii_1474_32438" x="15.1797" y="1.59668" width="19.1523" height="18.6042" filterUnits="userSpaceOnUse" color-interpolation-filters="sRGB">
<feFlood flood-opacity="0" result="BackgroundImageFix"/>
<feColorMatrix in="SourceAlpha" type="matrix" values="0 0 0 0 0 0 0 0 0 0 0 0 0 0 0 0 0 0 127 0" result="hardAlpha"/>
<feOffset dy="0.166658"/>
<feComposite in2="hardAlpha" operator="out"/>
<feColorMatrix type="matrix" values="0 0 0 0 0 0 0 0 0 0 0 0 0 0 0 0 0 0 0.35 0"/>
<feBlend mode="normal" in2="BackgroundImageFix" result="effect1_dropShadow_1474_32438"/>
<feBlend mode="normal" in="SourceGraphic" in2="effect1_dropShadow_1474_32438" result="shape"/>
<feColorMatrix in="SourceAlpha" type="matrix" values="0 0 0 0 0 0 0 0 0 0 0 0 0 0 0 0 0 0 127 0" result="hardAlpha"/>
<feOffset dy="-0.166658"/>
<feComposite in2="hardAlpha" operator="arithmetic" k2="-1" k3="1"/>
<feColorMatrix type="matrix" values="0 0 0 0 0 0 0 0 0 0 0 0 0 0 0 0 0 0 0.25 0"/>
<feBlend mode="normal" in2="shape" result="effect2_innerShadow_1474_32438"/>
<feColorMatrix in="SourceAlpha" type="matrix" values="0 0 0 0 0 0 0 0 0 0 0 0 0 0 0 0 0 0 127 0" result="hardAlpha"/>
<feOffset dy="0.166658"/>
<feComposite in2="hardAlpha" operator="arithmetic" k2="-1" k3="1"/>
<feColorMatrix type="matrix" values="0 0 0 0 1 0 0 0 0 1 0 0 0 0 1 0 0 0 0.25 0"/>
<feBlend mode="normal" in2="effect2_innerShadow_1474_32438" result="effect3_innerShadow_1474_32438"/>
</filter>
<linearGradient id="paint0_linear_1474_32438" x1="8.73828" y1="25.7637" x2="27.2573" y2="25.7637" gradientUnits="userSpaceOnUse">
<stop stop-color="#14B879"/>
<stop offset="1" stop-color="#095236"/>
</linearGradient>
<linearGradient id="paint1_linear_1474_32438" x1="9.24461" y1="25.9047" x2="19.5136" y2="25.9047" gradientUnits="userSpaceOnUse">
<stop stop-color="white" stop-opacity="0"/>
<stop offset="0.5" stop-color="white"/>
<stop offset="1" stop-color="white" stop-opacity="0"/>
</linearGradient>
<linearGradient id="paint2_linear_1474_32438" x1="19.4805" y1="26.3402" x2="27.0979" y2="26.3402" gradientUnits="userSpaceOnUse">
<stop stop-color="white" stop-opacity="0"/>
<stop offset="0.5" stop-color="white"/>
<stop offset="1" stop-color="white" stop-opacity="0"/>
</linearGradient>
<linearGradient id="paint3_linear_1474_32438" x1="19.6721" y1="19.9507" x2="10.4385" y2="10.7186" gradientUnits="userSpaceOnUse">
<stop stop-color="#BEB3A1"/>
<stop offset="1" stop-color="#D4CBBD" stop-opacity="0"/>
</linearGradient>
<linearGradient id="paint4_linear_1474_32438" x1="22.021" y1="19.6947" x2="20.8152" y2="9.24622" gradientUnits="userSpaceOnUse">
<stop stop-color="#0C7344"/>
<stop offset="1" stop-color="#2BCD8F"/>
</linearGradient>
</defs>
</svg>
